<svg width="32" height="32" viewBox="0 0 32 32" fill="none" xmlns="http://www.w3.org/2000/svg">
<path d="M16.0001 1.66669C13.1652 1.66669 10.394 2.50732 8.03691 4.08229C5.67981 5.65726 3.84267 7.89582 2.75781 10.5149C1.67296 13.134 1.38911 16.0159 1.94217 18.7963C2.49522 21.5767 3.86034 24.1307 5.86489 26.1352C7.86944 28.1398 10.4234 29.5049 13.2038 30.0579C15.9842 30.611 18.8661 30.3272 21.4852 29.2423C24.1043 28.1574 26.3429 26.3203 27.9178 23.9632C29.4928 21.6061 30.3334 18.8349 30.3334 16C30.3299 12.1997 28.8186 8.55598 26.1314 5.86872C23.4441 3.18147 19.8004 1.67022 16.0001 1.66669ZM10.2534 10.2534C10.4682 10.0344 10.7244 9.86055 11.0071 9.74184C11.2899 9.62313 11.5934 9.56199 11.9001 9.56199C12.2067 9.56199 12.5103 9.62313 12.793 9.74184C13.0758 9.86055 13.332 10.0344 13.5468 10.2534C13.7858 10.4642 13.9792 10.7217 14.1149 11.0101C14.2506 11.2985 14.3258 11.6117 14.3358 11.9303C14.3458 12.2489 14.2904 12.5661 14.173 12.8625C14.0557 13.1589 13.8789 13.428 13.6535 13.6534C13.4281 13.8788 13.1589 14.0556 12.8626 14.173C12.5662 14.2903 12.249 14.3457 11.9304 14.3357C11.6118 14.3257 11.2986 14.2505 11.0102 14.1148C10.7218 13.9791 10.4642 13.7858 10.2534 13.5467C10.0345 13.332 9.86062 13.0757 9.74191 12.793C9.6232 12.5102 9.56206 12.2067 9.56206 11.9C9.56206 11.5934 9.6232 11.2898 9.74191 11.0071C9.86062 10.7243 10.0345 10.4681 10.2534 10.2534ZM12.9201 21.96C12.7959 22.1172 12.6379 22.2443 12.4579 22.332C12.2779 22.4197 12.0804 22.4658 11.8801 22.4667C11.6278 22.4676 11.3804 22.3968 11.1667 22.2627C10.953 22.1285 10.7817 21.9365 10.6728 21.7089C10.5639 21.4813 10.5218 21.2275 10.5514 20.9769C10.581 20.7263 10.6811 20.4893 10.8401 20.2934L19.0668 10.04C19.2868 9.76529 19.6064 9.58869 19.9561 9.54872C20.3058 9.50876 20.6571 9.60868 20.9334 9.82669C21.0714 9.93576 21.1864 10.071 21.2719 10.2247C21.3573 10.3785 21.4115 10.5475 21.4313 10.7223C21.4512 10.897 21.4362 11.074 21.3874 11.2429C21.3386 11.4119 21.2568 11.5695 21.1468 11.7067L12.9201 21.96ZM21.7334 21.7467C21.5187 21.9656 21.2625 22.1395 20.9797 22.2582C20.697 22.3769 20.3934 22.4381 20.0868 22.4381C19.7801 22.4381 19.4765 22.3769 19.1938 22.2582C18.9111 22.1395 18.6548 21.9656 18.4401 21.7467C18.0476 21.3015 17.8394 20.7235 17.8581 20.1303C17.8767 19.5371 18.1207 18.9733 18.5403 18.5536C18.96 18.1339 19.5238 17.89 20.117 17.8713C20.7102 17.8527 21.2883 18.0608 21.7334 18.4534C21.9532 18.6672 22.1281 18.9227 22.248 19.205C22.3678 19.4873 22.4302 19.7906 22.4315 20.0972C22.4327 20.4039 22.3728 20.7077 22.2552 20.9909C22.1377 21.2741 21.9648 21.5311 21.7468 21.7467H21.7334Z" fill="#C0B9BB"/>
</svg>
