<svg width="40" height="12" viewBox="0 0 40 12" fill="none" xmlns="http://www.w3.org/2000/svg">
<path fill-rule="evenodd" clip-rule="evenodd" d="M26.0189 2.42852C27.056 2.41222 27.8077 2.63878 28.3915 2.87348L28.6777 3.00795L29.1065 0.48815C28.4787 0.25263 27.4946 0 26.2667 0C23.1342 0 20.9263 1.57691 20.9092 3.83674C20.8888 5.5066 22.4819 6.4388 23.6854 6.9955C24.9206 7.5659 25.3348 7.9286 25.3291 8.4379C25.3193 9.2162 24.3442 9.5731 23.4334 9.5731C22.164 9.5731 21.4897 9.3979 20.4485 8.9643L20.04 8.7785L19.594 11.3806C20.336 11.7058 21.7049 11.9853 23.1261 12C26.4583 12 28.6239 10.4418 28.6467 8.0272C28.6606 6.7061 27.8151 5.6981 25.983 4.8709C24.8741 4.3314 24.1958 3.97283 24.2023 3.42845C24.2023 2.94519 24.7779 2.42852 26.0189 2.42852ZM5.76126 0.10023C6.42406 0.12549 6.95817 0.33656 7.14247 1.04475L8.21136 6.1805C7.16116 3.49364 4.63036 1.25908 0.805664 0.33167L0.846367 0.10023H5.76126ZM16.4241 0.19957L14.442 11.8255H17.6121L19.5958 0.19957H16.4241ZM11.7792 0.21276L8.67437 8.1413L8.34336 6.9442C7.73106 5.5017 5.99277 3.43015 3.95197 2.12461L6.79097 11.82L10.1453 11.8143L15.1376 0.21032L11.7792 0.21276ZM34.7885 0.21289H37.2378L39.8028 11.8323H36.8619C36.8619 11.8323 36.57 10.4966 36.4754 10.0908C36.2316 10.0908 35.2109 10.0894 34.2498 10.0881C33.395 10.087 32.5874 10.0859 32.4159 10.0859C32.2927 10.3996 31.7497 11.8323 31.7497 11.8323H28.4207L33.1277 1.17778C33.4619 0.41989 34.0278 0.21289 34.7885 0.21289ZM34.5912 4.4571C34.5912 4.4571 33.5891 7.0388 33.3282 7.7063H35.9618L35.2271 4.3495L35.0135 3.34715C34.9334 3.56122 34.8265 3.83906 34.7402 4.0633C34.6501 4.2975 34.5824 4.4733 34.5912 4.4571Z" fill="white"/>
</svg>
