<svg width="20" height="20" viewBox="0 0 20 20" fill="none" xmlns="http://www.w3.org/2000/svg">
<path d="M19.0759 2.80899C19.3188 2.55752 19.4532 2.22071 19.4501 1.87112C19.4471 1.52152 19.3069 1.18711 19.0597 0.939894C18.8124 0.692684 18.478 0.552458 18.1284 0.54942C17.7788 0.546382 17.442 0.680775 17.1906 0.923652L9.9999 8.11432L2.80923 0.923652C2.68623 0.796305 2.53911 0.694729 2.37644 0.624851C2.21376 0.554972 2.0388 0.51819 1.86177 0.516652C1.68473 0.515113 1.50915 0.548849 1.34529 0.61589C1.18143 0.682931 1.03256 0.781935 0.90737 0.907126C0.782179 1.03232 0.683175 1.18119 0.616134 1.34505C0.549093 1.50891 0.515358 1.68448 0.516896 1.86152C0.518434 2.03856 0.555216 2.21352 0.625095 2.37619C0.694974 2.53886 0.796549 2.68599 0.923896 2.80899L8.11456 9.99965L0.923896 17.1903C0.796549 17.3133 0.694974 17.4604 0.625095 17.6231C0.555216 17.7858 0.518434 17.9607 0.516896 18.1378C0.515358 18.3148 0.549093 18.4904 0.616134 18.6543C0.683175 18.8181 0.782179 18.967 0.90737 19.0922C1.03256 19.2174 1.18143 19.3164 1.34529 19.3834C1.50915 19.4505 1.68473 19.4842 1.86177 19.4827C2.0388 19.4811 2.21376 19.4443 2.37644 19.3745C2.53911 19.3046 2.68623 19.203 2.80923 19.0757L9.9999 11.885L17.1906 19.0757C17.442 19.3185 17.7788 19.4529 18.1284 19.4499C18.478 19.4468 18.8124 19.3066 19.0597 19.0594C19.3069 18.8122 19.4471 18.4778 19.4501 18.1282C19.4532 17.7786 19.3188 17.4418 19.0759 17.1903L11.8852 9.99965L19.0759 2.80899Z" fill="#32171F"/>
</svg>
