<svg width="32" height="32" viewBox="0 0 32 32" fill="none" xmlns="http://www.w3.org/2000/svg">
<path fill-rule="evenodd" clip-rule="evenodd" d="M18.4853 5.29289C18.0948 4.90237 17.4616 4.90237 17.0711 5.29289C16.6805 5.68342 16.6805 6.31658 17.0711 6.70711L21.9497 11.5858H12V11.6047C8.64378 11.86 6 14.6641 6 18.0857C6 21.5074 8.64378 24.3115 12 24.5668V24.5858H15C15.5523 24.5858 16 24.138 16 23.5858C16 23.0335 15.5523 22.5858 15 22.5858H12V22.5583C9.75002 22.3096 8 20.402 8 18.0857C8 15.7695 9.75002 13.8619 12 13.6132V13.5858H21.5061L17.0711 18.0208C16.6805 18.4113 16.6805 19.0445 17.0711 19.435C17.4616 19.8256 18.0948 19.8256 18.4853 19.435L24.1421 13.7782L25.5563 12.364L24.1421 10.9497L18.4853 5.29289Z" fill="#837378"/>
</svg>
