<svg width="45" height="12" viewBox="0 0 45 12" fill="none" xmlns="http://www.w3.org/2000/svg">
<path fill-rule="evenodd" clip-rule="evenodd" d="M4.65298 0.00205083C5.04898 -0.000299172 6.22797 -0.105499 6.72797 1.56431C7.06397 2.68911 7.59998 4.5316 8.33498 7.0918H8.63398C9.42298 4.3927 9.96498 2.55017 10.259 1.56431C10.764 -0.122899 12.025 0.00208087 12.53 0.00208087L16.423 0.00209088V12H12.455V4.9294H12.189L9.97697 12H6.99197L4.77998 4.9242H4.51398V12H0.546875V0.00209088L4.65298 0.00205083ZM22.12 0.00209088V7.0779H22.437L25.127 1.25951C25.649 0.101631 26.762 0.00209088 26.762 0.00209088H30.602V12H26.551V4.9242H26.235L23.597 10.7426C23.075 11.8952 21.909 12 21.909 12H18.07V0.00209088H22.12ZM44.602 5.7036C44.037 7.2899 42.262 8.426 40.298 8.426H36.05V12H32.199V5.7036H44.602Z" fill="white"/>
<path fill-rule="evenodd" clip-rule="evenodd" d="M40.485 0.00219727H31.998C32.2 2.67334 34.522 4.96 36.925 4.96H44.871C45.329 2.73998 43.751 0.00219727 40.485 0.00219727Z" fill="white"/>
</svg>
