<svg width="46" height="24" viewBox="0 0 46 24" fill="none" xmlns="http://www.w3.org/2000/svg">
<g clip-path="url(#clip0_10_63)">
<path d="M40.2467 7.02884V12.7052H38.233V8.7178H36.2925V12.6994H34.2749V7.02884H40.2467Z" fill="black"/>
<path fill-rule="evenodd" clip-rule="evenodd" d="M30.1399 12.9026C31.944 12.9026 33.2826 11.7901 33.2826 10.1031C33.2826 8.47022 32.294 7.40998 30.6438 7.40998C30.2997 7.40194 29.9575 7.46298 29.6372 7.58955C29.3168 7.71611 29.0249 7.90568 28.7782 8.14708C28.828 7.69533 29.0395 7.27722 29.3732 6.97073C29.7069 6.66425 30.1401 6.4903 30.5919 6.48134H32.344L33.2191 4.79623C33.2191 4.79623 31.2766 4.84073 30.3726 4.84073C28.3089 4.87749 26.9106 6.77541 26.9106 9.05637C26.9145 11.7243 28.2743 12.9026 30.1399 12.9026ZM30.1514 8.90354C30.8208 8.90354 31.2843 9.34661 31.2843 10.1031C31.2843 10.7841 30.8727 11.3451 30.1514 11.347C29.461 11.347 28.9975 10.8266 28.9975 10.1147C28.9955 9.35048 29.4667 8.90354 30.1514 8.90354Z" fill="black"/>
<path d="M25.276 10.7995C24.9043 10.9896 24.4978 11.1009 24.0817 11.1265C23.2642 11.1516 22.543 10.6312 22.543 9.71033C22.543 8.78943 23.1854 8.2941 24.0682 8.2941C24.6086 8.2941 25.324 8.67136 25.324 8.67136C25.324 8.67136 25.8472 7.70405 26.1184 7.22232C25.5576 6.82262 24.882 6.61875 24.1951 6.64191C22.2545 6.64191 20.7505 7.9149 20.7505 9.70452C20.7505 11.4941 22.1641 12.7593 24.1951 12.7226C24.8377 12.6929 25.4643 12.5113 26.0242 12.1925L25.276 10.7995Z" fill="black"/>
<path d="M0.5 5.45016L3.29455 10.4803V13.5468L0.501922 18.5615L0.5 5.45016Z" fill="#5B57A2"/>
<path d="M11.23 8.64626L13.8494 7.02884H19.2097L11.23 11.9449V8.64626Z" fill="#D90751"/>
<path d="M11.2165 5.41918L11.23 12.0725L8.42969 10.341V0.396759L11.2165 5.42692V5.41918Z" fill="#FAB718"/>
<path d="M19.2097 7.02884H13.8495L11.2165 5.41725L8.42969 0.387085L19.2097 7.02884Z" fill="#ED6F26"/>
<path d="M11.23 18.5827V15.3479L8.42969 13.6494V23.6052L11.23 18.5827Z" fill="#63B22F"/>
<path d="M13.8438 16.9828L3.29455 10.4745L0.5 5.44434L19.1983 16.9712H13.8438V16.9828Z" fill="#1487C9"/>
<path d="M8.43164 23.6129L11.2301 18.5827L13.8438 16.9828H19.1983L8.43164 23.6129Z" fill="#017F36"/>
<path d="M0.501953 18.5556L8.45285 13.6571L5.77948 12.0067L3.29458 13.541L0.501953 18.5556Z" fill="#984995"/>
<path d="M22.5429 16.5184C22.4799 16.5986 22.3969 16.6607 22.3025 16.6984C22.203 16.7394 22.0964 16.7598 21.989 16.7584C21.8821 16.7605 21.7758 16.7429 21.6754 16.7061C21.5849 16.6726 21.5019 16.6212 21.4312 16.5552C21.3636 16.4871 21.31 16.4062 21.2735 16.3172C21.235 16.2194 21.2154 16.1149 21.2158 16.0096C21.2154 15.9095 21.2344 15.8104 21.2716 15.7175C21.3054 15.629 21.3571 15.5487 21.4235 15.4815C21.4897 15.4138 21.568 15.3593 21.6543 15.3209C21.7465 15.2806 21.8461 15.2602 21.9467 15.2609C22.0547 15.2602 22.1621 15.2752 22.266 15.3054C22.3587 15.3323 22.4434 15.3822 22.5121 15.4505L22.3947 15.644C22.3388 15.593 22.2735 15.5536 22.2025 15.5279C22.133 15.5047 22.0603 15.493 21.987 15.4931C21.9209 15.4923 21.8554 15.5055 21.7947 15.5318C21.7353 15.555 21.681 15.5898 21.6351 15.6343C21.5887 15.6799 21.5521 15.7346 21.5274 15.7949C21.4996 15.8609 21.4859 15.9321 21.487 16.0038C21.4852 16.0764 21.4996 16.1485 21.5293 16.2147C21.5544 16.2757 21.5925 16.3305 21.6408 16.3753C21.6878 16.4214 21.7443 16.4563 21.8063 16.4778C21.8679 16.5003 21.933 16.5121 21.9986 16.5126C22.0798 16.5142 22.1602 16.4962 22.2332 16.4604C22.3009 16.428 22.3617 16.3826 22.4121 16.3269L22.5429 16.5184ZM22.8756 16.7255V15.2919H23.1314V16.3598L23.9623 15.2919H24.2181V16.7255H23.9623V15.6575L23.1314 16.7255H22.8756ZM25.9125 16.5184C25.85 16.5984 25.7678 16.6604 25.674 16.6984C25.5746 16.7394 25.4679 16.7598 25.3605 16.7584C25.2522 16.7594 25.1446 16.7404 25.0432 16.7022C24.953 16.6692 24.8705 16.6178 24.8009 16.5513C24.732 16.4842 24.6783 16.4031 24.6431 16.3134C24.6046 16.2155 24.585 16.1111 24.5854 16.0058C24.5851 15.9057 24.604 15.8065 24.6412 15.7137C24.6743 15.6249 24.7261 15.5443 24.7932 15.4776C24.859 15.4105 24.9366 15.3561 25.022 15.317C25.1149 15.2768 25.2151 15.2564 25.3163 15.257C25.4243 15.2563 25.5318 15.2714 25.6355 15.3016C25.7284 15.3284 25.813 15.3783 25.8817 15.4466L25.7644 15.6401C25.7085 15.5891 25.6431 15.5497 25.5721 15.5241C25.5026 15.5009 25.4298 15.4891 25.3567 15.4892C25.2284 15.4912 25.1055 15.5416 25.0124 15.6304C24.9664 15.6764 24.9299 15.7309 24.9047 15.791C24.876 15.8568 24.8622 15.9282 24.8643 16C24.8625 16.0726 24.877 16.1447 24.9066 16.2108C24.9317 16.2719 24.9698 16.3267 25.0182 16.3714C25.0647 16.417 25.1204 16.452 25.1816 16.4739C25.2467 16.4964 25.3149 16.5082 25.3836 16.5088C25.4648 16.5101 25.5451 16.4922 25.6182 16.4566C25.6857 16.4248 25.7459 16.3793 25.7952 16.323L25.9125 16.5184ZM26.0452 15.2919H27.3511V15.5414H26.8318V16.7196H26.5818V15.5414H26.0529V15.2861L26.0452 15.2919Z" fill="black"/>
<path fill-rule="evenodd" clip-rule="evenodd" d="M28.5532 16.7022C28.6466 16.6748 28.7328 16.6265 28.8052 16.561L28.7262 16.3675C28.6695 16.4151 28.6042 16.4512 28.5339 16.4739C28.452 16.5037 28.3652 16.5181 28.2781 16.5165C28.1526 16.5216 28.0293 16.4818 27.9301 16.4043C27.8839 16.3651 27.8463 16.3166 27.8198 16.2619C27.7934 16.2074 27.7785 16.1478 27.7761 16.0871H28.8897C28.902 16.0305 28.9078 15.9727 28.907 15.9148C28.9076 15.8231 28.8893 15.7322 28.8532 15.6479C28.8205 15.5697 28.7721 15.4991 28.7109 15.4408C28.6519 15.3834 28.5819 15.3386 28.5051 15.3093C28.422 15.2758 28.333 15.2593 28.2435 15.2609C28.135 15.2589 28.0271 15.2786 27.9262 15.319C27.8397 15.3572 27.7615 15.4117 27.6954 15.4795C27.6289 15.5467 27.5771 15.627 27.5434 15.7155C27.5096 15.8098 27.4927 15.9094 27.4934 16.0096C27.4909 16.1138 27.5078 16.2175 27.5434 16.3153C27.5779 16.4043 27.631 16.4848 27.6992 16.5513C27.7678 16.6192 27.8506 16.6707 27.9415 16.7022C28.044 16.739 28.1521 16.7567 28.2608 16.7545C28.3589 16.7545 28.4562 16.7388 28.5494 16.708L28.5532 16.7022ZM27.9069 15.5995C27.9947 15.5248 28.1076 15.4867 28.2224 15.4931C28.3309 15.4868 28.4376 15.5229 28.5205 15.5937C28.5578 15.6302 28.5875 15.6738 28.608 15.7219C28.6285 15.7701 28.6393 15.8218 28.6397 15.8742H27.7646C27.7777 15.7684 27.8282 15.6708 27.9069 15.5995Z" fill="black"/>
<path d="M29.2532 15.2919H29.4859L30.0397 16.0019L30.5629 15.2919H30.7898V16.7254H30.534V15.6807L30.0436 16.3443H30.034L29.5167 15.6807V16.7254H29.2609L29.2532 15.2919Z" fill="black"/>
<path fill-rule="evenodd" clip-rule="evenodd" d="M31.4862 15.2977C31.408 15.3174 31.3333 15.3494 31.265 15.3924L31.3342 15.5859C31.391 15.5572 31.4494 15.5319 31.5092 15.5105C31.581 15.4893 31.6556 15.4795 31.7304 15.4815C31.7892 15.4784 31.848 15.4897 31.9016 15.5144C31.9432 15.534 31.9776 15.5665 31.9996 15.6072C32.0247 15.6512 32.0404 15.6999 32.0458 15.7503C32.0538 15.8106 32.0577 15.8714 32.0574 15.9322C32.0044 15.8967 31.9449 15.8723 31.8823 15.8607C31.819 15.848 31.7546 15.8415 31.69 15.8413C31.6171 15.8417 31.5447 15.8521 31.4746 15.8723C31.4117 15.8894 31.3529 15.919 31.3015 15.9593C31.2546 16.0044 31.219 16.0602 31.1976 16.1218C31.1693 16.1823 31.1549 16.2485 31.1553 16.3153C31.1517 16.3753 31.1605 16.4354 31.1814 16.4917C31.2023 16.548 31.2347 16.5993 31.2765 16.6423C31.3643 16.7219 31.4797 16.7635 31.5977 16.7583C31.6975 16.7624 31.7967 16.7412 31.8862 16.6964C31.9525 16.6596 32.0113 16.6103 32.0593 16.5513V16.7448H32.2978V15.8645C32.3073 15.7105 32.2645 15.5576 32.1766 15.4311C32.1209 15.3752 32.0536 15.3324 31.9793 15.306C31.9051 15.2796 31.826 15.2701 31.7477 15.2783C31.66 15.2727 31.5721 15.2792 31.4862 15.2977ZM31.9131 16.4584C31.845 16.5022 31.7649 16.5231 31.6842 16.5184C31.6151 16.5218 31.547 16.5006 31.4919 16.4584C31.4698 16.4374 31.4523 16.4119 31.4407 16.3835C31.4291 16.3551 31.4236 16.3246 31.4246 16.294C31.4235 16.2576 31.4321 16.2214 31.4496 16.1895C31.4676 16.1595 31.4919 16.1338 31.5208 16.1141C31.5506 16.0941 31.5839 16.0797 31.6188 16.0716C31.6559 16.0615 31.694 16.0563 31.7324 16.0561C31.8476 16.0518 31.9612 16.0858 32.0554 16.1528V16.3346C32.0131 16.3815 31.9653 16.423 31.9131 16.4584ZM34.5538 14.7888C34.6121 14.7606 34.6624 14.718 34.6999 14.665L34.5615 14.4715C34.531 14.515 34.489 14.5493 34.4403 14.5702C34.3919 14.5894 34.3416 14.6036 34.2903 14.6127H34.2423L34.1057 14.6379C34.028 14.6514 33.9524 14.6748 33.8806 14.7076C33.7734 14.7519 33.6784 14.8215 33.6037 14.9107C33.5327 14.9964 33.4774 15.094 33.4402 15.199C33.4039 15.307 33.3787 15.4185 33.3652 15.5318C33.3524 15.6422 33.346 15.7533 33.346 15.8645C33.3441 15.991 33.3623 16.1171 33.3998 16.2379C33.43 16.3407 33.4818 16.4357 33.5517 16.5165C33.6168 16.5932 33.6984 16.6541 33.7902 16.6945C33.8905 16.7375 33.9986 16.7586 34.1076 16.7564C34.2105 16.7577 34.3126 16.738 34.4076 16.6983C34.4947 16.6604 34.5738 16.6058 34.6404 16.5378C34.7061 16.4715 34.7577 16.3925 34.7923 16.3056C34.8294 16.2155 34.8483 16.1188 34.8481 16.0212C34.8488 15.9218 34.8326 15.823 34.8 15.729C34.7721 15.6457 34.7269 15.5691 34.6673 15.5047C34.6085 15.441 34.5362 15.3913 34.4557 15.3595C34.3669 15.3245 34.2722 15.3073 34.1769 15.3093C34.1165 15.3091 34.0563 15.3169 33.9979 15.3325C33.941 15.3476 33.8866 15.3711 33.8364 15.4021C33.7871 15.4308 33.7419 15.466 33.7018 15.5066C33.6627 15.5466 33.6308 15.593 33.6075 15.644C33.6124 15.5789 33.6214 15.5144 33.6345 15.4505C33.6498 15.3842 33.6711 15.3195 33.6979 15.257C33.7253 15.1957 33.7609 15.1384 33.8037 15.0868C33.8511 15.0351 33.9087 14.9943 33.973 14.9669C34.0433 14.9328 34.1176 14.9081 34.1942 14.8933H34.2461L34.3903 14.8643C34.4486 14.8536 34.5054 14.8361 34.5596 14.812L34.5538 14.7888ZM33.6556 16.1644C33.63 16.0831 33.6177 15.9982 33.6191 15.9128C33.6303 15.8647 33.6498 15.8189 33.6768 15.7774C33.7052 15.733 33.741 15.6937 33.7826 15.6614C33.8771 15.586 33.9946 15.5457 34.1153 15.5472C34.1792 15.5429 34.2433 15.553 34.3029 15.5768C34.3624 15.6005 34.4159 15.6374 34.4596 15.6846C34.5398 15.783 34.5815 15.9076 34.5769 16.0348C34.5772 16.1008 34.5654 16.1664 34.5423 16.2282C34.5205 16.2853 34.4874 16.3374 34.4452 16.3812C34.4029 16.4251 34.3521 16.46 34.2961 16.4836C34.2356 16.5107 34.17 16.5239 34.1038 16.5223C34.0373 16.5228 33.9716 16.5082 33.9114 16.4797C33.8519 16.451 33.7992 16.4094 33.7576 16.3579C33.713 16.3002 33.6798 16.2345 33.6594 16.1644H33.6556ZM36.8098 15.2919H36.554V16.7254H36.8098V15.2919ZM35.2174 15.2919H35.4732V15.7213H35.7078C35.8012 15.719 35.8944 15.7334 35.9828 15.7639C36.049 15.7862 36.109 15.824 36.1579 15.8742C36.2015 15.9176 36.2333 15.9715 36.2501 16.0309C36.2702 16.0934 36.2799 16.1587 36.279 16.2244C36.2803 16.2902 36.2699 16.3557 36.2483 16.4178C36.2281 16.4792 36.1938 16.5348 36.1482 16.5804C36.0946 16.6344 36.0285 16.6743 35.9559 16.6964C35.8645 16.7289 35.7682 16.7446 35.6712 16.7429H35.2077V15.3073L35.2174 15.2919ZM35.4732 15.9612V16.4875H35.6654C35.7609 16.4964 35.8565 16.4726 35.9367 16.4198C35.9628 16.3952 35.9832 16.365 35.9965 16.3316C36.0098 16.2982 36.0157 16.2622 36.0136 16.2263C36.0154 16.1902 36.0093 16.1542 35.9956 16.1207C35.982 16.0873 35.9612 16.0572 35.9347 16.0328C35.8567 15.9801 35.7629 15.9562 35.6693 15.9651H35.477L35.4732 15.9612Z" fill="black"/>
<path d="M38.5062 16.5184C38.4432 16.5986 38.3603 16.6607 38.2658 16.6983C38.1665 16.7396 38.0598 16.76 37.9523 16.7583C37.8455 16.7604 37.7393 16.7426 37.6388 16.7061C37.5486 16.673 37.4662 16.6216 37.3965 16.5552C37.3277 16.4877 37.2734 16.4067 37.2368 16.3172C37.198 16.2194 37.1791 16.1149 37.181 16.0096C37.1801 15.9097 37.1983 15.8104 37.2349 15.7175C37.2694 15.629 37.3218 15.5486 37.3888 15.4815C37.4543 15.4139 37.532 15.3594 37.6177 15.3209C37.7099 15.2808 37.8095 15.2604 37.91 15.2609C38.018 15.26 38.1256 15.2751 38.2292 15.3054C38.3228 15.332 38.4081 15.3819 38.4774 15.4505L38.3581 15.644C38.3027 15.5923 38.2372 15.5528 38.1658 15.5279C38.0963 15.5048 38.0236 15.493 37.9504 15.4931C37.8843 15.4924 37.8188 15.5056 37.7581 15.5318C37.699 15.5545 37.6452 15.5895 37.6003 15.6343C37.5532 15.6797 37.5158 15.7343 37.4907 15.7949C37.463 15.861 37.4493 15.9321 37.4503 16.0038C37.4494 16.0764 37.4638 16.1482 37.4926 16.2147C37.5185 16.2754 37.5564 16.3301 37.6042 16.3753C37.6514 16.4209 37.7079 16.4559 37.7696 16.4778C37.8315 16.4995 37.8964 16.5113 37.9619 16.5126C38.0432 16.5142 38.1236 16.4962 38.1966 16.4604C38.2646 16.4286 38.3255 16.3832 38.3754 16.3269L38.5062 16.5184ZM38.637 15.2919H39.9506V15.5414H39.4217V16.7196H39.1601V15.5414H38.6331V15.2861L38.637 15.2919Z" fill="black"/>
<path fill-rule="evenodd" clip-rule="evenodd" d="M40.4777 15.2919H40.2219V17.362H40.4777V16.6596C40.5369 16.6956 40.6021 16.7205 40.6701 16.7332C40.7434 16.7488 40.8182 16.7566 40.8931 16.7564C40.9976 16.759 41.1016 16.7405 41.199 16.7022C41.2876 16.664 41.368 16.6088 41.4355 16.5397C41.5021 16.4682 41.5526 16.383 41.5836 16.2901C41.6203 16.1932 41.6386 16.0901 41.6375 15.9864C41.6361 15.8861 41.6179 15.7866 41.5836 15.6924C41.5538 15.6086 41.5088 15.5312 41.4509 15.464C41.393 15.3992 41.3214 15.3482 41.2413 15.3151C41.154 15.2768 41.0595 15.2583 40.9643 15.2609C40.8671 15.2604 40.7708 15.2801 40.6816 15.319C40.6027 15.3507 40.5318 15.3996 40.4738 15.4621L40.4777 15.2919ZM40.6566 15.5588C40.7301 15.5199 40.812 15.5 40.8951 15.5008C40.9608 15.5 41.0261 15.5118 41.0874 15.5356C41.1439 15.558 41.1945 15.5931 41.2355 15.6382C41.2766 15.6839 41.3074 15.738 41.3259 15.7968C41.3467 15.8591 41.3571 15.9245 41.3567 15.9903C41.3569 16.0622 41.3446 16.1336 41.3202 16.2012C41.2993 16.2623 41.2658 16.3183 41.222 16.3656C41.1774 16.4122 41.1237 16.4491 41.0644 16.4739C40.9985 16.5012 40.9278 16.5144 40.8566 16.5126C40.7918 16.5127 40.7272 16.5049 40.6642 16.4894C40.5962 16.4702 40.5313 16.4408 40.472 16.4024V15.6924C40.5223 15.6349 40.5829 15.5876 40.6508 15.553L40.6566 15.5588ZM43.5954 15.2919H43.3396V16.7254H43.5954V15.2919ZM42.001 15.2919H42.2568V15.7213H42.4933C42.5868 15.7191 42.6799 15.7335 42.7684 15.7639C42.8343 15.7867 42.8942 15.8244 42.9434 15.8742C42.987 15.9176 43.0188 15.9715 43.0357 16.0309C43.0541 16.0937 43.0632 16.1589 43.0627 16.2244C43.0639 16.2902 43.0535 16.3557 43.0319 16.4179C43.0117 16.4787 42.9782 16.5343 42.9338 16.5804C42.8795 16.6335 42.8136 16.6733 42.7415 16.6964C42.6501 16.7289 42.5537 16.7447 42.4568 16.7429H41.999V15.3073L42.001 15.2919ZM42.2587 15.9612V16.4875H42.4511C42.5458 16.4961 42.6407 16.4723 42.7203 16.4198C42.7467 16.3953 42.7675 16.3654 42.7812 16.3319C42.7948 16.2985 42.801 16.2624 42.7991 16.2263C42.8006 16.1902 42.7942 16.1543 42.7806 16.1209C42.7671 16.0876 42.7464 16.0575 42.7203 16.0328C42.6421 15.9804 42.5484 15.9566 42.4549 15.9651H42.2625L42.2587 15.9612Z" fill="black"/>
<path d="M44.8224 15.9825L45.3686 16.7254H45.0551L44.6319 16.145L44.203 16.7254H43.9069L44.4492 15.9961L43.9377 15.2919H44.2531L44.6377 15.8336L45.0339 15.2919H45.3321L44.8224 15.9825ZM22.3506 18.4957H21.5659V19.6913H21.3101V18.25H22.6064V19.6836H22.3506V18.4957ZM23.5527 18.5111L23.5372 18.753C23.5263 18.9201 23.5005 19.0858 23.4604 19.2482C23.4372 19.3511 23.3955 19.4488 23.3372 19.5365C23.2959 19.5992 23.236 19.6472 23.1661 19.6739C23.0996 19.6986 23.0292 19.711 22.9584 19.7107L22.9391 19.4611C22.9716 19.4628 23.0041 19.4561 23.0333 19.4417C23.0772 19.417 23.1138 19.3809 23.1392 19.3373C23.1805 19.2646 23.2116 19.1865 23.2315 19.1051C23.2631 18.9738 23.2817 18.8396 23.2873 18.7046L23.3122 18.2597H24.3143V19.6913H24.0624V18.5111H23.5527Z" fill="black"/>
<path fill-rule="evenodd" clip-rule="evenodd" d="M25.0066 18.2616C24.9291 18.2813 24.855 18.3133 24.7874 18.3564L24.8547 18.5595C24.9143 18.5305 24.972 18.5053 25.0298 18.4841C25.1015 18.4629 25.1762 18.4531 25.2509 18.4551C25.3104 18.4519 25.3697 18.4632 25.424 18.488C25.4648 18.5081 25.4988 18.5397 25.5221 18.5789C25.546 18.6234 25.5616 18.6719 25.5683 18.722C25.5723 18.7833 25.5723 18.8446 25.5683 18.9058C25.5163 18.8698 25.4573 18.8453 25.3952 18.8343C25.3318 18.8216 25.2674 18.8151 25.2029 18.8149C25.1299 18.8149 25.0574 18.8253 24.9874 18.8459C24.9242 18.8621 24.8652 18.8918 24.8143 18.9329C24.7663 18.9715 24.7275 19.0204 24.7009 19.0761C24.6726 19.1366 24.658 19.2027 24.6585 19.2695C24.6549 19.3295 24.6638 19.3897 24.6847 19.446C24.7055 19.5023 24.7379 19.5536 24.7797 19.5965C24.8674 19.6763 24.9828 19.718 25.1009 19.7126C25.2001 19.7171 25.2988 19.6958 25.3874 19.6507C25.4541 19.6142 25.5129 19.565 25.5605 19.5056V19.699H25.8125V18.811C25.8224 18.6566 25.7789 18.5035 25.6894 18.3777C25.6338 18.3216 25.5664 18.2787 25.4923 18.2523C25.418 18.2258 25.3388 18.2165 25.2605 18.2248C25.1728 18.2265 25.0856 18.2388 25.0009 18.2616H25.0066ZM25.4355 19.4224C25.368 19.4657 25.2886 19.4866 25.2086 19.4824C25.1394 19.4866 25.071 19.4653 25.0163 19.4224C24.9936 19.4017 24.9756 19.3762 24.9637 19.3478C24.9517 19.3195 24.946 19.2888 24.9471 19.2579C24.946 19.2213 24.9553 19.1851 24.974 19.1535C24.9913 19.1236 25.0149 19.0978 25.0432 19.078C25.0731 19.0581 25.1063 19.0437 25.1413 19.0355C25.1783 19.0256 25.2164 19.0204 25.2548 19.02C25.3703 19.0164 25.484 19.0496 25.5798 19.1148V19.2966C25.5348 19.3451 25.4838 19.3874 25.4279 19.4224H25.4355Z" fill="black"/>
<path d="M26.0684 18.25H27.382V18.5034H26.8531V19.6836H26.5992V18.5054H26.0703V18.25H26.0684Z" fill="black"/>
<path fill-rule="evenodd" clip-rule="evenodd" d="M28.5763 19.6758C28.6687 19.6472 28.7539 19.599 28.8263 19.5346L28.7494 19.3411C28.6923 19.388 28.6271 19.424 28.5571 19.4475C28.4751 19.4773 28.3884 19.4917 28.3013 19.4901C28.1751 19.4951 28.0512 19.4554 27.9512 19.3779C27.905 19.3389 27.8675 19.2904 27.8413 19.2357C27.8151 19.181 27.8008 19.1213 27.7993 19.0606H28.9052C28.9175 19.004 28.9232 18.9463 28.9225 18.8884C28.9233 18.7966 28.9049 18.7057 28.8687 18.6214C28.8353 18.543 28.787 18.472 28.7263 18.4125C28.6643 18.3547 28.5918 18.3094 28.5129 18.279C28.4291 18.2477 28.3406 18.2313 28.2513 18.2306C28.1426 18.2292 28.0347 18.2496 27.9339 18.2906C27.8467 18.3274 27.7681 18.3821 27.7031 18.4512C27.639 18.5187 27.5899 18.5991 27.5589 18.6872C27.5241 18.7805 27.5071 18.8796 27.5089 18.9793C27.5079 19.0843 27.5261 19.1886 27.5628 19.2869C27.5984 19.376 27.6513 19.4569 27.7186 19.5249C27.7887 19.5916 27.8719 19.6431 27.9628 19.6758C28.0646 19.7123 28.1721 19.7301 28.2801 19.7281C28.3787 19.7277 28.4767 19.712 28.5705 19.6816L28.5763 19.6758ZM27.9282 18.5711C28.0159 18.4964 28.1288 18.4584 28.2436 18.4647C28.352 18.4591 28.4586 18.495 28.5417 18.5653C28.579 18.6018 28.6088 18.6454 28.6292 18.6936C28.6497 18.7417 28.6604 18.7935 28.6609 18.8459H27.7858C27.7989 18.74 27.8494 18.6425 27.9282 18.5711ZM29.0514 18.2577H29.3764L29.8688 18.9484L29.3418 19.6913H29.0283L29.5803 18.9484L29.0514 18.25V18.2577ZM29.9322 18.2577H30.188V19.6913H29.9322V18.2577ZM31.1016 19.6913L30.54 18.9484L31.0651 18.2577H30.7478L30.2515 18.9484L30.7862 19.6913H31.1016ZM32.271 19.6758C32.3636 19.6475 32.4488 19.5994 32.521 19.5346L32.4441 19.3411C32.3869 19.388 32.3217 19.424 32.2518 19.4475C32.1698 19.4773 32.0831 19.4917 31.996 19.4901C31.8703 19.4952 31.7471 19.4554 31.6478 19.3779C31.6017 19.3386 31.5641 19.2902 31.5377 19.2355C31.5111 19.1809 31.4963 19.1213 31.494 19.0606H32.5999C32.6121 19.004 32.6179 18.9463 32.6172 18.8884C32.618 18.7966 32.5996 18.7057 32.5633 18.6214C32.53 18.543 32.4816 18.472 32.421 18.4125C32.3589 18.3547 32.2864 18.3094 32.2075 18.279C32.1239 18.2473 32.0353 18.2309 31.9459 18.2306C31.8372 18.2292 31.7294 18.2496 31.6286 18.2906C31.5414 18.3274 31.4628 18.3821 31.3978 18.4512C31.3337 18.5187 31.2846 18.5991 31.2535 18.6872C31.2197 18.7808 31.2028 18.8797 31.2036 18.9793C31.2022 19.0846 31.2212 19.189 31.2594 19.2869C31.2935 19.3762 31.3459 19.4572 31.4132 19.5249C31.4833 19.5916 31.5665 19.6431 31.6575 19.6758C31.7592 19.7123 31.8667 19.7301 31.9748 19.7281C32.0757 19.727 32.1757 19.7093 32.271 19.6758ZM31.6228 18.5711C31.7114 18.4965 31.8248 18.4585 31.9402 18.4647C32.048 18.4594 32.1538 18.4953 32.2363 18.5653C32.2741 18.6015 32.3041 18.645 32.3246 18.6933C32.3451 18.7415 32.3556 18.7934 32.3556 18.8459H31.4805C31.4935 18.74 31.5441 18.6425 31.6228 18.5711ZM33.6596 17.7759C33.5096 17.7759 33.4269 17.6928 33.4134 17.5245H33.173C33.1726 17.5853 33.1836 17.6458 33.2057 17.7025C33.226 17.7551 33.2575 17.8026 33.298 17.8417C33.3425 17.8823 33.394 17.9144 33.4499 17.9366C33.5165 17.9609 33.5869 17.9727 33.6577 17.9713C33.7234 17.972 33.7886 17.9602 33.85 17.9366C33.9053 17.9143 33.9561 17.8822 34 17.8417C34.0406 17.8023 34.0726 17.7549 34.0943 17.7025C34.1179 17.6462 34.1297 17.5856 34.1289 17.5245H33.8904C33.8904 17.6928 33.8019 17.7759 33.6596 17.7759ZM32.9691 18.25V19.6835H33.2249L34.0558 18.6156V19.6835H34.3116V18.25H34.0558L33.2249 19.3179V18.25H32.9691Z" fill="black"/>
</g>
<defs>
<clipPath id="clip0_10_63">
<rect width="45" height="24" fill="white" transform="translate(0.5)"/>
</clipPath>
</defs>
</svg>
