<svg width="32" height="32" viewBox="0 0 32 32" fill="none" xmlns="http://www.w3.org/2000/svg">
<path fill-rule="evenodd" clip-rule="evenodd" d="M13.0711 5.29289C13.4616 4.90237 14.0948 4.90237 14.4853 5.29289C14.8759 5.68342 14.8759 6.31658 14.4853 6.70711L9.60667 11.5858H19.5564V11.6047C22.9126 11.86 25.5564 14.6641 25.5564 18.0857C25.5564 21.5074 22.9126 24.3115 19.5564 24.5668V24.5858H16.5564C16.0041 24.5858 15.5564 24.138 15.5564 23.5858C15.5564 23.0335 16.0041 22.5858 16.5564 22.5858H19.5564V22.5583C21.8064 22.3096 23.5564 20.402 23.5564 18.0857C23.5564 15.7695 21.8064 13.8619 19.5564 13.6132V13.5858H10.0503L14.4853 18.0208C14.8759 18.4113 14.8759 19.0445 14.4853 19.435C14.0948 19.8256 13.4616 19.8256 13.0711 19.435L7.41426 13.7782L6.00005 12.364L7.41426 10.9497L13.0711 5.29289Z" fill="#837378"/>
</svg>
