<svg width="24" height="24" viewBox="0 0 24 24" fill="none" xmlns="http://www.w3.org/2000/svg">
<path d="M21.9998 11H4.41379L9.70679 5.707C9.8023 5.61475 9.87848 5.50441 9.93089 5.38241C9.9833 5.2604 10.0109 5.12918 10.012 4.9964C10.0132 4.86362 9.98789 4.73194 9.93761 4.60905C9.88733 4.48615 9.81307 4.3745 9.71918 4.28061C9.62529 4.18671 9.51364 4.11246 9.39074 4.06218C9.26784 4.0119 9.13616 3.9866 9.00339 3.98775C8.87061 3.9889 8.73939 4.01649 8.61738 4.0689C8.49538 4.12131 8.38503 4.19749 8.29279 4.293L1.29279 11.293C1.10532 11.4805 1 11.7348 1 12C1 12.2652 1.10532 12.5195 1.29279 12.707L8.29279 19.707C8.48139 19.8892 8.73399 19.99 8.99619 19.9877C9.25838 19.9854 9.5092 19.8802 9.6946 19.6948C9.88001 19.5094 9.98518 19.2586 9.98746 18.9964C9.98974 18.7342 9.88894 18.4816 9.70679 18.293L4.41379 13H21.9998C22.265 13 22.5194 12.8946 22.7069 12.7071C22.8944 12.5196 22.9998 12.2652 22.9998 12C22.9998 11.7348 22.8944 11.4804 22.7069 11.2929C22.5194 11.1054 22.265 11 21.9998 11Z" fill="white"/>
</svg>
