<svg width="64" height="66" viewBox="0 0 64 66" fill="none" xmlns="http://www.w3.org/2000/svg">
<path fill-rule="evenodd" clip-rule="evenodd" d="M26.7952 20.1063C22.4533 22.0135 18.6059 24.746 15.3156 28.4061C14.1737 29.6767 13.8174 31.4194 14.7706 32.8375L20.7651 41.7537C21.8167 43.3187 23.9415 43.735 25.5064 42.6827C27.0714 41.6304 27.4877 39.5057 26.4361 37.9407L22.3543 31.8701L27.4547 27.7094C27.8865 27.3564 27.9512 26.7198 27.5989 26.2873C27.2459 25.8555 26.6093 25.7908 26.1768 26.1431L20.3636 30.8858C19.9587 31.2159 19.8725 31.7999 20.1635 32.2331L24.7587 39.0683C25.1885 39.7076 25.0188 40.5753 24.3794 41.0051C23.7401 41.435 22.8716 41.2652 22.4419 40.6258L16.4481 31.7096C16.0238 31.0784 16.3101 30.3225 16.8187 29.7566C19.9109 26.3168 23.5272 23.7488 27.6078 21.9568C28.1185 21.7324 28.3509 21.1355 28.1265 20.6249C27.9022 20.1143 27.3058 19.882 26.7952 20.1063ZM35.8831 9.78548C36.0843 10.2281 36.1881 10.7087 36.1876 11.1948C36.1876 13.0751 34.661 14.6016 32.7801 14.6016C30.8998 14.6016 29.3733 13.075 29.3733 11.1948C29.3733 9.31463 30.8999 7.78737 32.7801 7.78737C33.3379 7.78737 33.7906 7.33466 33.7906 6.77685C33.7906 6.2197 33.3379 5.76633 32.7801 5.76633C29.7849 5.76633 27.3523 8.19902 27.3523 11.1949C27.3523 14.1908 29.7849 16.6227 32.7801 16.6227C35.776 16.6227 38.2087 14.1907 38.2087 11.1949C38.2095 10.4196 38.0436 9.65311 37.7222 8.9475C37.4905 8.44023 36.8909 8.21584 36.3836 8.44693C35.8757 8.67794 35.652 9.27821 35.8831 9.78548Z" fill="white" stroke="white" stroke-width="0.5"/>
<path fill-rule="evenodd" clip-rule="evenodd" d="M25.8075 26.8607C25.5105 31.41 25.1459 37.0171 25.1177 37.5682L23.9637 60.144C23.8337 62.6905 25.7954 64.8631 28.342 64.9931C30.8885 65.1239 33.0617 63.162 33.1918 60.6155L33.6843 50.9711L35.3382 61.1221C35.7478 63.639 38.1239 65.3495 40.6408 64.9392C43.157 64.5296 44.8675 62.1535 44.4578 59.6367L40.8537 37.5082L40.2797 27.9177C45.6442 24.6941 48.5411 20.3502 48.95 19.7089C50.0137 18.4794 50.0608 16.6557 49.0463 15.367L41.2355 5.43953C40.0693 3.95743 37.9196 3.70077 36.4375 4.86694C34.9554 6.0331 34.6987 8.18276 35.8649 9.66494L41.8027 17.2115L41.3129 17.6144C40.523 18.2644 39.605 18.7406 38.6186 19.012C37.6323 19.2833 36.5999 19.3438 35.5887 19.1894C32.5996 18.7064 29.6818 19.0008 26.8403 20.0874C26.3195 20.2868 26.0581 20.8716 26.2575 21.3923C26.457 21.9137 27.0417 22.1745 27.5624 21.975C30.0665 21.0178 32.6373 20.7583 35.2721 21.1855L35.2808 21.1875C36.5732 21.3849 37.8927 21.3077 39.1533 20.961C40.4139 20.6143 41.5873 20.0058 42.597 19.1752L43.85 18.1438C44.2745 17.7949 44.3418 17.1703 44.0023 16.7384L37.4535 8.41524C36.9772 7.80958 37.0816 6.93184 37.6873 6.45487C38.2929 5.97855 39.1708 6.08365 39.647 6.68931L47.4577 16.6167C47.8801 17.1529 47.8518 17.9169 47.3917 18.4208C47.3479 18.4688 47.3089 18.5209 47.2751 18.5764C47.2751 18.5764 44.41 23.2538 38.7341 26.4807C38.5702 26.5741 38.4356 26.7114 38.3456 26.8772C38.2556 27.0431 38.2138 27.2308 38.2248 27.4191L38.8392 37.68C38.8413 37.7144 38.8446 37.748 38.85 37.7818L42.463 59.9614C42.6934 61.3775 41.7314 62.7141 40.3153 62.9445C38.8999 63.1749 37.5633 62.2129 37.3329 60.7974L34.1565 41.295C34.1162 41.0488 33.9863 40.8261 33.7918 40.6698C33.5973 40.5135 33.352 40.4346 33.1028 40.4482C32.5875 40.4772 32.1758 40.8902 32.1495 41.4062L31.1734 60.5119C31.1 61.9448 29.8779 63.0483 28.4449 62.9749C27.0127 62.9021 25.9092 61.6794 25.982 60.2471L27.1359 37.6714C27.1642 37.1216 27.5273 31.5294 27.8238 26.9921C27.8601 26.4356 27.4378 25.954 26.8813 25.9176C26.3249 25.8818 25.8439 26.3035 25.8075 26.8607ZM21.6954 13.3102V11.1227C21.6954 11.0503 21.7188 10.9798 21.762 10.9217C21.8051 10.8636 21.8659 10.8209 21.9352 10.8C23.3856 10.3621 25.6263 9.15352 25.6263 5.9414C25.6263 3.21441 23.4126 1 20.6848 1C17.9578 1 15.744 3.21441 15.744 5.94148C15.744 6.49929 16.1967 6.952 16.7545 6.952C17.3124 6.952 17.7651 6.49929 17.7651 5.94148C17.7651 4.32938 19.0733 3.02105 20.6848 3.02105C22.2969 3.02105 23.6053 4.3293 23.6053 5.94148C23.6053 7.88504 22.2283 8.60053 21.3512 8.86526C20.8665 9.01163 20.4417 9.3101 20.1397 9.71654C19.8378 10.123 19.6746 10.6158 19.6744 11.1221V13.3103C19.6744 13.8681 20.1278 14.3208 20.6849 14.3208C21.2427 14.3207 21.6954 13.868 21.6954 13.3102ZM21.6954 18.2166V17.1711C21.6954 16.6133 21.2427 16.1606 20.6848 16.1606C20.1277 16.1606 19.6743 16.6133 19.6743 17.1711V18.2166C19.6743 18.7744 20.1277 19.2272 20.6848 19.2272C21.2427 19.2272 21.6954 18.7744 21.6954 18.2166Z" fill="white" stroke="white" stroke-width="0.5"/>
</svg>
