<svg width="24" height="16" viewBox="0 0 24 16" fill="none" xmlns="http://www.w3.org/2000/svg">
<path d="M11.325 13.818C11.4 13.8907 11.475 13.8907 11.475 13.9634C10.275 14.6907 8.85 15.1998 7.35 15.1998C3.3 15.1998 0 11.9998 0 7.9998C0 3.9998 3.3 0.799805 7.425 0.799805C8.925 0.799805 10.35 1.23617 11.55 1.96344C11.475 2.03617 11.4 2.03617 11.4 2.1089C9.675 3.56344 8.625 5.74527 8.625 7.9271C8.625 10.1089 9.6 12.3634 11.325 13.818ZM16.575 0.799805C15.075 0.799805 13.65 1.23617 12.45 1.96344C12.525 2.03617 12.6 2.03617 12.6 2.1089C14.325 3.56344 15.375 5.74527 15.375 7.9271C15.375 10.1816 14.4 12.2907 12.6 13.7453C12.525 13.818 12.45 13.818 12.45 13.8907C13.65 14.618 15 15.1271 16.575 15.1271C20.7 15.1271 24 11.9271 24 7.9271C24 3.9998 20.7 0.799805 16.575 0.799805ZM12 2.32708C11.925 2.3998 11.775 2.47253 11.7 2.54526C10.125 3.85435 9.15 5.81799 9.15 7.9998C9.15 10.1816 10.125 12.0725 11.7 13.4544C11.775 13.5271 11.85 13.5998 12 13.6725C12.075 13.5998 12.225 13.5271 12.3 13.4544C13.875 12.1453 14.85 10.1816 14.85 7.9998C14.85 5.81799 13.875 3.92708 12.3 2.54526C12.225 2.47253 12.075 2.3998 12 2.32708Z" fill="white"/>
</svg>
