<svg width="65" height="64" viewBox="0 0 65 64" fill="none" xmlns="http://www.w3.org/2000/svg">
<g clip-path="url(#clip0_142_806)">
<path d="M62.8489 20.1409C60.6558 17.9476 57.0871 17.9478 54.8933 20.1414L49.2523 25.7871V10.9283C49.2523 9.42575 48.6671 8.01325 47.6046 6.95087L42.3015 1.6475C41.2391 0.585 39.8265 0 38.324 0H6.12726C3.02563 0 0.502258 2.52338 0.502258 5.625V58.375C0.502258 61.4766 3.02563 64 6.12726 64H43.6273C46.7289 64 49.2523 61.4766 49.2523 58.375V41.7039L62.8488 28.0959C65.0471 25.8976 65.0476 22.3394 62.8489 20.1409ZM38.0024 3.75C38.3566 3.75 39.0393 3.68863 39.6499 4.29913L44.9531 9.6025C45.5481 10.1976 45.5024 10.8497 45.5024 11.25H38.0024V3.75ZM45.5023 58.375C45.5023 59.4089 44.6613 60.25 43.6273 60.25H6.12726C5.09338 60.25 4.25226 59.4089 4.25226 58.375V5.625C4.25226 4.59113 5.09338 3.75 6.12726 3.75H34.2523V13.125C34.2523 14.1605 35.0918 15 36.1273 15H45.5023V29.5404L39.9703 35.077L37.3199 37.7275C37.114 37.9333 36.9589 38.1842 36.8669 38.4604L34.2151 46.4154C34.105 46.7457 34.089 47.1002 34.1689 47.4392C34.2489 47.7781 34.4217 48.0881 34.668 48.3343C34.9142 48.5805 35.2242 48.7533 35.5631 48.8333C35.902 48.9133 36.2565 48.8973 36.5869 48.7871L44.5419 46.1355C44.818 46.0435 45.069 45.8884 45.2748 45.6825L45.5023 45.455V58.375ZM41.2973 39.0534L43.9489 41.705L42.936 42.7179L38.9586 44.0436L40.2844 40.0661L41.2973 39.0534ZM46.6 39.0527L43.9484 36.4011L52.9615 27.3804L55.6131 30.032L46.6 39.0527ZM60.1966 25.4447L58.2638 27.3792L55.6121 24.7276L57.5456 22.7925C58.2771 22.0614 59.4664 22.0615 60.1974 22.7925C60.9283 23.5238 60.9321 24.7091 60.1966 25.4447Z" fill="white"/>
<path d="M36.1273 18.75H9.87726C8.84176 18.75 8.00226 19.5895 8.00226 20.625C8.00226 21.6605 8.84176 22.5 9.87726 22.5H36.1273C37.1628 22.5 38.0023 21.6605 38.0023 20.625C38.0023 19.5895 37.1628 18.75 36.1273 18.75ZM28.6273 26.25H9.87726C8.84176 26.25 8.00226 27.0895 8.00226 28.125C8.00226 29.1605 8.84176 30 9.87726 30H28.6273C29.6628 30 30.5023 29.1605 30.5023 28.125C30.5023 27.0895 29.6628 26.25 28.6273 26.25ZM28.6273 33.75H9.87726C8.84176 33.75 8.00226 34.5895 8.00226 35.625C8.00226 36.6605 8.84176 37.5 9.87726 37.5H28.6273C29.6628 37.5 30.5023 36.6605 30.5023 35.625C30.5023 34.5895 29.6628 33.75 28.6273 33.75ZM28.6273 41.25H9.87726C8.84176 41.25 8.00226 42.0895 8.00226 43.125C8.00226 44.1605 8.84176 45 9.87726 45H28.6273C29.6628 45 30.5023 44.1605 30.5023 43.125C30.5023 42.0895 29.6628 41.25 28.6273 41.25ZM36.1273 52.75H24.8773C23.8418 52.75 23.0023 53.5895 23.0023 54.625C23.0023 55.6605 23.8418 56.5 24.8773 56.5H36.1273C37.1628 56.5 38.0023 55.6605 38.0023 54.625C38.0023 53.5895 37.1628 52.75 36.1273 52.75Z" fill="white"/>
</g>
<defs>
<clipPath id="clip0_142_806">
<rect width="64" height="64" fill="white" transform="translate(0.5)"/>
</clipPath>
</defs>
</svg>
