<svg width="65" height="64" viewBox="0 0 65 64" fill="none" xmlns="http://www.w3.org/2000/svg">
<g clip-path="url(#clip0_142_795)">
<path d="M48.5 64C48.2333 64 47.9667 63.9466 47.716 63.84C47.0973 63.576 32.5 57.2186 32.5 44.144V33.4293C32.5001 33.0115 32.6311 32.6042 32.8745 32.2646C33.118 31.925 33.4617 31.6702 33.8573 31.536L47.8573 26.7733C48.2741 26.6319 48.7259 26.6319 49.1427 26.7733L63.1427 31.536C63.5383 31.6702 63.882 31.925 64.1255 32.2646C64.3689 32.6042 64.4999 33.0115 64.5 33.4293V44.144C64.5 57.2186 49.9027 63.576 49.284 63.8426C49.0355 63.9461 48.7691 63.9996 48.5 64ZM36.5 34.8613V44.1413C36.5 53.0293 45.716 58.3733 48.5 59.7813C51.284 58.3733 60.5 53.0293 60.5 44.1413V34.8613L48.5 30.7786L36.5 34.8613Z" fill="white"/>
<path d="M47.8333 52C47.5706 52.0006 47.3104 51.9491 47.0678 51.8484C46.8252 51.7477 46.605 51.5998 46.42 51.4133L41.0867 46.08C40.9009 45.8942 40.7535 45.6737 40.653 45.4309C40.5524 45.1882 40.5007 44.9281 40.5007 44.6653C40.5007 44.4026 40.5524 44.1424 40.653 43.8997C40.7535 43.657 40.9009 43.4364 41.0867 43.2507C41.2724 43.0649 41.493 42.9175 41.7357 42.817C41.9785 42.7164 42.2386 42.6647 42.5013 42.6647C42.7641 42.6647 43.0242 42.7164 43.2669 42.817C43.5097 42.9175 43.7302 43.0649 43.916 43.2507L47.62 46.9547L54.2333 38.1333C54.3893 37.9186 54.5864 37.7371 54.8132 37.5993C55.04 37.4615 55.292 37.3702 55.5545 37.3308C55.8169 37.2914 56.0846 37.3046 56.3419 37.3696C56.5992 37.4347 56.8409 37.5503 57.0531 37.7097C57.2652 37.8692 57.4436 38.0692 57.5776 38.2982C57.7117 38.5273 57.7988 38.7807 57.834 39.0438C57.8691 39.3068 57.8516 39.5742 57.7823 39.8304C57.7131 40.0866 57.5935 40.3265 57.4307 40.536L49.4307 51.2027C49.2587 51.4319 49.0394 51.6215 48.7877 51.7586C48.5361 51.8957 48.2579 51.9771 47.972 51.9973L47.8333 52ZM28.74 56H7.83333C5.88885 55.9986 4.0244 55.2255 2.64944 53.8506C1.27448 52.4756 0.501413 50.6112 0.5 48.6667L0.5 7.33333C0.501413 5.38885 1.27448 3.5244 2.64944 2.14944C4.0244 0.774483 5.88885 0.00141263 7.83333 0L38.5 0C40.4445 0.00141263 42.3089 0.774483 43.6839 2.14944C45.0588 3.5244 45.8319 5.38885 45.8333 7.33333V21.8133C45.8333 22.3438 45.6226 22.8525 45.2476 23.2275C44.8725 23.6026 44.3638 23.8133 43.8333 23.8133C43.3029 23.8133 42.7942 23.6026 42.4191 23.2275C42.044 22.8525 41.8333 22.3438 41.8333 21.8133V7.33333C41.8333 5.496 40.3373 4 38.5 4H7.83333C5.996 4 4.5 5.496 4.5 7.33333V48.6667C4.5 50.504 5.996 52 7.83333 52H28.74C29.2704 52 29.7791 52.2107 30.1542 52.5858C30.5293 52.9609 30.74 53.4696 30.74 54C30.74 54.5304 30.5293 55.0391 30.1542 55.4142C29.7791 55.7893 29.2704 56 28.74 56Z" fill="white"/>
<path d="M35.8333 25.3334H10.5C9.96957 25.3334 9.46086 25.1226 9.08579 24.7476C8.71071 24.3725 8.5 23.8638 8.5 23.3334C8.5 22.8029 8.71071 22.2942 9.08579 21.9191C9.46086 21.5441 9.96957 21.3334 10.5 21.3334H35.8333C36.3638 21.3334 36.8725 21.5441 37.2475 21.9191C37.6226 22.2942 37.8333 22.8029 37.8333 23.3334C37.8333 23.8638 37.6226 24.3725 37.2475 24.7476C36.8725 25.1226 36.3638 25.3334 35.8333 25.3334ZM25.1667 36H10.5C9.96957 36 9.46086 35.7893 9.08579 35.4142C8.71071 35.0392 8.5 34.5305 8.5 34C8.5 33.4696 8.71071 32.9609 9.08579 32.5858C9.46086 32.2107 9.96957 32 10.5 32H25.1667C25.6971 32 26.2058 32.2107 26.5809 32.5858C26.956 32.9609 27.1667 33.4696 27.1667 34C27.1667 34.5305 26.956 35.0392 26.5809 35.4142C26.2058 35.7893 25.6971 36 25.1667 36ZM22.5 14.6667H10.5C9.96957 14.6667 9.46086 14.456 9.08579 14.0809C8.71071 13.7058 8.5 13.1971 8.5 12.6667C8.5 12.1363 8.71071 11.6275 9.08579 11.2525C9.46086 10.8774 9.96957 10.6667 10.5 10.6667H22.5C23.0304 10.6667 23.5391 10.8774 23.9142 11.2525C24.2893 11.6275 24.5 12.1363 24.5 12.6667C24.5 13.1971 24.2893 13.7058 23.9142 14.0809C23.5391 14.456 23.0304 14.6667 22.5 14.6667Z" fill="white"/>
</g>
<defs>
<clipPath id="clip0_142_795">
<rect width="64" height="64" fill="white" transform="translate(0.5)"/>
</clipPath>
</defs>
</svg>
