<svg width="32" height="32" viewBox="0 0 32 32" fill="none" xmlns="http://www.w3.org/2000/svg">
<g clip-path="url(#clip0_142_895)">
<path d="M27.3148 4.6861C21.0663 -1.56169 10.9353 -1.56238 4.6861 4.6861C-1.56238 10.9346 -1.56169 21.0656 4.6861 27.3148C10.9346 33.5619 21.0656 33.5626 27.3148 27.3148C33.5626 21.0656 33.5619 10.9353 27.3148 4.6861ZM18.0867 22.9571C18.0867 23.5106 17.8669 24.0415 17.4755 24.4328C17.0841 24.8242 16.5532 25.0441 15.9997 25.0441C15.4462 25.0441 14.9154 24.8242 14.524 24.4328C14.1326 24.0415 13.9127 23.5106 13.9127 22.9571V14.6091C13.9127 14.0556 14.1326 13.5248 14.524 13.1334C14.9154 12.742 15.4462 12.5221 15.9997 12.5221C16.5532 12.5221 17.0841 12.742 17.4755 13.1334C17.8669 13.5248 18.0867 14.0556 18.0867 14.6091V22.9571ZM15.9629 11.0417C14.7608 11.0417 13.9593 10.1902 13.9844 9.13907C13.9593 8.03713 14.7608 7.21138 15.9872 7.21138C17.2144 7.21138 17.9907 8.03783 18.0165 9.13907C18.0158 10.1902 17.2151 11.0417 15.9629 11.0417Z" fill="#C0B9BB"/>
</g>
<defs>
<clipPath id="clip0_142_895">
<rect width="32" height="32" fill="white"/>
</clipPath>
</defs>
</svg>
