<svg version="1.0" xmlns="http://www.w3.org/2000/svg"
     width="980.000000pt" height="980.000000pt" viewBox="0 0 980.000000 980.000000"
     preserveAspectRatio="xMidYMid meet">

    <g transform="translate(0.000000,980.000000) scale(0.100000,-0.100000)"
       fill="#000000" stroke="none">
        <path d="M4565 9790 c-1041 -78 -1989 -460 -2797 -1125 -171 -141 -492 -462
-633 -633 -886 -1075 -1273 -2421 -1090 -3787 97 -721 353 -1409 753 -2020
402 -616 947 -1141 1584 -1527 158 -95 545 -287 713 -353 783 -309 1629 -412
2463 -299 821 110 1587 422 2257 919 385 285 766 670 1050 1060 1241 1707
1246 4012 13 5732 -280 391 -672 789 -1063 1078 -725 537 -1555 856 -2465 945
-145 15 -639 20 -785 10z m815 -844 c1190 -146 2255 -803 2915 -1801 549 -828
773 -1813 639 -2805 -129 -955 -615 -1855 -1351 -2500 -623 -546 -1379 -884
-2213 -987 -206 -25 -736 -25 -935 0 -745 95 -1384 350 -1972 787 -894 666
-1471 1666 -1610 2790 -25 206 -25 734 0 940 67 539 232 1051 486 1505 644
1150 1798 1923 3091 2069 207 24 206 24 520 21 196 -2 340 -8 430 -19z"/>
        <path d="M2840 7105 l-275 -275 945 -945 945 -945 -945 -945 -945 -945 275
-275 275 -275 945 945 945 945 945 -945 945 -945 275 275 275 275 -945 945
-945 945 945 945 945 945 -275 275 -275 275 -945 -945 -945 -945 -945 945
-945 945 -275 -275z"/>
    </g>
</svg>
