<svg width="64" height="64" viewBox="0 0 64 64" fill="none" xmlns="http://www.w3.org/2000/svg">
<g clip-path="url(#clip0_160_526)">
<path d="M61.9981 30.001H36.6653C35.5614 30.001 34.6654 29.105 34.6654 28.001C34.6654 26.8971 35.5614 26.0011 36.6653 26.0011H61.9981C63.102 26.0011 63.998 26.8971 63.998 28.001C63.998 29.105 63.102 30.001 61.9981 30.001Z" fill="white"/>
<path d="M51.9984 39.9987C51.7357 39.9993 51.4755 39.9478 51.2328 39.8471C50.9902 39.7465 50.7699 39.5987 50.5848 39.4123C49.8036 38.6307 49.8036 37.3641 50.5848 36.5829L59.1715 27.9966L50.5848 19.41C49.8036 18.6288 49.8036 17.3622 50.5848 16.581C51.3665 15.7993 52.6331 15.7993 53.4143 16.581L63.414 26.5807C64.1952 27.3619 64.1952 28.6285 63.414 29.4097L53.4143 39.4094C53.2291 39.5965 53.0086 39.745 52.7655 39.8462C52.5224 39.9474 52.2617 39.9992 51.9984 39.9987ZM21.3328 63.998C20.7621 63.998 20.2206 63.918 19.6795 63.7499L3.63176 58.4034C1.44808 57.6407 0 55.6061 0 53.3318V5.33333C0 2.39205 2.39205 0 5.33333 0C5.90357 0 6.44517 0.0799975 6.98666 0.247992L23.0339 5.59458C25.218 6.35718 26.6657 8.39186 26.6657 10.6662V58.6647C26.6657 61.606 24.2741 63.998 21.3328 63.998ZM5.33333 3.99988C4.59998 3.99988 3.99988 4.59986 3.99988 5.33333V53.3318C3.99988 53.8997 4.38111 54.4274 4.9251 54.6169L20.8977 59.9395C21.0125 59.9766 21.162 59.9981 21.3328 59.9981C22.0662 59.9981 22.6658 59.398 22.6658 58.6647V10.6662C22.6658 10.0983 22.2846 9.57045 21.7406 9.38108L5.76794 4.0585C5.6532 4.02137 5.5037 3.99988 5.33333 3.99988Z" fill="white"/>
<path d="M40.6652 21.3348C39.5612 21.3348 38.6653 20.4388 38.6653 19.3349V7.33522C38.6653 5.49778 37.1697 4.00183 35.3324 4.00183H5.33331C4.22935 4.00183 3.33337 3.10586 3.33337 2.00189C3.33337 0.897925 4.22935 0.00195312 5.33331 0.00195312H35.3324C39.3776 0.00195312 42.6651 3.28998 42.6651 7.33522V19.3349C42.6651 20.4388 41.7692 21.3348 40.6652 21.3348ZM35.3324 56.0002H24.6657C23.5617 56.0002 22.6658 55.1042 22.6658 54.0003C22.6658 52.8963 23.5617 52.0003 24.6657 52.0003H35.3324C37.1698 52.0003 38.6653 50.5043 38.6653 48.6669V36.6673C38.6653 35.5633 39.5612 34.6674 40.6652 34.6674C41.7692 34.6674 42.6651 35.5633 42.6651 36.6673V48.6669C42.6651 52.7122 39.3777 56.0002 35.3324 56.0002Z" fill="white"/>
</g>
<defs>
<clipPath id="clip0_160_526">
<rect width="64" height="64" fill="white"/>
</clipPath>
</defs>
</svg>
