<svg width="65" height="64" viewBox="0 0 65 64" fill="none" xmlns="http://www.w3.org/2000/svg">
<path d="M52 59.25H52.0003C54.055 59.2478 56.0249 58.4306 57.4777 56.9777C58.9306 55.5249 59.7478 53.555 59.75 51.5003V51.5V6C59.75 5.66848 59.6183 5.35054 59.3839 5.11612C59.1495 4.8817 58.8315 4.75 58.5 4.75H24.5C24.1685 4.75 23.8505 4.8817 23.6161 5.11612C23.3817 5.35054 23.25 5.66848 23.25 6V8.51C23.25 8.84152 23.3817 9.15946 23.6161 9.39388C23.8505 9.6283 24.1685 9.76 24.5 9.76C24.8315 9.76 25.1495 9.6283 25.3839 9.39388C25.6183 9.15946 25.75 8.84152 25.75 8.51V7.25H57.25V51.4997C57.2482 52.8916 56.6945 54.226 55.7103 55.2103C54.726 56.1945 53.3916 56.7482 51.9997 56.75H22.5C22.1685 56.75 21.8505 56.8817 21.6161 57.1161C21.3817 57.3505 21.25 57.6685 21.25 58C21.25 58.3315 21.3817 58.6495 21.6161 58.8839C21.8505 59.1183 22.1685 59.25 22.5 59.25H52Z" fill="white" stroke="white" stroke-width="0.5"/>
<path d="M23.6161 42.8839C23.8505 43.1183 24.1685 43.25 24.5 43.25C24.8315 43.25 25.1495 43.1183 25.3839 42.8839C25.6183 42.6495 25.75 42.3315 25.75 42V25.7652C25.75 25.4337 25.6183 25.1158 25.3839 24.8813C25.1495 24.6469 24.8315 24.5152 24.5 24.5152C24.1685 24.5152 23.8505 24.6469 23.6161 24.8813C23.3817 25.1158 23.25 25.4337 23.25 25.7652V42C23.25 42.3315 23.3817 42.6495 23.6161 42.8839Z" fill="white" stroke="white" stroke-width="0.5"/>
<path d="M59.75 51.5V51.5003C59.7478 53.555 58.9306 55.5249 57.4777 56.9777C56.0249 58.4306 54.0551 59.2478 52.0004 59.25C52.0004 59.25 52.0003 59.25 52.0003 59.25L52 59C51.0146 59.0017 50.0386 58.8089 49.1279 58.4326C48.2171 58.0563 47.3897 57.5039 46.6929 56.8071C45.9961 56.1103 45.4437 55.2829 45.0674 54.3722C44.6911 53.4614 44.4983 52.4854 44.5 51.5H59.75ZM59.75 51.5V42C59.75 41.6685 59.6183 41.3505 59.3839 41.1161C59.1495 40.8817 58.8315 40.75 58.5 40.75C58.1685 40.75 57.8505 40.8817 57.6161 41.1161C57.3817 41.3505 57.25 41.6685 57.25 42V51.5C57.25 52.8924 56.6969 54.2277 55.7123 55.2123C54.7277 56.1969 53.3924 56.75 52 56.75C50.6076 56.75 49.2723 56.1969 48.2877 55.2123C47.3031 54.2277 46.75 52.8924 46.75 51.5V42C46.75 41.6685 46.6183 41.3505 46.3839 41.1161C46.1495 40.8817 45.8315 40.75 45.5 40.75C45.1685 40.75 44.8505 40.8817 44.6161 41.1161C44.3817 41.3505 44.25 41.6685 44.25 42V51.4996L59.75 51.5ZM17.5 29.25H17.5003C20.748 29.2465 23.8618 27.9548 26.1583 25.6583C28.4548 23.3618 29.7465 20.248 29.75 17.0003V17C29.75 14.5772 29.0316 12.2088 27.6855 10.1943C26.3395 8.17977 24.4263 6.60965 22.1879 5.68248C19.9495 4.75531 17.4864 4.51272 15.1101 4.98539C12.7339 5.45805 10.5511 6.62475 8.83795 8.33795C7.12475 10.0511 5.95805 12.2339 5.48539 14.6101C5.01272 16.9864 5.25531 19.4495 6.18248 21.6879C7.10965 23.9263 8.67977 25.8395 10.6943 27.1855C12.7088 28.5316 15.0772 29.25 17.5 29.25ZM12.0832 8.89318C13.6866 7.82184 15.5716 7.25002 17.4999 7.25001C20.0849 7.2529 22.5632 8.28106 24.3911 10.1089C26.219 11.9368 27.2472 14.4152 27.25 17.0003C27.25 18.9286 26.6781 20.8135 25.6068 22.4168C24.5355 24.0202 23.0127 25.2699 21.2312 26.0078C19.4496 26.7458 17.4892 26.9389 15.5979 26.5627C13.7066 26.1865 11.9693 25.2579 10.6057 23.8943C9.24215 22.5307 8.31355 20.7935 7.93735 18.9021C7.56114 17.0108 7.75423 15.0504 8.49218 13.2688C9.23013 11.4873 10.4798 9.96452 12.0832 8.89318Z" fill="white" stroke="white" stroke-width="0.5"/>
<path d="M23.4877 59.2461H23.4874C21.4328 59.2439 19.4629 58.4267 18.01 56.9738C16.5571 55.5209 15.7399 53.551 15.7377 51.4964L15.7377 51.4961L15.7377 41.9961C15.7377 41.6646 15.8694 41.3466 16.1038 41.1122C16.3382 40.8778 16.6562 40.7461 16.9877 40.7461H46.9877C47.3192 40.7461 47.6372 40.8778 47.8716 41.1122C48.106 41.3466 48.2377 41.6646 48.2377 41.9961V51.9961C48.2377 52.3276 48.106 52.6455 47.8716 52.88C47.6372 53.1144 47.3192 53.2461 46.9877 53.2461C46.6562 53.2461 46.3383 53.1144 46.1038 52.88C45.8694 52.6456 45.7377 52.3276 45.7377 51.9961V43.2461H18.2377L18.2377 51.4958L18.2377 51.4961M23.4877 59.2461V56.9961C22.0296 56.9942 20.6317 56.4142 19.6007 55.3831C18.5696 54.3521 17.9896 52.9542 17.9877 51.4961H18.2377M23.4877 59.2461H46.9877C47.3192 59.2461 47.6372 59.1144 47.8716 58.88C48.106 58.6455 48.2377 58.3276 48.2377 57.9961C48.2377 57.6646 48.106 57.3466 47.8716 57.1122C47.6372 56.8778 47.3192 56.7461 46.9877 56.7461H23.488M23.4877 59.2461L23.488 56.7461M18.2377 51.4961C18.2396 52.8879 18.7933 54.2222 19.7774 55.2064C20.7617 56.1906 22.0961 56.7443 23.488 56.7461M18.2377 51.4961L23.488 56.7461M17.9877 22.2461L17.9877 22.2462L17.9945 22.246L18.0315 22.245L18.0329 22.245C18.2041 22.2394 18.3723 22.1987 18.5271 22.1253C18.682 22.052 18.8201 21.9476 18.9329 21.8187L25.9329 13.8187L25.9338 13.8176C26.1499 13.5677 26.2583 13.2424 26.2352 12.9128C26.2122 12.5832 26.0596 12.2761 25.8108 12.0587C25.562 11.8413 25.2373 11.7313 24.9076 11.7526C24.5779 11.7739 24.27 11.925 24.0513 12.1726L24.0506 12.1734L17.9266 19.1674L15.8715 17.1123L15.8715 17.1123L15.8684 17.1093C15.6326 16.8816 15.3169 16.7556 14.9891 16.7584C14.6614 16.7613 14.3479 16.8927 14.1161 17.1245C13.8844 17.3563 13.7529 17.6698 13.75 17.9975C13.7472 18.3253 13.8732 18.641 14.1009 18.8768L14.1009 18.8768L14.1039 18.8799L17.1039 21.8798C17.3383 22.1143 17.6562 22.246 17.9877 22.2461ZM34.9877 15.2461H50.9877C51.3192 15.2461 51.6372 15.1144 51.8716 14.88C52.106 14.6456 52.2377 14.3276 52.2377 13.9961C52.2377 13.6646 52.106 13.3466 51.8716 13.1122C51.6372 12.8778 51.3192 12.7461 50.9877 12.7461H34.9877C34.6562 12.7461 34.3382 12.8778 34.1038 13.1122C33.8694 13.3466 33.7377 13.6646 33.7377 13.9961C33.7377 14.3276 33.8694 14.6456 34.1038 14.88C34.3382 15.1144 34.6562 15.2461 34.9877 15.2461ZM34.9877 22.2461H50.9877C51.3192 22.2461 51.6372 22.1144 51.8716 21.88C52.106 21.6456 52.2377 21.3276 52.2377 20.9961C52.2377 20.6646 52.106 20.3466 51.8716 20.1122C51.6372 19.8778 51.3192 19.7461 50.9877 19.7461H34.9877C34.6562 19.7461 34.3382 19.8778 34.1038 20.1122C33.8694 20.3466 33.7377 20.6646 33.7377 20.9961C33.7377 21.3276 33.8694 21.6456 34.1038 21.88C34.3382 22.1144 34.6562 22.2461 34.9877 22.2461ZM34.9877 29.2461H50.9877C51.3192 29.2461 51.6372 29.1144 51.8716 28.88C52.106 28.6456 52.2377 28.3276 52.2377 27.9961C52.2377 27.6646 52.106 27.3466 51.8716 27.1122C51.6372 26.8778 51.3192 26.7461 50.9877 26.7461H34.9877C34.6562 26.7461 34.3382 26.8778 34.1038 27.1122C33.8694 27.3466 33.7377 27.6646 33.7377 27.9961C33.7377 28.3276 33.8694 28.6456 34.1038 28.88C34.3382 29.1144 34.6562 29.2461 34.9877 29.2461ZM34.9877 36.2461H50.9877C51.3192 36.2461 51.6372 36.1144 51.8716 35.88C52.106 35.6456 52.2377 35.3276 52.2377 34.9961C52.2377 34.6646 52.106 34.3466 51.8716 34.1122C51.6372 33.8778 51.3192 33.7461 50.9877 33.7461H34.9877C34.6562 33.7461 34.3382 33.8778 34.1038 34.1122C33.8694 34.3466 33.7377 34.6646 33.7377 34.9961C33.7377 35.3276 33.8694 35.6456 34.1038 35.88C34.3382 36.1144 34.6562 36.2461 34.9877 36.2461Z" fill="white" stroke="white" stroke-width="0.5"/>
</svg>
