<svg width="64" height="64" viewBox="0 0 64 64" fill="none" xmlns="http://www.w3.org/2000/svg">
<g clip-path="url(#clip0_142_801)">
<path d="M62.8626 12.4662C62.0334 11.4859 60.8721 10.8872 59.5925 10.7803L14.5231 7.01706C13.2433 6.91019 11.9991 7.30806 11.0187 8.13718C10.0423 8.96305 9.44446 10.1184 9.33421 11.3918L8.42747 19.8988H4.80686C2.15637 19.8988 0 22.0551 0 24.7056V52.9183C0 55.5687 2.15637 57.7251 4.80686 57.7251H50.0333C52.6839 57.7251 54.8403 55.5687 54.8403 52.9183V48.3416L56.4452 48.4756C56.5805 48.4869 56.7151 48.4925 56.8486 48.4925C59.3196 48.4925 61.4261 46.5914 61.6354 44.0854L63.983 15.9706C64.0897 14.691 63.6919 13.4465 62.8626 12.4662ZM4.80686 22.3987H50.0333C51.3053 22.3987 52.3403 23.4336 52.3403 24.7056V27.2764H2.49999V24.7056C2.49999 23.4336 3.53486 22.3987 4.80686 22.3987ZM2.49999 29.7763H52.3403V34.9624H2.49999V29.7763ZM50.0333 55.2251H4.80686C3.53486 55.2251 2.49999 54.1903 2.49999 52.9183V37.4624H52.3403V52.9183C52.3403 54.1903 51.3053 55.2251 50.0333 55.2251ZM61.4916 15.7625L59.144 43.8773C59.0381 45.1449 57.9205 46.0905 56.6532 45.9843L54.8403 45.8329V24.7056C54.8403 22.0551 52.6839 19.8988 50.0333 19.8988H10.9417L11.8216 11.6438C11.8226 11.6343 11.8235 11.6249 11.8242 11.6153C11.9301 10.3477 13.0471 9.40218 14.3151 9.50843L59.3846 13.2717C59.9988 13.3229 60.5561 13.6103 60.954 14.0808C61.3519 14.5513 61.5429 15.1484 61.4916 15.7625Z" fill="white"/>
<path d="M45.2802 48H33.25C32.5596 48 32 48.5596 32 49.25V57.0986C32 57.789 32.5596 58.3486 33.25 58.3486H45.2802C45.9706 58.3486 46.5302 57.789 46.5302 57.0986V49.25C46.5302 48.5596 45.9706 48 45.2802 48ZM44.0302 55.8486H34.5V50.5H44.0302V55.8486Z" fill="white"/>
</g>
<defs>
<clipPath id="clip0_142_801">
<rect width="64" height="64" fill="white"/>
</clipPath>
</defs>
</svg>
