<svg width="55" height="56" viewBox="0 0 55 56" fill="none" xmlns="http://www.w3.org/2000/svg">
<path d="M47 55.25H47.0003C49.055 55.2478 51.0249 54.4306 52.4777 52.9777C53.9306 51.5249 54.7478 49.555 54.75 47.5003V47.5V2C54.75 1.66848 54.6183 1.35054 54.3839 1.11612C54.1495 0.881697 53.8315 0.75 53.5 0.75H19.5C19.1685 0.75 18.8505 0.881696 18.6161 1.11612C18.3817 1.35054 18.25 1.66848 18.25 2V4.51C18.25 4.84152 18.3817 5.15946 18.6161 5.39388C18.8505 5.6283 19.1685 5.76 19.5 5.76C19.8315 5.76 20.1495 5.6283 20.3839 5.39388C20.6183 5.15946 20.75 4.84152 20.75 4.51V3.25H52.25V47.4997C52.2482 48.8916 51.6945 50.226 50.7103 51.2103C49.726 52.1945 48.3916 52.7482 46.9997 52.75H17.5C17.1685 52.75 16.8505 52.8817 16.6161 53.1161C16.3817 53.3505 16.25 53.6685 16.25 54C16.25 54.3315 16.3817 54.6495 16.6161 54.8839C16.8505 55.1183 17.1685 55.25 17.5 55.25H47Z" fill="white" stroke="white" stroke-width="0.5"/>
<path d="M18.6161 38.8839C18.8505 39.1183 19.1685 39.25 19.5 39.25C19.8315 39.25 20.1495 39.1183 20.3839 38.8839C20.6183 38.6495 20.75 38.3315 20.75 38V21.7652C20.75 21.4337 20.6183 21.1158 20.3839 20.8813C20.1495 20.6469 19.8315 20.5152 19.5 20.5152C19.1685 20.5152 18.8505 20.6469 18.6161 20.8813C18.3817 21.1158 18.25 21.4337 18.25 21.7652V38C18.25 38.3315 18.3817 38.6495 18.6161 38.8839Z" fill="white" stroke="white" stroke-width="0.5"/>
<path d="M54.75 47.5V47.5003C54.7478 49.555 53.9306 51.5249 52.4777 52.9777C51.0249 54.4306 49.0551 55.2478 47.0004 55.25C47.0004 55.25 47.0003 55.25 47.0003 55.25L47 55C46.0146 55.0017 45.0386 54.8089 44.1279 54.4326C43.2171 54.0563 42.3897 53.5039 41.6929 52.8071C40.9961 52.1103 40.4437 51.2829 40.0674 50.3722C39.6911 49.4614 39.4983 48.4854 39.5 47.5H54.75ZM54.75 47.5V38C54.75 37.6685 54.6183 37.3505 54.3839 37.1161C54.1495 36.8817 53.8315 36.75 53.5 36.75C53.1685 36.75 52.8505 36.8817 52.6161 37.1161C52.3817 37.3505 52.25 37.6685 52.25 38V47.5C52.25 48.8924 51.6969 50.2277 50.7123 51.2123C49.7277 52.1969 48.3924 52.75 47 52.75C45.6076 52.75 44.2723 52.1969 43.2877 51.2123C42.3031 50.2277 41.75 48.8924 41.75 47.5V38C41.75 37.6685 41.6183 37.3505 41.3839 37.1161C41.1495 36.8817 40.8315 36.75 40.5 36.75C40.1685 36.75 39.8505 36.8817 39.6161 37.1161C39.3817 37.3505 39.25 37.6685 39.25 38V47.4996L54.75 47.5ZM12.5 25.25H12.5003C15.748 25.2465 18.8618 23.9548 21.1583 21.6583C23.4548 19.3618 24.7465 16.248 24.75 13.0003V13C24.75 10.5772 24.0316 8.20877 22.6855 6.19427C21.3395 4.17977 19.4263 2.60965 17.1879 1.68248C14.9495 0.755308 12.4864 0.512717 10.1101 0.985386C7.73388 1.45805 5.55114 2.62475 3.83795 4.33795C2.12475 6.05114 0.958055 8.23388 0.485386 10.6101C0.0127168 12.9864 0.255308 15.4495 1.18248 17.6879C2.10965 19.9263 3.67977 21.8395 5.69427 23.1855C7.70877 24.5316 10.0772 25.25 12.5 25.25ZM7.0832 4.89318C8.68656 3.82184 10.5716 3.25002 12.4999 3.25001C15.0849 3.2529 17.5632 4.28106 19.3911 6.10893C21.219 7.93685 22.2472 10.4152 22.25 13.0003C22.25 14.9286 21.6781 16.8135 20.6068 18.4168C19.5355 20.0202 18.0127 21.2699 16.2312 22.0078C14.4496 22.7458 12.4892 22.9389 10.5979 22.5627C8.70656 22.1865 6.96928 21.2579 5.60571 19.8943C4.24215 18.5307 3.31355 16.7935 2.93735 14.9021C2.56114 13.0108 2.75423 11.0504 3.49218 9.26884C4.23013 7.48726 5.47982 5.96452 7.0832 4.89318Z" fill="white" stroke="white" stroke-width="0.5"/>
<path d="M18.4877 55.2461H18.4874C16.4328 55.2439 14.4629 54.4267 13.01 52.9738C11.5571 51.5209 10.7399 49.551 10.7377 47.4964L10.7377 47.4961L10.7377 37.9961C10.7377 37.6646 10.8694 37.3466 11.1038 37.1122C11.3382 36.8778 11.6562 36.7461 11.9877 36.7461H41.9877C42.3192 36.7461 42.6372 36.8778 42.8716 37.1122C43.106 37.3466 43.2377 37.6646 43.2377 37.9961V47.9961C43.2377 48.3276 43.106 48.6455 42.8716 48.88C42.6372 49.1144 42.3192 49.2461 41.9877 49.2461C41.6562 49.2461 41.3383 49.1144 41.1038 48.88C40.8694 48.6456 40.7377 48.3276 40.7377 47.9961V39.2461H13.2377L13.2377 47.4958L13.2377 47.4961M18.4877 55.2461V52.9961C17.0296 52.9942 15.6317 52.4142 14.6007 51.3831C13.5696 50.3521 12.9896 48.9542 12.9877 47.4961H13.2377M18.4877 55.2461H41.9877C42.3192 55.2461 42.6372 55.1144 42.8716 54.88C43.106 54.6455 43.2377 54.3276 43.2377 53.9961C43.2377 53.6646 43.106 53.3466 42.8716 53.1122C42.6372 52.8778 42.3192 52.7461 41.9877 52.7461H18.488M18.4877 55.2461L18.488 52.7461M13.2377 47.4961C13.2396 48.8879 13.7933 50.2222 14.7774 51.2064C15.7617 52.1906 17.0961 52.7443 18.488 52.7461M13.2377 47.4961L18.488 52.7461M12.9877 18.2461L12.9877 18.2462L12.9945 18.246L13.0315 18.245L13.0329 18.245C13.2041 18.2394 13.3723 18.1987 13.5271 18.1253C13.682 18.052 13.8201 17.9476 13.9329 17.8187L20.9329 9.81872L20.9338 9.81761C21.1499 9.56769 21.2583 9.24238 21.2352 8.91279C21.2122 8.5832 21.0596 8.27614 20.8108 8.05874C20.562 7.84134 20.2373 7.73127 19.9076 7.75261C19.5779 7.77395 19.27 7.92495 19.0513 8.17261L19.0506 8.1734L12.9266 15.1674L10.8715 13.1123L10.8715 13.1123L10.8684 13.1093C10.6326 12.8816 10.3169 12.7556 9.98914 12.7584C9.66139 12.7613 9.34788 12.8927 9.11612 13.1245C8.88436 13.3563 8.7529 13.6698 8.75005 13.9975C8.7472 14.3253 8.87319 14.641 9.10089 14.8768L9.10086 14.8768L9.10394 14.8799L12.1039 17.8798C12.3383 18.1143 12.6562 18.246 12.9877 18.2461ZM29.9877 11.2461H45.9877C46.3192 11.2461 46.6372 11.1144 46.8716 10.88C47.106 10.6456 47.2377 10.3276 47.2377 9.99609C47.2377 9.66457 47.106 9.34663 46.8716 9.1122C46.6372 8.87779 46.3192 8.74609 45.9877 8.74609H29.9877C29.6562 8.74609 29.3382 8.87779 29.1038 9.11221C28.8694 9.34663 28.7377 9.66457 28.7377 9.99609C28.7377 10.3276 28.8694 10.6456 29.1038 10.88C29.3382 11.1144 29.6562 11.2461 29.9877 11.2461ZM29.9877 18.2461H45.9877C46.3192 18.2461 46.6372 18.1144 46.8716 17.88C47.106 17.6456 47.2377 17.3276 47.2377 16.9961C47.2377 16.6646 47.106 16.3466 46.8716 16.1122C46.6372 15.8778 46.3192 15.7461 45.9877 15.7461H29.9877C29.6562 15.7461 29.3382 15.8778 29.1038 16.1122C28.8694 16.3466 28.7377 16.6646 28.7377 16.9961C28.7377 17.3276 28.8694 17.6456 29.1038 17.88C29.3382 18.1144 29.6562 18.2461 29.9877 18.2461ZM29.9877 25.2461H45.9877C46.3192 25.2461 46.6372 25.1144 46.8716 24.88C47.106 24.6456 47.2377 24.3276 47.2377 23.9961C47.2377 23.6646 47.106 23.3466 46.8716 23.1122C46.6372 22.8778 46.3192 22.7461 45.9877 22.7461H29.9877C29.6562 22.7461 29.3382 22.8778 29.1038 23.1122C28.8694 23.3466 28.7377 23.6646 28.7377 23.9961C28.7377 24.3276 28.8694 24.6456 29.1038 24.88C29.3382 25.1144 29.6562 25.2461 29.9877 25.2461ZM29.9877 32.2461H45.9877C46.3192 32.2461 46.6372 32.1144 46.8716 31.88C47.106 31.6456 47.2377 31.3276 47.2377 30.9961C47.2377 30.6646 47.106 30.3466 46.8716 30.1122C46.6372 29.8778 46.3192 29.7461 45.9877 29.7461H29.9877C29.6562 29.7461 29.3382 29.8778 29.1038 30.1122C28.8694 30.3466 28.7377 30.6646 28.7377 30.9961C28.7377 31.3276 28.8694 31.6456 29.1038 31.88C29.3382 32.1144 29.6562 32.2461 29.9877 32.2461Z" fill="white" stroke="white" stroke-width="0.5"/>
</svg>
