<svg width="980" height="1270" viewBox="0 0 980 1270" fill="none" xmlns="http://www.w3.org/2000/svg">
<path d="M613.884 1342C917.064 1342 1162.84 1096.2 1162.84 793C1162.84 489.796 917.064 244 613.884 244C310.704 244 64.9287 489.796 64.9287 793C64.9287 1096.2 310.704 1342 613.884 1342Z" fill="#F7F5F2"/>
<mask id="mask0_140_470" style="mask-type:luminance" maskUnits="userSpaceOnUse" x="0" y="0" width="1225" height="1342">
<path d="M0 0H1224.72V1342H0V0Z" fill="white"/>
</mask>
<g mask="url(#mask0_140_470)">
<path d="M790.915 249.563C789.424 251.094 787.817 252.503 786.109 253.784C784.043 255.481 781.606 256.667 778.997 257.249L778.695 257.295C778.005 256.814 777.342 256.294 776.71 255.739C771.583 251.244 768.179 244.342 764.596 238.553C762.504 234.908 760.719 231.095 759.259 227.155C757.127 221.894 754.01 215.778 751.869 210.487L749.146 210.874C748.142 203.553 747.521 196.184 747.286 188.798C716.48 159.744 706.105 108.888 657.888 100.699L656.595 104.63C648.219 102.078 639.244 102.295 631.002 105.249L630.181 102.026C577.39 116.254 567.469 163.202 547.911 207.308C539.381 226.627 530.695 246.098 518.652 263.465C513.857 270.418 508.439 276.921 502.467 282.894C500.698 284.655 498.875 286.359 496.999 288.005C497.612 302.645 498.6 317.264 499.96 331.861L500.573 331.8C503.357 361.608 517.371 400.529 543.593 431.06C540.755 434.343 537.477 437.219 533.852 439.606L534.456 440.463C524.623 447.456 511.918 449.637 499.853 448.762C487.514 447.85 475.809 443.857 463.875 440.725C460.085 441.268 456.243 441.338 452.436 440.935C448.239 440.328 444.052 438.566 441.383 435.278C438.965 432.295 438.041 428.488 437.693 424.624L439.871 424.462C446.077 389.634 418.934 340.542 423.765 291.687C427.567 252.805 436.348 214.572 449.892 177.928C476.965 105.124 540.808 -18.8826 643.704 9.30857C653.943 6.83702 664.64 6.98703 674.805 9.74472C736.258 -5.67913 788.759 84.2257 809.537 136.954C832.136 194.294 847.702 253.946 843.792 315.846C841.343 354.41 816.564 397.025 823.069 430.196C818.204 432.408 813.062 433.954 807.784 434.79L806.698 431.788C776.127 442.894 763.224 444.766 746.069 443.912L745.983 445.535C736.166 445.013 726.328 445.013 716.511 445.535C714.22 441.63 712.57 437.384 711.625 432.957L711.378 432.731C731.915 409.294 745.46 380.562 750.473 349.804C752.844 349.658 755.127 348.849 757.063 347.471C774.654 351.506 790.845 333.484 799.882 320.61C810.839 305.07 816.299 285.797 813.786 266.793C812.413 256.38 800.665 242.634 790.915 249.563Z" fill="#EACAB5"/>
<path d="M840.111 1173.23L841.73 1173.37C838.684 1176.76 836.706 1180.97 836.046 1185.49L834.634 1186.59C833.42 1185.02 832.19 1183.47 830.943 1181.93C833.444 1178.49 836.551 1175.54 840.111 1173.23Z" fill="#EECFC5"/>
<path d="M581.537 371.832C584.81 384.266 587.741 403.692 598.723 420.009C610.644 437.702 634.475 436.894 647.101 420.305C656.561 407.873 664.674 383.714 667.458 368.583L663.868 369.361C638.973 380.738 598.104 374.668 581.537 371.832ZM776.691 255.779C777.324 256.333 777.987 256.852 778.676 257.335L778.978 257.289C781.588 256.708 784.025 255.521 786.09 253.824C787.801 252.544 789.409 251.133 790.9 249.603C800.647 242.664 812.397 256.41 813.77 266.823C816.283 285.828 810.824 305.07 799.866 320.64C790.845 333.487 774.654 351.506 757.087 347.471C756.158 347.276 755.243 347.017 754.349 346.696L750.93 346.858C750.789 347.837 750.649 348.832 750.494 349.811C745.248 382.154 730.573 412.229 708.306 436.266C686.412 459.577 657.476 475.458 624.231 476.3C597.924 476.968 568.277 456.911 550.088 438.224C547.851 435.933 545.694 433.563 543.623 431.121C517.401 400.59 503.388 361.669 500.603 331.861L499.99 331.922C498.625 317.332 497.637 302.708 497.029 288.066C498.905 286.421 500.727 284.716 502.494 282.955C508.468 276.984 513.886 270.481 518.679 263.526C530.726 246.159 539.372 226.688 547.941 207.369C567.499 163.266 577.411 116.318 630.208 102.09L631.032 105.313C639.274 102.358 648.249 102.14 656.625 104.691L657.918 100.76C706.135 108.949 716.51 159.814 747.316 188.862C747.551 196.249 748.173 203.615 749.176 210.938L751.9 210.548C754.037 215.839 757.157 221.955 759.289 227.216C760.749 231.157 762.534 234.971 764.626 238.617C768.13 244.351 771.564 251.247 776.691 255.779ZM694.058 289.14C696.464 286.59 696.434 281.789 695.973 278.843C695.565 276.357 692.005 273.134 689.91 276.955C689.508 277.785 689.334 278.708 689.407 279.627C689.407 281.826 688.693 287.237 690.353 289.146C690.678 289.508 691.097 289.772 691.564 289.91C692.031 290.047 692.527 290.052 692.997 289.924C693.41 289.74 693.773 289.461 694.058 289.109V289.14ZM564.258 279.868C566.585 277.321 566.584 272.1 566.106 269.199C565.724 266.722 562.226 263.505 560.18 267.311C559.796 268.148 559.628 269.068 559.692 269.986C559.692 272.182 559 277.965 560.637 279.868C560.947 280.23 561.355 280.495 561.811 280.633C562.267 280.771 562.753 280.775 563.211 280.646C563.619 280.478 563.979 280.21 564.258 279.868Z" fill="#FDEEE8"/>
<path d="M925.455 801.384C921.722 804.734 918.879 808.957 917.181 813.676L919.654 814.176C874.051 903.535 831.538 1064.97 822.852 1162.67C821.318 1164.09 820.111 1165.83 819.314 1167.76C790.031 1132.99 752.86 1094.91 722.28 1066.84C716.233 1061.3 709.981 1055.74 702.521 1052.35C695.061 1048.96 686.879 1047.9 678.806 1046.91C667.723 1045.49 656.531 1044.08 645.411 1045.17C638.431 1045.88 629.836 1049.6 630.141 1056.64C630.343 1061.06 634.149 1064.41 637.897 1066.74C649.574 1073.83 663.396 1076.29 676.122 1081.25C688.238 1085.97 699.338 1092.97 708.825 1101.86C712.246 1104.92 715.178 1108.49 717.52 1112.44C717.318 1116.45 715.971 1120.32 713.64 1123.59L713.494 1124.53C673.887 1118.62 633.585 1119.13 594.139 1126.04C590.077 1126.75 585.874 1127.59 582.562 1130.08C579.25 1132.58 577.134 1137.12 578.768 1140.92C580.809 1145.7 587.045 1146.66 592.239 1146.94C625.795 1148.67 659.352 1150.41 692.911 1152.16L694.323 1155.43C663.315 1158.54 632.319 1161.77 601.336 1165.13C597.396 1165.56 593.374 1166.03 589.836 1167.82C586.298 1169.6 583.346 1173.08 583.282 1177.04C583.206 1183.34 589.961 1187.41 596.054 1188.95C610.016 1192.47 624.643 1189.87 638.858 1187.76C657.004 1185.07 675.378 1185.05 693.765 1185.32C682.224 1186.62 670.764 1188.57 659.44 1191.15C649.474 1193.48 639.184 1196.81 632.212 1204.31C630.086 1206.59 628.257 1209.58 628.76 1212.65C629.669 1218.2 636.811 1219.76 642.41 1219.92C664.57 1220.59 686.745 1219.41 708.709 1216.39C714.912 1215.53 721.189 1214.54 727.361 1215.53C742.095 1217.86 752.619 1230.56 762.918 1241.42C776.932 1256.18 793.358 1269.19 812.443 1276.28C813.785 1276.77 815.127 1277.22 816.493 1277.66C816.554 1278.51 816.625 1279.39 816.679 1280.23L817.991 1280.14C819.781 1289.04 819.937 1291.74 821.565 1300.03C774.01 1324.12 705.754 1340.72 612.233 1342.04C540.326 1343.04 465.711 1322.09 389.748 1294.9H389.501C389.949 1291.01 390.44 1287.13 390.968 1283.25C416.085 1207.1 430.053 1026.14 415.146 949.428C411.688 931.494 407.119 913.783 402.74 896.053L366.289 917.724C342.203 937.108 317.812 956.109 293.126 974.722C287.285 979.135 281.399 983.54 274.925 986.928C266.391 991.402 256.986 994.013 247.632 996.432C235.952 999.47 223.814 1002.27 211.959 1000.15C196.448 997.371 183.597 986.611 172.404 975.42C144.26 947.145 121.688 913.825 105.865 877.201C101.211 866.493 97.179 854.448 100.149 843.337C95.2471 837.345 92.4493 829.908 92.1865 822.17L94.2939 821.392C86.7915 800.366 79.2952 779.348 71.8051 758.337C68.4686 749.013 65.1048 739.509 64.6686 729.584C64.2356 719.663 67.1511 709.149 74.6108 702.644L74.9067 699.42C75.7606 698.846 76.6267 698.27 77.4806 697.712C78.5664 701.518 79.6765 705.343 80.7744 709.149H81.5063C81.549 714.725 82.7872 720.227 85.1355 725.281L83.754 725.918C85.8888 735.032 96.9381 739.71 106.13 737.792C115.319 735.87 122.647 729.166 128.921 722.249C140.376 709.537 150.156 694.043 150.635 676.926L150.723 655.594C149.946 653.908 149.257 652.23 148.543 650.553L150.412 652.105L151.001 651.398C155.304 648.68 160.626 652.868 163.603 656.994C179.068 678.439 185.134 721.901 196.378 746.975C198.502 753.708 201.003 760.315 203.868 766.767L205.848 766.572L243.567 807.555C245.621 806.119 247.84 804.934 250.176 804.026C276.834 756.638 303.486 709.238 330.134 661.826C338.945 646.139 347.933 630.24 360.751 617.613C381.614 597.074 410.385 587.308 437.367 576.047C465.066 564.466 491.838 550.779 517.447 535.107C525.257 530.328 533.104 525.262 539.015 518.253C539.256 517.972 539.497 517.692 539.713 517.396C539.591 520.562 539.759 523.728 540.216 526.86C553.565 534.555 567.213 541.936 581.919 546.444C619.638 557.991 716.51 544.245 747.679 477.108C746.898 474.273 745.822 471.528 744.47 468.916C754.129 473.104 764.425 475.629 774.925 476.386C802.294 478.38 829.985 472.088 857.131 476.197C913.366 484.746 952.884 534.375 986.544 580.323C1039.68 652.846 1092.83 725.372 1145.98 797.895C1158.18 814.57 1170.42 831.268 1180.91 849.065C1192.15 868.104 1201.33 888.279 1208.31 909.254L1208.98 909.098C1210.73 916.379 1212.2 923.722 1213.39 931.113L1214.95 930.863C1225.72 965.901 1216.27 1004.68 1197.78 1036.33C1179.29 1067.97 1152.55 1093.83 1126.16 1119.19C1074.98 1168.45 954.11 1223.5 901.917 1271.71L901.816 1272.54C896.985 1271.91 893.185 1268.41 890.136 1264.37L890.325 1264.22C889.295 1261.53 888.227 1258.84 887.119 1256.18C874.448 1225.47 864.685 1216.88 840.333 1188.95L836.268 1188.7L834.624 1186.59L836.036 1185.49C836.697 1180.97 838.674 1176.76 841.721 1173.37C846.652 1167.52 853.981 1163.06 860.745 1159.15C871.672 1152.83 882.391 1146.14 892.883 1139.12C927.736 1104.15 974.397 1076.43 1008.15 1037.76C1020.09 1024.06 1031.53 1009.71 1044.46 997.03C1048.39 994.549 1051.86 991.393 1054.7 987.706C1059.73 981.228 1062.66 973.362 1063.08 965.169L1063.22 965.063C1019.99 912.246 971.973 854.03 925.455 801.384Z" fill="#BEDCEA"/>
<path d="M879.621 1267.39L880.093 1267.88C876.781 1271.11 873.238 1274.34 871.829 1275.03C854.765 1283.32 834.6 1283.32 816.47 1277.59C815.111 1277.16 813.762 1276.7 812.423 1276.21C793.334 1269.12 776.911 1256.14 762.895 1241.35C752.595 1230.47 742.104 1217.79 727.337 1215.46C721.134 1214.47 714.876 1215.46 708.685 1216.32C686.722 1219.34 664.546 1220.52 642.387 1219.85C636.787 1219.69 629.645 1218.13 628.736 1212.58C628.233 1209.47 630.063 1206.52 632.188 1204.24C639.166 1196.74 649.45 1193.42 659.416 1191.08C670.741 1188.5 682.2 1186.55 693.741 1185.25C702.839 1185.39 711.927 1185.58 721.009 1185.57C720.466 1184.62 719.982 1183.63 719.561 1182.61C710.951 1183.39 702.32 1184.21 693.741 1185.25C675.354 1184.98 656.983 1185 638.834 1187.69C624.619 1189.8 609.977 1192.4 596.033 1188.88C589.937 1187.33 583.182 1183.27 583.258 1176.97C583.322 1173.01 586.293 1169.56 589.812 1167.75C593.334 1165.94 597.375 1165.49 601.313 1165.06C632.289 1161.7 663.284 1158.47 694.3 1155.36C693.827 1154.27 693.363 1153.18 692.887 1152.09C659.332 1150.33 625.775 1148.59 592.218 1146.87C587.021 1146.59 580.785 1145.63 578.747 1140.85C577.119 1137.05 579.242 1132.48 582.538 1130.01C585.835 1127.55 590.053 1126.68 594.118 1125.97C633.563 1119.06 673.864 1118.55 713.47 1124.46L713.62 1123.52C715.95 1120.25 717.296 1116.38 717.496 1112.37C715.155 1108.42 712.224 1104.85 708.804 1101.79C699.316 1092.9 688.214 1085.9 676.099 1081.18C663.372 1076.22 649.554 1073.76 637.873 1066.67C634.088 1064.34 630.279 1061.03 630.118 1056.57C629.816 1049.53 638.391 1045.81 645.388 1045.11C656.51 1044.01 667.7 1045.42 678.782 1046.84C686.855 1047.86 695.068 1048.94 702.497 1052.28C709.926 1055.62 716.209 1061.23 722.257 1066.77C752.836 1094.84 790.01 1132.92 819.294 1167.69C824.511 1173.87 829.62 1180.15 834.619 1186.5L836.262 1188.62L840.325 1188.87C864.677 1216.79 874.448 1225.39 887.114 1256.09C885.493 1260.37 882.932 1264.23 879.621 1267.39ZM716.52 445.614C722.562 455.987 732.76 463.759 744.492 468.925C745.846 471.536 746.923 474.281 747.704 477.115C716.535 544.251 619.663 557.997 581.941 546.45C567.207 541.945 553.587 534.561 540.241 526.869C539.783 523.737 539.614 520.569 539.738 517.405C552.632 501.42 553.316 479.609 551.098 458.442C551.387 451.674 551.032 444.894 550.037 438.193C568.223 456.905 597.869 476.959 624.177 476.267C657.425 475.428 686.358 459.553 708.252 436.235C710.397 439.385 712.535 442.54 714.666 445.699L716.52 445.614Z" fill="#FDEEE8"/>
<path d="M663.87 369.37L667.463 368.592C664.678 383.72 656.606 407.889 647.106 420.311C634.48 436.903 610.655 437.712 598.727 420.018C587.73 403.698 584.814 384.272 581.542 371.841C598.105 374.668 638.978 380.738 663.87 369.37Z" fill="#F7BFB7"/>
<path d="M287.243 331.099L287.631 341.249L134.076 345.699C133.298 343.369 133.438 340.392 132.795 334.722L287.243 331.099Z" fill="#874036"/>
<path d="M283.676 300.974V316.398L247.018 317.478C246.706 309.709 246.145 309.624 246.039 301.657L283.676 300.974Z" fill="#EAE7E4"/>
<path d="M160.873 299.839L161.867 319.5L133.95 320.601C133.724 312.832 133.12 308.565 133.041 300.602L160.873 299.839Z" fill="#FDD569"/>
<path d="M66.9053 394.771C68.9471 393.701 71.1039 392.867 73.3342 392.285C84.9659 389.268 97.4455 392.511 108.178 397.964C120.109 404.055 130.514 412.76 138.617 423.428C139.904 425.106 141.118 426.829 142.262 428.595C144.146 431.502 145.952 434.906 145.202 438.294C144.766 439.968 143.916 441.505 142.728 442.762C140.789 444.911 138.381 446.583 135.691 447.651C133.001 448.718 130.102 449.152 127.217 448.917L123.527 449.018C121.94 446.119 119.956 443.456 117.632 441.106C114.893 438.448 111.889 436.079 108.666 434.036C97.7078 426.802 85.4691 421.245 72.4802 419.412C65.7401 418.43 58.8831 418.582 52.1933 419.863L51.8426 417.896C51.8073 416.746 51.8695 415.595 52.0286 414.455C53.1784 406.117 59.2352 398.803 66.9053 394.771Z" fill="#FDEEE8"/>
<path d="M56.8217 607.401C55.139 595.483 52.6839 583.686 49.4717 572.085C32.5101 547.226 18.4083 520.531 7.43398 492.508C6.21713 489.4 5.01553 486.112 5.3266 482.778C5.8847 476.813 11.0266 472.421 15.9824 469.056C18.5789 467.294 21.2455 465.638 23.9758 464.091C31.2423 459.848 39.1511 456.818 47.3918 455.118C58.7064 452.965 70.9115 454.139 80.9025 459.903C82.3481 460.721 83.693 461.709 84.9038 462.85L88.0054 462.484L121.421 470.377C122.974 470.743 124.688 471.079 126.075 470.261C127.85 469.212 128.149 466.796 128.046 464.738C127.785 459.227 126.265 453.849 123.602 449.018L127.292 448.917C130.216 449.167 133.157 448.717 135.871 447.603C135.563 451.882 135.411 456.171 135.414 460.462C142.493 491.158 141.667 523.149 133.011 553.438C130.937 560.648 128.357 567.843 128.076 575.334C127.82 581.153 128.93 586.991 130.171 592.63C134.908 614.221 141.793 635.284 150.723 655.503L150.638 676.832C150.181 693.927 140.4 709.467 128.924 722.158C122.647 729.096 115.279 735.785 106.13 737.697C96.9808 739.61 85.8888 734.94 83.754 725.824L85.1355 725.186C82.7859 720.131 81.5484 714.63 81.5063 709.055H80.7744C79.6765 705.248 78.5664 701.427 77.4807 697.617C68.8895 667.926 60.7833 637.987 56.8217 607.401Z" fill="#FDEEE8"/>
<path d="M26.3377 450.485C24.9043 444.269 24.5932 437.773 28.076 432.612C29.8432 430.2 32.0849 428.175 34.6635 426.662C38.4147 424.313 42.4647 422.483 46.7009 421.214C48.5002 420.668 50.3301 420.217 52.1782 419.863C58.8694 418.582 65.7252 418.43 72.4652 419.412C85.4571 421.245 97.6927 426.802 108.654 434.036C111.878 436.078 114.882 438.447 117.62 441.106C119.943 443.456 121.926 446.119 123.512 449.018C126.175 453.849 127.695 459.227 127.955 464.738C128.056 466.796 127.76 469.212 125.985 470.261C124.628 471.079 122.884 470.743 121.331 470.377L87.9762 462.475L84.8746 462.841C83.6626 461.703 82.3194 460.714 80.8733 459.894C70.8823 454.13 58.6772 452.956 47.3626 455.109C39.1233 456.811 31.2157 459.843 23.9497 464.085C24.0199 459.452 24.825 454.862 26.3377 450.485Z" fill="#FDEEE8"/>
<path d="M117.455 365.475L114.951 282.891C114.858 279.941 115.641 277.03 117.201 274.525C118.761 272.019 121.028 270.033 123.716 268.815C125.5 268.01 127.426 267.565 129.383 267.506L287.591 262.651C289.548 262.591 291.498 262.917 293.328 263.612C295.159 264.306 296.835 265.355 298.259 266.698C301.141 269.414 302.827 273.162 302.947 277.12L305.655 365.585C305.774 369.539 304.321 373.379 301.614 376.263C300.275 377.69 298.668 378.839 296.884 379.644C295.101 380.449 293.176 380.894 291.221 380.954L148.12 385.352V385.718C146.253 386.571 144.478 387.613 142.823 388.826C134.82 380.466 124.482 374.702 113.353 371.283C114.61 369.27 115.979 367.333 117.455 365.475ZM287.631 341.255L287.244 331.108L132.789 334.722C133.43 340.392 133.277 343.384 134.07 345.699L287.631 341.255ZM283.636 316.392V300.965L246.014 301.627C246.124 309.59 246.685 309.691 246.99 317.447L283.636 316.392ZM161.878 319.5L160.886 299.815L133.042 300.593C133.122 308.559 133.725 312.839 133.951 320.595L161.878 319.5Z" fill="#DDDFDE"/>
<path d="M73.3342 392.285C71.1039 392.867 68.947 393.701 66.9053 394.771L69.0066 391.15L68.6406 390.94C70.7358 381.546 74.8438 370.962 84.0205 368.205C86.9513 367.327 90.0987 367.427 93.1545 367.604C99.9951 368.05 106.763 369.291 113.319 371.298C124.463 374.717 134.802 380.481 142.789 388.841C143.277 389.339 143.765 389.86 144.232 390.397C147.824 394.429 150.963 399.309 151.017 404.717C151.063 408.511 145.211 412.735 139.843 414.888L138.587 423.438C130.491 412.775 120.098 404.073 108.178 397.979C97.4425 392.541 84.9812 389.268 73.3342 392.285ZM46.7007 421.214C47.4183 418.716 48.5424 416.353 50.028 414.22L52.0134 414.471C51.8551 415.61 51.7939 416.761 51.8304 417.911L52.178 419.878C50.3299 420.229 48.5031 420.674 46.7007 421.214Z" fill="#FDEEE8"/>
<path d="M769.257 308.892C768.27 308.883 767.305 308.598 766.472 308.069C765.638 307.54 764.97 306.788 764.541 305.899C764.113 305.01 763.942 304.018 764.048 303.037C764.153 302.056 764.531 301.123 765.139 300.346C769.808 294.479 776.016 290.026 783.069 287.484C784.058 287.1 785.139 287.022 786.173 287.262C787.206 287.501 788.144 288.046 788.863 288.826C789.46 289.476 789.885 290.265 790.1 291.121C790.314 291.977 790.311 292.873 790.09 293.727C789.87 294.582 789.439 295.368 788.838 296.013C788.236 296.659 787.483 297.144 786.646 297.424C781.441 299.325 776.854 302.614 773.383 306.934C772.887 307.55 772.259 308.047 771.544 308.386C770.83 308.725 770.047 308.898 769.257 308.892ZM611.505 332.157C610.453 332.151 609.427 331.831 608.559 331.237C607.691 330.643 607.021 329.802 606.635 328.824C604.86 324.261 603.045 318.798 602.975 312.848C602.88 306.049 605.302 299.785 609.575 295.667C610.404 294.892 611.273 294.16 612.179 293.474C612.835 292.995 613.457 292.477 614.049 291.919C618.019 288.036 617.623 280.576 616.949 273.893C616.845 272.855 617.051 271.81 617.539 270.888C618.027 269.966 618.777 269.209 619.694 268.711C620.925 268.05 622.369 267.905 623.708 268.308C625.046 268.71 626.17 269.628 626.833 270.858C627.159 271.468 627.364 272.139 627.434 272.829C628.108 279.426 629.358 291.705 621.463 299.437C620.575 300.295 619.635 301.096 618.648 301.837C618.038 302.289 617.452 302.774 616.894 303.289C614.686 305.403 613.466 308.831 613.521 312.717C613.567 316.996 615.073 321.324 616.461 324.999C616.966 326.304 616.933 327.756 616.371 329.037C615.809 330.318 614.762 331.325 613.46 331.837C612.835 332.068 612.171 332.176 611.505 332.157ZM723.696 227.988C722.803 227.988 721.925 227.762 721.143 227.329C720.362 226.897 719.703 226.274 719.228 225.517C712.635 215.04 703.812 208.559 694.413 207.284C686.517 206.214 678.6 208.84 672.146 214.775C671.376 215.482 670.413 215.943 669.379 216.101C668.346 216.259 667.289 216.106 666.342 215.661C665.396 215.217 664.603 214.5 664.065 213.604C663.527 212.707 663.268 211.671 663.32 210.627C663.384 209.23 664 207.912 665.034 206.967C673.845 198.924 684.778 195.31 695.831 196.81C708.411 198.518 719.872 206.711 728.195 219.881C728.694 220.681 728.971 221.601 728.997 222.544C729.024 223.488 728.798 224.421 728.344 225.249C727.89 226.075 727.222 226.764 726.411 227.245C725.601 227.726 724.676 227.982 723.733 227.984L723.696 227.988ZM588.348 209.306C587.562 209.308 586.786 209.133 586.076 208.795C585.366 208.458 584.741 207.965 584.246 207.354C573.722 194.349 565.997 196.649 559.833 200.617C558.956 201.204 557.922 201.514 556.866 201.507C555.81 201.501 554.781 201.178 553.911 200.58C553.335 200.18 552.844 199.67 552.465 199.08C552.087 198.489 551.829 197.83 551.706 197.14C551.521 196.099 551.655 195.026 552.087 194.061C552.52 193.096 553.233 192.284 554.133 191.729C567.674 183.009 580.562 186.026 592.444 200.696C593.073 201.472 593.469 202.41 593.588 203.401C593.706 204.392 593.543 205.397 593.115 206.299C592.686 207.2 592.011 207.96 591.167 208.492C590.323 209.025 589.346 209.307 588.348 209.306ZM649.288 76.5093C649.094 76.5209 648.9 76.5209 648.706 76.5093C648.018 76.4323 647.352 76.2204 646.745 75.8857C646.139 75.5511 645.605 75.1002 645.173 74.5589C644.741 74.0176 644.42 73.3965 644.228 72.7311C644.036 72.0656 643.977 71.3689 644.055 70.6807C645.574 56.914 644.866 42.9926 641.96 29.4508C641.789 28.7627 641.758 28.0475 641.868 27.3472C641.978 26.6469 642.227 25.9756 642.6 25.373C643.165 24.4691 643.99 23.7573 644.966 23.3314C645.943 22.9054 647.026 22.7852 648.072 22.9865C649.119 23.1879 650.08 23.7014 650.829 24.4595C651.577 25.2176 652.079 26.1846 652.268 27.2335C655.412 41.8833 656.176 56.9438 654.531 71.8367C654.381 73.1224 653.764 74.3083 652.798 75.1696C651.832 76.0309 650.583 76.5075 649.288 76.5093ZM768.201 208.233C767.472 208.233 766.75 208.08 766.085 207.781C757.781 204.085 750.188 198.966 743.648 192.653C732.559 182.186 724.059 169.092 715.846 156.435C700.637 133.017 686.273 110.892 656.989 105.927H656.888L656.41 105.85H656.205C655.19 105.674 654.248 105.206 653.495 104.502C652.743 103.799 652.211 102.891 651.966 101.89C651.721 100.889 651.773 99.8389 652.116 98.8672C652.459 97.8955 653.078 97.045 653.897 96.4197C655 95.5857 656.386 95.2187 657.758 95.3979H657.919L658.782 95.5382C692.586 101.303 708.89 126.419 724.703 150.71C732.58 162.849 740.723 175.396 750.9 184.992C756.562 190.473 763.139 194.922 770.333 198.137C771.154 198.506 771.868 199.078 772.405 199.8C772.943 200.522 773.287 201.369 773.405 202.262C773.523 203.154 773.411 204.062 773.079 204.899C772.748 205.736 772.208 206.474 771.51 207.043C770.58 207.806 769.418 208.233 768.217 208.242L768.201 208.233ZM779.906 263.358C778.997 263.358 778.107 263.12 777.314 262.672C776.753 262.355 776.207 262.011 775.679 261.641C774.837 261.057 774.029 260.426 773.258 259.75C772.735 259.296 772.307 258.744 771.997 258.124C771.688 257.504 771.504 256.83 771.455 256.139C771.355 254.744 771.812 253.366 772.727 252.307C773.642 251.249 774.94 250.598 776.335 250.497C777.026 250.447 777.719 250.533 778.376 250.752C779.033 250.971 779.64 251.317 780.162 251.771C780.638 252.189 781.138 252.577 781.657 252.937C781.694 252.953 781.728 252.973 781.761 252.998C782.008 253.171 782.267 253.333 782.535 253.473C783.292 253.905 783.93 254.516 784.394 255.253C784.858 255.99 785.133 256.83 785.194 257.699C785.256 258.568 785.102 259.438 784.747 260.233C784.391 261.028 783.845 261.724 783.157 262.257C782.233 262.971 781.102 263.355 779.937 263.355L779.906 263.358Z" fill="#874036"/>
<path d="M776.695 261.034C775.417 261.034 774.182 260.568 773.221 259.729C768.467 255.556 765.1 249.813 762.129 244.753C761.446 243.588 760.772 242.423 760.089 241.319C757.837 237.426 755.918 233.35 754.353 229.134C753.349 226.664 752.026 223.858 750.806 221.14C749.473 218.249 748.091 215.266 746.929 212.478C746.457 211.191 746.502 209.77 747.056 208.515C747.61 207.261 748.63 206.27 749.9 205.753C751.17 205.237 752.591 205.237 753.861 205.752C755.131 206.268 756.15 207.258 756.701 208.513C757.741 211.063 759.028 213.951 760.339 216.712C761.648 219.469 762.989 222.455 764.09 225.172C765.454 228.845 767.107 232.401 769.04 235.802C769.754 236.961 770.467 238.174 771.187 239.401C773.871 243.985 776.616 248.724 780.129 251.771C780.938 252.479 781.511 253.417 781.773 254.459C782.036 255.501 781.974 256.598 781.597 257.605C781.219 258.611 780.544 259.478 779.661 260.091C778.779 260.704 777.73 261.033 776.655 261.034H776.695ZM471.305 309.605C470.083 309.61 468.897 309.189 467.951 308.414C467.006 307.639 466.36 306.559 466.124 305.36C465.881 304.161 466.062 302.915 466.637 301.836C467.212 300.756 468.144 299.91 469.274 299.443C478.131 295.656 486.315 290.458 493.507 284.05C495.23 282.494 496.944 280.939 498.728 279.17C504.487 273.41 509.714 267.142 514.346 260.443C526.143 243.433 534.767 223.977 543.102 205.164C546.207 198.171 549.144 190.896 551.968 183.912C559.678 164.834 566.951 146.815 578.281 131.431C591.188 113.899 607.751 102.617 628.831 96.929C629.644 96.7046 630.462 96.4951 631.283 96.3007C631.957 96.1362 632.658 96.1064 633.344 96.213C634.03 96.3197 634.688 96.5607 635.281 96.9222C635.873 97.2838 636.389 97.7587 636.798 98.3199C637.206 98.8811 637.501 99.5175 637.663 100.193C637.995 101.556 637.772 102.995 637.044 104.195C636.315 105.394 635.14 106.255 633.778 106.588C633.003 106.771 632.289 106.96 631.56 107.156C589.797 118.407 576.784 150.615 561.764 187.904C558.9 194.977 555.945 202.288 552.758 209.483C544.228 228.747 535.386 248.67 523.017 266.512C518.033 273.74 512.405 280.502 506.203 286.715C504.345 288.54 502.442 290.318 500.494 292.047C492.439 299.21 483.271 305.014 473.352 309.233C472.702 309.495 472.005 309.622 471.305 309.605Z" fill="#874036"/>
<path d="M622.859 481.583C610.172 481.583 596.268 477.395 581.492 469.111C567.664 461.236 555.095 451.33 544.206 439.725C542.615 438.022 541.063 436.283 539.552 434.509C510.857 401.096 497.868 359.796 495.3 332.319C494.993 329.045 494.815 325.761 494.766 322.473C494.748 321.074 495.286 319.725 496.261 318.721C497.236 317.718 498.57 317.142 499.969 317.121C500.663 317.111 501.351 317.238 501.995 317.495C502.64 317.753 503.227 318.134 503.723 318.619C504.22 319.103 504.616 319.681 504.888 320.319C505.161 320.957 505.305 321.642 505.312 322.336C505.352 325.255 505.513 328.281 505.8 331.325C508.212 357.195 520.451 396.076 547.563 427.64C548.979 429.292 550.429 430.914 551.912 432.505C552.504 433.143 553.123 433.801 553.767 434.448C570.574 451.735 599.013 471.628 624.045 470.969C661.59 470.02 688.468 449.585 704.415 432.597C705.486 431.471 706.486 430.367 707.401 429.312C726.953 407.212 740.747 377.932 745.26 348.947C745.395 348.133 745.511 347.3 745.626 346.486L745.687 346.065C745.861 344.853 746.45 343.739 747.354 342.913C748.258 342.086 749.42 341.6 750.643 341.536L754.071 341.371C754.77 341.341 755.468 341.444 756.127 341.682C756.795 341.926 757.481 342.128 758.173 342.28C773.166 345.717 788.039 328.256 795.578 317.542C806.219 302.404 810.833 284.617 808.561 267.451C807.838 261.949 803.294 255.422 798.835 253.464C796.447 252.424 794.956 253.116 793.974 253.839C793.794 253.961 793.639 254.071 793.492 254.196C792.692 254.832 791.724 255.221 790.707 255.317C789.69 255.413 788.667 255.212 787.762 254.737C786.857 254.263 786.109 253.535 785.609 252.644C785.11 251.753 784.879 250.735 784.947 249.716C785.035 248.346 785.651 247.068 786.667 246.147C787.048 245.818 787.442 245.516 787.893 245.199C790.061 243.628 792.61 242.668 795.276 242.417C797.941 242.167 800.625 242.635 803.047 243.774C811.702 247.559 817.967 258.073 819.016 266.055C821.635 285.852 816.371 306.29 804.194 323.608C784.148 352.11 766.859 355.096 755.895 352.577L755.373 352.461C750.028 383.561 736.166 412.571 715.327 436.266C714.342 437.4 713.241 438.596 712.076 439.84C687.26 466.26 656.906 480.698 624.31 481.522L622.859 481.583Z" fill="#874036"/>
<path d="M439.896 429.794C438.887 429.795 437.899 429.503 437.051 428.955C436.466 428.582 435.961 428.096 435.565 427.527C435.169 426.957 434.889 426.315 434.742 425.637C434.592 424.96 434.578 424.26 434.7 423.578C437.514 407.794 432.769 387.832 427.722 366.729C422.208 343.549 415.95 317.276 418.524 291.214C422.341 251.876 431.225 213.196 444.953 176.134C458.137 140.639 480.916 90.338 514.411 52.3045C532.456 31.8115 551.752 17.141 571.798 8.7108C595.205 -1.14985 619.884 -2.6413 645.117 4.27305C645.895 4.46825 646.67 4.69395 647.444 4.9349C648.688 5.41017 649.707 6.3381 650.295 7.53269C650.884 8.72729 651 10.1003 650.619 11.3765C650.241 12.651 649.395 13.7358 648.252 14.4143C647.109 15.0928 645.752 15.315 644.452 15.0365C643.763 14.8279 643.07 14.6337 642.372 14.4539C599.261 2.6352 558.895 17.7175 522.313 59.2585C504.414 79.5867 478.177 116.995 454.84 179.785C441.436 215.999 432.759 253.79 429.024 292.224C426.627 316.514 432.406 340.783 437.99 364.24C443.279 386.466 448.28 407.453 445.078 425.402C444.866 426.625 444.231 427.736 443.284 428.538C442.337 429.341 441.138 429.786 439.896 429.794ZM824.491 441.186C823.372 441.183 822.282 440.825 821.379 440.163C820.476 439.5 819.807 438.568 819.468 437.501C818.813 435.449 818.279 433.361 817.87 431.246C813.89 410.957 820.536 388.555 827.578 364.838C832.457 348.398 837.505 331.425 838.505 315.574C841.872 262.285 831.106 206.159 804.607 138.958C791.764 106.323 772.624 73.5874 753.423 51.3071C727.18 20.8712 701.153 8.63455 676.072 14.9267C675.038 15.1768 674.062 15.4452 673.022 15.7746C672.36 15.9797 671.664 16.0519 670.973 15.9869C670.283 15.922 669.612 15.7212 669 15.396C668.387 15.0709 667.845 14.6279 667.404 14.0925C666.964 13.5571 666.633 12.9399 666.432 12.2762C666.127 11.2778 666.123 10.2115 666.422 9.21098C666.72 8.21051 667.307 7.32035 668.109 6.65205C668.643 6.20988 669.258 5.87719 669.921 5.673C671.139 5.28526 672.371 4.94342 673.614 4.6482C689.217 0.762499 705.277 2.87615 721.276 11.0349C734.786 17.9279 748.296 29.1458 761.441 44.3836C781.389 67.5087 801.21 101.413 814.464 135.06C841.546 203.764 852.552 261.33 849.075 316.227C847.999 333.252 842.781 350.829 837.73 367.83C831.076 390.266 824.787 411.454 828.27 429.217C828.596 430.928 829.029 432.618 829.563 434.277C829.817 435.069 829.88 435.909 829.746 436.729C829.612 437.549 829.286 438.326 828.794 438.996C828.307 439.667 827.666 440.213 826.925 440.588C826.187 440.966 825.37 441.161 824.54 441.161L824.491 441.186ZM562.515 286.615C561.323 286.611 560.147 286.354 559.062 285.861C557.978 285.368 557.011 284.649 556.226 283.754C553.588 280.646 553.567 276.373 553.783 271.468C553.783 270.901 553.829 270.413 553.829 270.041C553.752 268.158 554.153 266.286 554.994 264.6V264.545C557.257 260.318 561.066 259.338 563.881 259.82C568.349 260.598 571.335 264.78 571.877 268.37C572.249 270.7 573.116 278.938 568.541 283.909C567.631 284.952 566.478 285.754 565.183 286.242C564.323 286.517 563.42 286.645 562.515 286.615ZM560.313 270.111V270.163C560.316 270.146 560.316 270.128 560.313 270.111ZM692.3 295.914C691.1 295.917 689.913 295.665 688.817 295.176C687.721 294.687 686.741 293.972 685.941 293.078L685.88 293.017C682.986 289.677 683.242 284.632 683.428 280.957C683.428 280.444 683.477 279.993 683.477 279.636C683.394 277.715 683.816 275.805 684.7 274.097C686.639 270.559 690.128 268.76 693.697 269.379C698.195 270.157 701.236 274.344 701.809 277.928C702.282 280.948 702.886 288.442 698.351 293.242C697.43 294.283 696.269 295.082 694.968 295.572C694.104 295.833 693.202 295.948 692.3 295.914ZM504.841 454.276C503.066 454.276 501.257 454.209 499.409 454.075C489.244 453.297 479.558 450.616 470.19 447.999C467.661 447.286 465.048 446.554 462.48 445.876C459.597 445.098 456.69 444.411 453.764 443.818C453.063 443.704 452.394 443.449 451.795 443.068C451.196 442.687 450.681 442.189 450.281 441.603C449.675 440.722 449.35 439.678 449.349 438.609C449.348 437.54 449.671 436.496 450.275 435.613C450.674 435.027 451.189 434.528 451.787 434.146C452.385 433.764 453.054 433.508 453.754 433.393C454.453 433.276 455.168 433.302 455.856 433.469C458.671 434.036 461.626 434.735 465.164 435.659C467.808 436.357 470.467 437.096 473.035 437.818C482.34 440.414 491.074 442.863 500.178 443.54C512.401 444.434 523.444 441.829 531.331 436.202L531.462 436.11C531.627 436.001 531.773 435.9 531.92 435.784C532.75 435.148 533.75 434.773 534.793 434.708C535.837 434.642 536.877 434.887 537.78 435.414C538.684 435.94 539.41 436.723 539.868 437.663C540.325 438.604 540.493 439.659 540.349 440.695C540.162 442.084 539.431 443.342 538.318 444.193C538.016 444.425 537.705 444.635 537.388 444.852C528.797 450.997 517.372 454.276 504.841 454.276ZM581.548 377.117C581.195 377.12 580.843 377.084 580.499 377.007H580.298C579.601 376.889 578.934 376.633 578.338 376.254C577.741 375.875 577.227 375.38 576.824 374.799C576.321 374.07 576.01 373.225 575.918 372.344C575.826 371.463 575.958 370.572 576.3 369.755C576.642 368.938 577.184 368.219 577.876 367.666C578.568 367.113 579.388 366.742 580.261 366.589C580.959 366.467 581.673 366.488 582.362 366.65H582.579C583.863 366.908 585.006 367.634 585.786 368.687C586.565 369.741 586.925 371.046 586.797 372.35C586.669 373.654 586.06 374.863 585.091 375.744C584.121 376.625 582.858 377.115 581.548 377.117Z" fill="#874036"/>
<path d="M622.433 438.3H621.463C610.606 437.983 600.694 432.405 594.32 422.986C584.851 408.859 581.042 392.541 578.236 380.582C577.614 377.925 577.025 375.406 576.443 373.177C576.221 372.323 576.214 371.427 576.425 370.571C576.635 369.714 577.055 368.923 577.647 368.269C578.24 367.617 578.987 367.124 579.82 366.836C580.653 366.547 581.545 366.473 582.414 366.619C607.309 370.822 641.271 373.875 661.683 364.56C662.023 364.405 662.379 364.288 662.745 364.21L666.334 363.432C667.184 363.246 668.067 363.273 668.903 363.51C669.74 363.747 670.506 364.188 671.131 364.792C671.757 365.398 672.222 366.149 672.487 366.979C672.751 367.809 672.806 368.691 672.647 369.547C669.6 386.109 661.086 410.655 651.299 423.514C644.208 432.822 633.476 438.3 622.433 438.3ZM588.535 378.282C591.28 390.025 594.699 404.61 603.091 417.057C607.581 423.715 614.211 427.5 621.765 427.726C629.762 427.942 637.673 423.99 642.915 417.103C649.893 407.925 656.563 390.879 660.302 376.449C643.348 382.183 619.276 382.805 588.535 378.282Z" fill="#874036"/>
<path d="M581.538 377.117C580.382 377.118 579.258 376.738 578.34 376.036C577.422 375.333 576.761 374.347 576.46 373.231L576.289 372.603L576.079 371.825C575.812 370.53 576.042 369.182 576.722 368.048C577.401 366.914 578.482 366.077 579.75 365.702C581.018 365.327 582.38 365.441 583.568 366.023C584.755 366.605 585.681 367.611 586.161 368.842C586.262 369.175 586.354 369.526 586.448 369.873L586.588 370.404C586.804 371.189 586.837 372.012 586.684 372.812C586.53 373.611 586.195 374.364 585.704 375.013C585.214 375.662 584.579 376.188 583.851 376.551C583.123 376.913 582.321 377.102 581.508 377.102L581.538 377.117ZM752.614 449.43C750.394 449.43 748.122 449.366 745.779 449.25C741.589 449.027 737.403 448.724 733.224 448.341C732.514 448.307 731.819 448.129 731.18 447.82C730.54 447.51 729.97 447.074 729.504 446.539C729.037 446.003 728.683 445.379 728.464 444.703C728.245 444.027 728.165 443.314 728.228 442.607C728.321 441.542 728.733 440.53 729.412 439.705C730.091 438.879 731.004 438.279 732.031 437.983C732.714 437.788 733.428 437.733 734.132 437.818C738.124 438.163 742.361 438.511 746.292 438.697C762.144 439.474 774.359 437.968 804.874 426.887L806.216 426.396C806.872 426.129 807.575 425.997 808.284 426.007C808.992 426.017 809.691 426.169 810.339 426.454C811.316 426.889 812.138 427.608 812.698 428.518C813.258 429.428 813.529 430.486 813.478 431.554C813.441 432.262 813.262 432.956 812.953 433.594C812.644 434.233 812.211 434.803 811.678 435.272C811.144 435.737 810.522 436.09 809.848 436.312L808.528 436.803C782.788 446.157 768.814 449.43 752.614 449.43ZM247.923 813.093C247.002 813.092 246.097 812.851 245.299 812.392C244.5 811.934 243.836 811.274 243.371 810.479C242.906 809.685 242.657 808.782 242.649 807.861C242.64 806.94 242.873 806.033 243.324 805.23C243.69 804.572 244.098 803.919 244.431 803.257L245.516 801.323L285.505 730.216L325.475 659.123C334.356 643.324 343.529 626.985 357 613.727C375.799 595.21 400.499 585.203 424.378 575.52C427.968 574.059 431.685 572.552 435.29 571.051C462.76 559.606 489.316 546.079 514.727 530.59C522.352 525.93 529.634 521.221 535.017 514.84C535.203 514.614 535.38 514.413 535.542 514.196L535.642 514.071C548.183 498.532 547.689 476.462 545.859 458.985C545.296 453.829 544.616 448.686 543.819 443.561C543.606 442.179 543.952 440.77 544.779 439.642C545.606 438.515 546.847 437.762 548.229 437.55C549.611 437.338 551.02 437.683 552.148 438.51C553.275 439.337 554.027 440.578 554.24 441.96C555.158 447.898 555.838 453.105 556.344 457.884C558.39 477.365 558.817 502.106 543.889 520.659C543.62 521.003 543.344 521.341 543.059 521.672C536.676 529.248 528.277 534.686 520.22 539.612C494.345 555.381 467.304 569.149 439.331 580.796C435.687 582.352 431.948 583.834 428.334 585.295C405.409 594.619 381.7 604.208 364.39 621.248C351.983 633.457 343.182 649.128 334.664 664.29L294.688 735.382L254.714 806.481L253.617 808.439C253.251 809.086 252.885 809.729 252.528 810.376C252.07 811.196 251.402 811.882 250.594 812.361C249.785 812.84 248.863 813.093 247.923 813.093ZM53.068 582.559C52.2233 582.561 51.3906 582.36 50.6404 581.972C49.8902 581.584 49.2447 581.02 48.7587 580.329C47.4869 578.527 46.2579 576.755 45.1051 575.047C27.92 549.863 13.6281 522.821 2.50004 494.435C0.944664 490.55 -0.35758 486.664 0.0480371 482.29C0.822674 473.836 7.8005 468.193 12.9973 464.683C15.7145 462.835 18.5064 461.101 21.3658 459.482C29.1212 454.951 37.5673 451.723 46.3677 449.927C59.8872 447.362 73.0713 449.265 83.5411 455.325C85.3583 456.359 87.0456 457.606 88.5671 459.04C92.0255 462.352 93.7821 466.25 93.6205 470.292C93.407 475.653 89.5491 480.713 83.8125 483.208C80.6511 484.422 77.341 485.206 73.971 485.539L71.644 485.871C62.9171 487.249 54.6378 490.665 47.4778 495.841C46.9178 496.25 46.2828 496.544 45.6092 496.706C44.9355 496.869 44.2364 496.897 43.5519 496.788C42.8674 496.68 42.211 496.438 41.6203 496.075C41.0296 495.713 40.5162 495.238 40.1096 494.676C39.2874 493.542 38.9484 492.129 39.1668 490.745C39.3852 489.361 40.1432 488.121 41.2746 487.295C49.7787 481.155 59.6089 477.103 69.9697 475.467C70.7443 475.336 71.6196 475.217 72.4644 475.101C74.8918 474.891 77.2821 474.369 79.5764 473.549C81.4916 472.716 82.983 471.155 83.0287 469.91C83.0745 468.669 82.068 467.534 81.2141 466.717C80.3021 465.869 79.2915 465.134 78.204 464.527C69.93 459.748 59.3139 458.262 48.3226 460.355C41.2746 461.7 34.1473 464.411 26.5382 468.69C23.9284 470.164 21.3826 471.749 18.9077 473.439C15.495 475.769 10.9174 479.283 10.5483 483.269C10.3531 485.337 11.2376 487.808 12.3172 490.589C23.1503 518.225 37.0626 544.552 53.7908 569.072C54.9222 570.74 56.1177 572.457 57.3346 574.199C57.9362 575.052 58.2723 576.064 58.3005 577.108C58.3287 578.151 58.0478 579.18 57.4931 580.064C57.1234 580.65 56.6427 581.157 56.0781 581.559C55.2031 582.197 54.1509 582.547 53.068 582.559Z" fill="#874036"/>
<path d="M123.991 476.05C122.708 476.023 121.432 475.846 120.191 475.522L86.7653 467.626C85.7481 467.388 84.8249 466.853 84.1133 466.088C83.4017 465.323 82.9341 464.363 82.7701 463.332C82.6034 462.3 82.7452 461.243 83.1777 460.292C83.6102 459.342 84.314 458.54 85.2008 457.988C85.789 457.622 86.4437 457.376 87.1273 457.265C87.8109 457.153 88.5098 457.178 89.1837 457.338L122.603 465.235H122.725V464.954C122.348 457.403 119.212 450.252 113.911 444.861C111.425 442.464 108.702 440.327 105.784 438.48C94.2738 430.88 82.8341 426.234 71.7605 424.673C65.6018 423.784 59.3385 423.92 53.2241 425.075C51.5467 425.396 49.8907 425.804 48.2622 426.305C44.4632 427.44 40.8363 429.087 37.4813 431.2C35.5125 432.324 33.7948 433.839 32.434 435.653C30.3388 438.761 30.0369 443.08 31.4794 449.329C31.9277 451.293 32.5407 453.251 33.0775 454.907C33.4004 455.901 33.4209 456.969 33.1364 457.975C32.8519 458.98 32.2752 459.879 31.4794 460.556C30.9531 461.008 30.3425 461.351 29.6829 461.565C29.0234 461.779 28.3279 461.86 27.6367 461.804C26.2427 461.689 24.9509 461.026 24.0441 459.961C23.5944 459.433 23.2534 458.822 23.0407 458.162C22.3344 456.037 21.7208 453.883 21.2017 451.705C19.0791 442.521 19.8995 435.326 23.7086 429.714C25.8828 426.703 28.651 424.169 31.8423 422.269C36.0041 419.652 40.4991 417.606 45.2063 416.188C47.1887 415.59 49.2015 415.09 51.2326 414.693C58.4882 413.307 65.9245 413.145 73.2335 414.214C85.8656 415.993 98.763 421.205 111.584 429.66C115.115 431.902 118.402 434.506 121.392 437.431C124.045 440.115 126.314 443.159 128.132 446.468C131.182 452.007 132.923 458.177 133.219 464.497C133.515 470.618 130.895 473.485 128.669 474.815C127.251 475.645 125.633 476.072 123.991 476.05Z" fill="#874036"/>
<path d="M128.814 454.27C128.122 454.27 127.433 454.27 126.75 454.176C125.395 453.998 124.162 453.303 123.309 452.237C122.455 451.17 122.048 449.814 122.172 448.454C122.297 447.093 122.943 445.834 123.975 444.939C125.008 444.045 126.346 443.585 127.71 443.656C129.769 443.814 131.838 443.5 133.756 442.736C135.675 441.972 137.394 440.779 138.781 439.249C139.363 438.672 139.8 437.959 140.044 437.175C140.422 435.458 138.549 432.56 137.842 431.471C129.845 419.238 118.798 409.302 105.789 402.643C97.8594 398.617 86.0355 394.423 74.6508 397.366C72.8115 397.846 71.0338 398.537 69.3533 399.425C62.7445 402.899 58.1089 408.923 57.2641 415.139C57.1478 415.98 57.1029 416.83 57.1299 417.679C57.1622 419.066 56.6473 420.411 55.6966 421.421C54.7458 422.432 53.4356 423.028 52.049 423.081C50.6617 423.13 49.3106 422.631 48.2887 421.692C47.2669 420.752 46.6565 419.447 46.59 418.06C46.5393 416.608 46.6148 415.154 46.8157 413.714C48.1118 404.165 54.8731 395.106 64.4585 390.061C66.856 388.799 69.3907 387.817 72.0127 387.133C86.5844 383.373 101.016 388.369 110.565 393.224C125.229 400.711 137.683 411.9 146.692 425.682C149.019 429.281 151.541 434.082 150.352 439.414C149.742 441.961 148.481 444.307 146.692 446.221C144.441 448.727 141.692 450.734 138.62 452.115C135.548 453.496 132.222 454.22 128.854 454.24L128.814 454.27Z" fill="#874036"/>
<path d="M139.12 420.452C138.202 420.45 137.3 420.208 136.504 419.751C135.707 419.294 135.044 418.638 134.579 417.846C134.114 417.054 133.863 416.155 133.852 415.236C133.841 414.318 134.069 413.413 134.515 412.61C135.113 411.533 136.061 410.701 137.205 410.249L137.98 409.947C142.386 408.185 145.278 405.595 145.79 404.506C145.674 401.337 143.89 397.863 140.361 393.877C139.944 393.42 139.507 392.953 139.074 392.511C132.094 385.261 122.709 379.673 111.822 376.34C105.648 374.446 99.275 373.278 92.831 372.859C89.9216 372.655 87.5641 372.649 85.5726 373.256C80.1959 374.863 76.2648 381.195 73.8128 392.074C73.5818 393.093 73.055 394.02 72.2986 394.739C71.5421 395.459 70.5898 395.939 69.5614 396.119C68.8785 396.238 68.1785 396.219 67.5029 396.064C66.4822 395.838 65.5525 395.312 64.8334 394.553C64.1143 393.794 63.6388 392.837 63.468 391.806C63.3511 391.122 63.3698 390.421 63.5229 389.744C66.8472 374.854 73.2486 365.896 82.5381 363.106C86.268 361.986 90.0375 362.05 93.5477 362.331C100.797 362.792 107.969 364.095 114.917 366.214C127.513 370.099 138.492 376.62 146.659 385.145C147.178 385.673 147.72 386.246 148.208 386.822C153.637 392.892 156.275 398.711 156.339 404.61C156.385 408.883 152.624 415.41 141.853 419.738L141.075 420.049C140.457 420.308 139.791 420.445 139.12 420.452ZM104.643 527.607C103.624 527.611 102.626 527.32 101.77 526.768C100.914 526.217 100.236 525.428 99.818 524.499C94.4427 512.357 86.569 501.483 76.7101 492.587C75.6705 491.646 75.0437 490.333 74.9656 488.933C74.8916 487.534 75.3758 486.163 76.3118 485.12C77.2478 484.078 78.5592 483.45 79.958 483.373C80.6505 483.336 81.3434 483.436 81.9971 483.667C82.6508 483.898 83.2523 484.257 83.7672 484.721C94.7261 494.625 103.482 506.722 109.467 520.226C109.822 521.03 109.971 521.91 109.901 522.786C109.83 523.661 109.542 524.506 109.063 525.243C108.584 525.979 107.929 526.585 107.158 527.005C106.386 527.425 105.521 527.645 104.643 527.647V527.607ZM80.7388 714.38C79.596 714.38 78.4843 714.008 77.5712 713.321C76.658 712.634 75.993 711.669 75.6762 710.571C74.5646 706.756 73.4627 702.938 72.3703 699.118C64.1054 670.366 55.682 639.643 51.5954 608.088C51.1033 604.361 50.6813 600.625 50.3297 596.882C50.214 596.001 50.3221 595.106 50.644 594.278C50.9659 593.45 51.4912 592.716 52.1715 592.145C52.8517 591.574 53.6649 591.184 54.5359 591.01C55.407 590.836 56.3077 590.885 57.1551 591.151C58.1743 591.476 59.0708 592.103 59.7259 592.949C60.381 593.795 60.7639 594.819 60.8239 595.888C61.1594 599.392 61.5619 602.942 62.0499 606.718C66.0512 637.545 74.3496 667.825 82.5076 696.196L85.8014 707.627C86.0278 708.413 86.0688 709.241 85.9212 710.046C85.7736 710.85 85.4415 711.61 84.9508 712.264C84.4602 712.919 83.8245 713.45 83.0936 713.817C82.3627 714.185 81.5567 714.377 80.7388 714.38Z" fill="#874036"/>
<path d="M101.938 743.425C91.7455 743.425 81.0683 737.652 78.5858 727.059C78.3521 726.202 78.3379 725.3 78.5446 724.437C78.7513 723.573 79.1721 722.775 79.7683 722.117C80.3645 721.459 81.1168 720.961 81.9559 720.67C82.795 720.379 83.6938 720.305 84.5694 720.453C85.2678 720.576 85.9345 720.837 86.5301 721.222C87.1257 721.607 87.6381 722.108 88.037 722.694C88.4334 723.283 88.7079 723.945 88.8451 724.643C90.2968 730.804 98.5799 733.897 105.015 732.555C113.082 730.853 119.922 724.207 124.969 718.613C138.093 704.059 144.933 689.971 145.305 676.746L145.381 656.598C144.793 655.238 144.201 653.886 143.628 652.526C135.632 633.558 129.384 613.9 124.963 593.795C123.743 588.211 122.463 581.714 122.752 575.148C123.045 568.294 124.954 561.892 126.799 555.722C127.165 554.502 127.531 553.282 127.879 552.062C136.317 522.641 137.118 491.554 130.206 461.736C129.445 458.378 128.573 455.045 127.592 451.745C127.306 450.441 127.523 449.077 128.199 447.926C128.873 446.776 129.958 445.924 131.235 445.543C132.512 445.162 133.886 445.28 135.079 445.873C136.275 446.465 137.202 447.49 137.672 448.737C138.672 452.126 139.605 455.731 140.447 459.36C147.765 490.912 146.927 523.807 138.013 554.944C137.656 556.195 137.239 557.455 136.906 558.711C135.168 564.54 133.521 570.051 133.283 575.599C133.057 580.921 134.137 586.39 135.259 591.544C139.928 612.786 146.705 633.509 155.488 653.405C155.781 654.082 155.934 654.817 155.937 655.555L155.851 676.893V677.011C155.424 692.847 147.669 709.235 132.795 725.738C126.668 732.522 118.223 740.604 107.202 742.928C105.469 743.273 103.705 743.44 101.938 743.425Z" fill="#874036"/>
<path d="M197.499 754.646C196.518 754.647 195.556 754.373 194.722 753.857C193.887 753.341 193.213 752.602 192.775 751.724C192.333 750.831 191.891 749.897 191.488 748.949C186.834 738.646 183.205 725.717 179.329 712.032C173.766 692.396 168.02 672.083 159.271 659.971C156.947 656.729 154.263 655.439 153.751 655.75C152.867 656.284 151.847 656.547 150.816 656.507C149.785 656.466 148.788 656.124 147.95 655.523C147.111 654.922 146.467 654.087 146.098 653.124C145.729 652.16 145.651 651.109 145.873 650.101C146.166 648.749 146.979 647.566 148.136 646.807C154.162 643.007 162.095 645.804 167.819 653.801C177.651 667.438 183.662 688.659 189.472 709.18C193.239 722.484 196.801 735.047 201.104 744.706C201.47 745.539 201.824 746.262 202.181 747.036C202.809 748.285 202.918 749.732 202.482 751.06C202.047 752.389 201.103 753.491 199.857 754.125C199.122 754.481 198.315 754.659 197.499 754.646ZM95.5613 830.268C94.4712 830.268 93.4081 829.93 92.5179 829.3C91.6278 828.671 90.9543 827.782 90.5902 826.754L90.3126 825.98C89.9772 825.037 89.6447 824.089 89.2971 823.149L66.8052 760.045C63.5419 750.922 59.8243 740.619 59.3668 729.74C58.8026 716.942 63.0906 705.584 71.1175 698.581C72.1758 697.681 73.5466 697.234 74.9322 697.338C76.3178 697.443 77.6063 698.089 78.5179 699.138C79.4296 700.187 79.8908 701.553 79.8014 702.939C79.712 704.326 79.0792 705.622 78.0404 706.545C72.5295 711.355 69.5133 719.858 69.8976 729.273C70.3032 738.49 73.5756 747.622 76.7321 756.47L99.224 819.535C99.5656 820.468 99.9132 821.456 100.261 822.435L100.535 823.213C100.817 824.009 100.903 824.861 100.788 825.698C100.673 826.535 100.359 827.331 99.8733 828.022C99.3873 828.713 98.7431 829.277 97.9946 829.667C97.246 830.058 96.4148 830.264 95.5704 830.268H95.5613ZM121.929 830.43C120.112 830.43 118.297 830.295 116.501 830.027C115.484 829.853 114.54 829.386 113.785 828.683C113.031 827.98 112.498 827.071 112.253 826.069C112.007 825.067 112.06 824.015 112.405 823.043C112.749 822.071 113.371 821.22 114.192 820.596C115.295 819.763 116.68 819.397 118.05 819.575C126.156 820.795 135.336 818.144 146.931 811.221C160.689 803.001 178.502 788.898 185.251 768.414C185.464 767.75 185.806 767.135 186.258 766.605C186.71 766.074 187.262 765.638 187.883 765.322C188.504 765.006 189.182 764.816 189.877 764.763C190.572 764.711 191.27 764.796 191.932 765.015C192.593 765.234 193.205 765.581 193.732 766.038C194.258 766.494 194.689 767.051 194.999 767.675C195.31 768.299 195.494 768.978 195.54 769.673C195.586 770.369 195.495 771.066 195.27 771.726C187.514 795.309 167.63 811.154 152.335 820.297C144.784 824.811 133.842 830.43 121.929 830.43ZM220.671 1006.08C217.419 1006.09 214.172 1005.81 210.97 1005.24C193.599 1002.14 179.832 990.262 168.658 979.056C140.077 950.276 117.127 916.405 100.993 879.19C96.1224 867.914 91.5996 854.659 95.0275 841.891C95.2746 840.937 95.546 840.058 95.851 839.235C96.0779 838.57 96.4351 837.958 96.9017 837.434C97.3683 836.909 97.9349 836.483 98.5683 836.18C99.2017 835.877 99.8891 835.704 100.59 835.67C101.292 835.636 101.992 835.743 102.652 835.984C103.311 836.225 103.916 836.596 104.43 837.075C104.943 837.554 105.356 838.13 105.644 838.771C105.933 839.412 106.092 840.104 106.111 840.807C106.129 841.51 106.008 842.209 105.754 842.864C105.549 843.439 105.368 844.022 105.211 844.612C102.628 854.287 106.522 865.413 110.639 875.027C126.243 911.017 148.435 943.774 176.072 971.611C186.09 981.661 198.283 992.275 212.775 994.861C223.431 996.78 234.673 994.239 246.21 991.241C255.423 988.856 264.35 986.361 272.377 982.164C278.58 978.91 284.582 974.396 289.852 970.424C314.493 951.845 338.839 932.876 362.881 913.527L365.983 911.035C366.798 910.379 367.79 909.982 368.833 909.892C369.875 909.803 370.921 910.026 371.836 910.533C372.751 911.04 373.494 911.808 373.971 912.74C374.448 913.671 374.636 914.723 374.513 915.762C374.436 916.452 374.224 917.12 373.889 917.727C373.553 918.334 373.101 918.869 372.558 919.3L369.456 921.774C345.333 941.195 320.902 960.23 296.171 978.87C290.587 983.088 284.249 987.867 277.238 991.537C268.226 996.246 258.665 998.927 248.839 1001.47C239.43 1003.91 230.095 1006.08 220.671 1006.08ZM96.3938 258.469C95.6468 258.472 94.9078 258.315 94.2266 258.008C93.5453 257.701 92.9377 257.252 92.4444 256.691C91.4685 255.593 86.9549 252.028 83.6581 249.408C79.2756 245.928 75.1279 242.649 72.9779 240.489C72.2193 239.755 71.6978 238.811 71.4805 237.778C71.2632 236.744 71.3601 235.67 71.7586 234.692C72.1572 233.715 72.8392 232.879 73.7168 232.292C74.5945 231.705 75.6276 231.395 76.6833 231.4C77.3845 231.406 78.0775 231.552 78.7216 231.829C79.3657 232.106 79.9481 232.509 80.4345 233.014C82.1546 234.737 86.4272 238.126 90.2028 241.118C95.4911 245.314 98.8123 247.965 100.331 249.664C101.008 250.424 101.45 251.364 101.606 252.37C101.761 253.376 101.622 254.405 101.205 255.334C100.789 256.263 100.113 257.052 99.2588 257.605C98.4046 258.159 97.4086 258.453 96.3908 258.454L96.3938 258.469ZM154.379 248.788C153.405 248.785 152.451 248.512 151.622 248.001C150.794 247.489 150.122 246.759 149.682 245.89C149.243 245.021 149.051 244.047 149.13 243.077C149.208 242.106 149.554 241.176 150.127 240.389L150.795 239.477C154.479 234.42 163.101 222.571 166.026 219.057C166.693 218.255 167.583 217.669 168.583 217.374C169.584 217.078 170.65 217.087 171.645 217.398C172.641 217.709 173.522 218.308 174.176 219.121C174.831 219.933 175.229 220.921 175.321 221.961C175.449 223.355 175.016 224.742 174.123 225.819C171.424 229.073 162.622 241.157 159.31 245.711L158.642 246.62C158.153 247.291 157.511 247.838 156.77 248.214C156.029 248.59 155.21 248.789 154.379 248.788ZM125.87 245.803H125.543C124.501 245.741 123.501 245.37 122.671 244.738C121.84 244.106 121.217 243.24 120.88 242.252C120.656 241.596 120.562 240.901 120.606 240.209C120.737 237.964 119.511 227.109 118.697 219.926C117.51 209.447 117.224 206.625 117.385 205.164C117.549 203.802 118.235 202.557 119.3 201.692C120.365 200.826 121.725 200.409 123.091 200.528C124.459 200.65 125.726 201.3 126.621 202.342C127.517 203.383 127.97 204.733 127.886 206.104C127.886 207.446 128.608 213.68 129.176 218.706C130.463 230.138 131.307 237.909 131.127 240.837C131.045 242.178 130.456 243.437 129.48 244.359C128.503 245.281 127.213 245.797 125.87 245.803ZM127.879 206.174C127.879 206.177 127.879 206.18 127.879 206.183V206.174ZM282.008 857.831C281.133 857.83 280.272 857.613 279.501 857.197C278.731 856.782 278.076 856.182 277.595 855.452C270.217 844.24 260.797 833.998 251.69 824.098L201.909 770.024C201.008 768.985 200.546 767.636 200.621 766.263C200.696 764.889 201.302 763.599 202.312 762.665C203.322 761.733 204.656 761.233 206.029 761.27C207.403 761.308 208.707 761.88 209.665 762.866L259.437 816.933C268.839 827.151 278.549 837.704 286.406 849.638C286.796 850.234 287.063 850.903 287.189 851.605C287.316 852.306 287.299 853.026 287.14 853.721C286.982 854.416 286.684 855.072 286.266 855.649C285.848 856.226 285.318 856.713 284.707 857.08C283.893 857.568 282.959 857.828 282.008 857.831ZM611.289 555.396C599.658 555.396 588.993 554.121 580.423 551.51C564.619 546.67 550.047 538.618 537.629 531.453L536.015 530.514L534.466 529.596C533.863 529.254 533.335 528.795 532.91 528.247C532.486 527.699 532.176 527.072 531.996 526.402C531.722 525.397 531.752 524.332 532.082 523.343C532.412 522.354 533.028 521.486 533.851 520.846C534.675 520.207 535.669 519.826 536.709 519.752C537.749 519.677 538.787 519.912 539.693 520.428C540.252 520.739 540.801 521.065 541.353 521.382C541.901 521.702 542.383 521.989 542.902 522.285C554.832 529.169 568.782 536.885 583.524 541.409C600.207 546.514 632.098 546.902 665.73 536.257C712.953 521.321 733.801 494.646 742.969 474.87C743.618 473.455 744.231 472.064 744.774 470.713C745.32 469.446 746.34 468.444 747.615 467.92C748.891 467.396 750.32 467.391 751.599 467.907C752.879 468.427 753.904 469.427 754.454 470.694C755.005 471.961 755.038 473.393 754.545 474.684C753.912 476.253 753.24 477.807 752.529 479.344C744.85 495.881 732.956 510.271 717.165 522.084C703.508 532.341 687.268 540.484 668.911 546.288C650.262 552.165 630.842 555.234 611.289 555.396Z" fill="#874036"/>
<path d="M1208.34 914.539C1207.23 914.535 1206.16 914.184 1205.26 913.536C1204.36 912.888 1203.69 911.975 1203.34 910.925C1196.47 890.305 1187.45 870.468 1176.41 851.746C1166.08 834.239 1153.77 817.424 1141.86 801.168L1141.75 801.028L982.327 583.453C947.737 536.257 909.526 489.501 856.381 481.443C841.831 479.243 827.25 480.131 811.825 481.076C799.65 481.854 787.064 482.586 774.599 481.677C763.481 480.88 752.578 478.203 742.354 473.76C728.658 467.73 718.142 458.915 711.951 448.28C709.382 443.889 707.529 439.117 706.462 434.143C706.17 432.774 706.432 431.346 707.19 430.169C707.948 428.993 709.142 428.165 710.509 427.866C711.187 427.72 711.887 427.709 712.569 427.834C713.251 427.959 713.902 428.218 714.484 428.594C715.066 428.971 715.568 429.459 715.961 430.03C716.355 430.601 716.632 431.244 716.776 431.923C717.606 435.8 719.051 439.519 721.058 442.939C726.12 451.65 734.956 458.955 746.596 464.085C755.699 468.017 765.401 470.382 775.292 471.079C787.085 471.939 799.333 471.185 811.144 470.462C826.445 469.532 842.264 468.568 857.915 470.938C915.065 479.6 954.858 528.15 990.787 577.136L1150.32 794.882C1162.38 811.346 1174.85 828.371 1185.45 846.338C1196.87 865.699 1206.21 886.216 1213.3 907.546C1213.52 908.204 1213.61 908.898 1213.56 909.59C1213.51 910.282 1213.33 910.958 1213.02 911.579C1212.71 912.199 1212.28 912.753 1211.76 913.207C1211.23 913.662 1210.62 914.009 1209.97 914.228C1209.44 914.414 1208.9 914.519 1208.34 914.539ZM390.16 1290.81C389.176 1290.8 388.212 1290.53 387.376 1290.01C386.541 1289.49 385.866 1288.75 385.427 1287.87C384.812 1286.61 384.718 1285.16 385.164 1283.83L385.436 1283.05C385.607 1282.55 385.786 1282.03 385.957 1281.5C411.426 1204.28 424.439 1024.78 409.998 950.337C406.982 934.727 403.018 918.959 399.227 903.715L397.613 897.234C392.749 877.668 387.772 856.827 384.923 835.941C378.891 791.068 382.364 745.428 395.116 701.985C395.467 701.057 396.073 700.247 396.864 699.649C397.655 699.051 398.6 698.688 399.588 698.604C400.577 698.519 401.569 698.716 402.45 699.171C403.332 699.626 404.067 700.322 404.57 701.177C405.25 702.317 405.473 703.675 405.198 704.977C392.869 746.988 389.512 791.124 395.347 834.517C398.126 854.885 402.825 874.597 407.812 894.678L409.425 901.141C413.301 916.528 417.248 932.434 420.282 948.324C427.26 984.458 428.425 1047.45 423.283 1116.83C418.187 1185.52 407.967 1248.3 395.93 1284.8C395.744 1285.36 395.558 1285.92 395.363 1286.47L395.1 1287.25C394.746 1288.28 394.08 1289.18 393.195 1289.81C392.311 1290.45 391.25 1290.8 390.16 1290.81ZM822.706 1169.75H822.194C820.801 1169.61 819.519 1168.92 818.63 1167.84C817.74 1166.76 817.316 1165.37 817.448 1163.98C817.448 1163.69 817.503 1163.4 817.524 1163.1C817.549 1162.81 817.573 1162.5 817.604 1162.21C825.908 1068.85 867.013 905.78 914.964 811.797C916.071 809.629 917.196 807.469 918.313 805.371C918.975 804.138 920.095 803.215 921.433 802.803C922.431 802.5 923.496 802.499 924.494 802.802C925.493 803.104 926.379 803.696 927.041 804.502C927.48 805.038 927.81 805.654 928.011 806.319C928.419 807.66 928.279 809.108 927.62 810.345C926.526 812.395 925.425 814.503 924.348 816.616C903.012 858.419 881.042 918.837 862.499 986.712C844.878 1051.21 832.346 1115.51 828.104 1163.16L828.034 1163.94C828.034 1164.28 827.979 1164.62 827.949 1164.97C827.824 1166.27 827.218 1167.48 826.249 1168.37C825.28 1169.25 824.017 1169.74 822.706 1169.75Z" fill="#874036"/>
<path d="M1069.36 977.766C1068.58 977.769 1067.8 977.596 1067.09 977.259C1066.39 976.923 1065.76 976.432 1065.27 975.823L1059.16 968.357C1017.06 916.995 968.238 857.767 921.503 804.889C911.788 793.886 901.98 782.966 892.079 772.129C891.184 771.243 890.634 770.067 890.529 768.812C890.424 767.557 890.771 766.306 891.506 765.283C892.242 764.261 893.318 763.535 894.542 763.236C895.765 762.937 897.055 763.085 898.179 763.653C898.816 763.982 899.377 764.434 899.835 764.989C909.78 775.868 919.632 786.833 929.39 797.88C976.231 850.898 1025.14 910.212 1067.3 961.65L1073.41 969.135C1073.89 969.713 1074.23 970.386 1074.43 971.107C1074.62 971.829 1074.66 972.584 1074.54 973.321C1074.42 974.059 1074.15 974.764 1073.74 975.388C1073.33 976.013 1072.79 976.544 1072.16 976.946C1071.32 977.48 1070.34 977.765 1069.34 977.766H1069.36ZM836.287 1193.99C835.483 1193.99 834.69 1193.81 833.967 1193.45C833.245 1193.1 832.613 1192.59 832.121 1191.95L830.486 1189.85C829.291 1188.3 828.074 1186.75 826.833 1185.19C823.049 1180.46 819.202 1175.77 815.293 1171.14C787.878 1138.58 751.776 1101.04 718.716 1070.7C712.51 1065.04 706.874 1060.09 700.351 1057.13C693.55 1054.03 685.718 1053.05 678.139 1052.09C667.508 1050.73 656.526 1049.33 645.931 1050.37C640.752 1050.89 635.284 1053.41 635.415 1056.34C635.485 1058.04 637.401 1060.14 640.673 1062.12C647.724 1066.4 655.702 1068.88 664.15 1071.52C668.734 1072.95 673.455 1074.42 678.069 1076.22C690.808 1081.2 702.483 1088.56 712.473 1097.91C716.299 1101.34 719.568 1105.34 722.165 1109.77C724.151 1113.25 725.322 1117.13 725.587 1121.13C725.651 1121.84 725.572 1122.55 725.356 1123.22C725.14 1123.9 724.79 1124.52 724.328 1125.06C723.866 1125.6 723.301 1126.04 722.666 1126.35C722.031 1126.67 721.339 1126.85 720.631 1126.89C719.564 1126.95 718.504 1126.69 717.591 1126.13C716.679 1125.58 715.957 1124.76 715.523 1123.78C715.234 1123.13 715.077 1122.43 715.063 1121.72C714.877 1119.32 714.154 1116.99 712.946 1114.9C710.876 1111.42 708.284 1108.27 705.261 1105.58C696.252 1097.15 685.724 1090.52 674.239 1086.03C669.966 1084.36 665.413 1082.92 661 1081.57C652.323 1078.86 643.351 1076.06 635.19 1071.12C628.584 1067.11 625.11 1062.29 624.86 1056.77C624.418 1046.54 634.943 1040.81 644.879 1039.82C656.657 1038.66 668.243 1040.14 679.457 1041.57C687.407 1042.57 696.435 1043.72 704.687 1047.47C712.629 1051.07 718.957 1056.58 725.828 1062.87C759.174 1093.49 795.625 1131.4 823.335 1164.29C827.299 1168.99 831.204 1173.74 835.046 1178.54C836.309 1180.09 837.55 1181.71 838.767 1183.27L840.429 1185.39C841.036 1186.17 841.413 1187.1 841.516 1188.09C841.619 1189.08 841.444 1190.07 841.011 1190.96C840.579 1191.85 839.906 1192.6 839.068 1193.13C838.23 1193.65 837.261 1193.93 836.272 1193.93L836.287 1193.99Z" fill="#874036"/>
<path d="M708.634 1158.18H708.363L700.699 1157.79L692.65 1157.37C660.683 1155.7 628.721 1154.04 596.769 1152.4L591.969 1152.15C588.007 1151.93 577.522 1151.38 573.923 1142.93C571.139 1136.45 574.567 1129.4 579.407 1125.79C583.579 1122.68 588.526 1121.6 593.234 1120.77C639.345 1112.65 686.565 1113.2 732.474 1122.39C733.835 1122.68 735.028 1123.49 735.794 1124.65C736.559 1125.81 736.836 1127.23 736.565 1128.6C736.293 1129.96 735.494 1131.16 734.342 1131.94C733.19 1132.72 731.777 1133.01 730.409 1132.76C724.538 1131.58 718.64 1130.55 712.721 1129.65C673.676 1123.79 633.94 1124.29 595.055 1131.13C591.45 1131.75 588.029 1132.47 585.75 1134.23C584.143 1135.43 583.143 1137.58 583.649 1138.75C584.152 1139.91 586.043 1141.23 592.557 1141.58L597.342 1141.83C629.307 1143.48 661.262 1145.14 693.214 1146.81L701.281 1147.22L708.927 1147.61C710.298 1147.69 711.586 1148.3 712.518 1149.31C713.449 1150.32 713.949 1151.65 713.913 1153.02C713.88 1154.39 713.313 1155.7 712.333 1156.66C711.353 1157.62 710.037 1158.17 708.664 1158.17L708.634 1158.18Z" fill="#874036"/>
<path d="M611.136 1195.9C605.624 1195.95 600.127 1195.31 594.771 1194.01C586.961 1192.04 577.888 1186.37 578.013 1176.92C578.098 1171.31 581.703 1166.04 587.434 1163.06C591.902 1160.8 596.61 1160.28 600.767 1159.83C631.774 1156.45 662.795 1153.22 693.83 1150.12C699.402 1149.55 704.986 1148.99 710.583 1148.44H710.674C712.051 1148.33 713.416 1148.76 714.476 1149.65C715.535 1150.54 716.204 1151.81 716.338 1153.18C716.477 1154.56 716.071 1155.93 715.208 1157.01C714.344 1158.09 713.092 1158.79 711.72 1158.95H711.629C706.045 1159.51 700.464 1160.06 694.886 1160.63C663.886 1163.73 632.901 1166.96 601.929 1170.33C598.516 1170.71 594.951 1171.11 592.243 1172.48C590.117 1173.57 588.605 1175.45 588.583 1177.07C588.583 1180 592.972 1182.67 597.37 1183.78C609.358 1186.8 622.536 1184.82 635.269 1182.9L638.114 1182.47C656.837 1179.7 675.922 1179.72 693.87 1179.98L699.591 1180.07C706.633 1180.19 713.91 1180.3 721.052 1180.3H723.09C724.154 1180.25 725.209 1180.52 726.118 1181.07C727.027 1181.63 727.747 1182.45 728.183 1183.42C728.471 1184.06 728.626 1184.76 728.641 1185.47C728.655 1186.18 728.527 1186.88 728.265 1187.54C728.003 1188.19 727.612 1188.79 727.115 1189.3C726.618 1189.8 726.025 1190.2 725.371 1190.47C724.717 1190.74 724.016 1190.87 723.309 1190.86H720.159C713.233 1190.86 706.2 1190.74 699.414 1190.63L693.714 1190.54C676.194 1190.28 657.596 1190.26 639.661 1192.92L636.843 1193.34C628.352 1194.6 619.767 1195.9 611.136 1195.9Z" fill="#874036"/>
<path d="M841.853 1286.86C832.709 1286.83 823.624 1285.4 814.912 1282.63C813.533 1282.19 812.137 1281.72 810.639 1281.17C792.701 1274.51 775.848 1262.68 759.098 1244.99L755.994 1241.72C747.171 1232.27 738.043 1222.5 726.524 1220.67C721.498 1219.89 716.179 1220.62 710.54 1221.4L709.418 1221.56C687.16 1224.61 664.688 1225.8 642.232 1225.13C631.521 1224.81 624.705 1220.55 623.543 1213.48C623.055 1210.51 623.494 1205.88 628.343 1200.68C636.386 1192.01 647.962 1188.39 658.225 1185.98C669.736 1183.34 681.388 1181.36 693.123 1180.04C701.879 1178.98 710.751 1178.15 719.089 1177.39L720.507 1177.26L721.989 1177.13C723.029 1177.03 724.073 1177.25 724.987 1177.76C725.902 1178.26 726.646 1179.03 727.125 1179.95C727.527 1180.72 727.733 1181.58 727.725 1182.45C727.716 1183.32 727.493 1184.17 727.076 1184.93C726.658 1185.7 726.059 1186.34 725.331 1186.82C724.603 1187.29 723.77 1187.58 722.904 1187.65L721.507 1187.78L720.025 1187.92C711.782 1188.69 702.965 1189.47 694.38 1190.53C683.03 1191.81 671.762 1193.72 660.628 1196.26C651.912 1198.31 642.177 1201.29 636.059 1207.92C634.33 1209.77 633.842 1211.17 633.949 1211.8C634.15 1213.06 637.239 1214.49 642.549 1214.65C664.419 1215.3 686.304 1214.13 707.981 1211.17L709.092 1211.01C715.24 1210.16 721.593 1209.27 728.177 1210.31C743.276 1212.71 754.133 1224.3 763.713 1234.58L766.729 1237.79C782.347 1254.29 797.897 1265.26 814.262 1271.33C815.586 1271.81 816.842 1272.24 818.068 1272.63C836.068 1278.32 854.79 1277.5 869.457 1270.39C870.045 1270.03 872.192 1268.31 876.434 1264.17C879.469 1261.22 881.948 1258.6 882.586 1257.84C883.26 1257.07 884.145 1256.51 885.131 1256.23C886.117 1255.96 887.163 1255.98 888.139 1256.29C889.116 1256.59 889.981 1257.18 890.628 1257.98C891.275 1258.77 891.677 1259.74 891.784 1260.75C891.933 1262.12 891.546 1263.49 890.704 1264.58C889.619 1265.89 886.712 1268.9 883.794 1271.75C876.816 1278.57 874.946 1279.47 874.147 1279.86C864.05 1284.6 853.009 1287 841.853 1286.86Z" fill="#874036"/>
<path d="M890.334 1269.51C889.265 1269.51 888.221 1269.18 887.341 1268.57C886.462 1267.97 885.788 1267.11 885.408 1266.11C884.338 1263.3 883.277 1260.67 882.307 1258.2C871.627 1232.33 863.374 1222.99 845.298 1202.54C842.559 1199.43 839.613 1196.1 836.411 1192.43C835.951 1191.91 835.6 1191.3 835.377 1190.64C835.096 1189.82 835.023 1188.94 835.163 1188.08C835.303 1187.22 835.653 1186.41 836.181 1185.72C836.71 1185.03 837.4 1184.48 838.192 1184.12C838.983 1183.76 839.852 1183.6 840.72 1183.65C842.12 1183.74 843.427 1184.39 844.353 1185.44C847.282 1188.8 850.229 1192.15 853.194 1195.49C871.502 1216.21 880.693 1226.57 892.048 1254.12C893.1 1256.67 894.17 1259.35 895.296 1262.3C895.795 1263.61 895.756 1265.06 895.186 1266.34C894.616 1267.62 893.562 1268.62 892.255 1269.12C891.645 1269.37 890.993 1269.5 890.334 1269.51ZM901.926 1276.99C900.864 1276.99 899.827 1276.67 898.951 1276.07C898.074 1275.47 897.399 1274.62 897.014 1273.63C896.628 1272.64 896.549 1271.55 896.788 1270.52C897.026 1269.48 897.571 1268.54 898.352 1267.82C924.238 1243.91 967.172 1218.09 1008.69 1193.13C1051.99 1167.09 1096.74 1140.17 1122.52 1115.42C1148.3 1090.67 1175.02 1064.91 1193.25 1033.69C1213.15 999.61 1219.23 962.714 1209.91 932.458C1209.5 931.118 1209.64 929.67 1210.29 928.429C1210.95 927.194 1212.07 926.268 1213.4 925.852C1214.74 925.442 1216.19 925.58 1217.42 926.236C1218.66 926.892 1219.59 928.012 1220 929.35C1230.18 962.421 1223.75 1002.39 1202.35 1039.03C1183.39 1071.51 1156.16 1097.7 1129.82 1123.04C1103.19 1148.68 1057.92 1175.88 1014.13 1202.22C973.067 1226.92 930.6 1252.46 905.509 1275.63C904.53 1276.52 903.249 1277.01 901.926 1276.99ZM892.892 1144.41C891.849 1144.41 890.828 1144.1 889.961 1143.52C889.093 1142.94 888.417 1142.11 888.019 1141.15C887.62 1140.18 887.514 1139.12 887.716 1138.1C887.918 1137.07 888.418 1136.13 889.153 1135.39C904.664 1119.79 922.82 1105.41 940.341 1091.49C962.589 1073.84 985.593 1055.58 1004.18 1034.29C1007.35 1030.66 1010.54 1026.91 1013.62 1023.28C1022.22 1013.18 1031.12 1002.72 1040.76 993.254C1044.15 989.914 1047.66 986.703 1051.29 983.625C1053.07 982.119 1054.88 980.653 1056.72 979.227C1057.83 978.377 1059.24 978.002 1060.62 978.184C1062.01 978.37 1063.27 979.099 1064.12 980.212C1064.97 981.325 1065.34 982.731 1065.16 984.119C1064.97 985.507 1064.25 986.767 1063.14 987.621C1061.53 988.847 1059.86 990.192 1058.05 991.714C1054.63 994.62 1051.31 997.652 1048.12 1000.81C1038.81 1009.94 1030.06 1020.23 1021.61 1030.14C1018.51 1033.79 1015.29 1037.56 1012.08 1041.24C992.857 1063.27 969.429 1081.83 946.846 1099.78C928.77 1114.13 911.682 1127.69 896.577 1142.86C895.599 1143.84 894.276 1144.39 892.892 1144.41Z" fill="#874036"/>
<path d="M836.044 1190.77C835.292 1190.77 834.55 1190.61 833.866 1190.29C833.182 1189.98 832.572 1189.53 832.078 1188.96C831.583 1188.4 831.215 1187.73 830.997 1187.01C830.78 1186.29 830.718 1185.53 830.817 1184.79C831.613 1179.27 834.014 1174.1 837.721 1169.93C843.15 1163.5 850.78 1158.82 858.124 1154.58C868.949 1148.33 879.554 1141.71 889.921 1134.73C890.789 1134.17 891.804 1133.87 892.839 1133.88C893.874 1133.89 894.883 1134.2 895.741 1134.78C896.598 1135.36 897.267 1136.18 897.662 1137.14C898.057 1138.1 898.162 1139.15 897.963 1140.16C897.702 1141.53 896.917 1142.73 895.776 1143.52C885.194 1150.6 874.383 1157.34 863.361 1163.72C856.813 1167.5 850.067 1171.62 845.715 1176.77C843.322 1179.39 841.762 1182.66 841.235 1186.17C841.068 1187.43 840.451 1188.59 839.497 1189.44C838.544 1190.28 837.318 1190.76 836.044 1190.77ZM960.132 1198.28C959.011 1198.28 957.918 1197.93 957.014 1197.26C956.11 1196.6 955.442 1195.66 955.106 1194.59C949.048 1175.49 938.499 1158.12 924.344 1143.94C923.584 1143.21 923.062 1142.26 922.844 1141.23C922.626 1140.19 922.722 1139.12 923.12 1138.14C923.519 1137.16 924.201 1136.33 925.078 1135.74C925.956 1135.15 926.99 1134.84 928.046 1134.85C928.747 1134.85 929.44 1135 930.083 1135.28C930.727 1135.55 931.309 1135.96 931.794 1136.46C947.145 1151.85 958.582 1170.69 965.143 1191.41C965.39 1192.2 965.448 1193.03 965.314 1193.85C965.179 1194.67 964.855 1195.44 964.368 1196.11C963.881 1196.78 963.244 1197.32 962.509 1197.7C961.773 1198.08 960.959 1198.28 960.132 1198.28ZM821.832 1306.59C820.623 1306.59 819.451 1306.17 818.512 1305.41C817.574 1304.65 816.925 1303.58 816.675 1302.4C816.59 1302 816.52 1301.62 816.44 1301.22L816.394 1300.97C815.783 1297.81 815.217 1294.65 814.696 1291.48C814.143 1288.01 813.52 1284.55 812.826 1281.11C812.674 1280.42 812.66 1279.71 812.785 1279.02C812.909 1278.33 813.17 1277.67 813.553 1277.08C813.935 1276.49 814.431 1275.98 815.012 1275.59C815.592 1275.19 816.246 1274.92 816.934 1274.78C817.623 1274.64 818.333 1274.64 819.021 1274.78C819.71 1274.92 820.363 1275.19 820.944 1275.59C821.524 1275.99 822.02 1276.49 822.401 1277.08C822.782 1277.67 823.042 1278.33 823.165 1279.03C824.11 1283.77 824.617 1286.8 825.105 1289.76C825.553 1292.49 825.98 1295.06 826.739 1298.94L826.794 1299.22C826.855 1299.54 826.919 1299.87 826.995 1300.2C827.158 1300.97 827.146 1301.77 826.962 1302.53C826.778 1303.3 826.426 1304.01 825.932 1304.62C825.437 1305.24 824.813 1305.73 824.104 1306.07C823.395 1306.41 822.619 1306.59 821.832 1306.59ZM144.513 390.748C143.145 390.72 141.841 390.162 140.876 389.191C139.912 388.22 139.362 386.913 139.344 385.544C139.322 384.177 139.832 382.854 140.766 381.854C141.7 380.855 142.985 380.256 144.351 380.186L147.941 380.07L291.041 375.681C293.591 375.595 296.003 374.501 297.748 372.639C299.493 370.778 300.428 368.3 300.349 365.75L297.641 277.282C297.556 274.729 296.464 272.315 294.603 270.566C292.745 268.818 290.269 267.88 287.72 267.958L129.517 272.822C127.614 272.879 125.77 273.5 124.222 274.609C122.673 275.717 121.49 277.261 120.822 279.045C120.378 280.229 120.17 281.489 120.212 282.753L122.908 371.228C122.952 372.626 122.438 373.983 121.48 375.002C120.523 376.021 119.199 376.618 117.802 376.661C116.404 376.705 115.046 376.191 114.027 375.233C113.008 374.275 112.412 372.952 112.368 371.554L112.185 365.671L109.669 283.077C109.503 277.72 111.468 272.516 115.135 268.607C116.949 266.675 119.126 265.119 121.543 264.029C123.959 262.939 126.566 262.336 129.215 262.254L287.421 257.396C290.072 257.312 292.713 257.753 295.193 258.694C297.673 259.634 299.942 261.056 301.871 262.876C303.802 264.697 305.354 266.881 306.439 269.303C307.528 271.725 308.129 274.338 308.205 276.995L310.919 365.46C311.084 370.811 309.118 376.007 305.454 379.909C301.789 383.811 296.726 386.099 291.377 386.27L144.684 390.778L144.516 390.748H144.513Z" fill="#874036"/>
<path d="M258.5 285.309H258.152C257.744 285.31 257.339 285.229 256.962 285.073C256.585 284.917 256.243 284.687 255.955 284.398C255.666 284.109 255.438 283.766 255.283 283.389C255.128 283.011 255.049 282.606 255.05 282.198C255.052 281.376 255.379 280.587 255.96 280.006C256.542 279.424 257.33 279.096 258.152 279.093H258.487C260.47 279.093 263.385 279.002 266.466 278.898C271.04 278.752 275.773 278.593 278.433 278.718C279.047 278.747 279.639 278.957 280.133 279.323C280.628 279.69 281.002 280.194 281.208 280.774C281.379 281.255 281.43 281.771 281.355 282.276C281.28 282.781 281.083 283.26 280.779 283.671C280.476 284.082 280.077 284.412 279.616 284.632C279.155 284.853 278.647 284.956 278.137 284.934C275.728 284.818 270.909 284.983 266.67 285.123C263.559 285.215 260.586 285.306 258.503 285.306L258.5 285.309ZM134.966 369.23H134.82C133.996 369.23 133.205 368.903 132.623 368.32C132.04 367.737 131.712 366.946 131.712 366.122C131.712 365.298 132.04 364.507 132.623 363.924C133.205 363.342 133.996 363.014 134.82 363.014H134.966C137.214 363.014 147.312 362.758 157.992 362.486C178.52 361.956 193.241 361.599 195.73 361.709C196.138 361.726 196.538 361.824 196.908 361.997C197.278 362.17 197.611 362.415 197.886 362.717C198.161 363.019 198.374 363.372 198.512 363.756C198.65 364.141 198.711 364.549 198.691 364.957C198.652 365.78 198.289 366.553 197.682 367.109C197.075 367.665 196.272 367.959 195.449 367.925C192.991 367.815 173.674 368.306 158.148 368.702C146.995 369.013 137.318 369.23 134.966 369.23ZM134.091 348.81C133.445 348.807 132.816 348.603 132.291 348.227C131.765 347.852 131.369 347.322 131.157 346.712C130.562 344.625 130.239 342.47 130.197 340.301C130.081 338.815 129.956 337.138 129.724 335.07C129.652 334.425 129.783 333.773 130.099 333.206C130.415 332.639 130.9 332.185 131.487 331.907C131.877 331.724 132.301 331.623 132.731 331.614L287.164 327.991C287.979 327.972 288.769 328.275 289.362 328.833C289.956 329.392 290.306 330.162 290.336 330.977L290.732 341.124C290.75 341.535 290.685 341.945 290.542 342.33C290.399 342.716 290.181 343.069 289.9 343.369C289.62 343.67 289.284 343.912 288.91 344.081C288.536 344.251 288.133 344.345 287.722 344.357L134.167 348.801L134.091 348.81ZM136.223 337.751C136.284 338.529 136.33 339.212 136.375 339.843C136.455 340.859 136.516 341.753 136.61 342.515L284.41 338.233L284.258 334.277L136.223 337.751ZM133.945 323.733C133.137 323.733 132.361 323.418 131.782 322.855C131.202 322.293 130.865 321.527 130.84 320.72C130.746 317.79 130.599 314.863 130.398 311.939C130.136 308.182 129.982 304.419 129.934 300.654C129.935 299.847 130.248 299.072 130.81 298.492C131.371 297.912 132.135 297.573 132.941 297.546L160.792 296.771C161.602 296.749 162.389 297.047 162.983 297.599C163.577 298.151 163.931 298.913 163.97 299.724L164.964 319.405C165.014 320.229 164.735 321.04 164.189 321.659C163.912 321.963 163.578 322.209 163.205 322.383C162.832 322.556 162.429 322.653 162.018 322.669L134.097 323.773L133.945 323.733ZM136.192 303.646C136.278 306.552 136.433 308.993 136.595 311.548C136.711 313.391 136.827 315.279 136.921 317.401L158.636 316.538L157.952 303.033L136.192 303.646ZM246.975 320.586C246.173 320.585 245.402 320.274 244.824 319.718C244.246 319.162 243.905 318.404 243.873 317.603C243.742 314.193 243.556 312.335 243.385 310.533C243.169 308.309 242.958 306.205 242.897 301.703C242.886 300.882 243.2 300.089 243.77 299.498C244.341 298.907 245.122 298.566 245.944 298.549L283.62 297.866C284.034 297.858 284.445 297.933 284.829 298.086C285.213 298.239 285.562 298.468 285.856 298.758C286.151 299.049 286.384 299.396 286.542 299.778C286.7 300.16 286.78 300.57 286.777 300.983V316.407C286.775 317.216 286.459 317.992 285.896 318.572C285.332 319.151 284.566 319.49 283.758 319.515L247.106 320.595L246.975 320.586ZM249.177 304.71C249.262 306.949 249.402 308.364 249.558 309.926C249.674 311.137 249.805 312.457 249.924 314.284L280.543 313.384V304.137L249.177 304.71ZM790.919 254.858C789.881 254.857 788.866 254.55 788.003 253.974C787.139 253.398 786.464 252.58 786.064 251.622C785.66 250.665 785.547 249.609 785.74 248.588C785.933 247.567 786.423 246.625 787.15 245.882C788.244 244.756 789.266 243.564 790.206 242.307C790.829 241.469 791.688 240.836 792.673 240.487C793.658 240.138 794.724 240.09 795.736 240.349C796.748 240.607 797.661 241.161 798.358 241.939C799.055 242.717 799.505 243.685 799.651 244.72C799.849 246.108 799.489 247.517 798.65 248.639C797.433 250.279 796.11 251.837 794.689 253.303C794.195 253.799 793.607 254.192 792.96 254.459C792.313 254.726 791.619 254.862 790.919 254.858Z" fill="#874036"/>
</g>
</svg>
