<svg width="211" height="290" viewBox="0 0 211 290" fill="none" xmlns="http://www.w3.org/2000/svg">
<g clip-path="url(#clip0_113_325)">
<path d="M145.02 317C216.642 317 274.702 258.939 274.702 187.318C274.702 115.697 216.642 57.6364 145.02 57.6364C73.3989 57.6364 15.3384 115.697 15.3384 187.318C15.3384 258.939 73.3989 317 145.02 317Z" fill="#F7F5F2"/>
<mask id="mask0_113_325" style="mask-type:luminance" maskUnits="userSpaceOnUse" x="0" y="0" width="290" height="317">
<path d="M0 0H289.32V317H0V0Z" fill="white"/>
</mask>
<g mask="url(#mask0_113_325)">
<path d="M186.841 58.9505C186.489 59.3122 186.109 59.645 185.705 59.9476C185.217 60.3483 184.642 60.6286 184.025 60.766L183.954 60.7768C183.791 60.6631 183.634 60.5405 183.485 60.4094C182.274 59.3475 181.47 57.7171 180.623 56.3496C180.129 55.4887 179.708 54.5881 179.363 53.6573C178.859 52.4145 178.123 50.97 177.617 49.72L176.974 49.8115C176.736 48.0821 176.59 46.3416 176.534 44.5969C169.257 37.7338 166.806 25.721 155.415 23.7866L155.11 24.7152C153.131 24.1124 151.011 24.1637 149.064 24.8615L148.87 24.0999C136.399 27.4609 134.055 38.5508 129.435 48.9693C127.42 53.5327 125.368 58.1321 122.523 62.2343C121.39 63.8768 120.111 65.4129 118.7 66.8236C118.282 67.2396 117.851 67.6423 117.408 68.0311C117.553 71.4893 117.786 74.9424 118.107 78.3905L118.252 78.3761C118.91 85.4171 122.22 94.6108 128.415 101.823C127.745 102.598 126.97 103.278 126.114 103.841L126.256 104.044C123.934 105.696 120.932 106.211 118.082 106.004C115.167 105.789 112.402 104.846 109.583 104.106C108.688 104.234 107.78 104.251 106.881 104.155C105.889 104.012 104.9 103.596 104.27 102.819C103.698 102.114 103.48 101.215 103.398 100.302L103.912 100.264C105.378 92.0374 98.9664 80.4409 100.108 68.9007C101.006 59.7162 103.08 50.6851 106.28 42.0292C112.675 24.8319 127.757 -4.46031 152.065 2.19885C154.483 1.61504 157.01 1.65047 159.412 2.30188C173.929 -1.34146 186.332 19.8954 191.24 32.3506C196.579 45.8951 200.256 59.9858 199.332 74.6074C198.754 83.7168 192.9 93.783 194.437 101.619C193.287 102.141 192.073 102.506 190.826 102.704L190.569 101.995C183.347 104.618 180.299 105.06 176.247 104.859L176.226 105.242C173.907 105.119 171.583 105.119 169.264 105.242C168.723 104.32 168.333 103.316 168.11 102.271L168.051 102.217C172.903 96.6812 176.103 89.8942 177.287 82.629C177.847 82.5943 178.387 82.4034 178.844 82.0778C182.999 83.031 186.824 78.7738 188.959 75.7328C191.548 72.062 192.837 67.5095 192.244 63.0203C191.919 60.5607 189.144 57.3136 186.841 58.9505Z" fill="#EACAB5"/>
<path d="M198.463 277.133L198.845 277.166C198.125 277.967 197.658 278.963 197.502 280.029L197.169 280.29C196.882 279.92 196.591 279.553 196.297 279.188C196.888 278.377 197.622 277.681 198.463 277.133Z" fill="#EECFC5"/>
<path d="M137.379 87.8321C138.152 90.7694 138.844 95.3579 141.439 99.2124C144.255 103.392 149.884 103.201 152.867 99.2823C155.102 96.3457 157.018 90.639 157.676 87.0648L156.828 87.2485C150.947 89.9358 141.292 88.5021 137.379 87.8321ZM183.481 60.4188C183.63 60.5497 183.787 60.6723 183.95 60.7862L184.021 60.7754C184.638 60.6383 185.213 60.3579 185.701 59.957C186.105 59.6546 186.485 59.3212 186.837 58.9599C189.14 57.3208 191.916 60.5679 192.24 63.0276C192.834 67.5167 191.544 72.062 188.955 75.74C186.824 78.7745 182.999 83.031 178.85 82.0778C178.63 82.0317 178.414 81.9705 178.203 81.8948L177.395 81.933C177.362 82.1643 177.329 82.3991 177.292 82.6304C176.053 90.2704 172.586 97.3746 167.326 103.052C162.154 108.559 155.318 112.31 147.464 112.509C141.25 112.667 134.246 107.929 129.95 103.515C129.421 102.974 128.911 102.414 128.422 101.837C122.228 94.6252 118.917 85.4315 118.259 78.3905L118.115 78.4049C117.792 74.9584 117.559 71.5041 117.415 68.0455C117.858 67.6569 118.289 67.2542 118.706 66.838C120.117 65.4276 121.397 63.8915 122.53 62.2487C125.375 58.1465 127.418 53.5471 129.442 48.9837C134.063 38.566 136.404 27.476 148.877 24.1151L149.071 24.8766C151.018 24.1785 153.138 24.127 155.117 24.7296L155.423 23.801C166.813 25.7354 169.264 37.7504 176.541 44.612C176.597 46.357 176.744 48.0969 176.981 49.8267L177.624 49.7344C178.129 50.9844 178.866 52.4289 179.37 53.6717C179.715 54.6028 180.136 55.5036 180.631 56.3648C181.458 57.7192 182.27 59.3482 183.481 60.4188ZM163.96 68.2991C164.528 67.6968 164.521 66.5628 164.412 65.8669C164.316 65.2797 163.475 64.5182 162.98 65.4209C162.885 65.617 162.844 65.8348 162.861 66.052C162.861 66.5715 162.693 67.8496 163.085 68.3006C163.162 68.3861 163.261 68.4485 163.371 68.481C163.481 68.5134 163.598 68.5145 163.709 68.4843C163.807 68.4408 163.893 68.3749 163.96 68.2919V68.2991ZM133.297 66.1089C133.846 65.5074 133.846 64.2739 133.733 63.5888C133.643 63.0038 132.817 62.2437 132.333 63.1428C132.243 63.3404 132.203 63.5577 132.218 63.7747C132.218 64.2934 132.055 65.6594 132.442 66.1089C132.515 66.1944 132.611 66.2572 132.719 66.2897C132.826 66.3223 132.941 66.3233 133.05 66.2927C133.146 66.2529 133.231 66.1898 133.297 66.1089Z" fill="#FDEEE8"/>
<path d="M218.624 189.299C217.742 190.09 217.07 191.087 216.669 192.202L217.253 192.32C206.481 213.428 196.437 251.56 194.386 274.639C194.023 274.975 193.738 275.386 193.55 275.843C186.632 267.629 177.851 258.633 170.627 252.003C169.198 250.694 167.722 249.38 165.959 248.58C164.197 247.779 162.264 247.53 160.357 247.295C157.739 246.961 155.095 246.627 152.468 246.885C150.819 247.051 148.789 247.93 148.861 249.593C148.908 250.637 149.807 251.429 150.693 251.979C153.451 253.653 156.717 254.235 159.723 255.406C162.585 256.522 165.207 258.175 167.448 260.276C168.257 260.999 168.949 261.842 169.502 262.776C169.455 263.723 169.137 264.636 168.586 265.408L168.551 265.632C159.195 264.235 149.674 264.354 140.356 265.986C139.396 266.155 138.403 266.353 137.621 266.942C136.839 267.531 136.339 268.605 136.725 269.501C137.207 270.632 138.68 270.857 139.907 270.923C147.834 271.333 155.761 271.745 163.689 272.157L164.023 272.93C156.697 273.664 149.375 274.427 142.056 275.22C141.125 275.323 140.175 275.433 139.339 275.856C138.503 276.278 137.806 277.1 137.791 278.034C137.773 279.523 139.369 280.484 140.808 280.848C144.106 281.68 147.562 281.064 150.92 280.565C155.207 279.93 159.547 279.927 163.891 279.989C161.164 280.297 158.457 280.758 155.782 281.368C153.428 281.918 150.997 282.703 149.35 284.477C148.848 285.015 148.415 285.719 148.534 286.446C148.749 287.757 150.436 288.124 151.759 288.162C156.994 288.321 162.232 288.042 167.421 287.329C168.886 287.127 170.369 286.892 171.827 287.126C175.308 287.676 177.794 290.675 180.227 293.242C183.538 296.729 187.418 299.801 191.927 301.476C192.244 301.591 192.561 301.699 192.883 301.802C192.898 302.004 192.914 302.21 192.927 302.409L193.237 302.388C193.66 304.491 193.697 305.128 194.082 307.087C182.847 312.777 166.723 316.697 144.63 317.009C127.643 317.246 110.017 312.298 92.0716 305.875H92.0133C92.1192 304.956 92.2352 304.038 92.3598 303.122C98.2935 285.134 101.593 242.39 98.0716 224.269C97.2546 220.033 96.1753 215.849 95.1408 211.661L86.5299 216.78C80.84 221.359 75.0781 225.847 69.2462 230.244C67.8665 231.286 66.476 232.326 64.9465 233.127C62.9307 234.184 60.7088 234.8 58.4992 235.372C55.7398 236.089 52.8724 236.75 50.072 236.249C46.4078 235.594 43.3718 233.052 40.7277 230.409C34.0792 223.729 28.7468 215.859 25.0088 207.208C23.9094 204.678 22.957 201.833 23.6587 199.209C22.5006 197.793 21.8397 196.036 21.7776 194.209L22.2754 194.025C20.5031 189.058 18.7322 184.093 16.9628 179.13C16.1746 176.928 15.38 174.683 15.2769 172.338C15.1746 169.995 15.8634 167.511 17.6256 165.975L17.6955 165.213C17.8972 165.078 18.1018 164.942 18.3036 164.81C18.56 165.709 18.8223 166.612 19.0817 167.511H19.2546C19.2647 168.828 19.5572 170.128 20.1119 171.322L19.7855 171.473C20.2899 173.625 22.9001 174.73 25.0715 174.277C27.2422 173.823 28.9735 172.24 30.4555 170.606C33.1615 167.603 35.472 163.943 35.5851 159.9L35.606 154.861C35.4223 154.463 35.2595 154.066 35.0909 153.67L35.5325 154.037L35.6716 153.87C36.6881 153.228 37.9453 154.217 38.6485 155.192C42.3019 160.257 43.7349 170.524 46.3912 176.447C46.8929 178.037 47.4836 179.598 48.1606 181.122L48.6282 181.075L57.5388 190.756C58.0241 190.417 58.5482 190.137 59.1 189.923C65.3975 178.729 71.6936 167.532 77.9889 156.333C80.0703 152.628 82.1935 148.872 85.2215 145.889C90.1502 141.038 96.9469 138.731 103.321 136.071C109.864 133.335 116.189 130.102 122.239 126.4C124.084 125.271 125.937 124.075 127.334 122.419C127.39 122.353 127.447 122.286 127.499 122.216C127.47 122.964 127.509 123.712 127.617 124.452C130.771 126.27 133.995 128.013 137.469 129.078C146.38 131.806 169.264 128.559 176.627 112.7C176.443 112.03 176.189 111.382 175.869 110.765C178.151 111.754 180.583 112.351 183.064 112.529C189.529 113 196.071 111.514 202.483 112.485C215.768 114.504 225.104 126.227 233.055 137.081C245.608 154.212 258.163 171.344 270.718 188.475C273.602 192.413 276.494 196.358 278.972 200.562C281.625 205.059 283.794 209.825 285.443 214.779L285.602 214.742C286.015 216.462 286.363 218.197 286.645 219.943L287.012 219.883C289.558 228.16 287.324 237.321 282.957 244.795C278.589 252.269 272.27 258.378 266.038 264.369C253.946 276.004 225.393 289.009 213.063 300.396L213.04 300.592C211.898 300.444 211.001 299.616 210.28 298.662L210.325 298.628C210.082 297.991 209.829 297.357 209.568 296.727C206.574 289.473 204.268 287.445 198.515 280.848L197.555 280.789L197.167 280.29L197.5 280.029C197.656 278.963 198.123 277.967 198.843 277.166C200.008 275.786 201.739 274.732 203.337 273.809C205.919 272.314 208.451 270.736 210.929 269.077C219.163 260.818 230.186 254.268 238.159 245.135C240.98 241.898 243.681 238.509 246.737 235.513C247.666 234.927 248.485 234.182 249.155 233.311C250.344 231.78 251.036 229.922 251.136 227.987L251.169 227.962C240.956 215.486 229.613 201.734 218.624 189.299Z" fill="#BEDCEA"/>
<path d="M207.796 299.376L207.908 299.491C207.125 300.255 206.288 301.018 205.955 301.18C201.924 303.138 197.161 303.138 192.878 301.785C192.557 301.683 192.238 301.574 191.922 301.459C187.412 299.785 183.533 296.719 180.222 293.225C177.789 290.655 175.31 287.66 171.822 287.109C170.356 286.876 168.878 287.109 167.415 287.313C162.227 288.026 156.988 288.304 151.753 288.146C150.431 288.108 148.743 287.74 148.529 286.43C148.41 285.696 148.842 284.998 149.344 284.46C150.993 282.687 153.422 281.903 155.776 281.351C158.452 280.741 161.159 280.281 163.885 279.972C166.034 280.005 168.181 280.052 170.327 280.049C170.198 279.824 170.084 279.59 169.985 279.351C167.951 279.533 165.912 279.728 163.885 279.972C159.542 279.91 155.202 279.914 150.914 280.549C147.556 281.048 144.097 281.663 140.803 280.832C139.363 280.464 137.767 279.506 137.785 278.018C137.8 277.083 138.502 276.266 139.334 275.839C140.166 275.411 141.12 275.307 142.05 275.204C149.368 274.411 156.69 273.647 164.017 272.913C163.905 272.656 163.796 272.397 163.683 272.14C155.757 271.725 147.829 271.314 139.902 270.907C138.674 270.84 137.201 270.615 136.72 269.485C136.335 268.588 136.836 267.508 137.615 266.926C138.394 266.344 139.39 266.138 140.351 265.969C149.669 264.338 159.189 264.218 168.546 265.615L168.581 265.391C169.132 264.619 169.45 263.706 169.497 262.759C168.944 261.826 168.251 260.983 167.444 260.259C165.202 258.158 162.58 256.506 159.717 255.39C156.711 254.219 153.447 253.637 150.687 251.962C149.793 251.412 148.893 250.63 148.855 249.576C148.784 247.913 150.81 247.035 152.462 246.87C155.09 246.61 157.733 246.944 160.351 247.279C162.258 247.521 164.199 247.774 165.954 248.563C167.709 249.353 169.193 250.678 170.621 251.987C177.845 258.617 186.627 267.612 193.545 275.826C194.777 277.286 195.984 278.768 197.165 280.27L197.553 280.769L198.513 280.828C204.266 287.425 206.574 289.455 209.566 296.707C209.183 297.718 208.578 298.63 207.796 299.376ZM169.266 105.261C170.694 107.711 173.103 109.547 175.874 110.767C176.194 111.384 176.449 112.032 176.633 112.701C169.27 128.56 146.385 131.807 137.474 129.08C133.994 128.015 130.776 126.271 127.623 124.454C127.515 123.714 127.475 122.966 127.504 122.219C130.551 118.443 130.712 113.291 130.188 108.291C130.256 106.692 130.172 105.091 129.937 103.508C134.233 107.928 141.237 112.665 147.452 112.501C155.306 112.303 162.141 108.553 167.313 103.045C167.82 103.789 168.325 104.534 168.828 105.281L169.266 105.261Z" fill="#FDEEE8"/>
<path d="M156.829 87.2506L157.677 87.0669C157.019 90.6404 155.112 96.3493 152.868 99.2837C149.886 103.203 144.257 103.394 141.44 99.2145C138.842 95.3594 138.153 90.7708 137.38 87.8342C141.293 88.5021 150.948 89.9358 156.829 87.2506Z" fill="#F7BFB7"/>
<path d="M67.8566 78.2104L67.9481 80.6081L31.6732 81.6592C31.4895 81.1088 31.5226 80.4056 31.3706 79.0663L67.8566 78.2104Z" fill="#874036"/>
<path d="M67.0137 71.0945V74.7378L58.3538 74.9929C58.2803 73.1579 58.1478 73.1377 58.1226 71.2559L67.0137 71.0945Z" fill="#EAE7E4"/>
<path d="M38.0036 70.8264L38.2384 75.4705L31.6434 75.7306C31.5901 73.8956 31.4474 72.8877 31.4287 71.0066L38.0036 70.8264Z" fill="#FDD569"/>
<path d="M15.8052 93.2506C16.2875 92.9979 16.7971 92.8009 17.3239 92.6634C20.0717 91.9509 23.0198 92.7167 25.5551 94.0049C28.3738 95.4438 30.8317 97.4998 32.746 100.02C33.05 100.416 33.3368 100.823 33.6069 101.24C34.0522 101.927 34.4787 102.731 34.3014 103.531C34.1986 103.927 33.9977 104.29 33.7172 104.587C33.2591 105.094 32.6902 105.49 32.0548 105.742C31.4193 105.994 30.7343 106.096 30.0529 106.041L29.1812 106.065C28.8063 105.38 28.3376 104.751 27.7885 104.196C27.1416 103.568 26.4319 103.008 25.6704 102.526C23.0818 100.817 20.1906 99.5041 17.1222 99.0712C15.53 98.8392 13.9101 98.8752 12.3297 99.1778L12.2469 98.7131C12.2386 98.4414 12.2533 98.1696 12.2908 97.9004C12.5624 95.9307 13.9933 94.203 15.8052 93.2506Z" fill="#FDEEE8"/>
<path d="M13.4232 143.477C13.0257 140.662 12.4457 137.875 11.6869 135.135C7.68 129.263 4.34867 122.957 1.75617 116.338C1.46871 115.603 1.18485 114.827 1.25833 114.039C1.39018 112.63 2.60486 111.593 3.7756 110.798C4.38896 110.382 5.01892 109.99 5.66391 109.625C7.38049 108.623 9.24883 107.907 11.1956 107.506C13.8684 106.997 16.7517 107.274 19.1119 108.636C19.4534 108.829 19.7711 109.062 20.0572 109.332L20.7899 109.245L28.6839 111.11C29.0506 111.196 29.4555 111.276 29.7833 111.083C30.2026 110.835 30.2732 110.264 30.2487 109.778C30.1872 108.476 29.8281 107.206 29.199 106.065L30.0707 106.041C30.7614 106.1 31.4561 105.993 32.0974 105.73C32.0247 106.741 31.9886 107.754 31.9893 108.768C33.6618 116.019 33.4665 123.575 31.4216 130.73C30.9317 132.433 30.3222 134.133 30.2559 135.902C30.1954 137.277 30.4576 138.656 30.7509 139.988C31.8698 145.088 33.4963 150.063 35.606 154.839L35.5858 159.878C35.4778 163.916 33.1673 167.586 30.4562 170.584C28.9735 172.223 27.2329 173.803 25.0715 174.255C22.9102 174.707 20.2899 173.604 19.7855 171.45L20.1119 171.3C19.5569 170.105 19.2645 168.806 19.2546 167.489H19.0817C18.8223 166.59 18.56 165.687 18.3036 164.787C16.274 157.774 14.3591 150.702 13.4232 143.477Z" fill="#FDEEE8"/>
<path d="M6.22183 106.411C5.88322 104.943 5.80973 103.408 6.63249 102.189C7.04995 101.62 7.57953 101.141 8.18867 100.784C9.07483 100.229 10.0316 99.7967 11.0323 99.4969C11.4574 99.368 11.8896 99.2614 12.3262 99.1778C13.9069 98.8752 15.5265 98.8392 17.1187 99.0712C20.1878 99.5042 23.0783 100.817 25.6676 102.526C26.4292 103.008 27.1391 103.568 27.7858 104.196C28.3346 104.751 28.8031 105.38 29.1777 106.065C29.8068 107.206 30.1659 108.476 30.2274 109.778C30.2512 110.264 30.1813 110.835 29.762 111.083C29.4414 111.276 29.0293 111.196 28.6625 111.11L20.7829 109.243L20.0502 109.33C19.7639 109.061 19.4466 108.827 19.105 108.634C16.7448 107.272 13.8615 106.995 11.1886 107.503C9.24222 107.906 7.37418 108.622 5.65771 109.624C5.67429 108.529 5.86448 107.445 6.22183 106.411Z" fill="#FDEEE8"/>
<path d="M27.7468 86.3307L27.1554 66.8229C27.1334 66.1261 27.3183 65.4385 27.6868 64.8467C28.0554 64.255 28.5909 63.7856 29.2259 63.498C29.6474 63.3078 30.1023 63.2028 30.5645 63.1889L67.9388 62.042C68.4011 62.0278 68.8617 62.1049 69.2941 62.269C69.7266 62.433 70.1224 62.6808 70.459 62.998C71.1396 63.6395 71.5379 64.5249 71.5663 65.4598L72.2061 86.3566C72.2342 87.2906 71.891 88.1976 71.2515 88.8789C70.9352 89.2159 70.5555 89.4873 70.1342 89.6774C69.7129 89.8675 69.2582 89.9727 68.7962 89.987L34.991 91.0259V91.1123C34.55 91.3138 34.1307 91.5598 33.7396 91.8465C31.8491 89.8717 29.4068 88.51 26.7778 87.7024C27.0747 87.2269 27.3981 86.7694 27.7468 86.3307ZM67.9482 80.6095L67.8567 78.2126L31.3693 79.0663C31.5206 80.4056 31.4846 81.1124 31.6719 81.6592L67.9482 80.6095ZM67.0044 74.7364V71.0923L58.1169 71.2487C58.1428 73.1298 58.2754 73.1535 58.3474 74.9857L67.0044 74.7364ZM38.241 75.4705L38.0068 70.8207L31.4291 71.0044C31.4478 72.8862 31.5905 73.897 31.6438 75.7292L38.241 75.4705Z" fill="#DDDFDE"/>
<path d="M17.324 92.6634C16.7971 92.8009 16.2876 92.9979 15.8052 93.2506L16.3016 92.3954L16.2152 92.3457C16.7101 90.1267 17.6806 87.6267 19.8484 86.9754C20.5408 86.768 21.2843 86.7917 22.0062 86.8335C23.6222 86.9387 25.2209 87.2319 26.7698 87.706C29.4024 88.5136 31.8447 89.8753 33.7316 91.85C33.8469 91.9675 33.9621 92.0907 34.0724 92.2175C34.9211 93.1699 35.6624 94.3226 35.6754 95.6C35.6862 96.4963 34.3036 97.4941 33.0356 98.0027L32.7388 100.022C30.8264 97.5034 28.371 95.448 25.5552 94.0085C23.0192 92.724 20.0754 91.9509 17.324 92.6634ZM11.0322 99.4969C11.2017 98.9069 11.4673 98.3487 11.8182 97.8449L12.2873 97.904C12.2499 98.1732 12.2354 98.4451 12.244 98.7167L12.3262 99.1814C11.8896 99.2642 11.458 99.3694 11.0322 99.4969Z" fill="#FDEEE8"/>
<path d="M181.724 72.9648C181.491 72.9626 181.263 72.8953 181.067 72.7703C180.87 72.6454 180.712 72.4679 180.611 72.2578C180.509 72.0478 180.469 71.8136 180.494 71.5818C180.519 71.3499 180.608 71.1297 180.752 70.9461C181.855 69.5604 183.321 68.5085 184.987 67.9079C185.221 67.8172 185.477 67.7989 185.721 67.8554C185.965 67.912 186.186 68.0407 186.356 68.2249C186.497 68.3784 186.598 68.5648 186.648 68.767C186.699 68.9692 186.698 69.1808 186.646 69.3827C186.594 69.5845 186.492 69.7701 186.35 69.9226C186.208 70.0752 186.03 70.1897 185.832 70.2559C184.603 70.7049 183.519 71.4818 182.699 72.5023C182.582 72.6479 182.434 72.7652 182.265 72.8453C182.096 72.9254 181.911 72.9663 181.724 72.9648ZM144.458 78.4604C144.21 78.4591 143.967 78.3833 143.762 78.243C143.557 78.1026 143.399 77.9041 143.308 77.673C142.888 76.5951 142.46 75.3048 142.443 73.8992C142.421 72.2933 142.993 70.8135 144.002 69.8409C144.198 69.6579 144.403 69.485 144.617 69.3229C144.772 69.2098 144.919 69.0873 145.059 68.9554C145.997 68.0383 145.903 66.2761 145.744 64.6976C145.72 64.4524 145.768 64.2054 145.884 63.9876C145.999 63.7699 146.176 63.591 146.393 63.4735C146.684 63.3174 147.025 63.2831 147.341 63.3782C147.657 63.4733 147.923 63.69 148.079 63.9807C148.156 64.1248 148.205 64.2833 148.221 64.4461C148.38 66.0045 148.676 68.905 146.81 70.7314C146.601 70.934 146.379 71.1234 146.146 71.2984C146.001 71.405 145.863 71.5196 145.731 71.6413C145.21 72.1406 144.921 72.9504 144.934 73.8682C144.945 74.879 145.301 75.9014 145.629 76.7695C145.748 77.0778 145.741 77.4207 145.608 77.7234C145.475 78.0261 145.228 78.2638 144.92 78.3848C144.772 78.4393 144.616 78.4649 144.458 78.4604ZM170.962 53.854C170.751 53.8541 170.543 53.8006 170.358 53.6986C170.174 53.5965 170.018 53.4492 169.906 53.2704C168.348 50.7957 166.264 49.2647 164.044 48.9636C162.179 48.7107 160.308 49.331 158.784 50.733C158.602 50.9 158.374 51.009 158.13 51.0463C157.886 51.0836 157.636 51.0474 157.413 50.9424C157.189 50.8373 157.002 50.6681 156.875 50.4564C156.748 50.2446 156.686 49.9998 156.699 49.7532C156.714 49.4232 156.859 49.112 157.104 48.8886C159.185 46.9888 161.768 46.135 164.379 46.4895C167.351 46.893 170.058 48.8281 172.024 51.939C172.142 52.1282 172.208 52.3454 172.214 52.5682C172.22 52.7911 172.167 53.0116 172.06 53.207C171.952 53.4022 171.795 53.565 171.603 53.6786C171.411 53.7923 171.193 53.8526 170.97 53.8533L170.962 53.854ZM138.988 49.4412C138.802 49.4415 138.619 49.4003 138.451 49.3205C138.283 49.2407 138.136 49.1244 138.019 48.9801C135.533 45.9081 133.708 46.4513 132.252 47.3886C132.044 47.5273 131.8 47.6005 131.551 47.599C131.301 47.5975 131.058 47.5212 130.852 47.38C130.716 47.2855 130.6 47.165 130.511 47.0256C130.422 46.8861 130.361 46.7304 130.332 46.5673C130.288 46.3214 130.319 46.068 130.422 45.8401C130.524 45.6122 130.692 45.4203 130.905 45.2892C134.104 43.2295 137.148 43.942 139.955 47.4074C140.104 47.5906 140.197 47.8121 140.225 48.0463C140.254 48.2804 140.215 48.5177 140.114 48.7308C140.013 48.9436 139.853 49.1233 139.654 49.249C139.454 49.3747 139.223 49.4414 138.988 49.4412ZM153.384 18.0726C153.338 18.0754 153.292 18.0754 153.246 18.0726C153.084 18.0544 152.926 18.0044 152.783 17.9253C152.64 17.8463 152.514 17.7398 152.412 17.6119C152.31 17.4841 152.234 17.3373 152.188 17.1802C152.143 17.023 152.129 16.8584 152.148 16.6958C152.506 13.4439 152.339 10.1555 151.653 6.95673C151.612 6.79419 151.605 6.62524 151.631 6.45982C151.657 6.2944 151.716 6.13584 151.804 5.99348C151.937 5.77997 152.132 5.61184 152.363 5.51122C152.594 5.4106 152.849 5.38221 153.097 5.42977C153.344 5.47734 153.571 5.59864 153.748 5.77771C153.925 5.95677 154.043 6.18521 154.088 6.43296C154.83 9.89347 155.011 13.451 154.622 16.9689C154.587 17.2726 154.441 17.5527 154.213 17.7562C153.985 17.9596 153.69 18.0722 153.384 18.0726ZM181.475 49.1876C181.303 49.1876 181.132 49.1516 180.975 49.081C179.014 48.208 177.22 46.9986 175.675 45.5075C173.055 43.0349 171.047 39.942 169.107 36.9521C165.514 31.4205 162.121 26.1943 155.203 25.0214H155.179L155.066 25.0034H155.018C154.778 24.9618 154.556 24.8511 154.378 24.685C154.2 24.5188 154.074 24.3044 154.016 24.068C153.959 23.8316 153.971 23.5834 154.052 23.3539C154.133 23.1244 154.279 22.9235 154.473 22.7758C154.733 22.5787 155.061 22.4921 155.385 22.5344H155.423L155.627 22.5675C163.612 23.9292 167.464 29.8621 171.199 35.5998C173.06 38.4673 174.984 41.4312 177.388 43.6978C178.726 44.9925 180.279 46.0434 181.979 46.8029C182.173 46.89 182.341 47.0252 182.468 47.1957C182.595 47.3663 182.677 47.5664 182.704 47.7772C182.732 47.988 182.706 48.2024 182.627 48.4001C182.549 48.5978 182.422 48.7722 182.257 48.9066C182.037 49.0868 181.763 49.1876 181.479 49.1898L181.475 49.1876ZM184.24 62.2091C184.026 62.2091 183.815 62.1529 183.628 62.047C183.495 61.9721 183.366 61.8908 183.242 61.8035C183.043 61.6655 182.852 61.5164 182.67 61.3568C182.546 61.2496 182.445 61.119 182.372 60.9727C182.299 60.8263 182.255 60.667 182.244 60.5038C182.22 60.1742 182.328 59.8487 182.544 59.5987C182.76 59.3488 183.067 59.1949 183.397 59.171C183.56 59.1592 183.724 59.1797 183.879 59.2314C184.034 59.283 184.177 59.3649 184.301 59.4721C184.413 59.5708 184.531 59.6623 184.654 59.7473C184.663 59.7512 184.671 59.756 184.678 59.7617C184.737 59.8028 184.798 59.841 184.861 59.8741C185.04 59.976 185.191 60.1204 185.3 60.2945C185.41 60.4686 185.475 60.6671 185.489 60.8723C185.504 61.0775 185.468 61.2831 185.384 61.4709C185.3 61.6588 185.171 61.823 185.008 61.949C184.79 62.1176 184.523 62.2084 184.247 62.2084L184.24 62.2091Z" fill="#874036"/>
<path d="M183.482 61.6601C183.18 61.6601 182.888 61.5499 182.661 61.3517C181.538 60.3662 180.742 59.0096 180.041 57.8143C179.879 57.5391 179.72 57.2639 179.559 57.0031C179.027 56.0836 178.573 55.1207 178.204 54.1249C177.967 53.5413 177.654 52.8785 177.366 52.2366C177.051 51.5536 176.725 50.849 176.45 50.1905C176.338 49.8864 176.349 49.5508 176.48 49.2544C176.611 48.9581 176.852 48.7241 177.152 48.6019C177.452 48.48 177.787 48.4799 178.087 48.6017C178.387 48.7234 178.628 48.9574 178.758 49.2539C179.004 49.8562 179.308 50.5385 179.618 51.1905C179.927 51.8418 180.244 52.5471 180.504 53.189C180.826 54.0564 181.217 54.8965 181.673 55.6998C181.842 55.9736 182.01 56.2603 182.181 56.5499C182.815 57.6328 183.463 58.7523 184.293 59.4721C184.484 59.6393 184.619 59.8607 184.681 60.1069C184.743 60.3531 184.729 60.6123 184.64 60.85C184.55 61.0877 184.391 61.2926 184.182 61.4373C183.974 61.582 183.726 61.6597 183.472 61.6601H183.482ZM111.338 73.1333C111.049 73.1344 110.769 73.0349 110.546 72.8519C110.323 72.6689 110.17 72.4138 110.114 72.1305C110.057 71.8473 110.1 71.5531 110.235 71.2981C110.371 71.0431 110.591 70.8432 110.858 70.7328C112.951 69.8384 114.884 68.6104 116.583 67.0967C116.99 66.7292 117.395 66.3618 117.817 65.9439C119.177 64.5834 120.412 63.1029 121.506 61.5203C124.293 57.5024 126.33 52.9066 128.299 48.4628C129.033 46.8108 129.726 45.0925 130.394 43.4427C132.215 38.9363 133.933 34.6798 136.61 31.0458C139.659 26.9047 143.571 24.2397 148.551 22.8961C148.743 22.843 148.936 22.7936 149.13 22.7476C149.29 22.7088 149.455 22.7017 149.617 22.7269C149.779 22.7521 149.935 22.809 150.075 22.8944C150.215 22.9798 150.337 23.092 150.433 23.2246C150.53 23.3572 150.599 23.5075 150.638 23.6669C150.716 23.989 150.663 24.329 150.491 24.6123C150.319 24.8956 150.042 25.0989 149.72 25.1777C149.537 25.221 149.368 25.2656 149.196 25.3117C139.33 27.9695 136.256 35.5775 132.708 44.3858C132.031 46.0565 131.333 47.7834 130.58 49.483C128.565 54.0334 126.476 58.7394 123.554 62.954C122.377 64.6613 121.048 66.2586 119.582 67.7263C119.143 68.1574 118.694 68.5773 118.234 68.9857C116.331 70.6777 114.165 72.0489 111.822 73.0454C111.668 73.1073 111.504 73.1372 111.338 73.1333Z" fill="#874036"/>
<path d="M147.14 113.757C144.143 113.757 140.859 112.768 137.368 110.811C134.101 108.951 131.132 106.611 128.56 103.869C128.184 103.467 127.817 103.056 127.46 102.637C120.682 94.7448 117.613 84.9891 117.007 78.4986C116.934 77.7253 116.892 76.9495 116.88 76.1729C116.876 75.8424 117.003 75.5237 117.234 75.2867C117.464 75.0497 117.779 74.9137 118.11 74.9085C118.273 74.9063 118.436 74.9363 118.588 74.9971C118.741 75.0578 118.879 75.148 118.997 75.2624C119.114 75.3769 119.207 75.5134 119.272 75.6641C119.336 75.8148 119.37 75.9767 119.372 76.1405C119.381 76.83 119.419 77.5447 119.487 78.2637C120.057 84.3746 122.948 93.559 129.353 101.015C129.687 101.405 130.03 101.788 130.38 102.164C130.52 102.315 130.666 102.47 130.818 102.623C134.789 106.707 141.507 111.405 147.421 111.25C156.29 111.026 162.639 106.199 166.407 102.186C166.66 101.92 166.896 101.659 167.112 101.41C171.731 96.1893 174.989 89.273 176.056 82.4265C176.087 82.2341 176.115 82.0374 176.142 81.8451L176.157 81.7457C176.198 81.4593 176.337 81.1961 176.55 81.001C176.764 80.8058 177.038 80.6909 177.327 80.6758L178.137 80.6369C178.302 80.6297 178.467 80.6542 178.623 80.7104C178.78 80.768 178.943 80.8156 179.106 80.8516C182.648 81.6635 186.162 77.5389 187.943 75.008C190.456 71.4324 191.546 67.2307 191.009 63.1759C190.839 61.8762 189.765 60.3345 188.712 59.8719C188.148 59.6263 187.796 59.7898 187.564 59.9606C187.521 59.9894 187.484 60.0153 187.45 60.0449C187.261 60.195 187.032 60.2869 186.792 60.3096C186.551 60.3323 186.31 60.2847 186.096 60.1726C185.882 60.0605 185.706 59.8888 185.587 59.6782C185.469 59.4677 185.415 59.2274 185.431 58.9865C185.452 58.663 185.597 58.3611 185.837 58.1436C185.927 58.0658 186.02 57.9944 186.127 57.9195C186.639 57.5485 187.241 57.3217 187.871 57.2625C188.501 57.2033 189.135 57.314 189.707 57.5831C191.752 58.4771 193.231 60.9605 193.479 62.846C194.098 67.5224 192.855 72.3502 189.978 76.441C185.242 83.1736 181.158 83.8789 178.568 83.2838L178.445 83.2565C177.182 90.6028 173.907 97.4552 168.984 103.052C168.752 103.32 168.492 103.603 168.216 103.897C162.354 110.137 155.183 113.548 147.483 113.742L147.14 113.757Z" fill="#874036"/>
<path d="M103.918 101.524C103.68 101.524 103.446 101.455 103.246 101.325C103.108 101.237 102.989 101.123 102.895 100.988C102.801 100.854 102.735 100.702 102.701 100.542C102.665 100.382 102.662 100.216 102.691 100.055C103.356 96.327 102.235 91.6116 101.042 86.6267C99.7397 81.1513 98.2614 74.9453 98.8694 68.789C99.7713 59.4968 101.87 50.36 105.113 41.6055C108.227 33.2209 113.608 21.3392 121.521 12.3551C125.784 7.51436 130.342 4.04897 135.078 2.05763C140.608 -0.271598 146.437 -0.6239 152.398 1.00937C152.582 1.05548 152.765 1.10879 152.948 1.16571C153.242 1.27798 153.483 1.49716 153.622 1.77935C153.761 2.06153 153.788 2.38585 153.698 2.68731C153.609 2.98835 153.409 3.2446 153.139 3.40487C152.869 3.56514 152.548 3.61763 152.241 3.55185C152.079 3.50258 151.915 3.4567 151.75 3.41425C141.566 0.622486 132.03 4.18513 123.388 13.9977C119.16 18.7996 112.962 27.6359 107.449 42.4679C104.282 51.022 102.232 59.9489 101.35 69.0275C100.784 74.7652 102.149 80.4978 103.468 86.0389C104.717 91.2888 105.899 96.2463 105.142 100.486C105.092 100.775 104.942 101.037 104.719 101.227C104.495 101.417 104.212 101.522 103.918 101.524ZM194.773 104.214C194.508 104.214 194.251 104.129 194.037 103.973C193.824 103.816 193.666 103.596 193.586 103.344C193.431 102.859 193.305 102.366 193.209 101.867C192.268 97.0741 193.838 91.7823 195.502 86.1801C196.655 82.2968 197.847 78.2875 198.083 74.5433C198.879 61.9555 196.335 48.6977 190.075 32.8239C187.042 25.1151 182.52 17.3824 177.984 12.1195C171.784 4.93008 165.636 2.03962 159.711 3.52592C159.467 3.585 159.236 3.6484 158.991 3.7262C158.834 3.77466 158.67 3.79171 158.507 3.77636C158.343 3.76102 158.185 3.71358 158.04 3.63678C157.896 3.55999 157.768 3.45534 157.663 3.32887C157.559 3.2024 157.481 3.0566 157.434 2.89984C157.362 2.66398 157.361 2.41211 157.431 2.17578C157.502 1.93945 157.641 1.72919 157.83 1.57132C157.956 1.46688 158.101 1.38829 158.258 1.34006C158.546 1.24847 158.837 1.16772 159.13 1.09799C162.816 0.180127 166.61 0.679402 170.39 2.60662C173.581 4.23485 176.773 6.88468 179.878 10.4841C184.591 15.9466 189.273 23.9551 192.404 31.9032C198.801 48.1321 201.402 61.73 200.58 74.6975C200.326 78.719 199.093 82.871 197.9 86.8868C196.328 92.1865 194.843 97.1915 195.665 101.387C195.742 101.792 195.845 102.191 195.971 102.583C196.031 102.77 196.046 102.968 196.014 103.162C195.982 103.355 195.905 103.539 195.789 103.697C195.674 103.856 195.523 103.985 195.348 104.073C195.173 104.163 194.98 104.209 194.784 104.209L194.773 104.214ZM132.885 67.7026C132.604 67.7018 132.326 67.6411 132.069 67.5246C131.813 67.408 131.585 67.2384 131.399 67.0268C130.776 66.2926 130.771 65.2833 130.822 64.1248C130.822 63.9908 130.833 63.8755 130.833 63.7876C130.815 63.3428 130.91 62.9007 131.108 62.5023V62.4894C131.643 61.4908 132.543 61.2595 133.208 61.3734C134.263 61.5571 134.969 62.5448 135.097 63.3928C135.185 63.9432 135.389 65.8892 134.309 67.0635C134.094 67.3099 133.821 67.4992 133.515 67.6147C133.312 67.6795 133.099 67.7098 132.885 67.7026ZM132.365 63.8042V63.8164C132.365 63.8124 132.365 63.8082 132.365 63.8042ZM163.545 69.8992C163.261 69.8998 162.981 69.8404 162.722 69.725C162.463 69.6095 162.231 69.4405 162.042 69.2292L162.028 69.2148C161.344 68.4259 161.405 67.2343 161.449 66.3661C161.449 66.2451 161.46 66.1385 161.46 66.0542C161.441 65.6003 161.54 65.1493 161.749 64.7458C162.207 63.9101 163.032 63.485 163.875 63.6313C164.937 63.815 165.656 64.8042 165.791 65.6507C165.903 66.364 166.045 68.1341 164.974 69.2681C164.756 69.5139 164.482 69.7028 164.175 69.8185C163.971 69.88 163.758 69.9073 163.545 69.8992ZM119.26 107.307C118.841 107.307 118.414 107.291 117.977 107.259C115.576 107.075 113.288 106.442 111.075 105.824C110.477 105.655 109.86 105.482 109.253 105.323C108.572 105.139 107.886 104.976 107.194 104.836C107.029 104.809 106.871 104.749 106.729 104.659C106.588 104.569 106.466 104.452 106.372 104.313C106.228 104.105 106.152 103.858 106.151 103.606C106.151 103.353 106.227 103.107 106.37 102.898C106.464 102.76 106.586 102.642 106.727 102.552C106.869 102.462 107.027 102.401 107.192 102.374C107.357 102.346 107.526 102.352 107.689 102.392C108.353 102.526 109.052 102.691 109.887 102.909C110.512 103.074 111.14 103.248 111.747 103.419C113.945 104.032 116.008 104.611 118.159 104.771C121.046 104.982 123.655 104.367 125.518 103.037L125.549 103.016C125.588 102.99 125.623 102.966 125.657 102.939C125.853 102.788 126.09 102.7 126.336 102.684C126.583 102.669 126.828 102.727 127.042 102.851C127.255 102.975 127.427 103.16 127.535 103.382C127.643 103.605 127.683 103.854 127.649 104.099C127.604 104.427 127.432 104.724 127.169 104.925C127.098 104.98 127.024 105.029 126.949 105.08C124.92 106.532 122.221 107.307 119.26 107.307ZM137.381 89.0806C137.298 89.0814 137.215 89.0727 137.133 89.0547H137.086C136.921 89.0268 136.764 88.9663 136.623 88.8767C136.482 88.7872 136.36 88.6703 136.265 88.5331C136.147 88.3607 136.073 88.1613 136.051 87.9531C136.03 87.7449 136.061 87.5346 136.141 87.3415C136.222 87.1484 136.35 86.9788 136.514 86.8481C136.677 86.7174 136.871 86.6299 137.077 86.5936C137.242 86.5649 137.411 86.5698 137.574 86.608H137.625C137.928 86.669 138.198 86.8406 138.382 87.0893C138.566 87.3381 138.652 87.6464 138.621 87.9544C138.591 88.2625 138.447 88.5482 138.218 88.7563C137.989 88.9644 137.691 89.08 137.381 89.0806Z" fill="#874036"/>
<path d="M147.04 103.533H146.811C144.246 103.458 141.904 102.14 140.399 99.9155C138.162 96.5784 137.262 92.7239 136.599 89.899C136.452 89.2715 136.313 88.6764 136.175 88.1498C136.123 87.9481 136.121 87.7366 136.171 87.5342C136.221 87.3318 136.32 87.145 136.46 86.9906C136.6 86.8365 136.776 86.72 136.973 86.6519C137.17 86.5838 137.381 86.5662 137.586 86.6008C143.467 87.5936 151.49 88.3148 156.312 86.1145C156.392 86.0779 156.476 86.0501 156.563 86.0316L157.411 85.8479C157.611 85.804 157.82 85.8103 158.018 85.8664C158.215 85.9224 158.396 86.0265 158.544 86.1693C158.692 86.3124 158.802 86.4899 158.864 86.6858C158.927 86.8818 158.94 87.0902 158.902 87.2924C158.182 91.2045 156.171 97.0027 153.859 100.04C152.184 102.239 149.648 103.533 147.04 103.533ZM139.032 89.3558C139.68 92.1296 140.488 95.5748 142.471 98.515C143.531 100.088 145.097 100.982 146.882 101.035C148.771 101.086 150.64 100.153 151.878 98.5258C153.527 96.3579 155.102 92.3313 155.986 88.9228C151.981 90.2773 146.294 90.4243 139.032 89.3558Z" fill="#874036"/>
<path d="M137.379 89.0806C137.106 89.0808 136.84 88.991 136.624 88.8251C136.407 88.6592 136.251 88.4264 136.179 88.1627L136.139 88.0143L136.089 87.8306C136.026 87.5247 136.081 87.2063 136.241 86.9384C136.402 86.6705 136.657 86.4727 136.957 86.3841C137.256 86.2955 137.578 86.3226 137.858 86.46C138.139 86.5974 138.358 86.8351 138.471 87.126C138.495 87.2045 138.517 87.2874 138.539 87.3695L138.572 87.4949C138.623 87.6802 138.631 87.8748 138.595 88.0635C138.558 88.2523 138.479 88.4302 138.363 88.5835C138.247 88.7368 138.097 88.8611 137.925 88.9468C137.753 89.0324 137.564 89.077 137.372 89.077L137.379 89.0806ZM177.793 106.162C177.268 106.162 176.732 106.147 176.178 106.119C175.188 106.067 174.199 105.995 173.212 105.905C173.045 105.897 172.88 105.855 172.729 105.782C172.578 105.708 172.444 105.605 172.333 105.479C172.223 105.352 172.14 105.205 172.088 105.045C172.036 104.886 172.017 104.717 172.032 104.55C172.054 104.299 172.152 104.06 172.312 103.865C172.472 103.67 172.688 103.528 172.931 103.458C173.092 103.412 173.26 103.399 173.427 103.419C174.37 103.5 175.371 103.583 176.299 103.627C180.044 103.81 182.93 103.454 190.139 100.837L190.456 100.721C190.611 100.658 190.777 100.627 190.944 100.629C191.111 100.631 191.276 100.667 191.43 100.735C191.66 100.837 191.854 101.007 191.987 101.222C192.119 101.437 192.183 101.687 192.171 101.939C192.162 102.107 192.12 102.27 192.047 102.421C191.974 102.572 191.872 102.707 191.746 102.818C191.62 102.927 191.473 103.011 191.314 103.063L191.002 103.179C184.921 105.389 181.62 106.162 177.793 106.162ZM58.5677 192.065C58.3502 192.064 58.1365 192.007 57.9479 191.899C57.7593 191.791 57.6023 191.635 57.4924 191.447C57.3826 191.259 57.3238 191.046 57.3218 190.829C57.3199 190.611 57.3749 190.397 57.4813 190.207C57.5677 190.052 57.6643 189.897 57.7428 189.741L57.9993 189.284L67.4459 172.488L76.8882 155.695C78.9861 151.963 81.1533 148.103 84.3355 144.971C88.7764 140.597 94.6113 138.234 100.253 135.946C101.1 135.601 101.979 135.245 102.83 134.891C109.32 132.187 115.593 128.992 121.596 125.333C123.397 124.232 125.118 123.12 126.389 121.613C126.433 121.559 126.475 121.512 126.513 121.461L126.537 121.431C129.499 117.76 129.383 112.547 128.95 108.419C128.817 107.201 128.657 105.986 128.468 104.776C128.418 104.449 128.5 104.116 128.695 103.85C128.891 103.584 129.184 103.406 129.51 103.356C129.837 103.306 130.17 103.387 130.436 103.582C130.702 103.778 130.88 104.071 130.93 104.397C131.147 105.8 131.308 107.03 131.427 108.159C131.911 112.761 132.012 118.605 128.485 122.987C128.421 123.069 128.356 123.148 128.289 123.227C126.781 125.016 124.797 126.301 122.894 127.464C116.781 131.189 110.393 134.441 103.785 137.193C102.924 137.56 102.041 137.91 101.187 138.255C95.7713 140.458 90.1705 142.723 86.0812 146.748C83.1504 149.632 81.0711 153.334 79.0589 156.915L69.6152 173.708L60.1722 190.503L59.9128 190.965C59.8264 191.118 59.7399 191.27 59.6556 191.423C59.5475 191.616 59.3898 191.779 59.1988 191.892C59.0078 192.005 58.7898 192.064 58.5677 192.065ZM12.5364 137.609C12.3369 137.61 12.1402 137.562 11.963 137.47C11.7858 137.379 11.6333 137.246 11.5184 137.082C11.218 136.657 10.9277 136.238 10.6553 135.834C6.59565 129.886 3.21943 123.498 0.59059 116.793C0.223158 115.875 -0.0844759 114.957 0.0113445 113.924C0.19434 111.927 1.84274 110.594 3.07039 109.765C3.71229 109.329 4.37182 108.919 5.04732 108.536C6.87941 107.466 8.87467 106.704 10.9536 106.279C14.1474 105.673 17.2619 106.123 19.7352 107.554C20.1645 107.799 20.5631 108.093 20.9225 108.432C21.7395 109.214 22.1545 110.135 22.1163 111.09C22.0659 112.356 21.1545 113.552 19.7993 114.141C19.0525 114.428 18.2706 114.613 17.4744 114.691L16.9247 114.77C14.8631 115.095 12.9073 115.902 11.2159 117.125C11.0836 117.221 10.9336 117.291 10.7744 117.329C10.6153 117.368 10.4501 117.374 10.2884 117.349C10.1267 117.323 9.97166 117.266 9.83212 117.18C9.69257 117.095 9.5713 116.982 9.47524 116.85C9.28102 116.582 9.20093 116.248 9.25252 115.921C9.30411 115.594 9.48317 115.301 9.75045 115.106C11.7594 113.656 14.0816 112.699 16.5292 112.312C16.7122 112.281 16.919 112.253 17.1185 112.226C17.692 112.176 18.2566 112.053 18.7986 111.859C19.2511 111.663 19.6034 111.294 19.6142 111C19.625 110.706 19.3872 110.438 19.1855 110.245C18.9701 110.045 18.7313 109.871 18.4744 109.728C16.5198 108.599 14.0119 108.248 11.4154 108.743C9.75045 109.06 8.06675 109.701 6.26921 110.712C5.6527 111.06 5.0513 111.434 4.46664 111.833C3.66045 112.384 2.57904 113.214 2.49187 114.155C2.44576 114.644 2.65469 115.227 2.90973 115.884C5.46889 122.412 8.75544 128.631 12.7072 134.423C12.9745 134.817 13.2569 135.223 13.5444 135.634C13.6865 135.836 13.7659 136.075 13.7725 136.321C13.7792 136.568 13.7129 136.811 13.5818 137.02C13.4945 137.158 13.3809 137.278 13.2475 137.373C13.0408 137.523 12.7923 137.606 12.5364 137.609Z" fill="#874036"/>
<path d="M29.2907 112.45C28.9877 112.444 28.6864 112.402 28.393 112.325L20.4969 110.46C20.2566 110.404 20.0385 110.277 19.8704 110.097C19.7023 109.916 19.5918 109.689 19.5531 109.446C19.5137 109.202 19.5472 108.952 19.6494 108.728C19.7515 108.503 19.9178 108.314 20.1273 108.183C20.2662 108.097 20.4209 108.039 20.5824 108.013C20.7439 107.986 20.909 107.992 21.0682 108.03L28.9629 109.895H28.9917V109.829C28.9027 108.045 28.1618 106.356 26.9096 105.083C26.3223 104.517 25.679 104.012 24.9896 103.575C22.2706 101.78 19.5682 100.683 16.9522 100.314C15.4973 100.104 14.0177 100.136 12.5733 100.409C12.1771 100.485 11.7858 100.581 11.4011 100.699C10.5037 100.968 9.64688 101.357 8.85432 101.856C8.38922 102.121 7.98343 102.479 7.66197 102.908C7.16701 103.642 7.09569 104.662 7.43646 106.138C7.54237 106.602 7.68718 107.065 7.81398 107.456C7.89027 107.691 7.89512 107.943 7.8279 108.18C7.76069 108.418 7.62445 108.63 7.43646 108.79C7.31214 108.897 7.1679 108.978 7.01208 109.028C6.85627 109.079 6.69197 109.098 6.52869 109.085C6.19938 109.058 5.89421 108.901 5.67999 108.65C5.57376 108.525 5.49321 108.38 5.44297 108.225C5.27611 107.723 5.13116 107.214 5.00853 106.699C4.5071 104.53 4.7009 102.831 5.60075 101.505C6.11436 100.794 6.7683 100.195 7.5222 99.7462C8.50536 99.128 9.56723 98.6448 10.6792 98.3096C11.1475 98.1684 11.623 98.0503 12.1028 97.9566C13.8169 97.6292 15.5736 97.591 17.3002 97.8435C20.2843 98.2635 23.3311 99.4948 26.3599 101.492C27.194 102.022 27.9706 102.637 28.6769 103.328C29.3037 103.962 29.8397 104.681 30.2691 105.462C30.9896 106.771 31.4009 108.228 31.4708 109.721C31.5407 111.167 30.9218 111.844 30.3959 112.158C30.0609 112.354 29.6788 112.455 29.2907 112.45Z" fill="#874036"/>
<path d="M30.4302 107.305C30.2667 107.305 30.1039 107.305 29.9425 107.283C29.6225 107.241 29.3312 107.077 29.1296 106.825C28.928 106.573 28.8318 106.253 28.8611 105.931C28.8905 105.61 29.0431 105.313 29.287 105.101C29.5309 104.89 29.8472 104.781 30.1694 104.798C30.6559 104.835 31.1444 104.761 31.5977 104.581C32.051 104.4 32.457 104.118 32.7847 103.757C32.9223 103.621 33.0253 103.452 33.0829 103.267C33.1723 102.861 32.7299 102.177 32.5628 101.92C30.6738 99.0302 28.0639 96.6831 24.9908 95.1101C23.1176 94.1591 20.3244 93.1685 17.635 93.8637C17.2004 93.977 16.7805 94.1402 16.3835 94.35C14.8223 95.1706 13.7272 96.5935 13.5276 98.0618C13.5002 98.2606 13.4895 98.4614 13.4959 98.662C13.5036 98.9897 13.3819 99.3072 13.1573 99.5459C12.9327 99.7847 12.6232 99.9255 12.2957 99.9379C11.9679 99.9496 11.6488 99.8317 11.4074 99.6098C11.166 99.3878 11.0218 99.0796 11.0061 98.752C10.9941 98.4089 11.0119 98.0654 11.0594 97.7254C11.3656 95.4696 12.9628 93.3299 15.2272 92.1382C15.7936 91.84 16.3924 91.608 17.0118 91.4466C20.4541 90.5583 23.8633 91.7384 26.119 92.8853C29.5832 94.6539 32.5252 97.2968 34.6535 100.552C35.2032 101.403 35.7991 102.537 35.5181 103.796C35.3741 104.398 35.0761 104.952 34.6535 105.404C34.1218 105.996 33.4723 106.47 32.7467 106.796C32.021 107.122 31.2352 107.293 30.4396 107.298L30.4302 107.305Z" fill="#874036"/>
<path d="M32.8649 99.3168C32.648 99.3164 32.4349 99.2594 32.2468 99.1514C32.0586 99.0435 31.9019 98.8883 31.792 98.7013C31.6822 98.5143 31.623 98.3018 31.6204 98.0849C31.6177 97.868 31.6717 97.6542 31.777 97.4645C31.9182 97.2102 32.1422 97.0135 32.4124 96.9069L32.5954 96.8356C33.6365 96.4192 34.3195 95.8075 34.4405 95.5503C34.4131 94.8017 33.9916 93.9812 33.1581 93.0395C33.0594 92.9314 32.9564 92.8212 32.8541 92.7168C31.2049 91.0042 28.9881 89.6844 26.4161 88.8969C24.9577 88.4495 23.4521 88.1737 21.9298 88.0749C21.2425 88.0266 20.6856 88.0252 20.2151 88.1685C18.945 88.5482 18.0163 90.0439 17.437 92.6137C17.3825 92.8542 17.258 93.0733 17.0793 93.2432C16.9006 93.4132 16.6757 93.5266 16.4327 93.5691C16.2714 93.5972 16.106 93.5928 15.9464 93.5561C15.7053 93.5027 15.4857 93.3784 15.3158 93.1992C15.1459 93.02 15.0336 92.794 14.9933 92.5503C14.9656 92.3887 14.97 92.2232 15.0062 92.0633C15.7915 88.546 17.3038 86.4301 19.4983 85.7709C20.3794 85.5064 21.2699 85.5216 22.0991 85.5879C23.8117 85.6969 25.5058 86.0047 27.1473 86.505C30.1228 87.4229 32.7164 88.9632 34.6458 90.9769C34.7683 91.1015 34.8965 91.2369 35.0118 91.3731C36.2942 92.8068 36.9174 94.1814 36.9325 95.5748C36.9434 96.5842 36.055 98.1259 33.5104 99.1483L33.3267 99.2217C33.1806 99.283 33.0233 99.3153 32.8649 99.3168ZM24.7201 124.629C24.4795 124.63 24.2438 124.561 24.0415 124.43C23.8392 124.3 23.679 124.114 23.5804 123.894C22.3105 121.026 20.4505 118.458 18.1215 116.356C17.8759 116.134 17.7278 115.824 17.7094 115.493C17.6919 115.163 17.8063 114.839 18.0274 114.593C18.2485 114.346 18.5583 114.198 18.8888 114.18C19.0523 114.171 19.216 114.195 19.3705 114.249C19.5249 114.304 19.667 114.389 19.7886 114.498C22.3775 116.838 24.4459 119.695 25.8599 122.885C25.9437 123.075 25.9789 123.283 25.9622 123.49C25.9456 123.697 25.8776 123.896 25.7644 124.07C25.6513 124.244 25.4966 124.387 25.3142 124.486C25.1319 124.585 24.9277 124.638 24.7201 124.638V124.629ZM19.0732 168.747C18.8032 168.747 18.5406 168.659 18.3249 168.497C18.1092 168.335 17.9521 168.107 17.8772 167.847C17.6147 166.946 17.3543 166.044 17.0963 165.142C15.1438 158.35 13.1539 151.093 12.1885 143.639C12.0723 142.759 11.9726 141.876 11.8895 140.992C11.8622 140.784 11.8877 140.573 11.9638 140.377C12.0398 140.182 12.1639 140.008 12.3246 139.873C12.4853 139.738 12.6774 139.646 12.8832 139.605C13.089 139.564 13.3018 139.576 13.5019 139.639C13.7427 139.715 13.9545 139.863 14.1092 140.063C14.264 140.263 14.3545 140.505 14.3686 140.757C14.4479 141.585 14.543 142.424 14.6583 143.316C15.6035 150.597 17.5638 157.75 19.4911 164.452L20.2692 167.152C20.3226 167.338 20.3323 167.533 20.2975 167.723C20.2626 167.913 20.1841 168.093 20.0682 168.247C19.9523 168.402 19.8021 168.527 19.6295 168.614C19.4568 168.701 19.2664 168.746 19.0732 168.747Z" fill="#874036"/>
<path d="M24.0811 175.608C21.6733 175.608 19.151 174.244 18.5645 171.742C18.5093 171.54 18.506 171.327 18.5548 171.123C18.6036 170.918 18.703 170.73 18.8439 170.575C18.9847 170.419 19.1625 170.302 19.3607 170.233C19.5589 170.164 19.7712 170.146 19.9781 170.181C20.1431 170.211 20.3006 170.272 20.4413 170.363C20.582 170.454 20.703 170.572 20.7972 170.711C20.8909 170.85 20.9557 171.006 20.9881 171.171C21.3311 172.627 23.2878 173.357 24.808 173.04C26.7136 172.638 28.3296 171.068 29.5219 169.747C32.622 166.309 34.238 162.981 34.3259 159.857L34.3439 155.098C34.2049 154.777 34.0651 154.458 33.9297 154.136C32.0407 149.656 30.5648 145.012 29.5205 140.263C29.2323 138.944 28.9297 137.409 28.9982 135.858C29.0673 134.239 29.5183 132.727 29.9542 131.27C30.0407 130.982 30.1271 130.693 30.2092 130.405C32.2027 123.455 32.3919 116.112 30.7589 109.069C30.5792 108.276 30.3733 107.488 30.1415 106.709C30.074 106.401 30.1252 106.079 30.2849 105.807C30.444 105.535 30.7003 105.334 31.002 105.244C31.3037 105.154 31.6283 105.182 31.9102 105.322C32.1926 105.462 32.4117 105.704 32.5226 105.998C32.7589 106.799 32.9794 107.65 33.1782 108.508C34.9069 115.96 34.709 123.731 32.6033 131.086C32.519 131.381 32.4203 131.679 32.3418 131.976C31.9311 133.353 31.5421 134.654 31.4859 135.965C31.4326 137.222 31.6876 138.514 31.9527 139.731C33.0557 144.749 34.6566 149.644 36.7315 154.344C36.8007 154.504 36.8367 154.677 36.8374 154.852L36.8172 159.892V159.92C36.7164 163.661 34.8843 167.532 31.3706 171.43C29.9232 173.032 27.9283 174.941 25.3246 175.49C24.9152 175.572 24.4985 175.611 24.0811 175.608Z" fill="#874036"/>
<path d="M46.6559 178.258C46.4241 178.259 46.1969 178.194 45.9997 178.072C45.8026 177.95 45.6434 177.776 45.5399 177.568C45.4355 177.357 45.331 177.137 45.2359 176.913C44.1365 174.479 43.2791 171.425 42.3634 168.192C41.0493 163.554 39.692 158.756 37.625 155.895C37.076 155.129 36.442 154.824 36.321 154.898C36.1124 155.024 35.8714 155.086 35.6278 155.076C35.3842 155.067 35.1488 154.986 34.9506 154.844C34.7525 154.702 34.6005 154.505 34.5133 154.277C34.426 154.05 34.4076 153.801 34.4601 153.563C34.5293 153.244 34.7213 152.965 34.9946 152.785C36.4183 151.888 38.2922 152.548 39.6445 154.437C41.9672 157.659 43.3872 162.671 44.7597 167.519C45.6494 170.661 46.4909 173.629 47.5075 175.911C47.5939 176.107 47.6775 176.278 47.7618 176.461C47.9103 176.756 47.936 177.098 47.8331 177.411C47.7302 177.725 47.5072 177.986 47.2128 178.135C47.0394 178.219 46.8486 178.262 46.6559 178.258ZM22.5747 196.121C22.3172 196.121 22.0661 196.041 21.8558 195.893C21.6455 195.744 21.4864 195.534 21.4004 195.291L21.3348 195.108C21.2556 194.886 21.177 194.662 21.0949 194.44L15.7816 179.534C15.0107 177.379 14.1324 174.945 14.0244 172.375C13.8911 169.352 14.904 166.669 16.8003 165.015C17.0503 164.802 17.3741 164.697 17.7014 164.722C18.0288 164.746 18.3331 164.899 18.5485 165.147C18.7639 165.394 18.8728 165.717 18.8517 166.045C18.8306 166.372 18.6811 166.678 18.4357 166.896C17.1339 168.032 16.4213 170.041 16.5121 172.265C16.6079 174.442 17.381 176.599 18.1266 178.689L23.44 193.586C23.5207 193.807 23.6028 194.04 23.6849 194.271L23.7498 194.455C23.8162 194.643 23.8367 194.844 23.8095 195.042C23.7823 195.24 23.7082 195.428 23.5934 195.591C23.4786 195.754 23.3264 195.887 23.1496 195.98C22.9727 196.072 22.7764 196.12 22.5769 196.121H22.5747ZM28.8038 196.16C28.3744 196.16 27.9457 196.128 27.5214 196.065C27.2812 196.023 27.0582 195.913 26.8799 195.747C26.7016 195.581 26.5757 195.366 26.5178 195.13C26.4598 194.893 26.4723 194.644 26.5537 194.415C26.6351 194.185 26.7819 193.984 26.976 193.837C27.2364 193.64 27.5637 193.553 27.8874 193.596C29.8023 193.884 31.9709 193.258 34.7101 191.622C37.96 189.681 42.1682 186.349 43.7626 181.511C43.8128 181.354 43.8936 181.209 44.0004 181.083C44.1071 180.958 44.2375 180.855 44.3843 180.78C44.531 180.706 44.6911 180.661 44.8552 180.648C45.0194 180.636 45.1844 180.656 45.3407 180.708C45.497 180.759 45.6415 180.842 45.7659 180.949C45.8903 181.057 45.9921 181.189 46.0654 181.336C46.1387 181.483 46.1821 181.644 46.1931 181.808C46.204 181.972 46.1823 182.137 46.1293 182.293C44.2971 187.864 39.5998 191.606 35.9867 193.766C34.2029 194.833 31.6179 196.16 28.8038 196.16ZM52.1299 237.651C51.3616 237.653 50.5947 237.587 49.8382 237.453C45.7345 236.719 42.4823 233.914 39.8426 231.267C33.0907 224.469 27.6694 216.468 23.8579 207.678C22.7073 205.014 21.6389 201.883 22.4486 198.867C22.507 198.642 22.5711 198.434 22.6432 198.24C22.6968 198.083 22.7812 197.938 22.8914 197.814C23.0016 197.69 23.1355 197.589 23.2851 197.518C23.4347 197.446 23.5971 197.405 23.7628 197.398C23.9284 197.39 24.094 197.415 24.2498 197.472C24.4056 197.529 24.5483 197.616 24.6697 197.729C24.7911 197.842 24.8886 197.979 24.9565 198.13C25.0249 198.281 25.0624 198.445 25.0668 198.611C25.0713 198.777 25.0426 198.942 24.9825 199.097C24.9341 199.233 24.8913 199.37 24.8542 199.51C24.244 201.795 25.164 204.423 26.1367 206.694C29.8228 215.196 35.0653 222.933 41.594 229.509C43.9607 231.883 46.8411 234.39 50.2647 235.001C52.7819 235.454 55.4375 234.854 58.163 234.146C60.3395 233.582 62.4483 232.993 64.3445 232.001C65.8099 231.233 67.2278 230.166 68.4727 229.228C74.2938 224.84 80.0452 220.359 85.7247 215.788L86.4574 215.2C86.65 215.045 86.8844 214.951 87.1307 214.93C87.377 214.909 87.6239 214.961 87.8401 215.081C88.0563 215.201 88.2319 215.382 88.3445 215.602C88.4572 215.822 88.5017 216.071 88.4725 216.316C88.4545 216.479 88.4044 216.637 88.3251 216.78C88.2459 216.924 88.139 217.05 88.0107 217.152L87.278 217.736C81.5794 222.324 75.8078 226.82 69.9655 231.223C68.6463 232.22 67.1492 233.349 65.4929 234.215C63.364 235.328 61.1054 235.961 58.784 236.561C56.5614 237.138 54.3561 237.651 52.1299 237.651ZM22.7714 61.0542C22.5949 61.0548 22.4204 61.0177 22.2594 60.9452C22.0985 60.8728 21.9549 60.7667 21.8384 60.6342C21.6079 60.3748 20.5416 59.5326 19.7628 58.9137C18.7275 58.0917 17.7477 57.3172 17.2398 56.8071C17.0606 56.6337 16.9374 56.4106 16.886 56.1665C16.8347 55.9225 16.8576 55.6687 16.9517 55.4378C17.0459 55.2068 17.207 55.0094 17.4143 54.8708C17.6217 54.7322 17.8657 54.6588 18.1151 54.6602C18.2808 54.6615 18.4445 54.6959 18.5966 54.7613C18.7488 54.8268 18.8864 54.922 19.0013 55.0413C19.4076 55.4483 20.417 56.2488 21.3089 56.9555C22.5582 57.9469 23.3427 58.5729 23.7015 58.9742C23.8614 59.1538 23.9659 59.3758 24.0026 59.6134C24.0392 59.8511 24.0064 60.0942 23.908 60.3136C23.8097 60.533 23.65 60.7193 23.4482 60.8501C23.2464 60.9808 23.0111 61.0505 22.7707 61.0506L22.7714 61.0542ZM36.4694 58.7675C36.2394 58.7666 36.014 58.7022 35.8182 58.5814C35.6225 58.4606 35.4639 58.288 35.36 58.0828C35.2561 57.8775 35.2109 57.6476 35.2295 57.4183C35.248 57.1889 35.3296 56.9692 35.4651 56.7833L35.6229 56.5679C36.4932 55.3734 38.5299 52.5744 39.2208 51.7445C39.3784 51.555 39.5887 51.4166 39.825 51.3468C40.0614 51.2771 40.3131 51.279 40.5483 51.3525C40.7836 51.426 40.9917 51.5676 41.1463 51.7595C41.3009 51.9514 41.395 52.1849 41.4168 52.4304C41.447 52.7596 41.3447 53.0874 41.1336 53.3417C40.496 54.1105 38.4168 56.9649 37.6344 58.0405L37.4766 58.2552C37.3609 58.4139 37.2094 58.5429 37.0344 58.6318C36.8593 58.7207 36.6657 58.7677 36.4694 58.7675ZM29.7346 58.0621H29.6575C29.4114 58.0476 29.1751 57.96 28.979 57.8107C28.7828 57.6613 28.6355 57.4569 28.5559 57.2235C28.5028 57.0684 28.4808 56.9044 28.4911 56.7408C28.5221 56.2106 28.2325 53.6465 28.0401 51.9498C27.7598 49.4743 27.6921 48.8079 27.7303 48.4628C27.7689 48.141 27.9311 47.8469 28.1827 47.6425C28.4342 47.4381 28.7554 47.3396 29.0783 47.3677C29.4014 47.3964 29.7006 47.5501 29.9122 47.7961C30.1237 48.042 30.2309 48.3609 30.2108 48.6847C30.2108 49.0017 30.3816 50.4743 30.5156 51.6616C30.8196 54.3619 31.0192 56.1976 30.9767 56.8892C30.9573 57.2059 30.8181 57.5034 30.5874 57.7212C30.3568 57.939 30.0519 58.0609 29.7346 58.0621ZM30.2094 48.7013C30.2094 48.702 30.2094 48.7027 30.2094 48.7034V48.7013ZM66.6197 202.632C66.413 202.632 66.2096 202.581 66.0276 202.483C65.8457 202.384 65.6909 202.243 65.5772 202.07C63.8344 199.422 61.6089 197.003 59.4577 194.664L47.6977 181.891C47.4848 181.646 47.3756 181.327 47.3934 181.003C47.4111 180.678 47.5544 180.373 47.7928 180.153C48.0314 179.932 48.3465 179.814 48.671 179.823C48.9954 179.832 49.3036 179.967 49.5298 180.2L61.2876 192.972C63.5088 195.385 65.8027 197.878 67.6586 200.697C67.751 200.838 67.8139 200.996 67.8438 201.162C67.8736 201.327 67.8696 201.497 67.8322 201.661C67.7947 201.826 67.7245 201.98 67.6257 202.117C67.5269 202.253 67.4016 202.368 67.2573 202.455C67.0649 202.57 66.8445 202.631 66.6197 202.632ZM144.407 131.193C141.659 131.193 139.14 130.891 137.115 130.275C133.382 129.131 129.94 127.229 127.006 125.537L126.625 125.315L126.259 125.098C126.117 125.017 125.992 124.909 125.891 124.78C125.791 124.65 125.718 124.502 125.675 124.344C125.611 124.106 125.618 123.855 125.696 123.621C125.774 123.388 125.919 123.183 126.114 123.032C126.308 122.881 126.543 122.791 126.789 122.773C127.034 122.755 127.28 122.811 127.494 122.933C127.626 123.006 127.755 123.083 127.886 123.158C128.015 123.234 128.129 123.301 128.252 123.371C131.07 124.997 134.365 126.82 137.848 127.889C141.789 129.095 149.323 129.186 157.268 126.672C168.424 123.144 173.349 116.843 175.514 112.171C175.668 111.837 175.812 111.508 175.941 111.189C176.07 110.89 176.311 110.653 176.612 110.53C176.913 110.406 177.251 110.405 177.553 110.526C177.855 110.649 178.098 110.886 178.228 111.185C178.358 111.484 178.365 111.822 178.249 112.127C178.099 112.498 177.941 112.865 177.773 113.228C175.959 117.134 173.149 120.533 169.418 123.324C166.192 125.747 162.356 127.67 158.019 129.041C153.614 130.429 149.026 131.154 144.407 131.193Z" fill="#874036"/>
<path d="M285.451 216.028C285.19 216.027 284.935 215.944 284.723 215.791C284.511 215.637 284.352 215.422 284.269 215.174C282.647 210.303 280.515 205.617 277.908 201.195C275.468 197.059 272.559 193.088 269.746 189.248L269.721 189.214L232.059 137.82C223.888 126.672 214.861 115.627 202.306 113.724C198.869 113.204 195.425 113.414 191.78 113.637C188.904 113.821 185.931 113.994 182.987 113.779C180.36 113.591 177.784 112.959 175.369 111.909C172.134 110.485 169.65 108.402 168.187 105.89C167.58 104.853 167.142 103.726 166.89 102.551C166.821 102.228 166.883 101.89 167.062 101.612C167.241 101.334 167.523 101.139 167.846 101.068C168.006 101.034 168.172 101.031 168.333 101.061C168.494 101.09 168.648 101.151 168.785 101.24C168.923 101.329 169.041 101.445 169.134 101.579C169.227 101.714 169.293 101.866 169.327 102.026C169.523 102.942 169.864 103.821 170.338 104.629C171.534 106.686 173.621 108.412 176.371 109.624C178.522 110.553 180.814 111.111 183.15 111.276C185.936 111.479 188.829 111.301 191.62 111.13C195.234 110.91 198.971 110.683 202.669 111.243C216.169 113.289 225.57 124.757 234.057 136.328L271.745 187.763C274.594 191.652 277.54 195.673 280.043 199.918C282.741 204.491 284.947 209.337 286.623 214.376C286.675 214.531 286.696 214.695 286.685 214.859C286.673 215.022 286.629 215.182 286.556 215.328C286.483 215.475 286.382 215.605 286.258 215.713C286.134 215.82 285.991 215.902 285.835 215.954C285.712 215.998 285.582 216.023 285.451 216.028ZM92.169 304.908C91.9365 304.907 91.7088 304.841 91.5114 304.719C91.314 304.596 91.1545 304.421 91.0508 304.213C90.9056 303.915 90.8833 303.573 90.9889 303.26L91.053 303.076C91.0933 302.957 91.1358 302.834 91.1762 302.709C97.1927 284.469 100.267 242.069 96.8555 224.484C96.143 220.796 95.2064 217.072 94.3109 213.471L93.9298 211.94C92.7806 207.318 91.6048 202.395 90.9319 197.461C89.5069 186.862 90.3273 176.081 93.3397 165.819C93.4226 165.6 93.5658 165.409 93.7527 165.267C93.9397 165.126 94.1628 165.04 94.3963 165.02C94.6298 165 94.8642 165.047 95.0724 165.154C95.2806 165.262 95.4542 165.426 95.5731 165.628C95.7338 165.898 95.7864 166.218 95.7215 166.526C92.8089 176.45 92.016 186.875 93.3945 197.125C94.0508 201.936 95.161 206.593 96.339 211.336L96.7201 212.863C97.6358 216.497 98.568 220.254 99.2849 224.008C100.933 232.543 101.209 247.424 99.9938 263.812C98.7899 280.036 96.3757 294.868 93.5321 303.489C93.4881 303.621 93.4442 303.753 93.3981 303.883L93.3361 304.067C93.2523 304.311 93.0951 304.522 92.8861 304.673C92.6771 304.823 92.4265 304.906 92.169 304.908ZM194.351 276.311H194.23C193.901 276.278 193.598 276.117 193.388 275.861C193.178 275.606 193.078 275.278 193.109 274.949C193.109 274.881 193.122 274.811 193.127 274.741C193.133 274.672 193.138 274.6 193.146 274.53C195.107 252.477 204.818 213.958 216.146 191.758C216.407 191.246 216.673 190.736 216.937 190.24C217.093 189.949 217.358 189.731 217.674 189.634C217.909 189.562 218.161 189.562 218.397 189.634C218.633 189.705 218.842 189.845 218.998 190.035C219.102 190.162 219.18 190.307 219.228 190.464C219.324 190.781 219.291 191.123 219.135 191.415C218.877 191.9 218.617 192.397 218.362 192.897C213.322 202.771 208.132 217.043 203.752 233.076C199.589 248.31 196.628 263.501 195.626 274.756L195.61 274.939C195.61 275.021 195.597 275.101 195.589 275.182C195.56 275.49 195.417 275.777 195.188 275.985C194.959 276.194 194.661 276.31 194.351 276.311Z" fill="#874036"/>
<path d="M252.619 230.963C252.434 230.963 252.251 230.922 252.084 230.843C251.917 230.764 251.769 230.648 251.653 230.504L250.209 228.74C240.263 216.608 228.73 202.617 217.69 190.127C215.395 187.527 213.078 184.948 210.739 182.388C210.528 182.179 210.398 181.901 210.373 181.605C210.348 181.308 210.43 181.013 210.604 180.771C210.778 180.53 211.032 180.358 211.321 180.288C211.61 180.217 211.915 180.252 212.18 180.386C212.331 180.464 212.463 180.57 212.571 180.702C214.921 183.271 217.248 185.861 219.553 188.471C230.619 200.995 242.172 215.005 252.132 227.156L253.577 228.924C253.688 229.06 253.77 229.219 253.816 229.39C253.861 229.56 253.871 229.738 253.843 229.913C253.815 230.087 253.75 230.253 253.653 230.401C253.556 230.548 253.429 230.674 253.281 230.769C253.082 230.895 252.851 230.962 252.615 230.963H252.619ZM197.559 282.037C197.369 282.038 197.182 281.995 197.011 281.911C196.841 281.828 196.691 281.707 196.575 281.557L196.189 281.061C195.907 280.694 195.619 280.327 195.326 279.959C194.432 278.841 193.523 277.735 192.6 276.641C186.123 268.95 177.595 260.081 169.785 252.916C168.319 251.577 166.987 250.41 165.446 249.71C163.84 248.976 161.99 248.745 160.199 248.519C157.688 248.198 155.094 247.868 152.591 248.112C151.367 248.235 150.076 248.831 150.107 249.524C150.123 249.924 150.576 250.421 151.349 250.889C153.014 251.898 154.899 252.486 156.895 253.108C157.977 253.446 159.093 253.795 160.183 254.219C163.192 255.396 165.95 257.134 168.31 259.341C169.214 260.152 169.986 261.097 170.6 262.145C171.069 262.966 171.345 263.884 171.408 264.828C171.423 264.994 171.405 265.162 171.354 265.322C171.302 265.481 171.22 265.629 171.111 265.756C171.002 265.883 170.868 265.986 170.718 266.061C170.568 266.135 170.405 266.178 170.237 266.189C169.985 266.203 169.735 266.141 169.519 266.009C169.304 265.878 169.133 265.684 169.031 265.453C168.962 265.3 168.925 265.135 168.922 264.967C168.878 264.399 168.707 263.849 168.422 263.356C167.933 262.533 167.321 261.79 166.606 261.153C164.478 259.164 161.991 257.596 159.278 256.535C158.269 256.143 157.193 255.801 156.15 255.483C154.101 254.843 151.981 254.182 150.053 253.014C148.493 252.068 147.672 250.928 147.613 249.625C147.509 247.209 149.995 245.854 152.342 245.62C155.124 245.346 157.862 245.697 160.511 246.034C162.389 246.271 164.521 246.541 166.471 247.427C168.347 248.279 169.842 249.578 171.465 251.065C179.343 258.299 187.953 267.254 194.499 275.022C195.436 276.132 196.358 277.255 197.266 278.389C197.564 278.755 197.858 279.137 198.145 279.505L198.538 280.005C198.681 280.19 198.77 280.412 198.794 280.644C198.819 280.877 198.777 281.112 198.675 281.322C198.573 281.533 198.414 281.71 198.216 281.834C198.018 281.958 197.789 282.024 197.556 282.025L197.559 282.037Z" fill="#874036"/>
<path d="M167.403 273.58H167.339L165.529 273.486L163.627 273.389C156.076 272.993 148.525 272.602 140.977 272.214L139.843 272.155C138.907 272.104 136.43 271.972 135.58 269.977C134.922 268.447 135.732 266.781 136.876 265.927C137.861 265.193 139.03 264.938 140.142 264.742C151.035 262.825 162.19 262.955 173.035 265.125C173.357 265.193 173.638 265.385 173.819 265.659C174 265.934 174.066 266.268 174.002 266.591C173.937 266.913 173.749 267.197 173.476 267.381C173.204 267.565 172.87 267.634 172.547 267.574C171.16 267.297 169.767 267.052 168.369 266.84C159.145 265.455 149.758 265.573 140.572 267.189C139.721 267.337 138.912 267.506 138.374 267.923C137.994 268.205 137.758 268.714 137.878 268.989C137.997 269.264 138.443 269.575 139.982 269.659L141.113 269.717C148.664 270.106 156.213 270.498 163.761 270.892L165.666 270.99L167.472 271.083C167.796 271.101 168.101 271.244 168.321 271.483C168.541 271.721 168.659 272.036 168.65 272.361C168.643 272.685 168.509 272.993 168.277 273.221C168.046 273.448 167.735 273.576 167.411 273.578L167.403 273.58Z" fill="#874036"/>
<path d="M144.371 282.489C143.069 282.5 141.77 282.351 140.505 282.043C138.66 281.577 136.517 280.239 136.546 278.005C136.566 276.681 137.418 275.435 138.772 274.732C139.827 274.198 140.94 274.075 141.922 273.969C149.246 273.172 156.575 272.407 163.906 271.674C165.222 271.539 166.542 271.408 167.864 271.278H167.885C168.211 271.252 168.533 271.355 168.783 271.564C169.034 271.774 169.191 272.073 169.223 272.398C169.256 272.723 169.16 273.048 168.956 273.303C168.752 273.557 168.456 273.722 168.132 273.761H168.111C166.792 273.892 165.473 274.024 164.155 274.158C156.832 274.89 149.513 275.653 142.196 276.449C141.39 276.539 140.548 276.632 139.908 276.956C139.406 277.214 139.048 277.66 139.043 278.04C139.043 278.734 140.08 279.364 141.119 279.626C143.951 280.34 147.064 279.871 150.072 279.418L150.744 279.317C155.167 278.662 159.676 278.668 163.916 278.728L165.267 278.75C166.931 278.778 168.65 278.803 170.337 278.805H170.818C171.07 278.792 171.319 278.856 171.534 278.987C171.748 279.118 171.918 279.311 172.021 279.541C172.089 279.693 172.126 279.858 172.13 280.025C172.133 280.192 172.103 280.359 172.041 280.514C171.979 280.669 171.886 280.81 171.769 280.929C171.652 281.048 171.512 281.142 171.357 281.206C171.203 281.27 171.037 281.301 170.87 281.299H170.126C168.49 281.299 166.828 281.271 165.225 281.245L163.879 281.222C159.74 281.162 155.346 281.157 151.109 281.784L150.444 281.884C148.438 282.183 146.41 282.489 144.371 282.489Z" fill="#874036"/>
<path d="M198.874 303.976C196.714 303.969 194.568 303.631 192.51 302.975C192.184 302.872 191.854 302.76 191.5 302.632C187.263 301.059 183.281 298.263 179.325 294.084L178.591 293.313C176.507 291.081 174.351 288.772 171.63 288.34C170.442 288.157 169.186 288.327 167.854 288.513L167.589 288.55C162.33 289.27 157.022 289.552 151.717 289.394C149.187 289.319 147.576 288.311 147.302 286.641C147.187 285.94 147.29 284.848 148.436 283.618C150.336 281.571 153.071 280.714 155.495 280.145C158.214 279.523 160.967 279.054 163.739 278.742C165.808 278.493 167.903 278.296 169.873 278.117L170.208 278.085L170.558 278.054C170.804 278.033 171.051 278.085 171.267 278.204C171.483 278.322 171.658 278.503 171.771 278.722C171.867 278.904 171.915 279.107 171.913 279.312C171.911 279.517 171.859 279.719 171.76 279.899C171.661 280.079 171.52 280.232 171.348 280.344C171.176 280.456 170.979 280.524 170.774 280.541L170.444 280.571L170.094 280.604C168.147 280.787 166.064 280.971 164.036 281.221C161.355 281.522 158.693 281.974 156.063 282.575C154.004 283.058 151.704 283.763 150.259 285.328C149.85 285.765 149.735 286.095 149.76 286.246C149.808 286.543 150.538 286.879 151.792 286.918C156.958 287.072 162.128 286.796 167.249 286.095L167.511 286.059C168.964 285.857 170.465 285.648 172.02 285.894C175.587 286.459 178.152 289.198 180.415 291.626L181.127 292.384C184.817 296.281 188.49 298.873 192.356 300.306C192.669 300.42 192.966 300.522 193.255 300.615C197.508 301.958 201.93 301.765 205.395 300.084C205.534 299.999 206.041 299.592 207.044 298.615C207.76 297.918 208.346 297.3 208.497 297.12C208.656 296.938 208.865 296.806 209.098 296.741C209.331 296.676 209.578 296.68 209.809 296.753C210.039 296.826 210.244 296.965 210.396 297.152C210.549 297.34 210.644 297.568 210.67 297.809C210.705 298.131 210.613 298.455 210.415 298.711C210.158 299.021 209.471 299.734 208.782 300.405C207.134 302.017 206.692 302.23 206.503 302.321C204.118 303.442 201.51 304.008 198.874 303.976Z" fill="#874036"/>
<path d="M210.327 299.876C210.074 299.876 209.828 299.799 209.62 299.656C209.412 299.512 209.253 299.309 209.163 299.073C208.91 298.41 208.66 297.788 208.431 297.206C205.908 291.094 203.958 288.887 199.688 284.056C199.041 283.322 198.345 282.536 197.589 281.67C197.48 281.547 197.397 281.403 197.344 281.247C197.278 281.053 197.261 280.845 197.294 280.642C197.327 280.439 197.409 280.248 197.534 280.084C197.659 279.921 197.822 279.791 198.009 279.706C198.196 279.62 198.401 279.583 198.607 279.595C198.937 279.617 199.246 279.769 199.465 280.018C200.157 280.813 200.853 281.604 201.553 282.392C205.878 287.287 208.05 289.734 210.732 296.241C210.98 296.845 211.233 297.478 211.499 298.173C211.617 298.482 211.608 298.825 211.473 299.127C211.338 299.43 211.089 299.666 210.781 299.785C210.637 299.843 210.483 299.874 210.327 299.876ZM213.065 301.644C212.814 301.644 212.57 301.568 212.363 301.426C212.156 301.284 211.996 301.083 211.905 300.849C211.814 300.615 211.795 300.36 211.852 300.115C211.908 299.871 212.037 299.649 212.221 299.479C218.336 293.83 228.479 287.731 238.288 281.834C248.515 275.683 259.087 269.325 265.177 263.479C271.267 257.632 277.578 251.548 281.885 244.173C286.586 236.123 288.023 227.407 285.823 220.26C285.726 219.944 285.758 219.602 285.912 219.309C286.067 219.017 286.331 218.798 286.647 218.7C286.963 218.603 287.305 218.635 287.597 218.79C287.889 218.945 288.107 219.21 288.204 219.526C290.61 227.338 289.091 236.78 284.036 245.434C279.557 253.107 273.125 259.294 266.903 265.279C260.612 271.336 249.916 277.76 239.572 283.983C229.871 289.817 219.839 295.85 213.912 301.323C213.68 301.533 213.378 301.648 213.065 301.644ZM210.931 270.325C210.685 270.326 210.444 270.253 210.239 270.116C210.034 269.979 209.874 269.784 209.78 269.556C209.686 269.328 209.661 269.077 209.709 268.835C209.756 268.593 209.874 268.371 210.048 268.196C213.712 264.511 218.001 261.113 222.14 257.827C227.396 253.657 232.83 249.344 237.221 244.314C237.969 243.457 238.724 242.571 239.451 241.713C241.483 239.327 243.585 236.858 245.863 234.621C246.664 233.832 247.494 233.074 248.351 232.347C248.771 231.991 249.198 231.644 249.633 231.308C249.896 231.107 250.227 231.018 250.555 231.061C250.883 231.105 251.18 231.278 251.381 231.54C251.582 231.803 251.67 232.135 251.626 232.463C251.583 232.791 251.412 233.089 251.149 233.29C250.77 233.58 250.376 233.898 249.947 234.257C249.138 234.944 248.355 235.66 247.6 236.405C245.402 238.563 243.335 240.994 241.338 243.334C240.605 244.195 239.847 245.087 239.088 245.957C234.546 251.159 229.012 255.544 223.677 259.784C219.407 263.174 215.37 266.377 211.802 269.96C211.571 270.191 211.258 270.322 210.931 270.325Z" fill="#874036"/>
<path d="M197.502 281.278C197.324 281.277 197.149 281.239 196.987 281.165C196.826 281.091 196.682 280.984 196.565 280.85C196.448 280.716 196.361 280.559 196.31 280.389C196.258 280.219 196.244 280.04 196.267 279.864C196.455 278.56 197.022 277.34 197.898 276.355C199.181 274.837 200.983 273.73 202.718 272.728C205.275 271.252 207.78 269.689 210.229 268.04C210.434 267.907 210.674 267.837 210.919 267.839C211.163 267.841 211.402 267.916 211.604 268.052C211.807 268.189 211.965 268.383 212.058 268.609C212.151 268.835 212.176 269.083 212.129 269.323C212.068 269.645 211.882 269.93 211.613 270.116C209.113 271.79 206.559 273.381 203.955 274.888C202.408 275.78 200.814 276.753 199.786 277.97C199.221 278.589 198.853 279.362 198.728 280.191C198.689 280.489 198.543 280.763 198.318 280.963C198.092 281.162 197.803 281.274 197.502 281.278ZM226.816 283.052C226.551 283.052 226.293 282.968 226.079 282.811C225.866 282.654 225.708 282.433 225.628 282.18C224.197 277.669 221.705 273.565 218.361 270.215C218.182 270.042 218.058 269.819 218.007 269.575C217.955 269.331 217.978 269.077 218.072 268.846C218.166 268.614 218.327 268.417 218.535 268.278C218.742 268.14 218.986 268.066 219.236 268.067C219.401 268.069 219.565 268.103 219.717 268.169C219.869 268.235 220.007 268.33 220.121 268.449C223.748 272.083 226.449 276.534 227.999 281.428C228.058 281.615 228.072 281.812 228.04 282.005C228.008 282.198 227.931 282.38 227.816 282.538C227.701 282.696 227.551 282.825 227.377 282.914C227.203 283.003 227.011 283.051 226.816 283.052ZM194.145 308.636C193.859 308.635 193.582 308.537 193.36 308.357C193.139 308.177 192.985 307.926 192.926 307.646C192.906 307.551 192.89 307.463 192.871 307.368L192.86 307.307C192.715 306.562 192.582 305.816 192.459 305.067C192.328 304.247 192.181 303.431 192.017 302.617C191.981 302.455 191.978 302.287 192.007 302.124C192.037 301.96 192.098 301.805 192.189 301.665C192.279 301.526 192.396 301.406 192.533 301.313C192.67 301.219 192.825 301.154 192.987 301.12C193.15 301.088 193.318 301.088 193.48 301.121C193.643 301.154 193.798 301.22 193.935 301.313C194.072 301.407 194.189 301.527 194.279 301.666C194.369 301.805 194.43 301.961 194.459 302.125C194.683 303.245 194.802 303.961 194.918 304.66C195.023 305.304 195.124 305.911 195.304 306.828L195.317 306.896C195.331 306.971 195.346 307.048 195.364 307.127C195.403 307.309 195.4 307.497 195.356 307.677C195.313 307.858 195.23 308.027 195.113 308.171C194.996 308.316 194.849 308.432 194.681 308.513C194.514 308.593 194.33 308.635 194.145 308.636ZM34.1388 92.3003C33.8156 92.2938 33.5075 92.162 33.2797 91.9327C33.0519 91.7033 32.922 91.3945 32.9176 91.0712C32.9125 90.7481 33.033 90.4356 33.2536 90.1995C33.4742 89.9634 33.7779 89.8221 34.1006 89.8054L34.9486 89.778L68.7537 88.7413C69.3561 88.721 69.9259 88.4626 70.338 88.0229C70.7502 87.5831 70.9712 86.9979 70.9526 86.3955L70.3128 65.498C70.2927 64.8951 70.0347 64.3247 69.5952 63.9115C69.1563 63.4988 68.5714 63.2772 67.9692 63.2955L30.5963 64.4447C30.1467 64.4579 29.7112 64.6048 29.3453 64.8666C28.9795 65.1283 28.7 65.4931 28.5423 65.9144C28.4372 66.1941 28.3883 66.4918 28.3982 66.7905L29.0351 87.6894C29.0453 88.0196 28.9239 88.3403 28.6977 88.581C28.4715 88.8217 28.1589 88.9627 27.8287 88.9729C27.4985 88.9831 27.1778 88.8618 26.9371 88.6355C26.6964 88.4093 26.5554 88.0967 26.5452 87.7665L26.502 86.3767L25.9076 66.8668C25.8682 65.6015 26.3326 64.3723 27.1986 63.449C27.6272 62.9925 28.1416 62.625 28.7124 62.3675C29.2832 62.11 29.8991 61.9675 30.525 61.9483L67.8986 60.8006C68.5248 60.7809 69.1487 60.8851 69.7345 61.1073C70.3203 61.3295 70.8564 61.6652 71.3121 62.0953C71.7682 62.5253 72.1349 63.0412 72.3913 63.6133C72.6485 64.1853 72.7904 64.8027 72.8085 65.4302L73.4497 86.327C73.4885 87.5909 73.0241 88.8185 72.1585 89.7401C71.2928 90.6618 70.0968 91.2022 68.833 91.2427L34.1791 92.3075L34.1395 92.3003H34.1388Z" fill="#874036"/>
<path d="M61.0664 67.3942H60.9842C60.8878 67.3943 60.7923 67.3754 60.7032 67.3384C60.6141 67.3015 60.5332 67.2473 60.4652 67.1791C60.3971 67.1108 60.3432 67.0297 60.3065 66.9405C60.2698 66.8513 60.2512 66.7558 60.2515 66.6594C60.2519 66.4651 60.3292 66.2789 60.4665 66.1414C60.6038 66.004 60.79 65.9265 60.9842 65.9259H61.0635C61.5318 65.9259 62.2205 65.9043 62.9482 65.8798C64.0289 65.8452 65.147 65.8078 65.7753 65.8373C65.9204 65.844 66.0602 65.8938 66.177 65.9803C66.2937 66.0668 66.3821 66.186 66.4309 66.3229C66.4714 66.4365 66.4833 66.5584 66.4656 66.6777C66.448 66.7971 66.4013 66.9102 66.3296 67.0073C66.258 67.1044 66.1636 67.1823 66.0547 67.2343C65.9459 67.2864 65.8259 67.3108 65.7054 67.3056C65.1362 67.2782 63.9979 67.3171 62.9965 67.3503C62.2616 67.3719 61.5592 67.3935 61.0671 67.3935L61.0664 67.3942ZM31.8836 87.2175H31.8491C31.6544 87.2175 31.4676 87.1402 31.3299 87.0025C31.1923 86.8648 31.1149 86.6781 31.1149 86.4834C31.1149 86.2887 31.1923 86.1019 31.3299 85.9643C31.4676 85.8266 31.6544 85.7492 31.8491 85.7492H31.8836C32.4146 85.7492 34.8 85.6887 37.3231 85.6246C42.1724 85.4992 45.6501 85.4149 46.238 85.4409C46.3344 85.445 46.429 85.4682 46.5164 85.5091C46.6039 85.55 46.6823 85.6077 46.7473 85.679C46.8124 85.7503 46.8626 85.8338 46.8953 85.9246C46.9279 86.0154 46.9423 86.1118 46.9375 86.2082C46.9284 86.4025 46.8427 86.5853 46.6992 86.7166C46.5557 86.848 46.3661 86.9172 46.1717 86.9092C45.591 86.8832 41.0276 86.9992 37.3598 87.0929C34.7251 87.1664 32.4391 87.2175 31.8836 87.2175ZM31.6769 82.3941C31.5243 82.3933 31.3757 82.3452 31.2515 82.2564C31.1274 82.1676 31.0339 82.0426 30.9838 81.8984C30.8432 81.4055 30.767 80.8965 30.7568 80.384C30.7295 80.0331 30.6999 79.6369 30.6452 79.1484C30.6282 78.996 30.6591 78.8421 30.7338 78.7082C30.8084 78.5743 30.923 78.467 31.0616 78.4013C31.1538 78.3581 31.254 78.3343 31.3555 78.3322L67.8379 77.4763C68.0304 77.4718 68.217 77.5433 68.3572 77.6753C68.4974 77.8072 68.58 77.9891 68.5872 78.1816L68.6809 80.5785C68.6849 80.6756 68.6696 80.7724 68.6358 80.8634C68.6021 80.9545 68.5505 81.0379 68.4842 81.1088C68.4181 81.1798 68.3386 81.2369 68.2503 81.277C68.162 81.3171 68.0667 81.3392 67.9698 81.3422L31.6949 82.3919L31.6769 82.3941ZM32.1805 79.7817C32.1949 79.9654 32.2057 80.1268 32.2165 80.2759C32.2352 80.5159 32.2496 80.7269 32.272 80.9071L67.1874 79.8955L67.1513 78.9611L32.1805 79.7817ZM31.6423 76.4705C31.4515 76.4704 31.2683 76.396 31.1314 76.2632C30.9945 76.1303 30.9147 75.9494 30.9089 75.7587C30.8867 75.0667 30.8519 74.3752 30.8044 73.6845C30.7426 72.7972 30.7061 71.9082 30.6949 71.0188C30.695 70.8282 30.7691 70.6451 30.9016 70.5081C31.0342 70.3712 31.2148 70.291 31.4053 70.2847L37.9844 70.1017C38.176 70.0966 38.3618 70.1667 38.5022 70.2971C38.6425 70.4275 38.7262 70.6077 38.7352 70.7991L38.97 75.4482C38.9819 75.6429 38.9161 75.8343 38.787 75.9806C38.7217 76.0524 38.6426 76.1105 38.5546 76.1515C38.4665 76.1924 38.3711 76.2154 38.2741 76.2191L31.6783 76.4799L31.6423 76.4705ZM32.1733 71.7256C32.1934 72.4122 32.2302 72.9885 32.2684 73.5923C32.2957 74.0274 32.3231 74.4734 32.3455 74.9748L37.4751 74.7709L37.3137 71.5808L32.1733 71.7256ZM58.3438 75.727C58.1543 75.7268 57.9723 75.6533 57.8357 75.522C57.6992 75.3907 57.6187 75.2117 57.6111 75.0224C57.5801 74.2169 57.5361 73.7782 57.4958 73.3524C57.4446 72.8272 57.3949 72.33 57.3805 71.2667C57.3778 71.0726 57.452 70.8854 57.5868 70.7458C57.7217 70.6062 57.9062 70.5257 58.1003 70.5217L67.0008 70.3603C67.0984 70.3584 67.1955 70.3761 67.2862 70.4123C67.3769 70.4485 67.4595 70.5025 67.529 70.5711C67.5985 70.6397 67.6535 70.7216 67.6909 70.8119C67.7282 70.9021 67.7471 70.999 67.7464 71.0966V74.74C67.746 74.9309 67.6713 75.1143 67.5382 75.2512C67.4051 75.3882 67.2241 75.4681 67.0332 75.4741L58.3748 75.7292L58.3438 75.727ZM58.8639 71.977C58.8841 72.5058 58.9173 72.8401 58.954 73.209C58.9814 73.495 59.0123 73.807 59.0404 74.2385L66.2738 74.026V71.8416L58.8639 71.977ZM186.842 60.2012C186.597 60.201 186.357 60.1283 186.153 59.9923C185.949 59.8563 185.789 59.6631 185.695 59.4368C185.599 59.2106 185.573 58.9613 185.618 58.7201C185.664 58.4789 185.78 58.2565 185.951 58.0809C186.21 57.815 186.451 57.5334 186.673 57.2365C186.821 57.0386 187.024 56.8889 187.256 56.8066C187.489 56.7242 187.741 56.7128 187.98 56.7739C188.219 56.835 188.435 56.9657 188.599 57.1496C188.764 57.3334 188.87 57.562 188.905 57.8064C188.951 58.1342 188.866 58.4671 188.668 58.7322C188.381 59.1195 188.068 59.4875 187.732 59.8338C187.616 59.951 187.477 60.0439 187.324 60.107C187.171 60.1701 187.007 60.2021 186.842 60.2012Z" fill="#874036"/>
</g>
</g>
<defs>
<clipPath id="clip0_113_325">
<rect width="289.623" height="317" fill="white"/>
</clipPath>
</defs>
</svg>
