<svg width="1080" height="1364" viewBox="0 0 1080 1364" fill="none" xmlns="http://www.w3.org/2000/svg">
<g clip-path="url(#clip0_141_625)">
<path d="M796.677 1367.16L797.287 1368.38C786.312 1375.69 774.728 1381.79 762.84 1387.58C761.315 1388.5 759.486 1389.11 757.962 1390.02C744.854 1396.12 731.136 1401.91 717.723 1407.4C711.931 1409.83 706.139 1411.97 700.042 1413.49C696.079 1414.41 692.421 1414.71 688.458 1414.71C677.179 1414.71 665.9 1411.66 655.535 1406.48C654.925 1406.18 654.011 1405.87 653.401 1405.57C646.39 1401.91 639.988 1397.95 633.587 1393.07C631.453 1391.54 629.319 1389.72 627.185 1388.19L628.404 1386.36C625.051 1383.62 622.307 1380.57 620.173 1376.91C609.199 1372.95 598.53 1368.68 587.86 1363.8C584.202 1361.98 580.239 1360.15 576.581 1358.32L576.276 1358.62C573.837 1358.01 571.094 1357.4 568.96 1355.88C579.02 1350.09 589.08 1344.6 599.139 1339.42L599.444 1337.59C597.005 1336.98 594.262 1336.68 591.823 1336.37C582.373 1334.85 572.923 1333.32 563.168 1332.1C547.011 1329.97 530.55 1328.14 514.393 1325.7C511.954 1325.4 509.821 1325.09 507.382 1324.48C501.895 1323.26 496.408 1322.04 491.53 1319.3C490.006 1318.69 488.786 1317.47 488.177 1315.95C487.872 1314.73 488.482 1313.2 489.091 1311.98C492.14 1306.5 496.712 1301.92 501.895 1298.57C515.613 1289.73 532.989 1289.43 549.145 1289.73C580.239 1290.34 611.028 1290.95 642.122 1291.87C652.792 1292.17 663.461 1292.47 674.13 1293.08V1291.87C692.116 1278.76 710.102 1265.65 727.783 1252.54C732.66 1252.85 737.233 1252.85 742.11 1253.15L742.415 1250.41C755.828 1251.32 769.241 1252.54 782.349 1254.68C787.532 1255.9 792.409 1257.11 797.592 1257.72L797.896 1256.51C834.173 1258.64 870.449 1248.58 904.591 1235.47C938.733 1222.36 969.218 1191.27 1005.49 1193.1C1008.54 1193.41 1011.59 1193.71 1019.52 1188.22L1019.21 1186.7C1022.26 1186.09 1025 1185.78 1028.05 1185.18L1028.36 1186.09C1042.68 1190.97 1055.49 1199.2 1065.85 1210.17C1070.73 1215.35 1074.69 1220.84 1078.96 1226.63C1088.41 1239.74 1097.56 1252.85 1105.18 1266.87C1111.58 1278.76 1117.07 1291.56 1123.47 1303.14L1122.86 1303.45C1118.29 1306.8 1111.58 1309.85 1104.57 1312.59C1103.04 1313.2 1101.21 1313.81 1099.69 1314.42C1095.12 1315.95 1090.54 1317.17 1086.89 1317.78C1028.66 1328.44 970.437 1338.81 911.907 1349.48C899.714 1351.61 887.215 1354.05 875.021 1355.88C854.902 1358.93 834.782 1361.06 814.358 1362.28V1360.15C808.566 1361.98 802.469 1364.11 796.677 1367.16Z" fill="#FEF0E5"/>
<path d="M889.044 238.071C870.449 199.663 853.378 110.653 792.104 119.798C789.666 120.103 787.227 120.712 784.788 121.322L783.874 118.274C779.301 119.493 775.033 120.712 770.461 121.627C764.669 123.151 758.572 124.37 752.78 122.846V123.151C750.951 122.541 749.122 121.932 747.293 121.932C726.563 119.798 710.102 145.403 704.31 162.474C688.458 208.808 693.335 259.105 668.338 301.781C664.68 307.877 659.498 313.669 653.401 319.156C653.096 319.461 652.791 319.766 652.182 320.07C650.658 366.1 676.264 409.995 704.919 437.734C705.529 438.344 706.139 438.954 706.749 439.259C704.919 440.173 703.395 440.783 701.566 441.392C696.689 459.377 677.179 468.522 660.108 470.351L659.803 468.827C650.048 469.741 639.683 467.608 631.452 462.121L625.965 463.035C619.564 463.645 613.162 463.035 607.065 462.426V458.158C601.273 458.158 595.481 457.243 589.994 455.719C589.994 455.414 590.299 455.415 590.299 455.11C602.493 421.274 586.336 393.534 577.495 361.832C568.96 330.739 568.045 299.647 576.886 268.554C587.25 231.365 603.102 195.7 618.344 160.34C631.453 130.162 652.791 75.5976 675.045 51.2113C694.555 29.8732 729.002 0.914489 760.401 11.8883L761.01 13.4125C771.68 9.4497 782.959 6.70624 794.238 5.48692V6.09658C846.366 -3.35312 895.751 28.0443 924.406 59.1368C934.161 69.501 942.391 81.0845 949.403 92.9728C969.827 128.028 981.106 168.266 994.52 206.064C1003.36 231.06 1019.52 255.752 1025.31 281.357C1032.62 314.279 1019.52 346.895 1006.1 376.464C993.91 402.984 972.876 438.344 985.069 467.608C974.705 468.522 964.34 469.132 954.28 468.827C950.012 467.608 946.05 466.388 942.087 464.864C937.514 465.779 932.941 466.388 928.064 466.693C919.833 467.608 911.298 467.912 903.981 463.95L904.286 463.34C901.238 462.426 897.884 460.901 895.141 459.072C894.531 458.768 893.922 458.463 893.617 457.853H890.568C885.691 457.853 880.509 457.548 875.631 456.329C871.363 455.414 867.4 453.585 864.047 450.842C863.742 440.783 864.657 431.028 866.486 422.493L865.876 421.883C882.642 404.813 896.36 384.694 905.81 363.356C910.383 363.966 914.956 363.051 918.919 360.613L918.614 359.393C921.357 358.784 923.796 357.564 926.54 356.345C943.001 348.115 957.329 328.91 958.243 311.23C958.243 308.792 958.243 306.353 957.634 303.914C957.634 303.305 957.329 303 957.329 302.695L956.414 296.294C927.454 284.101 900.933 262.763 889.044 238.071Z" fill="#EF877D"/>
<path d="M792.714 1397.64C780.825 1397.64 769.241 1395.51 758.267 1391.24L757.962 1390.02C759.486 1389.11 761.315 1388.5 762.839 1387.58C774.728 1381.79 786.312 1375.69 797.287 1368.38L796.677 1367.16C802.469 1364.11 808.566 1361.98 814.967 1360.45V1362.59C835.392 1361.37 855.511 1359.23 875.631 1356.18C888.13 1354.36 900.323 1351.92 912.517 1349.78C970.742 1339.11 1028.97 1328.75 1087.5 1318.08C1091.15 1317.47 1095.73 1316.25 1100.3 1314.73C1101.82 1314.12 1103.65 1313.51 1105.18 1312.9C1106.09 1315.34 1107.31 1317.78 1108.84 1320.21C1108.23 1319.91 1107.92 1319.3 1107.31 1319L1105.79 1320.82C1106.7 1330.27 1107.92 1340.03 1106.4 1349.48C1104.87 1358.93 1100.6 1368.38 1092.98 1373.86C1085.06 1379.66 1075 1380.57 1065.55 1382.4C1053.05 1384.53 1040.55 1387.89 1028.66 1392.15C1021.35 1394.29 1014.03 1396.73 1007.02 1399.47C947.574 1404.65 887.52 1400.08 827.771 1395.2L821.369 1395.51V1386.97L792.714 1390.63V1397.64Z" fill="#F9F8F7"/>
<path d="M750.036 1235.17C746.378 1237.91 743.025 1240.65 739.367 1243.4H737.537C737.842 1242.18 738.147 1240.65 737.842 1239.43C737.233 1237.3 735.708 1235.78 733.879 1234.86L734.489 1233.64C738.147 1230.9 742.415 1228.16 746.378 1226.02C748.512 1224.8 751.255 1223.89 753.084 1225.11C754.913 1226.33 755.218 1228.77 754.304 1230.9C753.389 1232.42 751.865 1233.95 750.036 1235.17Z" fill="#F9DDA5"/>
<path d="M729.002 1252.54C711.017 1265.65 693.031 1278.76 675.35 1291.87V1293.08C664.681 1292.78 654.011 1292.47 643.342 1291.87V1291.56C641.513 1290.34 640.293 1288.21 639.988 1285.77C641.208 1285.16 642.122 1284.24 643.342 1283.63C659.193 1273.88 674.74 1264.13 690.287 1254.68C699.128 1249.19 708.273 1243.7 717.113 1238.22C720.467 1236.08 724.125 1233.95 728.088 1233.64C729.917 1233.34 732.051 1233.95 733.575 1234.86C735.404 1235.78 736.928 1237.3 737.538 1239.43C737.843 1240.96 737.843 1242.18 737.233 1243.4C736.014 1246.75 732.965 1249.49 729.917 1251.63C729.917 1251.93 729.307 1252.24 729.002 1252.54Z" fill="#F9DDA5"/>
<path d="M870.754 495.042C875.631 493.213 877.46 501.444 875.936 506.321V506.626C862.218 553.569 828.076 593.197 811.614 638.312L810.09 637.702C807.956 638.312 805.822 638.922 803.688 639.226C760.096 663.308 706.139 667.575 659.193 650.81V650.505C656.145 649.286 653.401 647.762 650.963 645.933C648.829 613.011 648.219 580.09 654.621 548.083C655.23 547.473 655.84 547.168 656.754 546.863L657.364 547.778C663.461 545.949 668.948 543.51 674.435 540.462C675.655 539.547 677.179 538.938 678.398 538.023C695.469 526.44 707.663 507.54 710.407 487.117C711.931 475.838 710.102 455.719 708.883 444.441L707.358 444.136C707.358 443.221 707.663 442.002 707.663 441.088L707.968 440.478C731.136 461.206 754.609 470.961 786.922 465.169C816.492 459.987 843.623 443.221 864.657 421.883L865.267 422.493C863.438 431.028 862.828 440.783 862.828 450.842C862.828 460.292 863.742 470.046 865.267 479.496C866.181 484.678 867.096 489.86 868.315 494.737L870.754 495.042Z" fill="#FEF0E5"/>
<path d="M783.569 1254.37C770.461 1252.24 757.048 1251.02 743.635 1250.1L743.33 1252.85C738.452 1252.54 733.88 1252.54 729.002 1252.24C729.307 1251.93 729.917 1251.63 730.222 1251.32C733.27 1249.19 736.318 1246.14 737.538 1243.09H739.367C743.025 1240.65 746.683 1237.91 750.036 1234.86C751.561 1233.64 753.39 1232.12 754.304 1230.29C755.219 1228.46 754.914 1225.72 753.085 1224.5C750.951 1222.97 748.512 1224.19 746.378 1225.41C742.11 1227.55 738.147 1230.29 734.489 1233.03L733.575 1234.56C732.051 1233.64 729.917 1233.34 728.088 1233.34C724.125 1233.64 720.467 1235.78 717.113 1237.91C708.273 1243.4 699.128 1248.88 690.287 1254.37L688.763 1251.93C678.398 1252.24 668.034 1254.07 657.974 1257.11C657.974 1255.9 658.279 1254.68 658.279 1253.46H659.498C676.569 1186.7 655.84 1013.56 655.84 1013.56C651.877 994.962 649.134 969.356 647.609 942.531C649.743 938.873 652.182 935.215 654.926 931.862L656.145 932.167C670.777 882.175 703.7 851.692 740.586 809.016C774.424 770.303 796.372 719.092 803.689 668.185C805.213 657.516 807.956 647.457 811.614 637.397C828.076 591.978 862.523 552.655 875.936 505.711V505.406C877.46 500.529 875.631 492.299 870.754 494.128H868.62C867.401 489.251 866.486 484.373 865.571 478.886C866.181 479.191 866.791 479.191 867.401 479.496L867.705 478.277C884.472 476.752 889.654 486.202 899.104 494.737C911.298 505.406 924.711 514.856 939.038 522.477L935.38 527.964C936.6 529.793 937.819 531.622 939.343 533.146C1001.53 566.372 1083.53 560.276 1134.75 608.743C1166.76 638.922 1178.95 683.731 1190.23 726.407C1200.9 766.95 1211.26 807.797 1221.93 848.644C1229.86 879.127 1237.78 909.915 1241.75 941.007C1244.8 965.089 1245.71 989.475 1246.62 1013.86C1248.45 1066.6 1250.28 1119.33 1251.81 1171.76C1251.81 1171.76 1249.67 1221.45 1219.49 1250.1L1220.71 1252.24C1219.8 1252.85 1218.58 1253.46 1217.36 1254.07C1217.66 1254.98 1217.97 1256.2 1218.27 1257.11H1217.97C1217.05 1264.43 1214.01 1271.44 1209.74 1277.54L1210.35 1278.15C1205.17 1292.17 1190.53 1300.1 1180.17 1311.07C1174.68 1316.86 1170.41 1323.26 1165.23 1329.05C1161.27 1333.32 1157 1336.98 1151.51 1339.11C1146.33 1341.25 1140.23 1341.86 1135.05 1339.72C1131.7 1338.2 1128.65 1335.76 1125.91 1333.32C1120.11 1328.44 1114.32 1323.26 1108.84 1318.39C1107.31 1315.95 1106.09 1313.81 1105.18 1311.07C1112.19 1308.33 1119.2 1304.97 1123.47 1301.92L1124.08 1301.62C1117.37 1289.73 1112.19 1277.23 1105.79 1265.35C1098.17 1251.32 1089.02 1237.91 1079.57 1225.11C1075.3 1219.62 1071.34 1213.83 1066.46 1208.65C1056.1 1197.67 1043.29 1189.44 1028.97 1184.57L1028.66 1183.65C1025.61 1184.26 1022.87 1184.57 1019.82 1185.17L1020.13 1186.7C1012.2 1192.19 1009.15 1191.88 1006.1 1191.58C969.523 1189.75 939.038 1220.54 905.201 1233.95C871.059 1247.06 835.087 1257.11 798.506 1254.98L798.201 1256.2C793.629 1256.51 788.446 1255.59 783.569 1254.37Z" fill="#F9F8F7"/>
<path d="M655.535 734.333C655.84 705.069 653.096 675.501 650.962 646.237C653.401 648.066 656.145 649.591 659.193 650.81V651.115C706.139 667.88 760.096 663.613 803.688 639.531C805.822 638.922 807.956 638.312 810.09 638.007L811.614 638.617C807.956 648.676 805.213 658.735 803.688 669.404C796.372 720.311 774.424 771.217 740.586 810.235C703.395 852.911 670.777 883.394 656.145 933.386L654.925 933.082C652.182 936.435 649.743 940.093 647.609 943.751C645.475 907.476 645.475 869.067 647.609 842.547C651.267 795.908 654.925 780.972 655.535 734.333Z" fill="#F9DDA5"/>
<path d="M668.034 301.781C693.031 259.105 688.153 208.808 704.005 162.474C709.797 145.708 726.259 119.798 746.988 121.932C748.817 122.236 750.646 122.541 752.475 123.151V122.846C758.267 124.37 764.364 122.846 770.156 121.627C774.729 120.712 778.996 119.493 783.569 118.274L784.484 121.322C786.922 120.712 789.361 120.103 791.8 119.798C853.073 110.653 869.839 199.663 888.74 238.071C900.628 262.458 927.15 284.101 955.195 296.599L956.11 303C956.414 305.743 956.719 308.792 957.024 311.535C956.11 329.215 941.782 348.419 925.321 356.65C922.882 357.869 920.138 359.089 917.395 359.698L917.7 360.918C913.781 363.326 909.147 364.295 904.591 363.661C895.141 384.999 881.728 405.118 864.657 422.188C843.623 443.221 816.492 459.987 786.922 465.474C754.609 471.266 731.136 461.511 707.968 440.783C707.359 440.173 706.749 439.868 706.444 439.259C705.834 438.649 705.225 438.344 704.615 437.734C675.96 409.69 650.353 366.1 651.877 320.07C652.182 319.766 652.487 319.461 653.097 319.156C659.193 313.669 664.376 307.572 668.034 301.781ZM829.295 292.941C833.258 299.037 836.307 292.331 835.392 286.234C834.478 280.747 830.21 281.967 829.295 284.101C828.076 287.149 827.771 290.807 829.295 292.941ZM711.017 284.405C712.541 290.197 718.028 284.101 716.199 279.223C714.065 272.212 709.188 276.785 711.017 284.405Z" fill="#FEF0E5"/>
<path d="M631.148 1268.39C634.806 1272.97 638.769 1277.84 642.732 1282.72L643.341 1283.63C642.122 1284.24 641.207 1285.16 639.988 1285.77C640.293 1287.9 641.512 1290.04 643.341 1291.56V1291.87C612.247 1290.95 581.458 1290.04 550.364 1289.73C534.208 1289.43 516.527 1289.73 503.114 1298.57C497.932 1301.92 493.359 1306.8 490.311 1311.98L413.185 1322.04L388.798 1325.09C386.359 1323.26 384.226 1321.74 381.787 1319.91C379.958 1318.39 378.129 1317.17 376.3 1315.64C369.898 1310.76 363.191 1306.19 357.399 1300.71C322.343 1269 279.36 1248.58 235.158 1231.51C210.466 1222.06 185.468 1213.52 161.386 1204.99C150.716 1201.33 140.047 1197.37 129.378 1193.71C101.027 1183.65 72.372 1173.9 43.7169 1164.45C40.6684 1163.53 37.9249 1162.31 34.8765 1161.4C53.4718 1161.4 71.7624 1161.4 90.3577 1161.09C139.742 1160.79 189.127 1159.87 238.206 1158.35C259.85 1157.74 281.494 1156.83 303.442 1155.61C346.425 1152.86 389.408 1147.38 430.562 1134.27C432.391 1133.66 434.22 1133.05 436.354 1132.44C444.279 1129.7 511.04 1104.09 514.088 1107.44C518.051 1111.71 522.014 1116.28 525.977 1120.86C526.282 1121.16 526.587 1121.47 526.587 1121.77C540.914 1138.54 554.023 1156.22 565.607 1174.81C575.057 1189.75 589.384 1209.87 598.53 1224.8C608.284 1241.26 619.259 1254.37 631.148 1268.39Z" fill="white"/>
<path d="M631.148 1268.39C633.587 1267.17 636.025 1266.26 638.464 1265.95V1266.26C644.561 1262.91 651.268 1260.16 657.974 1257.72C668.034 1254.68 678.094 1252.85 688.763 1252.54L690.287 1254.98C674.74 1264.74 658.889 1274.49 643.342 1283.94L642.732 1283.03C638.769 1277.84 634.806 1272.97 631.148 1268.39Z" fill="#FDEEE8"/>
<path d="M615.601 1400.08C607.675 1398.25 608.59 1402.52 600.969 1400.38C594.567 1398.86 587.86 1397.03 584.507 1391.54L578.105 1390.02C580.239 1382.4 582.983 1375.08 586.336 1368.07L588.47 1363.8C599.14 1368.68 609.809 1372.95 620.783 1376.91C622.917 1380.57 625.661 1383.62 629.014 1386.36L627.795 1388.19C624.441 1385.75 621.393 1383.01 618.345 1380.27L615.296 1383.62C614.991 1389.11 615.296 1394.59 615.601 1400.08Z" fill="#B59B99"/>
<path d="M569.265 1356.18C555.852 1363.8 543.048 1372.04 530.245 1380.27C525.063 1383.62 519.576 1387.28 513.479 1389.41C512.564 1389.72 511.955 1390.02 511.04 1390.32C509.516 1390.63 507.687 1390.93 506.467 1390.32C505.553 1389.72 504.943 1388.8 504.334 1387.58C502.2 1383.62 499.761 1379.05 501.285 1374.78C501.285 1374.47 501.59 1373.86 501.59 1373.56C502.809 1370.82 505.248 1368.68 507.687 1366.85C509.821 1365.02 511.955 1363.5 514.393 1361.98C529.94 1350.7 546.707 1340.64 564.083 1332.1V1331.8C573.533 1333.02 582.983 1334.54 592.738 1336.07C595.176 1336.37 597.92 1336.98 600.359 1337.28L600.054 1339.11C589.385 1344.91 579.325 1350.39 569.265 1356.18Z" fill="#F9DDA5"/>
<path d="M572.923 571.859C573.533 569.421 574.142 566.677 575.057 564.543C579.934 554.789 591.518 551.436 601.883 547.778C613.772 543.51 625.051 538.023 635.721 531.012C639.379 528.573 643.342 525.83 647.609 525.22C652.182 524.611 672.911 534.365 674.131 538.633L674.436 540.462C669.253 543.51 663.461 546.253 657.364 547.778L656.755 546.863C656.145 547.168 655.23 547.778 654.621 548.082C647.914 580.394 648.829 613.011 650.963 645.933C652.792 675.196 655.84 704.765 655.535 734.028C654.926 780.362 651.267 795.604 647.609 841.938C645.475 868.458 645.475 906.866 647.609 943.141C649.134 969.966 651.877 995.571 655.84 1014.17C655.84 1014.17 676.874 1187.31 659.498 1254.07H658.279C658.279 1255.29 657.974 1256.51 657.974 1257.72C651.268 1259.86 644.561 1262.6 638.464 1266.26V1265.95C635.721 1266.26 633.282 1267.17 631.148 1268.39C619.564 1254.37 608.59 1241.26 598.53 1224.5C589.385 1209.56 575.057 1189.44 565.607 1174.51C553.718 1155.91 540.915 1138.23 526.587 1121.47C525.977 1118.11 525.673 1114.45 525.063 1110.8C518.966 1066.9 514.393 1003.5 510.126 963.26L508.601 961.126L518.356 954.115C513.479 950.762 508.601 947.104 503.724 943.75C470.801 920.279 435.439 894.978 400.078 869.677C400.382 868.458 400.992 867.238 401.297 865.714C413.796 809.931 427.818 754.452 443.67 699.582C450.986 673.977 458.912 647.457 476.288 627.033C495.798 603.866 524.453 590.759 553.108 580.09L552.803 579.48C559.51 577.346 566.217 574.603 572.923 571.859ZM563.778 1332.1C546.402 1340.64 529.636 1350.7 514.089 1361.98L511.04 1358.01C510.126 1355.88 509.516 1353.75 509.211 1351.31C507.077 1343.08 506.772 1334.54 507.992 1326.01L508.297 1323.87C510.735 1324.18 512.869 1324.79 515.308 1325.09C531.16 1328.14 547.621 1329.97 563.778 1332.1Z" fill="#F9F8F7"/>
<path d="M425.075 1122.08L423.855 1122.38C417.454 1096.77 415.015 1070.25 416.539 1043.73L415.625 1042.52C444.585 1014.47 474.764 987.646 506.163 962.65L508.297 961.126L509.821 963.26C513.784 1003.5 518.661 1066.9 524.758 1110.8C524.758 1114.15 525.063 1117.5 525.673 1120.55C521.71 1115.98 517.747 1111.71 513.784 1107.14C510.735 1103.79 443.67 1129.39 436.049 1132.13C434.22 1132.74 432.391 1133.35 430.257 1133.96C427.818 1130.31 426.294 1126.34 425.075 1122.08Z" fill="#F9F8F7"/>
<path d="M413.186 1322.04L490.311 1311.98C489.701 1313.2 489.091 1314.42 489.396 1315.95C489.701 1317.47 491.225 1318.39 492.749 1319.3C497.627 1322.04 503.114 1323.26 508.601 1324.48L508.296 1326.62C507.077 1335.15 507.687 1343.69 509.516 1351.92H509.211C507.991 1351.31 506.772 1350.7 505.553 1350.39C471.106 1344.3 446.718 1338.81 414.1 1326.01L413.186 1322.04Z" fill="#FEF0E5"/>
<path d="M792.714 1397.64V1390.02L821.369 1386.36V1394.9C821.674 1410.44 823.808 1425.99 827.771 1440.93L832.039 1440.01C867.096 1446.11 903.067 1452.51 938.733 1454.34L938.429 1461.05C943.001 1477.51 947.269 1494.27 951.537 1510.73V1516.22H485.128C483.604 1511.65 481.775 1507.07 479.336 1502.5L481.775 1501.28C480.251 1491.22 481.775 1481.16 483.604 1471.1C487.567 1448.85 492.749 1426.9 499.151 1404.96C499.456 1401.91 500.371 1398.56 500.98 1395.51C503.114 1394.59 504.943 1393.98 506.772 1393.07C508.601 1391.85 510.735 1390.93 512.869 1390.32L512.564 1389.72C518.661 1387.58 523.843 1383.92 529.331 1380.57C542.134 1372.04 555.242 1364.11 568.35 1356.49C570.789 1357.71 573.228 1358.62 575.667 1359.23L575.971 1358.93C579.629 1360.76 583.592 1362.59 587.251 1364.41L585.117 1368.68C581.459 1375.69 578.715 1383.01 576.886 1390.63L583.288 1392.15C586.641 1397.64 593.652 1399.47 599.749 1400.99C607.675 1402.82 606.456 1398.56 614.381 1400.69H614.686V1401.6C614.991 1407.4 615.601 1413.49 619.259 1417.76C622.003 1421.11 625.965 1422.94 629.928 1424.47C647.304 1430.87 666.509 1432.39 684.8 1428.73L687.239 1422.33C714.065 1429.95 766.803 1440.32 794.848 1440.32H795.458C794.238 1425.99 792.714 1411.66 792.714 1397.64Z" fill="#799FC9"/>
<path d="M375.995 1315.95C377.824 1317.17 379.653 1318.69 381.482 1320.21C367.459 1321.74 354.046 1315.64 341.853 1309.24C304.662 1290.34 269.605 1266.87 237.597 1239.74C237.901 1239.43 238.206 1239.43 238.206 1239.13C237.292 1236.69 236.072 1234.25 234.853 1231.81C279.055 1248.58 322.038 1269.31 357.095 1301.01C362.887 1306.19 369.593 1311.07 375.995 1315.95Z" fill="#FDEEE8"/>
<path d="M160.776 1205.29C184.859 1213.83 210.161 1222.36 234.548 1231.81C235.768 1234.25 236.987 1236.69 237.902 1239.13C237.597 1239.43 237.292 1239.43 237.292 1239.74C227.537 1248.58 214.124 1254.68 210.771 1267.48C180.591 1246.45 153.155 1221.75 128.768 1194.02C139.438 1197.67 150.107 1201.33 160.776 1205.29Z" fill="white"/>
<path d="M83.3465 1154.69C84.261 1155.91 85.4804 1157.44 87.0046 1157.44H87.3095C87.9192 1158.65 88.8337 1159.87 89.7482 1161.09V1161.4C71.1528 1161.7 52.8623 1161.7 34.2669 1161.7C37.3154 1162.62 40.0589 1163.53 43.1074 1164.75L42.4977 1166.28C24.8169 1173.29 4.39242 1150.42 3.47789 1139.15V1137.32C3.17305 1126.65 8.6602 1115.37 17.8055 1109.88C25.7314 1105.31 35.1815 1104.7 44.3267 1104.4C58.3495 1103.79 72.3722 1103.18 86.0901 1102.87H89.1385C90.9676 1103.18 92.4918 1103.48 93.7112 1104.7C94.9305 1106.22 95.2354 1111.41 94.9305 1113.54C93.4063 1119.64 87.6143 1121.16 82.1272 1124.21C77.8594 1126.65 73.2867 1128.48 68.7141 1130.31C66.5802 1131.22 64.1415 1131.83 62.0076 1132.44L62.3124 1133.96C66.2754 1143.11 77.5545 1146.46 83.3465 1154.69Z" fill="#FEF0E5"/>
<path d="M86.0902 1102.87C72.0674 1103.48 58.0447 1104.09 44.3268 1104.4C35.1815 1104.7 25.7314 1105.31 17.8055 1109.88C8.35542 1115.37 2.86827 1126.34 3.47795 1137.32H3.17312C0.73438 1135.18 -2.0092 1133.05 -4.44794 1130.92L-3.83826 1130C-7.19152 1127.26 -9.32542 1122.99 -11.4593 1118.11C-15.4223 1109.58 -16.6416 1098.91 -12.9835 1090.37C-11.7642 1087.63 -10.2399 1085.5 -8.10604 1083.36C-2.61889 1078.18 5.307 1076.05 12.9281 1075.13C14.1474 1074.83 15.0619 1074.83 16.2813 1074.52C36.0961 1071.78 55.9108 1069.95 75.7255 1068.43C80.2982 1068.12 85.1757 1067.82 90.0531 1068.12C94.0161 1068.43 98.2839 1069.64 100.418 1073C101.637 1074.83 101.637 1081.23 101.637 1083.67C101.637 1089.76 95.8451 1094.95 89.7483 1098.3C89.7483 1099.82 89.4434 1101.35 89.4434 1102.87H86.0902Z" fill="#FEF0E5"/>
<path d="M-27.6161 1031.85C-22.7386 1030.02 -17.2514 1029.41 -11.7643 1029.1H-5.3626C7.13593 1029.1 19.6345 1030.02 31.8282 1031.85C38.2298 1032.76 45.8509 1035.2 47.3751 1041.6C48.2896 1045.56 46.4606 1049.83 43.1073 1052.57C40.0589 1055.32 36.0959 1056.84 32.133 1058.06C23.9023 1060.8 15.6715 1062.63 7.13593 1063.85H6.22141C7.74562 1066.9 9.57466 1069.95 11.7086 1072.39L12.3183 1075.44C4.6972 1076.66 -3.2287 1078.48 -8.71585 1083.67C-10.8498 1085.8 -12.374 1088.24 -13.5933 1090.68C-15.4224 1088.85 -17.5563 1087.02 -19.3853 1085.5L-19.0805 1084.89C-24.2628 1082.45 -29.75 1076.66 -33.7129 1073C-38.5904 1068.73 -43.7727 1064.16 -45.2969 1057.76C-47.7356 1048.61 -41.6388 1038.86 -33.4081 1034.28C-31.2742 1033.07 -29.4451 1032.46 -27.6161 1031.85Z" fill="#FEF0E5"/>
<path d="M302.833 1155.91C281.189 1157.44 259.24 1158.05 237.596 1158.65C188.212 1160.18 138.828 1161.09 89.748 1161.4V1161.09C88.8335 1159.87 87.919 1158.65 87.3093 1157.44H87.0045C85.4802 1157.44 84.2609 1155.91 83.3463 1154.69C77.5543 1146.46 65.9703 1142.8 62.0074 1133.66L61.7025 1132.13C64.1413 1131.53 66.2752 1130.92 68.4091 1130C72.9817 1128.48 77.5543 1126.34 81.8221 1123.9C87.3093 1120.86 93.1013 1119.33 94.6255 1113.24C95.2352 1111.1 94.9303 1106.22 93.4061 1104.4C92.1868 1103.18 90.6625 1102.57 88.8335 1102.57C89.1383 1101.04 89.1383 1099.52 89.1383 1097.99C95.2352 1094.64 101.027 1089.46 101.027 1083.36C101.027 1081.23 101.027 1074.52 99.8078 1072.69C97.6739 1069.34 93.4061 1068.12 89.4432 1067.82C84.5657 1067.21 79.9931 1067.51 75.1156 1068.12C55.3009 1069.64 35.4861 1071.47 15.6714 1074.22C14.452 1074.52 13.5375 1074.52 12.3181 1074.83L11.7084 1071.78C9.57454 1069.04 7.7455 1066.29 6.2213 1063.24H7.13582C15.6714 1062.02 23.9021 1059.89 32.1329 1057.45C36.0958 1056.23 40.0588 1054.71 43.1072 1051.96C46.1556 1049.22 48.2895 1044.95 47.375 1040.99C45.8508 1034.59 38.2297 1032.46 31.828 1031.24C19.6344 1029.41 7.13582 1028.49 -5.36272 1028.49H-11.7644V1027.88C-12.6789 1026.36 -13.5934 1024.53 -14.8128 1022.7L-16.337 1023.62C-19.6903 1019.96 -22.4339 1015.69 -24.5678 1011.12L-22.7387 1009.9C-23.6532 1008.37 -24.5678 1006.85 -25.1774 1005.33C-24.2629 1002.89 -23.6532 1000.14 -23.6532 997.705C-23.3484 992.828 -24.2629 987.646 -27.3113 983.988C-30.3598 980.33 -34.9324 978.806 -39.8099 978.806H-41.0292C-84.6217 900.16 -127.3 821.209 -169.063 741.649C-171.197 735.247 -172.111 728.846 -172.111 722.14H-171.502C-130.653 655.382 -80.3539 594.112 -22.7387 541.376L-22.4339 541.681C-19.0806 537.718 -15.1177 534.365 -10.8499 531.317L-10.545 531.622C68.1042 612.401 154.679 684.951 243.693 753.537C291.858 790.726 346.12 830.659 400.077 869.372C435.439 894.978 470.496 919.974 503.724 943.446C508.601 946.799 513.479 950.457 518.356 953.81L508.601 960.821L506.467 962.345C474.764 987.341 444.584 1013.86 415.929 1042.21L410.442 1047.7C393.371 1064.46 376.909 1081.84 361.057 1099.52C343.072 1119.33 325.696 1140.06 303.138 1154.39L302.833 1155.91Z" fill="white"/>
<path d="M832.039 300.866C829.905 300.866 826.856 299.952 824.418 295.989C821.674 291.721 822.589 285.625 824.113 281.967C825.637 278.309 829.6 276.175 833.258 276.785C836.306 277.09 839.965 279.833 840.879 285.32C841.794 291.112 839.965 298.123 834.782 300.257C834.173 300.561 833.258 300.866 832.039 300.866ZM713.15 292.331C712.541 292.331 711.931 292.331 711.321 292.026C709.797 291.721 706.749 290.197 705.529 285.625C703.7 278.614 706.139 271.907 711.321 270.383C714.979 269.469 719.552 270.993 721.686 277.394C723.21 281.967 721.381 286.844 718.942 289.588C717.113 291.417 715.284 292.331 713.15 292.331ZM712.236 281.052C712.541 281.052 713.15 281.357 713.76 281.357H714.37C714.065 281.357 714.065 281.357 713.76 281.052H712.236ZM747.902 345.981C746.378 345.981 745.159 345.371 743.939 344.457C735.404 335.922 732.355 326.167 735.404 317.937C736.928 314.279 739.062 311.535 740.586 309.706C742.11 307.877 743.33 306.658 743.939 304.829C745.768 299.952 745.464 294.16 744.854 288.368C744.549 285.32 746.683 282.576 749.731 282.272C752.78 281.967 755.523 284.101 755.828 287.149C756.743 294.16 757.047 301.476 754.609 308.487C753.389 312.45 750.951 314.888 749.426 317.022C747.902 318.851 746.683 320.07 746.073 321.899C744.244 326.472 748.207 332.568 752.17 336.531C754.304 338.665 754.304 342.323 752.17 344.457C750.646 345.676 749.426 345.981 747.902 345.981ZM859.474 242.644C858.255 242.644 857.341 242.339 856.121 241.729C845.147 233.804 821.674 234.109 813.748 238.681C811.004 240.205 807.651 239.291 806.127 236.547C804.603 233.804 805.517 230.451 808.261 228.927C820.15 221.915 848.195 222.22 862.828 232.585C865.266 234.413 865.876 237.767 864.047 240.51C862.828 241.729 860.999 242.644 859.474 242.644ZM725.649 236.242C724.429 236.242 723.515 235.938 722.6 235.328C716.503 231.06 701.566 228.927 693.031 231.365C689.982 232.28 686.934 230.451 686.324 227.402C685.41 224.354 687.239 221.306 690.287 220.696C701.871 217.648 720.162 220.391 729.002 226.488C731.441 228.317 732.05 231.67 730.526 234.413C729.002 235.633 727.173 236.242 725.649 236.242ZM770.461 100.289C767.412 100.289 764.973 97.8501 764.973 94.8018C764.973 91.1439 764.669 87.1811 764.669 82.9135C764.059 67.9769 763.144 50.9064 766.802 39.0181C767.717 35.9698 770.765 34.4457 773.814 35.3602C776.862 36.2746 778.386 39.3229 777.472 42.3712C774.423 52.4306 775.338 69.1962 775.948 82.6087C776.253 87.1811 776.253 91.1439 776.253 95.1066C775.948 97.5453 773.509 100.289 770.461 100.289ZM910.383 366.404C907.335 366.404 904.896 363.966 904.896 360.918C904.896 357.869 907.335 355.126 910.383 355.126C912.212 355.126 914.041 354.821 916.175 354.211C918.309 353.602 920.748 352.687 922.882 351.468C938.124 343.847 950.622 326.167 951.537 310.926C951.842 307.877 954.28 305.439 957.329 305.743C960.377 306.048 962.816 308.487 962.511 311.535C961.597 330.435 946.659 351.773 927.759 361.222C924.711 362.746 921.662 363.966 918.919 364.575C916.175 365.795 913.431 366.404 910.383 366.404Z" fill="#701616"/>
<path d="M957.024 317.022C953.671 317.022 951.232 314.279 951.537 311.23C951.537 309.097 951.537 307.268 951.232 305.134V304.524C951.232 304.219 950.927 303.914 950.927 303.61C950.622 302.695 950.622 301.781 950.012 300.866C948.793 298.123 950.317 294.77 953.061 293.55C955.804 292.331 959.158 293.855 960.377 296.599C960.987 298.123 961.292 299.342 961.596 300.866C961.901 301.476 961.901 302.086 961.901 302.695C962.511 305.439 962.511 308.182 962.511 311.23C962.511 314.583 960.072 317.022 957.024 317.022ZM614.076 342.933C611.028 342.933 608.589 340.494 608.589 337.751C608.284 334.702 610.723 331.959 613.772 331.959C624.136 331.349 636.635 325.557 647.914 316.412L648.524 315.803L649.133 315.193L649.438 314.888C655.23 309.706 660.108 304.219 663.156 298.732C677.484 274.346 681.447 247.521 686.019 219.172C689.068 199.663 692.116 179.849 698.823 160.645C705.529 141.441 723.82 113.701 747.597 116.445C750.036 116.749 752.17 117.359 754.609 117.969C755.523 118.274 756.438 118.578 757.047 118.883C759.791 120.103 761.01 123.456 759.791 126.199C758.572 128.943 755.218 130.162 752.475 128.943C751.865 128.638 751.255 128.333 750.951 128.333H750.646C749.121 127.723 747.902 127.419 746.378 127.419C730.221 125.59 714.979 147.842 709.187 164.303C702.785 182.593 700.042 202.102 696.993 221.001C692.726 249.045 688.153 278.309 672.911 304.524C668.948 310.926 663.461 317.327 656.754 323.424L656.145 324.033L655.84 324.338L655.23 324.948C642.122 335.922 627.185 342.323 614.686 343.237L614.076 342.933ZM762.23 408.166C748.512 408.166 731.136 401.765 722.295 389.571C720.466 387.133 721.076 383.475 723.515 381.646C725.954 379.817 729.612 380.427 731.441 382.865C738.757 392.62 754.913 397.802 765.583 396.583C777.167 395.363 787.227 392.315 797.287 383.17C799.42 381.036 803.079 381.341 805.212 383.475C807.346 385.609 807.041 389.267 804.908 391.4C794.543 401.155 783.569 405.727 767.107 407.556C765.278 408.166 763.754 408.166 762.23 408.166Z" fill="#701616"/>
<path d="M996.044 313.059H995.434C982.935 311.84 968.913 308.487 955.195 302.695C954.585 302.39 953.67 302.086 953.061 301.781C921.662 288.063 895.75 265.201 883.862 240.815C879.899 232.585 875.936 222.525 871.973 211.551C856.426 170.095 836.916 118.883 793.019 125.59C789.97 126.199 787.227 124.065 786.617 121.017C786.007 117.969 788.141 115.225 791.19 114.616C844.232 106.69 866.486 164.912 882.337 207.893C886.3 218.562 889.958 228.317 893.921 235.938C904.591 257.58 928.978 279.223 957.633 291.721L959.462 292.636C971.961 297.818 984.764 301.171 996.348 302.086C999.397 302.39 1001.84 305.134 1001.53 308.182C1001.23 310.926 998.787 313.059 996.044 313.059Z" fill="#701616"/>
<path d="M784.788 127.114C782.349 127.114 779.911 125.59 779.301 122.846C778.386 119.798 780.215 116.749 783.264 116.14C786.312 115.225 789.056 114.921 791.19 114.616C794.238 114.311 796.982 116.14 797.591 119.493C797.896 122.541 796.067 125.285 792.714 125.894C790.885 126.199 788.446 126.504 786.007 127.418C785.703 126.809 785.093 127.114 784.788 127.114ZM588.775 463.34C587.86 463.34 586.946 463.035 586.336 462.73C583.592 461.511 582.373 458.158 583.592 455.414C584.507 452.366 587.555 450.842 590.604 451.757C593.652 452.671 595.176 455.719 594.567 458.768C594.567 459.072 594.262 459.682 593.957 460.597C592.738 462.426 590.908 463.34 588.775 463.34Z" fill="#701616"/>
<path d="M589.08 462.73C588.47 462.73 587.86 462.73 587.251 462.426C584.202 461.511 582.678 458.158 583.897 455.414C584.202 454.805 584.202 454.195 584.507 453.89C584.507 453.585 584.812 453.281 584.812 453.281C593.347 428.894 586.336 407.251 578.715 384.389C576.581 377.683 574.142 370.672 572.008 363.356C562.863 330.435 562.863 298.123 571.399 267.03C581.459 231.06 596.701 196.005 611.333 162.474L613.162 157.901C614.991 153.634 616.82 149.061 618.954 144.184C632.367 112.482 650.963 68.8913 670.777 47.2485C679.923 37.494 693.945 23.7767 710.407 14.327C729.307 3.65794 746.683 0.914481 761.925 6.4014C764.973 7.31589 766.498 10.669 765.278 13.4125C764.364 16.4608 761.011 17.9849 758.267 16.7656C727.783 6.09657 692.421 39.6278 679.008 54.5644C660.413 74.9879 642.427 117.359 629.319 148.452C627.185 153.329 625.356 157.901 623.527 162.169L621.698 166.741C607.37 199.968 592.433 234.413 582.373 269.774C574.142 298.732 574.447 328.91 582.983 360.003C584.812 367.014 587.251 373.72 589.384 380.427C597.31 404.203 605.541 428.59 595.481 456.634V457.548C595.176 458.158 595.176 458.463 594.872 459.072C593.347 461.206 591.213 462.73 589.08 462.73ZM986.289 477.362C984.46 477.362 982.326 476.448 981.411 474.619C980.497 473.095 979.887 471.57 979.278 470.046C967.694 442.612 982.936 410.909 995.129 385.913C996.958 381.951 998.787 378.293 1000.62 374.635C1014.03 345.371 1026.53 313.974 1019.52 283.186C1016.16 268.554 1009.15 253.618 1002.45 239.291C997.568 229.231 992.691 218.867 989.032 208.503C985.984 200.273 983.24 191.737 980.497 183.507C970.437 153.939 960.072 123.151 944.221 96.0211C936.904 83.5231 928.979 72.8541 920.138 63.0996C891.788 32.3119 843.928 3.04828 794.848 11.8883C790.885 12.498 786.617 13.7173 782.654 14.9366C779.606 15.8511 776.557 14.327 775.643 11.2787C774.728 8.23038 776.253 5.18209 779.301 4.2676C783.874 2.74345 788.446 1.82897 793.019 0.914481C818.016 -3.65795 843.928 0.304824 870.144 12.498C890.873 22.2525 911.603 37.494 928.369 55.4789C937.819 65.8431 946.354 77.1217 953.976 90.5342C970.132 118.274 980.802 149.671 991.166 179.849C993.91 188.079 996.653 196.31 999.702 204.54C1003.36 214.6 1007.93 224.659 1012.81 234.413C1019.82 249.35 1027.14 264.592 1030.8 280.443C1038.72 314.583 1025.31 348.115 1010.98 379.207C1009.15 382.865 1007.32 386.523 1005.49 390.791C993.605 415.177 980.192 442.916 989.947 466.083C990.557 467.303 990.862 468.522 991.471 469.437C992.995 472.18 992.081 475.533 989.337 477.057C988.118 477.057 987.203 477.362 986.289 477.362ZM966.779 477.667H965.56L963.121 477.057C959.463 476.143 955.805 475.533 952.147 474.619C947.269 473.399 943.001 471.875 939.038 470.351C930.808 466.693 924.101 461.816 918.919 455.11C917.09 452.671 917.395 449.318 919.833 447.184C922.272 445.355 925.625 445.66 927.759 448.099C932.027 453.281 937.209 457.243 943.611 459.987C946.964 461.511 950.622 462.73 954.89 463.645C958.243 464.559 961.597 465.169 965.255 466.083L967.693 466.693C970.742 467.303 972.571 470.351 971.961 473.399C971.656 475.838 969.218 477.667 966.779 477.667ZM658.279 476.143C655.23 476.143 652.792 474.009 652.792 470.961C652.487 467.912 654.926 465.169 657.974 464.864H659.803C682.666 462.426 693.945 449.928 696.689 440.173C697.603 437.125 700.652 435.601 703.7 436.21C706.749 437.125 708.273 440.173 707.663 443.221C701.871 464.559 679.008 474.314 661.327 476.143C660.717 476.143 660.108 476.448 659.498 476.448C658.584 476.143 658.279 476.143 658.279 476.143ZM620.478 468.827C615.296 468.827 610.419 468.217 606.151 467.912C603.102 467.608 600.968 464.864 601.273 461.816C601.578 458.768 604.322 456.634 607.37 456.939C612.552 457.548 619.259 458.158 625.356 457.548C627.185 457.548 628.709 457.243 630.233 456.939C636.025 455.719 640.598 452.671 644.256 448.403C646.39 445.965 649.743 445.66 652.182 447.794C654.621 449.928 654.925 453.281 652.792 455.719C647.609 461.816 640.903 466.083 632.672 467.912C630.843 468.522 628.404 468.827 626.27 468.827C624.136 468.522 622.307 468.827 620.478 468.827Z" fill="#701616"/>
<path d="M769.546 472.79C746.073 472.79 725.649 463.95 704.615 445.05L703.7 444.136C703.395 443.831 703.09 443.831 703.09 443.526C702.481 442.916 701.871 442.307 700.956 441.697C685.105 426.456 671.692 407.861 662.241 388.047C651.267 365.185 645.78 342.323 646.695 320.07V319.766C646.695 316.717 649.133 314.279 652.182 314.279C655.23 314.279 657.669 316.717 657.669 319.766V320.375C656.145 365.795 682.971 408.776 708.882 433.772L710.406 435.296L711.321 436.21L711.931 436.82C735.708 458.158 757.962 465.169 786.007 459.987C812.224 455.414 838.745 440.478 860.998 418.225C877.155 402.069 890.568 382.255 899.713 361.222C900.323 359.698 901.238 357.564 902.152 355.735C904.286 350.248 906.42 344.457 907.944 338.97C908.859 335.921 911.907 334.397 914.956 335.007C918.004 335.922 919.528 338.97 918.918 342.018C917.394 347.81 915.26 353.906 912.822 360.003C911.907 362.137 910.993 364.271 910.383 365.795C900.628 388.047 886.605 408.776 869.534 426.151C846.061 449.928 817.406 465.779 788.751 470.961C781.74 472.18 775.643 472.79 769.546 472.79ZM923.796 322.509C922.272 322.509 920.748 321.899 919.528 320.375C917.699 317.937 918.004 314.583 920.138 312.45C923.796 309.401 927.759 306.963 932.027 305.439C934.77 304.219 938.124 305.743 939.343 308.487C940.562 311.23 939.038 314.583 936.295 315.803C933.246 317.022 930.198 318.851 927.454 320.985C926.235 322.204 925.015 322.509 923.796 322.509ZM911.907 470.961H911.297C908.249 470.656 905.201 470.046 901.847 469.132C898.189 467.912 894.836 466.388 891.483 464.254C890.568 463.95 889.959 463.34 889.349 462.73C885.081 459.682 881.118 456.329 878.07 452.061C877.46 451.147 876.545 449.928 875.631 448.403C874.107 445.66 874.716 442.307 877.46 440.783C880.204 439.259 883.557 440.173 885.081 442.612L886.91 445.355C889.349 448.403 892.092 451.147 895.751 453.281C896.055 453.281 896.055 453.585 896.36 453.585C896.665 453.585 896.665 453.89 896.97 454.195C899.409 455.719 902.152 456.939 904.896 457.853C907.335 458.768 909.773 459.072 911.907 459.377C914.956 459.682 917.09 462.426 917.09 465.474C917.09 468.827 914.651 470.961 911.907 470.961ZM792.104 125.285C789.056 125.285 786.617 122.846 786.617 119.798C786.617 116.749 789.056 114.311 792.104 114.311C795.153 114.311 797.591 116.749 797.591 119.798C797.591 122.846 795.153 125.285 792.104 125.285Z" fill="#701616"/>
<path d="M871.363 509.979C868.925 509.979 866.791 508.455 866.181 506.016C865.267 503.273 864.352 500.224 863.437 496.566C862.218 491.689 860.999 486.812 860.084 481.02C858.56 471.266 857.645 461.206 857.645 451.452C857.341 440.783 858.255 430.723 860.084 421.883C860.694 418.835 863.742 417.006 866.791 417.616C869.839 418.225 871.668 421.274 871.059 424.322C869.534 432.247 868.62 441.697 868.925 451.452C868.925 460.597 869.839 470.046 871.363 479.191C872.278 484.678 873.192 489.555 874.412 493.823C875.326 497.176 876.241 499.92 877.155 502.663C878.07 505.711 876.546 508.76 873.497 509.674C872.583 509.674 871.973 509.979 871.363 509.979ZM401.297 871.811H400.078C397.029 871.201 395.2 868.153 395.81 865.105C408.308 809.626 422.636 753.537 438.183 698.668C446.414 670.014 454.339 644.713 471.715 623.985C492.75 598.684 523.539 585.576 550.669 575.212L555.242 573.383L559.815 571.554C562.558 570.335 565.912 571.859 567.131 574.907C568.35 577.651 566.826 581.004 563.778 582.223L559.205 584.052C557.681 584.662 556.157 585.272 554.632 585.576C528.721 595.331 499.456 607.829 480.251 630.996C464.399 649.895 456.473 674.282 448.852 701.716C433.305 756.281 418.978 812.064 406.784 867.543C406.174 869.982 404.04 871.811 401.297 871.811Z" fill="#701616"/>
<path d="M547.926 661.174C547.011 661.174 545.792 660.869 544.877 660.26C542.439 658.735 541.524 655.992 542.439 653.553C551.584 630.691 561.644 603.257 566.521 574.907C566.826 573.688 566.826 572.469 567.131 570.945C567.741 568.201 568.35 565.153 569.874 562.105C575.362 551.131 587.25 546.863 597.615 543.205C598.225 542.9 599.139 542.596 599.749 542.291C611.333 538.328 622.307 532.841 632.367 526.135L633.282 525.525C636.94 523.087 641.208 520.343 646.695 519.429C650.962 518.819 658.888 521.867 664.375 524.915C677.789 531.622 679.008 535.28 679.313 536.804C680.227 539.852 678.703 542.9 675.655 543.815C672.911 544.729 670.167 543.205 668.948 540.767C666.509 537.718 652.182 530.707 647.914 530.402C645.17 531.012 642.122 532.841 639.378 534.67L638.464 535.28C627.49 542.291 615.906 548.082 603.407 552.35C602.797 552.655 601.883 552.96 601.273 553.265C592.433 556.313 583.288 559.666 579.934 566.372C579.02 568.201 578.41 570.335 578.105 572.469C577.8 573.688 577.8 574.907 577.496 576.127C573.837 597.77 567.436 618.193 560.424 637.093C567.436 632.825 574.752 629.777 582.678 628.253C591.823 626.424 600.359 626.424 607.37 629.167C616.515 632.215 623.527 639.531 625.661 648.066C626.575 651.115 624.746 654.163 621.698 654.773C618.649 655.687 615.601 653.858 614.991 650.81C613.772 645.933 609.504 641.665 603.712 639.836C598.53 638.007 592.433 638.007 585.117 639.531C572.313 642.275 560.424 649.286 551.889 659.345C550.974 660.564 549.45 661.174 547.926 661.174Z" fill="#701616"/>
<path d="M659.498 1259.86C658.889 1259.86 658.584 1259.86 657.974 1259.55C654.926 1258.64 653.097 1255.59 654.011 1252.85C670.473 1189.14 650.963 1023.01 650.048 1015.39C645.171 993.133 642.732 964.174 641.513 943.751C639.379 908.086 639.379 868.763 641.513 841.633C642.732 825.782 643.951 813.284 645.171 802.31C647.305 781.277 649.134 764.511 649.438 734.028C649.743 712.081 648.219 689.523 646.39 667.88C645.78 660.869 645.475 653.553 644.866 646.542C642.732 614.535 641.817 580.394 648.829 547.168C648.829 546.558 649.134 545.949 649.134 545.339V544.729C649.743 541.681 652.792 539.852 655.84 540.462C658.889 541.071 660.718 544.12 660.108 547.168C660.108 547.473 660.108 547.778 659.803 548.083C659.803 548.387 659.498 548.997 659.498 549.302V549.607C652.792 581.614 653.706 614.84 655.84 645.933C656.145 652.944 656.755 660.26 657.364 667.271C658.889 689.218 660.718 712.08 660.413 734.638C660.108 765.426 658.279 782.496 656.145 803.834C654.926 814.808 653.706 827.001 652.487 842.852C650.353 869.372 650.353 908.086 652.487 943.446C654.011 972.1 657.06 996.486 660.718 1013.56V1014.17C661.632 1021.18 681.447 1189.14 664.376 1255.9C664.376 1258.03 662.242 1259.86 659.498 1259.86Z" fill="#701616"/>
<path d="M657.669 553.569C655.23 553.569 653.096 552.045 652.182 549.607C651.267 546.558 653.096 543.51 656.145 542.596C661.632 541.071 666.814 538.633 671.692 535.889C672.911 535.28 674.13 534.365 675.35 533.451C691.202 522.477 702.481 504.797 704.92 486.507C706.444 475.838 704.615 456.024 703.395 445.05C703.091 442.002 705.224 439.259 708.578 438.954C711.626 438.649 714.37 440.783 714.674 444.136C715.894 456.024 717.723 476.143 715.894 488.031C712.845 509.369 700.042 530.098 681.447 542.9C680.227 543.815 678.703 544.729 677.179 545.644C671.387 548.997 665.29 551.74 658.888 553.569H657.669ZM650.962 959.602H650.048C647 958.992 644.866 956.248 645.475 953.2C646.695 945.579 648.524 938.264 650.658 931.557C663.461 887.967 689.373 859.008 719.552 825.172C725.039 819.075 730.526 812.674 736.318 806.273C768.327 769.388 790.885 719.092 798.201 668.49C799.725 658.126 802.469 647.762 806.432 636.788C814.053 615.754 825.637 595.636 836.916 576.127C850.024 553.569 863.437 530.402 870.754 505.406V505.102C871.059 503.882 871.059 502.053 870.754 501.139C868.62 501.139 866.486 499.615 865.571 497.481C864.657 494.433 866.181 491.384 868.925 490.47C872.278 489.25 875.631 489.86 878.07 492.299C882.033 496.262 882.947 503.577 881.423 508.455V509.064C873.802 534.975 860.084 559.056 846.671 581.918C835.697 600.818 824.418 620.632 816.797 640.75C813.138 651.115 810.395 660.869 809.176 670.319C801.554 723.054 778.082 775.485 744.854 813.893C739.062 820.6 733.575 827.001 728.088 833.098C698.823 865.714 673.521 894.063 661.632 935.215C659.803 941.617 657.974 948.628 656.754 955.639C656.145 957.773 653.706 959.602 650.962 959.602Z" fill="#701616"/>
<path d="M877.46 696.534C874.412 696.534 871.973 694.705 871.059 693.791C863.133 687.389 855.512 680.073 848.5 672.758L847.586 671.538C843.623 667.271 839.965 663.308 835.392 661.174C831.734 659.345 826.552 659.345 824.113 662.393C822.284 664.832 818.626 665.137 816.187 663.308C813.748 661.479 813.443 657.821 815.272 655.382C821.369 647.762 832.344 647.762 839.965 651.115C846.366 654.163 851.244 659.04 855.512 663.918L856.426 664.832C862.523 671.538 869.229 677.635 875.936 683.427C889.654 642.884 903.372 602.342 917.09 562.105L927.454 531.927C927.454 531.622 927.759 531.012 928.064 530.707L931.112 525.83C918.309 518.514 906.115 509.979 895.446 500.224C893.312 498.395 891.483 496.566 889.959 495.042C883.557 488.641 878.984 484.373 868.315 485.288C865.267 485.593 862.523 483.154 862.218 480.106C861.913 477.057 864.352 474.314 867.4 474.009C883.557 472.485 890.873 479.801 897.885 487.117C899.409 488.641 901.238 490.47 903.067 491.994C914.956 502.358 928.064 511.503 942.087 519.124C943.306 519.733 944.525 521.258 944.83 522.477C945.135 524.001 944.83 525.525 944.221 526.744L938.429 536.194L928.369 565.763L886.301 689.218C884.776 693.486 882.338 695.925 878.984 696.534H877.46ZM718.028 666.661C697.298 666.661 676.874 663.308 657.364 656.297L653.401 654.773C650.658 653.553 649.133 650.505 650.048 647.457C651.267 644.713 654.316 643.189 657.364 644.104L661.022 645.628C706.444 661.784 758.572 657.516 800.64 634.349C802.164 633.435 803.688 632.52 805.517 631.606C808.261 630.081 811.614 630.996 813.139 633.435C814.663 636.178 813.748 639.531 811.309 641.055C809.48 641.97 807.956 642.884 806.127 644.104C779.606 659.04 748.817 666.661 718.028 666.661ZM647.304 1349.48C632.367 1349.48 617.43 1346.73 602.797 1343.99L598.834 1343.38C596.396 1343.08 593.957 1342.47 591.518 1342.16C583.288 1340.64 574.447 1339.42 563.168 1337.89C558.291 1337.28 553.108 1336.68 548.231 1336.07C537.256 1334.54 525.672 1333.32 514.393 1331.49C511.955 1331.19 509.516 1330.58 507.382 1330.27C500.066 1328.75 494.579 1326.92 490.006 1324.48C488.787 1323.87 484.824 1321.74 483.909 1317.47C483.299 1313.81 484.824 1310.76 485.738 1309.55C489.396 1303.45 494.274 1297.96 500.371 1294C515.917 1283.63 536.037 1283.94 550.974 1284.24C581.763 1284.85 613.162 1285.46 643.951 1286.38H644.256C654.925 1286.68 665.29 1286.99 675.96 1287.6H676.874C679.923 1287.6 682.361 1290.04 682.361 1293.08C682.361 1296.13 679.923 1298.57 676.874 1298.57H675.35C664.68 1298.27 654.316 1297.96 643.646 1297.35H643.341C612.552 1296.44 581.458 1295.52 550.365 1295.22C533.293 1294.91 518.051 1295.52 506.162 1303.14C501.895 1305.89 497.932 1309.85 495.493 1314.42C499.151 1316.25 503.419 1317.78 509.516 1319C511.65 1319.3 513.784 1319.91 516.222 1320.21C527.501 1322.04 538.781 1323.26 549.755 1324.79C554.632 1325.4 559.815 1326.01 564.692 1326.62C575.971 1328.14 585.117 1329.36 593.347 1330.88C595.786 1331.19 598.225 1331.8 600.968 1332.1L604.931 1332.71C622.612 1336.07 641.208 1339.42 658.888 1337.28C661.937 1336.98 664.68 1339.11 664.985 1342.16C665.29 1345.21 663.156 1347.95 660.108 1348.26C655.84 1349.17 651.572 1349.48 647.304 1349.48Z" fill="#701616"/>
<path d="M508.297 1396.42C506.772 1396.42 504.943 1396.12 503.419 1395.2C500.98 1393.68 499.761 1391.54 499.151 1390.32C497.017 1386.67 493.664 1380.27 495.493 1373.25C495.798 1372.64 495.798 1372.04 496.103 1371.43C497.932 1367.46 500.98 1365.02 503.724 1362.59C505.248 1361.37 507.077 1360.15 508.601 1358.93L510.43 1357.71C526.587 1345.82 543.658 1335.76 561.034 1327.23C563.778 1326.01 567.131 1327.23 568.35 1329.97C569.57 1332.71 568.35 1336.07 565.607 1337.28C548.84 1345.21 532.379 1355.27 516.832 1366.55L515.003 1367.77C513.479 1368.99 511.955 1370.21 510.126 1371.43C508.296 1372.95 506.467 1374.47 505.858 1376V1376.3C505.248 1378.44 506.772 1381.79 508.601 1384.84H508.906C509.516 1384.53 510.43 1384.53 510.735 1384.23H511.04C516.222 1382.4 520.795 1379.35 525.672 1376L526.587 1375.39C539.39 1366.85 552.803 1358.62 565.912 1351C576.276 1344.91 586.641 1339.42 596.396 1334.24C599.139 1332.71 602.493 1333.93 604.017 1336.68C605.541 1339.42 604.322 1342.77 601.578 1344.3C591.823 1349.17 581.763 1354.96 571.399 1360.76C558.291 1368.38 545.182 1376.3 532.684 1384.84L531.769 1385.45C526.587 1388.8 521.1 1392.46 514.698 1394.9L511.955 1395.81C511.345 1396.12 509.821 1396.42 508.297 1396.42Z" fill="#701616"/>
<path d="M479.032 1409.83C477.507 1409.83 476.288 1409.22 475.069 1408.31C473.849 1407.09 473.24 1405.26 473.544 1403.43C474.154 1399.47 476.288 1396.42 478.422 1393.07C483.909 1385.14 490.006 1377.52 496.408 1369.9C498.542 1367.46 501.895 1367.16 504.334 1369.29C506.772 1371.43 507.077 1374.78 504.943 1377.22C500.371 1382.7 495.798 1388.19 491.53 1393.98C492.14 1393.68 493.054 1393.37 493.664 1393.07C495.493 1392.15 497.627 1391.54 499.456 1390.63C501.59 1389.72 503.419 1389.11 505.248 1388.19C507.992 1386.97 511.345 1388.19 512.564 1391.24C513.784 1393.98 512.564 1397.34 509.516 1398.56C507.382 1399.47 505.553 1400.38 503.419 1400.99C501.59 1401.91 499.761 1402.52 497.627 1403.43C495.798 1404.35 493.664 1404.96 491.835 1405.87C488.482 1407.4 484.214 1409.22 479.641 1410.14C479.641 1409.83 479.336 1409.83 479.032 1409.83ZM675.045 1297.35C673.216 1297.35 671.692 1296.44 670.472 1294.91C668.643 1292.47 669.253 1288.82 671.692 1286.99C679.008 1281.5 686.629 1276.01 693.945 1270.53C704.31 1262.91 714.979 1255.29 725.344 1247.66C725.649 1247.36 725.954 1247.36 725.954 1247.06L726.259 1246.75H726.563C730.526 1244.01 731.441 1242.18 732.051 1241.26V1240.35C732.051 1240.04 731.441 1239.74 731.136 1239.43H730.831C730.222 1239.13 729.307 1238.82 728.392 1239.13C725.649 1239.43 722.6 1241.26 719.857 1243.09C711.016 1248.58 701.871 1254.07 693.031 1259.55C677.789 1269 661.937 1278.76 646.085 1288.82L642.732 1290.95C641.817 1291.56 641.208 1291.87 640.293 1292.47C639.379 1293.08 638.769 1293.39 637.854 1294C635.111 1295.52 631.758 1294.91 630.233 1292.17C628.709 1289.43 629.319 1286.07 632.062 1284.55C632.977 1283.94 633.587 1283.63 634.501 1283.03C635.416 1282.42 636.025 1282.11 636.94 1281.5L640.293 1279.37C656.145 1269.61 671.997 1259.86 687.239 1250.41C696.079 1244.92 705.224 1239.43 714.065 1233.95C717.723 1231.81 722.296 1229.07 727.478 1228.46C730.526 1228.16 733.575 1228.77 736.013 1230.29C739.672 1232.12 741.806 1234.86 743.025 1238.52C743.635 1240.96 743.635 1243.09 742.72 1245.53V1245.84C740.891 1250.71 736.623 1254.37 733.575 1256.81C733.27 1257.11 732.965 1257.11 732.965 1257.42L732.66 1257.72H732.355C721.991 1265.35 711.321 1272.97 700.957 1280.89C693.64 1286.38 686.019 1291.87 678.703 1297.35C677.484 1297.05 676.264 1297.35 675.045 1297.35Z" fill="#701616"/>
<path d="M739.367 1248.88C737.538 1248.88 736.013 1247.97 734.794 1246.45C732.965 1244.01 733.575 1240.35 736.013 1238.52C733.88 1239.13 731.136 1238.52 729.612 1236.69C727.783 1234.25 728.088 1230.59 730.831 1228.77C734.794 1225.72 739.062 1222.97 743.634 1220.54C748.512 1217.79 752.78 1217.79 756.438 1219.93C760.096 1222.36 761.62 1227.85 759.486 1232.42C758.267 1235.47 755.828 1237.3 753.694 1239.13C750.036 1242.18 746.073 1244.92 742.72 1247.36C741.501 1248.58 740.281 1248.88 739.367 1248.88ZM634.806 1273.88C632.977 1273.88 631.148 1272.97 629.928 1271.14C628.404 1268.39 629.014 1265.04 631.757 1263.52C632.977 1262.91 634.196 1261.99 635.72 1261.38C642.122 1257.72 649.133 1254.98 656.145 1252.54C666.509 1249.19 677.484 1247.36 688.458 1247.06C691.507 1247.06 694.25 1249.49 694.25 1252.54C694.25 1255.59 691.811 1258.33 688.763 1258.33C678.703 1258.64 668.948 1260.47 659.498 1263.52C653.096 1265.65 646.695 1268.39 640.903 1271.44C639.683 1272.05 638.464 1272.66 637.549 1273.27C636.94 1273.58 636.025 1273.88 634.806 1273.88ZM666.814 1396.42H665.595C649.743 1392.76 633.891 1387.89 618.649 1382.4C607.37 1378.44 596.396 1373.86 586.031 1368.99C582.068 1367.16 578.41 1365.33 574.447 1363.5C573.837 1363.2 572.923 1362.89 572.313 1362.28C571.704 1361.98 570.789 1361.67 570.179 1361.06C567.436 1359.54 566.216 1356.18 567.741 1353.44C569.265 1350.7 572.618 1349.48 575.362 1351C575.971 1351.31 576.886 1351.61 577.496 1352.22C578.105 1352.53 579.02 1352.83 579.629 1353.44C583.288 1355.27 587.251 1357.1 590.909 1358.93C600.968 1363.5 611.638 1368.07 622.612 1372.04C637.549 1377.52 652.792 1382.09 668.339 1385.75C671.387 1386.36 673.216 1389.41 672.606 1392.46C671.692 1394.59 669.253 1396.42 666.814 1396.42Z" fill="#701616"/>
<path d="M688.153 1419.89C676.874 1419.89 664.68 1416.85 653.096 1411.36C652.487 1411.05 651.572 1410.75 650.658 1410.14C643.951 1406.79 637.245 1402.52 630.233 1397.34C628.099 1395.81 625.965 1393.98 623.832 1392.46L614.686 1385.14L614.077 1384.84C613.467 1384.23 612.857 1383.92 612.248 1383.31C611.638 1382.7 611.028 1382.4 610.419 1381.79C607.98 1379.96 607.675 1376.3 609.809 1373.86C611.638 1371.43 615.296 1371.12 617.735 1373.25C618.344 1373.86 618.954 1374.17 619.564 1374.78C620.173 1375.39 620.783 1375.69 621.088 1376.3L621.698 1376.61C624.746 1379.05 627.49 1381.48 630.538 1383.92C632.672 1385.45 634.501 1386.97 636.635 1388.5C643.342 1393.37 649.438 1397.34 655.535 1400.38L657.364 1401.3C667.729 1406.18 678.398 1408.92 687.848 1408.92C691.507 1408.92 694.86 1408.61 698.213 1407.7C703.7 1406.48 708.883 1404.35 714.37 1402.21L714.979 1401.91C729.307 1396.12 742.11 1390.63 754.914 1384.84C755.828 1384.53 756.438 1384.23 757.352 1383.62C758.267 1383.31 758.877 1382.7 759.791 1382.4C772.595 1376.3 783.569 1369.9 793.324 1363.5C795.763 1361.67 799.421 1362.59 800.945 1365.02C802.774 1367.46 801.859 1371.12 799.421 1372.64C789.361 1379.35 777.777 1385.75 764.364 1392.15C763.449 1392.46 762.535 1393.07 761.925 1393.37C761.01 1393.68 760.401 1394.29 759.486 1394.59C746.378 1400.69 733.27 1406.18 718.942 1411.97L718.333 1412.27C712.541 1414.71 706.749 1416.85 700.347 1418.37C696.689 1419.59 692.421 1419.89 688.153 1419.89ZM785.093 1260.16H782.654C769.546 1258.33 756.438 1256.81 743.33 1255.9C741.806 1255.9 740.586 1255.59 739.062 1255.59C736.013 1255.29 733.575 1252.85 733.88 1249.8C734.184 1246.75 736.623 1244.31 739.672 1244.62C741.196 1244.62 742.72 1244.92 743.939 1244.92C757.352 1245.84 771.07 1247.06 784.179 1249.19C784.788 1249.19 785.398 1249.19 785.703 1249.49C788.751 1250.1 790.885 1252.85 790.275 1255.9C789.971 1258.03 787.532 1260.16 785.093 1260.16ZM808.871 1261.99C805.518 1261.99 802.164 1261.99 798.811 1261.69C795.763 1261.38 793.324 1258.94 793.629 1255.9C793.934 1252.85 796.372 1250.41 799.421 1250.71C829.905 1252.54 863.133 1245.84 903.677 1229.98C915.261 1225.41 926.845 1218.71 937.819 1212C959.463 1199.2 981.716 1186.09 1007.02 1187.31H1007.63C1009.76 1187.31 1011.59 1187.61 1017.69 1183.35C1020.13 1181.52 1023.78 1182.13 1025.61 1184.87C1027.44 1187.31 1026.83 1190.97 1024.09 1192.8C1015.55 1198.59 1011.29 1198.89 1007.02 1198.59H1006.41C984.46 1197.37 964.645 1209.26 943.611 1221.75C932.027 1228.46 920.138 1235.78 907.64 1240.65C869.839 1254.98 838.136 1261.99 808.871 1261.99ZM811.309 1368.38C808.261 1368.38 805.822 1366.24 805.822 1363.2C805.518 1360.15 807.956 1357.4 811.005 1357.4H814.663C834.478 1356.18 854.597 1354.05 875.021 1351C886.301 1349.17 897.58 1347.34 908.554 1345.21L911.907 1344.6C940.867 1339.42 970.132 1333.93 999.092 1328.75C1028.36 1323.57 1057.32 1318.08 1086.58 1312.9C1089.94 1312.29 1094.2 1311.07 1098.47 1309.55L1099.69 1309.24C1100.91 1308.94 1102.13 1308.33 1103.35 1308.02C1110.36 1305.28 1116.76 1302.23 1120.42 1299.49C1122.86 1297.66 1126.52 1298.27 1128.35 1300.71C1130.17 1303.14 1129.56 1306.8 1127.13 1308.63C1121.03 1312.9 1112.19 1316.86 1107.62 1318.39C1106.4 1318.99 1105.18 1319.3 1103.96 1319.6L1102.74 1320.21C1097.86 1321.74 1092.98 1323.26 1089.33 1323.87C1060.06 1329.05 1031.1 1334.54 1001.84 1339.72C972.876 1344.91 943.611 1350.39 914.651 1355.57L911.298 1356.18C900.323 1358.32 888.739 1360.15 877.46 1361.98C856.731 1365.02 836.307 1367.16 816.187 1368.38H811.309Z" fill="#701616"/>
<path d="M1007.02 1195.23C1006.1 1195.23 1005.49 1194.93 1004.58 1194.62C1001.84 1193.41 1000.62 1190.05 1001.84 1187.31C1008.85 1171.76 1022.87 1161.7 1037.2 1153.17C1046.34 1147.68 1055.49 1142.5 1064.33 1137.93C1067.07 1136.4 1070.43 1137.62 1071.95 1140.37C1073.47 1143.11 1072.25 1146.46 1069.51 1147.99C1060.98 1152.25 1052.13 1157.44 1042.99 1162.92C1030.49 1170.54 1017.99 1179.38 1012.2 1192.19C1011.29 1194.02 1009.15 1195.23 1007.02 1195.23Z" fill="#701616"/>
<path d="M1137.49 1328.14C1135.97 1328.14 1134.44 1327.53 1133.22 1326.31C1128.35 1320.52 1123.77 1313.81 1119.5 1305.89C1115.85 1299.49 1112.49 1292.47 1109.44 1286.07C1106.7 1280.59 1103.96 1274.79 1101.21 1269.61C1093.59 1254.98 1083.84 1241.26 1075.61 1229.98C1071.03 1223.89 1067.38 1218.71 1063.11 1214.13C1053.35 1203.77 1041.16 1195.84 1028.05 1191.27C1025 1190.36 1023.48 1187 1024.7 1184.26C1025.61 1181.21 1028.97 1179.69 1031.71 1180.91C1046.95 1186.09 1060.67 1194.93 1071.34 1206.51C1076.52 1212 1081.09 1218.4 1084.75 1223.28C1093.29 1235.17 1103.35 1249.19 1111.27 1264.43C1114.32 1269.92 1117.07 1275.71 1119.81 1281.5C1122.86 1287.9 1126.21 1294.61 1129.56 1301.01C1133.53 1308.33 1137.8 1314.42 1142.06 1319.6C1144.2 1322.04 1143.89 1325.4 1141.45 1327.53C1139.93 1327.83 1138.71 1328.14 1137.49 1328.14Z" fill="#701616"/>
<path d="M1142.67 1348.26C1139.32 1348.26 1136.27 1347.65 1133.22 1346.43C1128.95 1344.6 1125.6 1341.86 1122.55 1339.11C1116.76 1334.24 1111.27 1329.05 1105.48 1324.18C1105.18 1323.87 1104.87 1323.87 1104.87 1323.57L1104.26 1322.96L1099.08 1318.39C1096.64 1316.25 1096.34 1312.9 1098.47 1310.46C1100.6 1308.02 1103.96 1307.72 1106.4 1309.85L1111.58 1314.12C1111.88 1314.42 1112.19 1314.42 1112.49 1314.73L1113.1 1315.34C1118.9 1320.21 1124.69 1325.4 1130.48 1330.27C1133.22 1332.41 1135.66 1334.54 1138.1 1335.76C1141.76 1337.28 1146.03 1336.98 1150.29 1335.15C1154.26 1333.63 1157.91 1330.58 1161.88 1326.31C1164.32 1323.57 1166.45 1320.82 1168.89 1317.78C1171.33 1314.73 1174.07 1311.37 1176.82 1308.33C1180.17 1304.67 1184.13 1301.31 1187.79 1298.27C1195.41 1291.87 1202.73 1285.46 1205.78 1277.23C1206.99 1274.49 1210.04 1272.97 1213.09 1273.88C1215.83 1275.1 1217.36 1278.15 1216.44 1281.2C1212.48 1292.17 1203.64 1299.49 1195.41 1306.8C1191.75 1309.85 1188.4 1312.9 1185.35 1316.25C1182.91 1318.99 1180.47 1321.74 1178.03 1325.09C1175.6 1328.14 1173.16 1331.49 1170.41 1334.24C1165.23 1339.72 1160.35 1343.38 1154.87 1345.82C1150.29 1347.34 1146.33 1348.26 1142.67 1348.26ZM1219.49 1268.39C1216.75 1268.39 1214.31 1266.26 1214.01 1263.52C1213.7 1262.3 1213.7 1261.08 1213.4 1259.86V1259.55C1213.4 1258.94 1213.09 1258.03 1212.79 1257.11C1210.04 1247.66 1204.86 1238.82 1199.37 1229.98C1182 1201.33 1164.32 1171.76 1138.4 1150.42C1127.43 1141.28 1117.98 1136.71 1108.84 1136.1C1101.21 1135.49 1092.98 1137.32 1082.62 1141.58C1079.88 1142.8 1076.52 1141.58 1075.3 1138.54C1074.08 1135.79 1075.3 1132.44 1078.35 1131.22C1090.54 1126.04 1100.6 1123.9 1110.05 1124.82C1121.64 1125.73 1132.92 1131.22 1145.72 1141.58C1173.16 1164.14 1191.45 1194.62 1209.13 1223.89C1214.62 1233.34 1220.41 1242.79 1223.46 1253.76C1223.76 1254.98 1224.07 1256.2 1224.37 1257.11C1224.68 1258.64 1224.98 1260.16 1225.28 1261.99C1225.59 1265.04 1223.46 1267.78 1220.41 1268.39H1219.49Z" fill="#701616"/>
<path d="M1081.4 1140.06C1078.66 1140.06 1076.22 1138.23 1075.91 1135.49C1066.16 1078.18 1057.32 1026.36 1049.09 977.282C1045.12 954.115 1040.55 927.595 1034.45 902.599C1033.84 900.465 1033.54 898.636 1032.93 896.502C1026.83 871.811 1020.74 845.9 1029.27 821.514C1030.19 818.466 1033.54 816.942 1036.28 818.161C1039.33 819.075 1040.86 822.429 1039.64 825.172C1032.01 846.51 1038.11 870.592 1043.6 893.759C1044.21 895.892 1044.51 897.721 1045.12 899.855C1051.22 925.461 1055.79 951.981 1059.76 975.453C1068.29 1024.53 1077.13 1076.35 1086.58 1133.66C1087.19 1136.71 1085.06 1139.45 1082.01 1140.06H1081.4ZM1219.8 1257.11C1218.27 1257.11 1216.75 1256.5 1215.83 1255.29C1213.7 1253.15 1213.7 1249.49 1216.14 1247.36C1243.58 1221.45 1246.62 1176.33 1246.93 1173.29C1245.1 1120.55 1243.27 1068.12 1241.75 1015.39C1240.83 991.609 1240.22 966.917 1236.87 943.141C1232.91 912.048 1224.68 881.26 1217.05 851.387C1211.87 830.964 1206.38 810.54 1201.2 790.117C1196.02 769.693 1190.53 749.574 1185.35 729.151C1175.6 691.352 1163.4 644.104 1131.7 614.23C1102.74 587.101 1064.02 577.651 1023.17 567.896C994.215 560.885 964.035 553.569 937.514 539.547C936.294 538.938 935.075 538.328 933.856 537.413C931.112 535.889 930.198 532.536 931.722 529.793C933.246 527.049 936.599 526.135 939.343 527.659C940.562 528.269 941.782 528.878 942.696 529.488C967.998 542.9 997.263 550.216 1025.61 556.922C1066.16 566.677 1108.23 576.736 1139.32 606C1173.46 638.312 1185.96 687.084 1196.32 726.407C1201.51 746.831 1206.99 766.95 1212.18 787.373C1217.36 807.797 1222.85 828.22 1228.03 848.644C1235.95 878.822 1243.88 909.914 1248.15 941.922C1251.2 966.308 1252.11 991.304 1253.03 1015.39C1254.85 1068.12 1256.68 1120.55 1258.21 1173.29V1173.59C1258.21 1175.73 1255.77 1225.72 1224.07 1255.59C1222.54 1256.51 1221.32 1257.11 1219.8 1257.11ZM802.469 1470.19C800.03 1470.19 797.896 1468.67 796.982 1466.23C794.543 1457.69 792.409 1449.16 790.885 1440.93C788.446 1426.9 786.922 1412.27 786.922 1397.64V1389.72C786.922 1386.97 789.056 1384.53 791.799 1384.23L820.455 1380.57C821.979 1380.27 823.808 1380.88 824.722 1382.09C825.942 1383.31 826.551 1384.84 826.551 1386.36V1394.9C826.856 1410.14 828.99 1425.08 832.953 1439.71C833.868 1443.37 835.087 1447.33 836.306 1451.6C837.221 1454.64 835.697 1457.69 832.648 1458.61C829.6 1459.52 826.551 1458 825.637 1454.95C824.113 1450.38 822.893 1446.41 821.979 1442.45C818.016 1427.21 815.577 1411.05 815.272 1395.2V1392.76L797.591 1394.9V1397.64C797.591 1411.36 798.811 1425.38 801.249 1438.79C802.774 1446.72 804.603 1454.64 807.041 1462.87C807.956 1465.92 806.127 1468.97 803.383 1469.89C803.383 1470.19 803.079 1470.19 802.469 1470.19Z" fill="#701616"/>
<path d="M1015.86 1402.52C1013.72 1402.52 1011.59 1401.3 1010.68 1399.16C1009.46 1396.42 1010.68 1393.07 1013.42 1391.85C1017.69 1390.02 1021.96 1388.19 1026.83 1386.36C1039.03 1381.79 1051.83 1378.44 1064.63 1376.3C1065.55 1376 1066.77 1376 1067.68 1375.69C1075.91 1374.47 1083.84 1372.95 1089.63 1368.68C1095.42 1364.41 1099.39 1356.79 1100.91 1347.95C1102.43 1339.11 1101.21 1329.97 1100.3 1320.82C1099.99 1317.78 1102.13 1315.03 1105.18 1314.73C1108.23 1314.42 1110.97 1316.56 1111.27 1319.6C1112.19 1329.36 1113.41 1339.42 1111.88 1349.48C1110.05 1361.67 1104.26 1371.43 1096.03 1377.52C1088.11 1383.31 1078.66 1384.84 1069.51 1386.36C1068.6 1386.67 1067.38 1386.67 1066.46 1386.97C1054.27 1389.11 1042.38 1392.15 1030.8 1396.42C1026.22 1398.25 1021.96 1399.77 1017.99 1401.6C1017.38 1402.52 1016.47 1402.52 1015.86 1402.52ZM1082.62 1516.22C1079.88 1516.22 1077.74 1514.39 1077.13 1511.65C1076.83 1509.82 1076.52 1508.29 1075.91 1506.46C1071.34 1485.43 1064.02 1465.01 1054.27 1445.8C1053.66 1444.58 1053.05 1443.37 1052.44 1442.45C1050.92 1439.71 1052.13 1436.35 1054.88 1434.83C1057.62 1433.31 1060.98 1434.53 1062.5 1437.27L1064.33 1440.93C1074.39 1461.05 1082.01 1482.08 1086.89 1504.33C1087.19 1506.16 1087.8 1507.99 1088.11 1509.82C1088.72 1512.87 1086.58 1515.91 1083.84 1516.52C1083.53 1516.22 1083.23 1516.22 1082.62 1516.22ZM951.842 1516.22C949.403 1516.22 946.964 1514.7 946.354 1511.95L935.38 1470.8L932.941 1462.26C932.027 1459.22 933.856 1456.17 936.904 1455.56C939.953 1454.64 943.001 1456.47 943.611 1459.52L946.05 1468.06L957.024 1509.21C957.938 1512.26 956.109 1515.3 953.061 1515.91C952.756 1516.22 952.451 1516.22 951.842 1516.22ZM796.067 1445.5C767.412 1445.5 714.37 1434.83 686.934 1427.21C683.885 1426.29 682.361 1423.25 682.971 1420.2C683.885 1417.15 686.934 1415.63 689.982 1416.24C715.894 1423.55 768.632 1433.92 796.067 1434.22C799.116 1434.22 801.554 1436.66 801.554 1439.71C801.554 1443.06 799.116 1445.5 796.067 1445.5ZM792.104 1403.13C779.911 1403.13 767.717 1400.69 756.133 1396.12C753.389 1394.9 751.865 1391.85 753.085 1388.8C754.304 1386.06 757.352 1384.53 760.401 1385.75C770.461 1389.72 781.74 1391.85 792.714 1391.85H793.019C796.067 1391.85 798.506 1394.29 798.506 1397.34C798.506 1400.38 796.067 1402.82 793.019 1402.82H792.714C792.714 1403.13 792.409 1403.13 792.104 1403.13Z" fill="#701616"/>
<path d="M661.022 1422.94H660.108C657.364 1422.64 654.621 1422.03 651.877 1421.42C646.39 1420.2 641.817 1418.06 637.854 1415.32C628.709 1408.61 626.27 1398.86 628.099 1391.85C628.099 1391.24 628.404 1390.93 628.404 1390.63C629.319 1387.58 632.367 1386.06 635.416 1386.67C638.464 1387.58 639.988 1390.63 639.379 1393.68V1394.59C638.159 1398.86 641.208 1403.74 644.866 1406.18C647.609 1408.01 650.658 1409.53 654.925 1410.44C657.364 1411.05 659.498 1411.36 662.242 1411.97C665.29 1412.58 667.424 1415.32 666.814 1418.37C666.205 1420.81 663.766 1422.94 661.022 1422.94ZM574.142 1418.06H573.837C570.789 1417.76 568.35 1415.32 568.655 1412.27C568.96 1404.35 570.484 1396.42 572.313 1388.8C574.447 1380.88 577.496 1373.25 581.154 1365.94C582.678 1363.2 586.031 1361.98 588.775 1363.5C591.518 1365.02 592.738 1368.38 591.213 1371.12C587.86 1377.83 585.117 1384.84 583.288 1391.85C581.459 1398.86 580.239 1406.18 579.934 1413.19C579.629 1415.63 577.191 1418.06 574.142 1418.06ZM548.231 1413.49H547.926C544.877 1413.19 542.439 1410.75 542.744 1407.7C543.658 1394.29 546.402 1381.18 551.279 1368.99C552.499 1366.24 555.547 1364.72 558.595 1365.94C561.339 1367.16 562.863 1370.21 561.644 1373.25C557.376 1384.53 554.632 1396.42 554.023 1408.61C553.413 1411.36 550.974 1413.49 548.231 1413.49Z" fill="#701616"/>
<path d="M604.626 1406.48C603.102 1406.48 601.578 1406.18 599.749 1405.87C593.957 1404.65 584.507 1402.21 579.629 1394.59C578.105 1391.85 578.715 1388.5 581.458 1386.97C584.202 1385.45 587.555 1386.06 589.08 1388.8C591.213 1392.46 596.701 1393.98 602.188 1395.2C604.626 1395.81 605.236 1395.51 606.455 1395.2C609.199 1394.29 611.943 1393.68 617.125 1394.9C620.173 1395.51 622.002 1398.56 621.088 1401.6C620.478 1404.65 617.43 1406.48 614.381 1405.57C611.943 1404.96 611.333 1405.26 610.114 1405.57C608.589 1406.18 606.76 1406.48 604.626 1406.48ZM482.385 1506.77C479.641 1506.77 477.202 1504.94 476.898 1502.2C475.068 1491.53 476.593 1480.86 478.727 1470.19C482.69 1447.94 488.177 1425.38 494.578 1403.74L495.188 1401.3C496.103 1398.25 499.151 1396.73 502.2 1397.64C505.248 1398.56 506.772 1401.6 505.858 1404.65L505.248 1407.09C499.151 1428.43 493.664 1450.68 489.701 1472.63C487.872 1482.38 486.653 1491.83 487.872 1500.67C488.482 1503.72 486.348 1506.46 483.299 1507.07C482.994 1506.77 482.69 1506.77 482.385 1506.77ZM679.618 1511.04H679.008C675.959 1510.73 673.826 1507.99 674.13 1504.94C675.35 1494.27 675.96 1483.6 676.264 1472.63V1471.41C676.264 1460.74 676.569 1448.85 683.276 1439.4C685.105 1436.96 688.458 1436.35 691.202 1438.18C693.64 1440.01 694.25 1443.37 692.421 1446.11C687.543 1452.81 687.543 1462.26 687.543 1471.71V1472.93C687.239 1484.21 686.629 1495.49 685.41 1506.46C684.8 1508.9 682.361 1511.04 679.618 1511.04ZM514.393 1471.41C512.869 1471.41 511.345 1470.8 510.125 1469.58C507.991 1467.14 508.296 1463.79 510.43 1461.65C525.063 1448.55 537.866 1433.61 548.535 1417.45C550.365 1415.02 553.718 1414.1 556.156 1415.93C558.595 1417.76 559.51 1421.11 557.681 1423.55C546.402 1440.62 532.988 1456.47 517.746 1470.19C517.137 1471.1 515.917 1471.41 514.393 1471.41ZM388.493 1330.88C387.274 1330.88 386.055 1330.58 385.14 1329.66C382.396 1327.53 380.263 1326.01 378.129 1324.48C376.3 1322.96 374.471 1321.74 372.642 1320.52C365.935 1315.64 359.228 1310.76 353.132 1305.28C333.622 1287.6 302.223 1263.82 232.719 1237.3C215.953 1230.9 199.186 1225.11 182.725 1219.32L158.947 1211.09C150.412 1208.04 142.181 1204.99 133.645 1202.25L126.939 1199.81C97.674 1189.44 68.714 1179.69 41.2782 1170.54C38.2298 1169.63 35.1814 1168.41 32.4378 1167.49C29.6942 1166.58 28.17 1164.14 28.7797 1161.4C29.0845 1158.65 31.5233 1156.83 34.2669 1156.83C56.5203 1156.83 73.5915 1156.83 89.7481 1156.52C143.095 1156.22 191.261 1155.3 237.597 1153.78C260.765 1153.17 281.494 1152.25 302.528 1151.03C354.046 1147.68 393.066 1140.97 428.428 1130L434.22 1128.17C435.439 1127.56 439.402 1126.34 443.975 1124.51C454.644 1120.55 470.801 1114.76 484.823 1109.88C511.04 1101.04 514.698 1101.35 517.746 1104.7C522.319 1109.88 526.282 1114.15 529.635 1118.11C529.94 1118.42 530.245 1118.72 530.55 1119.33C544.877 1136.1 558.29 1154.08 570.179 1172.68C574.447 1179.38 579.629 1187 584.812 1194.93C591.213 1204.38 597.92 1214.44 603.102 1222.67C612.247 1237.61 622.307 1249.8 632.672 1262.6L635.111 1265.65C638.464 1269.61 642.427 1274.79 646.695 1280.28C648.524 1282.72 648.219 1286.38 645.78 1288.21C643.341 1290.04 639.683 1289.73 637.854 1287.29C633.586 1281.81 629.623 1276.93 626.27 1272.97L623.831 1269.92C612.857 1256.81 602.797 1244.31 593.042 1228.46C588.165 1220.23 581.458 1210.48 575.057 1201.03C569.57 1192.8 564.387 1185.18 560.12 1178.47C548.536 1160.18 535.427 1142.5 521.405 1126.34L521.1 1126.04L520.795 1125.73L520.49 1125.43C517.442 1121.77 514.088 1118.11 510.125 1113.85C500.37 1115.37 460.436 1130 446.718 1134.88C441.841 1136.71 438.183 1137.93 436.658 1138.54L430.866 1140.37C394.285 1151.95 354.656 1158.65 302.223 1162.01C281.189 1163.53 260.155 1164.14 236.987 1164.75C190.651 1166.28 142.181 1167.19 88.8336 1167.49H67.4946C87.9191 1174.51 108.648 1181.52 129.987 1189.14L136.694 1191.58C145.229 1194.62 153.765 1197.67 161.996 1200.72L185.773 1208.95C202.235 1214.74 219.306 1220.84 236.072 1227.24C307.405 1254.68 339.719 1279.06 360.143 1297.35C365.63 1302.53 371.727 1307.11 378.738 1311.98C380.568 1313.2 382.397 1314.73 384.226 1316.25C385.75 1317.47 387.579 1318.69 389.408 1320.21L411.661 1317.47L488.786 1307.41C491.835 1307.11 494.578 1309.24 495.188 1312.29C495.493 1315.34 493.359 1318.08 490.311 1318.69L413.186 1328.75L388.798 1331.8C389.103 1330.88 388.798 1330.88 388.493 1330.88ZM-27.6161 1037.33H-28.2258C-29.4451 1037.03 -30.9693 1036.72 -33.4081 1035.81C-35.542 1034.89 -37.371 1033.98 -38.2856 1033.68C-40.4195 1032.46 -42.8582 1031.24 -44.9921 1030.32C-50.7841 1027.27 -59.6245 1022.7 -63.2826 1014.17C-64.502 1011.12 -65.4165 1007.76 -65.4165 1003.8C-65.4165 993.133 -60.539 983.073 -52.6131 977.891C-49.2599 975.758 -45.6018 974.538 -41.6388 973.929H-39.8098C-33.1032 973.929 -27.0064 976.367 -23.0435 981.244C-19.0805 985.817 -17.2515 992.218 -17.8611 999.229C-18.166 1001.97 -18.7757 1005.02 -19.6902 1008.07C-20.6047 1010.51 -21.5192 1012.64 -22.4338 1014.78C-23.6531 1017.52 -27.0064 1019.04 -29.75 1017.82C-32.4936 1016.6 -34.0178 1013.25 -32.7984 1010.51C-31.8839 1008.68 -31.2742 1006.55 -30.3597 1004.72C-29.4451 1002.28 -29.1403 1000.14 -28.8355 998.315C-28.5306 994.352 -29.4451 990.694 -31.2742 988.56C-33.1033 986.427 -36.1517 985.207 -39.5049 985.207H-40.4195C-42.5534 985.512 -44.6872 986.122 -46.2115 987.341C-50.7841 990.389 -53.8325 997.096 -53.8325 1003.8C-53.8325 1006.24 -53.5277 1008.37 -52.6131 1009.9C-50.4793 1014.47 -45.2969 1017.52 -39.2001 1020.57C-37.0662 1021.79 -34.6275 1023.01 -32.4936 1024.23C-31.8839 1024.53 -30.3597 1025.44 -28.5306 1026.05C-26.7016 1026.66 -26.0919 1026.97 -26.0919 1026.97C-23.0435 1027.27 -20.9096 1030.02 -21.2144 1033.07C-22.4338 1035.2 -24.8725 1037.33 -27.6161 1037.33Z" fill="#701616"/>
<path d="M-14.2031 1091.29C-16.337 1091.29 -18.4708 1090.68 -20.9096 1089.76C-25.7871 1087.63 -30.3597 1083.36 -33.713 1080.01C-34.9323 1079.09 -35.8469 1077.88 -36.7614 1077.27C-42.5534 1072.39 -48.0405 1066.9 -50.1744 1059.28C-53.2228 1047.09 -45.297 1034.89 -35.542 1029.71C-33.713 1028.8 -31.8839 1027.88 -29.75 1026.97C-29.4452 1026.97 -29.1403 1026.66 -28.8355 1026.66C-24.2628 1025.14 -18.7757 1024.23 -12.0692 1023.62H-5.36264C7.44073 1023.62 20.2441 1024.53 32.7426 1026.36C44.3266 1028.19 51.0331 1032.76 52.8622 1040.08C54.3864 1045.87 51.9477 1052.27 47.0702 1056.54C43.1073 1059.89 38.5346 1061.72 34.2668 1062.94C26.0361 1065.68 17.1957 1067.82 8.6601 1069.04H7.74558C3.17295 1069.64 -1.39968 1070.25 -5.97232 1070.56C-9.02074 1070.86 -11.7643 1068.43 -11.7643 1065.38C-12.0692 1062.33 -9.63042 1059.59 -6.582 1059.59C-2.31421 1059.28 1.95358 1058.98 6.22137 1058.37H7.13589C15.3666 1057.15 23.2925 1055.32 30.9136 1052.57C34.2668 1051.66 37.6201 1050.44 39.754 1048.31C41.5831 1046.78 42.4976 1044.34 42.1927 1042.82C41.2782 1039.47 34.8765 1037.94 31.2184 1037.33C19.3296 1035.5 7.13589 1034.59 -5.05779 1034.59H-11.1546C-16.9466 1034.89 -21.5193 1035.81 -25.1774 1037.03H-25.4822C-27.0064 1037.64 -28.2258 1038.25 -29.75 1038.86C-35.542 1042.21 -40.7243 1049.22 -38.8953 1055.93C-37.6759 1060.5 -33.4081 1064.46 -29.1403 1068.43C-27.921 1069.34 -27.0064 1070.56 -25.7871 1071.47C-22.7386 1074.52 -19.0805 1077.88 -16.0321 1079.4C-14.8127 1080.01 -14.2031 1080.01 -13.8982 1080.01C-10.8498 1080.01 -8.41106 1082.75 -8.41106 1085.8C-8.7159 1088.85 -11.1546 1091.29 -14.2031 1091.29Z" fill="#701616"/>
<path d="M1.64892 1138.54C1.03924 1138.54 0.734396 1138.54 0.124712 1138.23C-2.92371 1137.62 -5.36245 1136.1 -7.80119 1134.27C-12.069 1130.61 -14.5077 1125.73 -16.6416 1120.86V1120.55C-21.5191 1109.58 -22.1288 1097.38 -18.1658 1088.24C-16.6416 1084.89 -14.8126 1081.84 -12.069 1079.4C-5.36245 1073 3.78282 1070.86 12.0136 1069.64H12.6232C13.5378 1069.64 14.4523 1069.34 15.3668 1069.34C34.5719 1066.9 54.6914 1064.77 75.1159 1063.24C80.2982 1062.94 85.1757 1062.63 90.358 1062.94C97.0645 1063.55 102.247 1065.99 104.99 1070.25C106.515 1072.69 107.429 1077.27 107.124 1083.97C107.124 1091.29 101.637 1098.6 92.187 1103.48C89.4434 1105.01 86.6999 1106.22 83.9563 1106.83C80.9079 1107.75 77.8594 1105.92 76.9449 1102.87C76.0304 1099.82 77.8594 1096.77 80.9079 1095.86C83.0418 1095.25 84.8708 1094.34 87.0047 1093.42C92.4919 1090.68 95.8451 1086.72 96.15 1083.67C96.15 1080.31 95.8451 1077.27 95.5403 1076.05C94.6257 1074.83 92.4919 1074.22 89.4434 1073.91C85.1756 1073.61 80.9079 1073.61 76.0304 1074.22C55.9108 1075.74 36.0961 1077.88 16.891 1080.31C15.9765 1080.31 15.062 1080.62 13.8426 1080.62H13.5378C6.83124 1081.53 0.124712 1083.06 -4.44792 1087.32C-5.97213 1088.85 -7.1915 1090.68 -8.10603 1092.51C-10.8496 1098.91 -10.5448 1107.75 -6.88667 1115.67V1115.98C-5.05761 1120.25 -3.22856 1123.6 -0.789824 1125.73C0.124702 1126.65 1.34408 1127.26 2.56345 1127.56C5.61187 1128.48 7.44092 1131.53 6.52639 1134.27C6.22155 1136.71 4.08766 1138.54 1.64892 1138.54Z" fill="#701616"/>
<path d="M35.4862 1173.29C30.3039 1173.29 24.5119 1171.46 19.0247 1168.1C8.0504 1161.4 -1.39971 1148.9 -2.31423 1139.45V1137.32C-2.92392 1123.9 3.78262 1111.41 15.0618 1105.01C24.5119 1099.52 35.4862 1099.21 44.3266 1098.91L86.09 1097.38H89.7481C93.1014 1097.69 95.8449 1098.91 97.9788 1101.35C101.332 1105.31 100.722 1112.93 100.113 1115.06C98.2837 1122.69 92.4917 1125.43 87.6142 1127.87C86.3948 1128.48 85.4803 1128.78 84.5658 1129.39C79.9931 1132.13 75.1157 1134.27 70.2382 1135.79C68.1043 1136.71 65.6656 1137.32 62.922 1137.93C55.9106 1139.76 48.5944 1140.67 41.2782 1140.67C38.2298 1140.67 35.791 1138.23 35.791 1135.18C35.791 1132.13 38.2298 1129.7 41.2782 1129.7C47.6799 1129.7 54.0816 1128.78 60.1784 1127.56L66.5801 1125.73C70.8479 1124.21 75.1157 1122.38 79.0786 1120.25L82.7367 1118.42C87.0045 1116.28 88.5287 1115.37 89.1384 1113.24V1109.58H86.09L44.6315 1110.19C36.7056 1110.49 27.5603 1110.8 20.5489 1114.76C13.2327 1119.03 8.66008 1127.87 8.96493 1137.01V1138.54C9.57461 1143.11 15.6715 1153.17 24.8167 1158.65C28.7797 1161.09 34.5717 1163.53 40.3637 1161.09C43.1072 1159.87 46.4605 1161.4 47.6799 1164.14C48.8992 1166.89 47.375 1170.24 44.6315 1171.46C41.583 1172.68 38.5346 1173.29 35.4862 1173.29Z" fill="#701616"/>
<path d="M44.6315 1154.69H43.4122C40.3637 1154.08 38.5347 1151.03 39.1444 1147.99C39.754 1145.85 39.7541 1143.41 39.4492 1141.28C39.1444 1138.23 41.2783 1135.49 44.3267 1135.18C47.3751 1134.88 50.1187 1137.01 50.4235 1140.06C50.7284 1143.41 50.7284 1146.77 49.8138 1150.42C49.509 1152.86 47.0703 1154.69 44.6315 1154.69ZM87.0046 1163.23C82.7368 1163.23 80.2981 1159.87 79.0787 1158.05C76.9448 1155.3 73.8964 1152.86 70.5431 1150.42C65.6656 1146.77 60.1785 1142.8 57.4349 1136.1C56.2155 1133.35 57.4349 1130 60.4833 1128.78C63.2269 1127.56 66.5802 1128.78 67.7995 1131.83C69.3237 1135.49 73.2867 1138.54 77.5545 1141.58C81.5174 1144.63 85.4804 1147.38 88.5288 1151.95C88.5288 1152.25 88.8336 1152.25 88.8336 1152.56C91.2724 1153.17 92.7966 1155.3 92.7966 1157.74C92.4918 1160.48 90.053 1162.92 87.0046 1163.23ZM210.77 1272.97C209.551 1272.97 208.637 1272.66 207.722 1272.05C177.238 1250.71 149.497 1225.72 124.805 1197.67L123.89 1196.76L123.586 1196.45C121.452 1194.02 121.757 1190.66 124.195 1188.53C126.634 1186.39 129.987 1186.7 132.121 1189.14L132.426 1189.44L132.731 1189.75L133.036 1190.05C155.594 1215.66 180.896 1238.82 208.332 1258.64C212.295 1251.63 219.001 1246.75 225.098 1242.18C228.146 1240.04 230.89 1237.91 233.634 1235.47H233.939L234.243 1235.17L234.548 1234.86C235.768 1233.64 236.987 1232.42 237.901 1231.2C240.035 1228.77 243.389 1228.46 245.827 1230.59C248.266 1232.73 248.571 1236.08 246.437 1238.52C244.913 1240.04 243.693 1241.57 242.169 1243.09L241.255 1244.01C238.206 1246.75 235.158 1248.88 232.109 1251.32C225.098 1256.81 218.392 1261.69 216.258 1269C215.648 1270.83 214.429 1272.05 212.904 1272.97H210.77ZM-41.334 984.902C-43.4678 984.902 -45.6017 983.683 -46.5163 981.549C-89.8038 903.513 -132.787 823.648 -174.245 744.697C-174.855 743.783 -175.16 742.868 -175.769 741.954C-176.379 741.039 -176.684 740.125 -177.294 739.21C-178.818 736.467 -177.598 733.114 -174.855 731.59C-172.111 730.065 -168.758 731.285 -167.234 734.028C-166.624 734.943 -166.319 735.857 -165.71 737.076C-165.1 737.991 -164.795 738.905 -164.185 739.82C-122.727 819.075 -79.744 898.941 -36.1516 976.977C-35.5419 977.891 -35.5419 978.806 -35.5419 979.72C-35.8468 982.159 -38.2855 984.902 -41.334 984.902ZM-171.502 728.236C-172.416 728.236 -173.635 727.932 -174.55 727.322C-177.294 725.798 -177.903 722.14 -176.379 719.701C-135.225 652.334 -84.9264 591.063 -26.7015 537.718C-24.5676 535.584 -20.9095 535.889 -18.7756 538.023C-16.6417 540.157 -16.9466 543.815 -19.0805 545.949C-76.3908 598.379 -126.08 659.04 -166.929 725.493C-167.843 727.322 -169.672 728.236 -171.502 728.236ZM302.833 1160.48C301.004 1160.48 299.175 1159.57 297.955 1157.74C296.431 1155 297.041 1151.64 299.784 1150.12C319.599 1137.62 335.756 1119.33 351.303 1101.96C353.132 1100.13 354.656 1097.99 356.485 1096.16C372.337 1078.48 389.103 1060.8 406.174 1044.04C407.699 1042.21 409.528 1040.69 411.661 1038.55C440.317 1010.51 471.106 983.683 502.809 958.382C502.809 958.382 503.114 958.382 503.114 958.077L508.601 954.115C507.687 953.505 506.772 952.895 506.162 952.286L500.675 948.323C470.801 926.985 433.305 900.465 397.029 874.249C331.793 827.001 281.799 790.117 240.34 758.11C134.865 676.72 54.0816 606 -14.5078 535.584C-16.6417 533.451 -16.6417 529.793 -14.5078 527.659C-12.3739 525.525 -8.71584 525.525 -6.58194 527.659C61.7027 597.77 142.181 668.185 247.047 749.27C288.505 781.277 338.195 818.161 403.431 865.105C439.707 891.32 476.898 917.84 506.772 939.178L512.259 943.141C515.308 945.275 518.356 947.408 521.1 949.542C522.624 950.457 523.539 952.286 523.539 954.115C523.539 955.944 522.624 957.468 521.1 958.687L509.211 966.918C477.812 991.609 447.633 1018.43 418.978 1046.17C416.844 1048.31 415.32 1049.83 413.491 1051.36C396.724 1067.82 379.958 1085.19 364.411 1102.87C362.582 1104.7 361.058 1106.53 359.229 1108.66C343.072 1126.95 326.306 1145.55 305.272 1158.96C304.662 1160.18 303.747 1160.48 302.833 1160.48Z" fill="#701616"/>
<path d="M377.519 1326.01C363.801 1326.01 350.693 1319.91 339.414 1314.12C301.614 1294.91 266.252 1271.14 233.939 1244.01C232.11 1242.48 230.585 1241.26 228.756 1239.74C226.318 1237.61 226.013 1234.25 228.147 1231.81C230.281 1229.38 233.634 1229.07 236.073 1231.2C237.597 1232.73 239.426 1233.95 240.95 1235.47C272.349 1262.3 307.101 1285.16 344.292 1304.06C355.876 1309.85 368.374 1315.64 380.873 1314.42C383.921 1314.12 386.665 1316.25 386.969 1319.3C387.274 1322.35 385.14 1325.09 382.092 1325.4C380.568 1326.01 379.044 1326.01 377.519 1326.01ZM506.163 1355.88H503.724C469.582 1350.09 444.889 1344.3 411.052 1331.19C408.308 1329.97 406.784 1326.92 408.004 1323.87C409.223 1321.13 412.271 1319.6 415.32 1320.82C448.243 1333.63 472.63 1339.11 505.858 1344.91H507.382C510.431 1345.52 512.26 1348.56 511.65 1351.61C511.345 1354.05 508.906 1355.88 506.163 1355.88Z" fill="#701616"/>
<path d="M511.04 1363.8C508.601 1363.8 506.467 1362.28 505.858 1360.15C504.943 1357.71 504.333 1355.27 503.724 1353.14C501.59 1344.3 500.98 1335.15 502.2 1326.01C502.504 1322.96 505.553 1320.82 508.601 1321.13C511.65 1321.43 513.784 1324.48 513.479 1327.53C512.564 1335.15 512.869 1343.08 514.698 1350.7C515.003 1352.53 515.613 1354.66 516.527 1356.49C517.442 1359.54 515.917 1362.59 513.174 1363.5C512.259 1363.8 511.65 1363.8 511.04 1363.8ZM425.684 1134.88C423.245 1134.88 421.111 1133.35 420.197 1130.92C419.587 1128.48 418.978 1126.34 418.368 1123.6C411.966 1097.38 409.223 1070.25 411.052 1043.43C411.357 1040.38 413.795 1037.94 416.844 1038.25C419.892 1038.55 422.331 1040.99 422.026 1044.04C420.502 1069.95 422.941 1095.86 429.037 1121.16C429.647 1123.6 430.257 1125.73 430.866 1127.87C431.781 1130.92 429.952 1133.96 426.903 1134.88H425.684ZM526.282 1128.48C523.538 1128.48 521.405 1126.65 520.795 1123.9C520.795 1123.6 520.795 1123.29 520.49 1122.99V1122.38L520.185 1120.86C519.88 1117.81 519.271 1114.76 518.966 1111.41C514.698 1081.23 511.345 1041.91 508.296 1007.46C506.772 991.609 505.553 976.367 504.333 963.869C504.029 960.821 506.162 958.078 509.211 957.773C512.259 957.468 515.003 959.602 515.308 962.65C516.527 975.453 518.051 990.389 519.271 1006.55C522.319 1040.99 525.977 1080.31 529.94 1110.19C530.245 1113.54 530.855 1116.59 531.16 1119.33L531.464 1120.55V1121.47C532.074 1124.51 530.245 1127.56 527.197 1128.17C527.197 1128.48 526.892 1128.48 526.282 1128.48ZM503.724 950.457C500.675 950.457 498.237 948.018 498.237 944.97V944.36C494.578 880.651 499.151 852.302 503.114 827.306C505.858 809.321 508.601 792.555 507.992 764.511C507.992 761.463 510.43 758.719 513.479 758.719C516.527 758.719 519.271 761.158 519.271 764.206C519.88 793.165 517.137 810.54 514.088 829.135C510.125 854.74 505.858 881.261 509.516 944.055V945.275C509.211 947.713 506.772 950.457 503.724 950.457ZM-16.3369 1029.71C-17.8611 1029.71 -19.3854 1029.1 -20.6047 1027.88C-24.2628 1023.92 -27.3113 1019.04 -29.75 1014.17C-30.9694 1011.42 -29.75 1008.07 -27.0064 1006.85C-24.2628 1005.63 -20.9096 1006.85 -19.6902 1009.59C-17.8611 1013.56 -15.4224 1017.52 -12.374 1020.87C-10.2401 1023.31 -10.5449 1026.66 -12.9837 1028.8C-13.8982 1029.1 -15.1176 1029.71 -16.3369 1029.71ZM12.3182 1077.57C10.794 1077.57 9.2698 1076.96 8.05043 1075.74C5.61169 1072.69 3.47781 1069.34 1.64875 1065.99C0.429384 1063.24 1.64874 1059.89 4.39232 1058.67C7.1359 1057.45 10.4892 1058.67 11.7085 1061.41C12.9279 1064.16 14.4521 1066.6 16.2812 1068.73C18.4151 1071.17 18.1102 1074.52 15.6715 1076.66C15.0618 1077.27 13.8424 1077.57 12.3182 1077.57ZM957.024 317.022C953.975 317.022 951.537 314.583 951.537 311.535C951.537 308.487 953.975 306.048 957.024 306.048C960.072 306.048 962.511 308.487 962.511 311.535C962.816 314.583 960.072 317.022 957.024 317.022ZM507.382 1398.56C504.333 1398.56 501.895 1396.12 501.895 1393.07C501.895 1390.63 503.724 1388.5 505.858 1387.58C506.467 1387.28 507.077 1387.28 507.687 1387.28C510.735 1387.28 513.174 1389.72 513.174 1392.76C513.174 1395.2 511.345 1397.34 509.211 1398.25C508.601 1398.56 507.992 1398.56 507.382 1398.56Z" fill="#701616"/>
</g>
<defs>
<clipPath id="clip0_141_625">
<rect width="1448" height="1515" fill="white" transform="translate(-184)"/>
</clipPath>
</defs>
</svg>
