<svg width="128" height="128" viewBox="0 0 128 128" fill="none" xmlns="http://www.w3.org/2000/svg">
<g clip-path="url(#clip0_113_394)">
<path fill-rule="evenodd" clip-rule="evenodd" d="M64.0622 0.0617734C99.4082 0.0617734 128.062 28.7173 128.062 64.0618C128.062 99.4063 99.4085 128.063 64.0622 128.063C28.716 128.063 0.0625 99.4073 0.0625 64.0615C0.0625 28.7158 28.7183 0.0615234 64.0625 0.0615234L64.0622 0.0617734ZM98.825 71.6838C98.898 70.9879 98.7767 70.2855 98.4745 69.6544C98.1724 69.0233 97.7013 68.4883 97.1135 68.1088C96.8017 67.906 96.5393 67.6358 96.3458 67.3181C96.1522 67.0004 96.0325 66.6434 95.9953 66.2732C95.9582 65.9031 96.0045 65.5294 96.131 65.1795C96.2575 64.8297 96.4609 64.5128 96.7262 64.252C97.2436 63.7452 97.6359 63.1249 97.8722 62.4403C98.1085 61.7557 98.1823 61.0255 98.0877 60.3075C97.9932 59.5894 97.7328 58.9032 97.3273 58.3032C96.9218 57.7031 96.3822 57.2056 95.7513 56.85C95.5977 56.7644 95.4541 56.6622 95.323 56.545C92.613 54.145 86.834 54.443 78.1452 57.4335C77.6916 57.5895 77.2026 57.6109 76.7371 57.495C76.2716 57.3791 75.8496 57.1309 75.5221 56.7804C75.1946 56.4299 74.9756 55.9921 74.8915 55.5198C74.8074 55.0475 74.8619 54.561 75.0482 54.119C77.1482 49.1385 76.7097 39.294 73.0127 34.5398C71.6695 32.8115 70.0997 32.076 68.2207 32.2935C68.407 34.9158 68.3805 38.0435 68.3583 40.8115C68.3483 41.8175 68.3405 42.7693 68.345 43.5865C68.3658 45.2125 67.9066 46.8084 67.025 48.1748L57.3035 63.5355C55.7961 66.0038 53.6116 67.9873 51.0098 69.2503V90.5455C51.724 90.8295 52.4628 91.1025 53.1883 91.3705C54.861 91.9905 56.5882 92.6315 58.0612 93.4113C58.5595 93.6881 59.1218 93.8293 59.6917 93.8208C69.8138 93.8905 80.0785 93.8318 90.2083 93.6458C90.695 93.3906 91.1163 93.0265 91.4392 92.5817C91.7621 92.137 91.978 91.6237 92.0699 91.0818C92.1619 90.54 92.1275 89.9842 91.9693 89.4578C91.8112 88.9315 91.5336 88.4487 91.1582 88.0473C90.8361 87.7019 90.619 87.2719 90.5324 86.8076C90.4458 86.3433 90.4933 85.8639 90.6693 85.4256C90.8453 84.9873 91.1425 84.6082 91.5261 84.3327C91.9098 84.0572 92.3639 83.8967 92.8355 83.87C93.4294 83.8365 94.0033 83.6433 94.4967 83.311C94.9901 82.9786 95.3846 82.5193 95.6389 81.9815C95.8931 81.4437 95.9976 80.8473 95.9413 80.2551C95.885 79.6628 95.67 79.0968 95.319 78.6165C95.0946 78.3092 94.9437 77.9545 94.878 77.5797C94.8124 77.2049 94.8337 76.82 94.9404 76.4547C95.047 76.0894 95.2361 75.7535 95.4932 75.4729C95.7502 75.1923 96.0682 74.9745 96.4228 74.8363C97.0754 74.5839 97.6454 74.1556 98.0693 73.5989C98.4933 73.0422 98.7546 72.3788 98.8242 71.6825L98.825 71.6838ZM46.0425 95.8678V63.9558H29.2817V95.8678H46.0425ZM103.012 59.6563C102.819 58.2199 102.305 56.8452 101.51 55.6334C100.715 54.4217 99.6576 53.4038 98.4167 52.6548C96.3917 50.9565 93.6768 50.0603 90.3418 49.9903C87.6585 49.936 84.5448 50.392 80.9088 51.377C81.3043 48.8129 81.3788 46.2095 81.1305 43.627C80.6768 38.6998 79.187 34.3903 76.933 31.4908C74.4463 28.2908 71.013 26.8408 67.2682 27.4065C66.0861 27.5896 65.0161 28.2109 64.2711 29.1469C63.5261 30.0828 63.1606 31.2649 63.2472 32.458C63.4357 34.915 63.4093 38.0243 63.386 40.7695C63.377 41.7945 63.3692 42.7608 63.3737 43.6093C63.3902 44.2866 63.199 44.9528 62.8257 45.5183L53.106 60.8798C52.531 61.8007 51.8248 62.6328 51.0098 63.35V61.471C51.0098 61.1448 50.9456 60.8219 50.8208 60.5205C50.696 60.2191 50.5131 59.9453 50.2824 59.7147C50.0518 59.4841 49.7779 59.3011 49.4765 59.1764C49.1752 59.0516 48.8522 58.9874 48.526 58.9875H26.797C26.4707 58.9873 26.1476 59.0514 25.8461 59.1761C25.5447 59.3008 25.2707 59.4837 25.0399 59.7143C24.8092 59.945 24.6261 60.2188 24.5013 60.5203C24.3764 60.8217 24.3122 61.1448 24.3123 61.471V98.3523C24.3122 98.6786 24.3764 99.0017 24.5013 99.3032C24.6261 99.6047 24.8091 99.8787 25.0399 100.109C25.2706 100.34 25.5446 100.523 25.8461 100.648C26.1475 100.773 26.4707 100.837 26.797 100.837H48.525C48.8512 100.837 49.1743 100.773 49.4757 100.648C49.7771 100.523 50.0509 100.34 50.2816 100.109C50.5122 99.8784 50.6951 99.6045 50.8199 99.303C50.9447 99.0016 51.0089 98.6785 51.0088 98.3523V95.8643L51.4622 96.0318C52.9212 96.5335 54.3479 97.1248 55.734 97.8023C56.9383 98.4545 58.2867 98.7947 59.6562 98.7918C62.4183 98.8104 65.1888 98.82 67.968 98.8205C75.583 98.8205 83.2345 98.7483 90.8085 98.6065C91.1037 98.601 91.3955 98.5427 91.6702 98.4345C93.7018 97.6367 95.3507 96.0912 96.2782 94.1155C97.2057 92.1398 97.3414 89.8839 96.6575 87.8113C98.3211 86.8892 99.6165 85.4225 100.326 83.6577C101.035 81.893 101.116 79.9377 100.553 78.1208C101.454 77.3915 102.202 76.4911 102.753 75.4714C103.305 74.4518 103.649 73.3331 103.766 72.1798C103.883 71.0266 103.77 69.8616 103.435 68.752C103.099 67.6425 102.547 66.6103 101.811 65.715C102.863 63.881 103.285 61.7529 103.012 59.6563Z" fill="#00BF8D"/>
</g>
<defs>
<clipPath id="clip0_113_394">
<rect width="128" height="128" fill="white"/>
</clipPath>
</defs>
</svg>
