<svg width="80" height="81" viewBox="0 0 80 81" fill="none" xmlns="http://www.w3.org/2000/svg">
<g clip-path="url(#clip0_20_2498)">
<path d="M75.0769 25.1152H40.6154C38.5762 25.1152 36.9231 26.7683 36.9231 28.8075V75.5768C36.9231 77.616 38.5762 79.2691 40.6154 79.2691H75.0769C77.1161 79.2691 78.7692 77.616 78.7692 75.5768V28.8075C78.7692 26.7683 77.1161 25.1152 75.0769 25.1152Z" stroke="#872D23" stroke-width="2"/>
<path d="M68.923 33.731H46.7692C45.4097 33.731 44.3076 34.833 44.3076 36.1925V44.8079C44.3076 46.1674 45.4097 47.2694 46.7692 47.2694H68.923C70.2825 47.2694 71.3845 46.1674 71.3845 44.8079V36.1925C71.3845 34.833 70.2825 33.731 68.923 33.731Z" stroke="#872D23" stroke-width="2"/>
<path d="M44.3076 63.269H49.2307" stroke="#872D23" stroke-width="2" stroke-linecap="round"/>
<path d="M54.1538 63.269H59.0769" stroke="#872D23" stroke-width="2" stroke-linecap="round"/>
<path d="M44.3076 55.8848H49.2307" stroke="#872D23" stroke-width="2" stroke-linecap="round"/>
<path d="M54.1538 55.8848H59.0769" stroke="#872D23" stroke-width="2" stroke-linecap="round"/>
<path d="M44.3076 70.6538H49.2307" stroke="#872D23" stroke-width="2" stroke-linecap="round"/>
<path d="M54.1538 70.6538H59.0769" stroke="#872D23" stroke-width="2" stroke-linecap="round"/>
<path d="M9.84619 17.731H28.3077" stroke="#872D23" stroke-width="2" stroke-linecap="round"/>
<path d="M9.84619 25.1152H28.3077" stroke="#872D23" stroke-width="2" stroke-linecap="round"/>
<path d="M9.84619 32.5H28.3077" stroke="#872D23" stroke-width="2" stroke-linecap="round"/>
<path d="M65.2307 58.3461C65.2307 56.6466 66.6083 55.269 68.3076 55.269C70.007 55.269 71.3846 56.6466 71.3846 58.346V68.1921C71.3846 69.8914 70.007 71.269 68.3076 71.269C66.6083 71.269 65.2307 69.8914 65.2307 68.1921V58.3461Z" stroke="#872D23" stroke-width="2"/>
<path fill-rule="evenodd" clip-rule="evenodd" d="M39.3846 2.96158H6.15385C4.11465 2.96158 2.46154 4.61467 2.46154 6.65388V68.1923C2.46154 70.2316 4.11463 71.8846 6.15385 71.8846H36.4415V74.3462H6.15385C2.75518 74.3462 0 71.5911 0 68.1923V6.65388C0 3.2552 2.75518 0.500036 6.15385 0.500036H40.6057C40.6119 0.499988 40.6182 0.499988 40.6245 0.500036H41.4716C41.814 0.500036 42.1409 0.642705 42.3739 0.893754L53.3424 12.7173L57.4857 16.8605C57.7609 17.1357 57.8852 17.5192 57.8354 17.8931C57.8426 17.9465 57.8462 18.0006 57.8462 18.0551V25.4783H55.3846V18.9615H44.3077C41.5888 18.9615 39.3846 16.7575 39.3846 14.0385V2.96158ZM51.5692 14.4252L41.8462 4.70214V14.0385C41.8462 15.398 42.9482 16.5 44.3077 16.5H53.494L51.5692 14.4252Z" fill="#872D23"/>
</g>
<defs>
<clipPath id="clip0_20_2498">
<rect width="80" height="80" fill="white" transform="translate(0 0.5)"/>
</clipPath>
</defs>
</svg>
