<svg width="80" height="81" viewBox="0 0 80 81" fill="none" xmlns="http://www.w3.org/2000/svg">
<g clip-path="url(#clip0_20_2547)">
<path fill-rule="evenodd" clip-rule="evenodd" d="M40.6155 0.500035H41.8365C41.8428 0.499988 41.8491 0.499988 41.8554 0.500035H42.7025C43.0449 0.500035 43.3718 0.640543 43.6048 0.887788L54.5733 12.5322L58.7165 16.6126C58.9916 16.8836 59.077 17.4697 59.0663 17.6296C59.0734 17.6822 59.077 17.7354 59.077 17.7891V18.6818H45.5386C42.8197 18.6818 40.6155 16.5112 40.6155 13.8333C40.6155 9.38897 40.6283 4.94441 40.6155 0.500035ZM52.8001 14.2142L43.077 4.63847V13.8333C43.077 15.1722 44.179 16.2576 45.5386 16.2576H54.7249L52.8001 14.2142Z" fill="#872D23"/>
<path d="M40.982 1.71191H6.15379C3.43485 1.71191 1.23071 3.88265 1.23071 6.5604V73.2271C1.23071 75.9048 3.43485 78.0755 6.15379 78.0755H52.923C55.6419 78.0755 57.8461 75.9048 57.8461 73.2271V66.5604M57.8461 17.4695V30.1968" stroke="#872D23" stroke-width="2"/>
<path d="M55.1937 31.8222C54.7701 31.9341 54.2685 31.938 53.8629 31.9272C53.4768 31.9169 53.0426 31.8866 52.6268 31.8575C52.5731 31.8537 52.5197 31.8501 52.4668 31.8465C51.4487 31.7762 50.7677 31.7499 50.1539 32.0989M55.1937 31.8222L77.8261 46.2728M55.1937 31.8222C55.6181 31.7102 56.0512 31.4677 56.3943 31.2594C56.7098 31.0679 57.0558 30.8374 57.3894 30.6151C57.4446 30.5783 57.4997 30.5417 57.5539 30.5056C58.3917 29.9488 58.9802 29.5908 59.6924 29.5908M55.1937 31.8222L59.6924 29.5908M50.1539 32.0989L49.5386 31.0491M50.1539 32.0989C49.543 32.4463 49.2211 33.0547 48.7699 33.9666L48.766 33.9745C48.5611 34.3886 48.3457 34.8237 48.1362 35.1985C47.9395 35.5502 47.6855 35.9662 47.38 36.2671C47.0698 36.5726 46.641 36.8206 46.2864 37.0094C45.958 37.1842 45.5794 37.3654 45.2144 37.5402C45.1571 37.5675 45.1004 37.5947 45.0442 37.6217C44.1362 38.0575 43.5328 38.377 43.1766 38.9848C42.8224 39.5889 42.8486 40.2728 42.9201 41.2768C42.9532 41.7398 42.9872 42.2215 42.9952 42.6479C43.0028 43.0475 42.9923 43.5254 42.8812 43.934C42.7685 44.3485 42.5246 44.7765 42.3127 45.1187C42.1004 45.4616 41.8429 45.8372 41.5971 46.1957C41.5794 46.2215 41.5618 46.2472 41.5443 46.2728C40.9789 47.0977 40.6155 47.6772 40.6155 48.3787C40.6155 49.0802 40.9789 49.6597 41.5443 50.4848C41.581 50.5382 41.6181 50.5923 41.6555 50.6467C41.8812 50.9753 42.1153 51.3162 42.3098 51.6268C42.5212 51.9648 42.7675 52.3913 42.8812 52.8092M42.8812 52.8092L41.6935 53.1227M42.8812 52.8092C42.9927 53.2189 43.0027 53.7054 42.9953 54.1091C42.9872 54.5423 42.9532 55.0303 42.9201 55.4948C42.8487 56.4975 42.8221 57.1682 43.1766 57.7726C43.5328 58.3804 44.1362 58.6999 45.0442 59.1357L45.0524 59.1397C45.473 59.3415 45.9146 59.5535 46.2949 59.7598C46.652 59.9535 47.0744 60.2037 47.38 60.5045M47.38 60.5045L46.5098 61.3616M47.38 60.5045C47.6855 60.8055 47.9395 61.2215 48.1362 61.5732C48.3457 61.9478 48.561 62.3827 48.7659 62.7968L48.7699 62.805C49.2124 63.6992 49.5368 64.2935 50.1539 64.6443C50.7677 64.9934 51.4487 64.9672 52.4668 64.8969C52.9384 64.8641 53.4339 64.8308 53.8738 64.8228C54.2838 64.8155 54.7777 64.8254 55.1937 64.9352C55.6181 65.0472 56.0513 65.2897 56.3943 65.498C56.7095 65.6894 57.0554 65.9198 57.3888 66.1418C57.4443 66.1788 57.4994 66.2155 57.5539 66.2518C58.3917 66.8086 58.9802 67.1666 59.6924 67.1666C60.4046 67.1666 60.9931 66.8086 61.8307 66.2518C61.8567 66.2345 61.883 66.2171 61.9094 66.1995C62.2732 65.9576 62.6545 65.7041 63.0026 65.4951C63.35 65.2863 63.7846 65.0462 64.2055 64.9352C64.6204 64.8257 65.1056 64.8154 65.5114 64.8228C65.9443 64.8308 66.4334 64.8643 66.9036 64.8969C67.923 64.9673 68.6174 64.9931 69.2309 64.6443C69.848 64.2935 70.1724 63.6992 70.6149 62.805C70.6423 62.7497 70.6699 62.6937 70.6977 62.6375C70.8752 62.278 71.0592 61.905 71.2366 61.5816C71.4283 61.2324 71.6801 60.8101 71.9904 60.5045C72.296 60.2037 72.7182 59.9535 73.0754 59.7598C73.4558 59.5535 73.8973 59.3416 74.3178 59.1398L74.3262 59.1357C75.2522 58.6912 75.8699 58.3743 76.2226 57.7726C76.5771 57.1682 76.5505 56.4975 76.4791 55.4948C76.4753 55.4427 76.4716 55.3901 76.4678 55.3372C76.4383 54.9278 76.4075 54.5002 76.397 54.1199C76.3859 53.7205 76.39 53.2266 76.5036 52.8094C76.6154 52.3983 76.8526 51.9765 77.0629 51.6348C77.2818 51.2789 77.5491 50.8888 77.8055 50.5148L77.8261 50.4848C78.4003 49.6468 78.7693 49.0747 78.7693 48.3787C78.7693 47.6827 78.4003 47.1107 77.8261 46.2728M77.8261 46.2728C77.5608 45.8857 77.2854 45.4811 77.0599 45.1107M77.8261 46.2728L77.0599 45.1107M59.6924 29.5908C60.4046 29.5908 60.9931 29.9488 61.8307 30.5055M59.6924 29.5908L61.8307 30.5055M64.2055 31.8222L64.5242 30.6514C64.9621 30.7669 65.749 30.7119 66.6289 30.6503C66.6913 30.646 66.7542 30.6416 66.8174 30.6372L66.863 30.6341C67.8067 30.5686 68.8714 30.4948 69.8462 31.0491C70.8133 31.5991 71.2794 32.5418 71.6912 33.3748C71.7013 33.3952 71.7112 33.4153 71.7212 33.4355C71.7496 33.4929 71.7778 33.55 71.8058 33.6066C72.1915 34.3877 72.5405 35.0947 72.8606 35.41C73.1806 35.7251 73.8983 36.0688 74.6911 36.4485C74.7489 36.4762 74.807 36.504 74.8654 36.5322L64.2055 31.8222ZM64.2055 31.8222C64.6283 31.9337 65.1211 31.9381 65.5226 31.9272C65.8945 31.917 66.3134 31.8877 66.719 31.8593C66.7809 31.8549 66.8426 31.8506 66.9036 31.8463C67.923 31.7759 68.6174 31.7501 69.2309 32.0989C69.8418 32.4463 70.1635 33.0547 70.6149 33.9666M64.2055 31.8222L70.6149 33.9666M64.2055 31.8222C63.7846 31.7111 63.35 31.4711 63.0026 31.2623M64.2055 31.8222L63.0026 31.2623M70.6149 33.9666C70.6422 34.0219 70.6698 34.0776 70.6974 34.1338C70.875 34.4935 71.0592 34.8665 71.2366 35.19C71.4283 35.5392 71.6801 35.9615 71.9904 36.2671C72.3006 36.5726 72.7294 36.8206 73.084 37.0094C73.4124 37.184 73.7909 37.3654 74.1559 37.54C74.213 37.5674 74.2699 37.5947 74.3262 37.6217M70.6149 33.9666L74.3262 37.6217M74.3262 37.6217C75.2522 38.0661 75.8699 38.3831 76.2226 38.9848C76.5768 39.5889 76.5506 40.2728 76.4791 41.2768C76.4748 41.337 76.4704 41.3978 76.4659 41.4589C76.4371 41.8582 76.4074 42.2707 76.397 42.6369C76.3859 43.0323 76.3902 43.5175 76.5036 43.9338M74.3262 37.6217L76.5036 43.9338M76.5036 43.9338C76.6145 44.3415 76.8493 44.7646 77.0599 45.1107M76.5036 43.9338L77.0599 45.1107M61.8307 30.5055C61.8565 30.5226 61.8826 30.5399 61.9085 30.5572M61.8307 30.5055L61.9085 30.5572M61.9085 30.5572C62.2727 30.7994 62.6542 31.0531 63.0026 31.2623M61.9085 30.5572L63.0026 31.2623" stroke="#872D23" stroke-width="2"/>
<path d="M53.9009 52.3668C53.4202 52.8402 53.4202 53.6077 53.9009 54.081C54.3815 54.5545 55.1607 54.5545 55.6415 54.081L53.9009 52.3668ZM65.481 44.3906C65.9616 43.9173 65.9616 43.1497 65.481 42.6764C65.0004 42.2031 64.221 42.2031 63.7404 42.6764L65.481 44.3906ZM56.3516 44.2257C56.3516 44.7031 55.9588 45.0901 55.474 45.0901V47.5143C57.3181 47.5143 58.8132 46.042 58.8132 44.2257H56.3516ZM55.474 45.0901C54.9893 45.0901 54.5963 44.7031 54.5963 44.2257H52.1348C52.1348 46.042 53.6298 47.5143 55.474 47.5143V45.0901ZM54.5963 44.2257C54.5963 43.7483 54.9893 43.3613 55.474 43.3613V40.937C53.6298 40.937 52.1348 42.4094 52.1348 44.2257H54.5963ZM55.474 43.3613C55.9588 43.3613 56.3516 43.7483 56.3516 44.2257H58.8132C58.8132 42.4094 57.3181 40.937 55.474 40.937V43.3613ZM64.7856 52.5318C64.7856 53.0091 64.3926 53.3962 63.9078 53.3962V55.8204C65.7521 55.8204 67.2471 54.348 67.2471 52.5318H64.7856ZM63.9078 53.3962C63.4231 53.3962 63.0301 53.0091 63.0301 52.5318H60.5686C60.5686 54.348 62.0636 55.8204 63.9078 55.8204V53.3962ZM63.0301 52.5318C63.0301 52.0543 63.4231 51.6673 63.9078 51.6673V49.2431C62.0636 49.2431 60.5686 50.7156 60.5686 52.5318H63.0301ZM63.9078 51.6673C64.3926 51.6673 64.7856 52.0543 64.7856 52.5318H67.2471C67.2471 50.7156 65.7521 49.2431 63.9078 49.2431V51.6673ZM55.6415 54.081L65.481 44.3906L63.7404 42.6764L53.9009 52.3668L55.6415 54.081Z" fill="#872D23"/>
<path d="M18.553 33.6224C18.553 34.2919 19.104 34.8345 19.7837 34.8345C20.4635 34.8345 21.0145 34.2919 21.0145 33.6224H18.553ZM21.0145 28.4709C21.0145 27.8015 20.4635 27.2588 19.7837 27.2588C19.104 27.2588 18.553 27.8015 18.553 28.4709H21.0145ZM21.0145 33.6224V31.0467H18.553V33.6224H21.0145ZM21.0145 31.0467V28.4709H18.553V31.0467H21.0145Z" fill="#872D23"/>
<path d="M19.7023 39.3796C25.14 39.4249 29.5854 35.1204 29.6315 29.7651C29.6775 24.4098 25.3067 20.0317 19.869 19.9864C14.4313 19.941 9.98588 24.2456 9.93986 29.6009C9.89384 34.9562 14.2646 39.3343 19.7023 39.3796Z" stroke="#872D23" stroke-width="2"/>
<path d="M19.7837 26.0463C20.4635 26.0463 21.0145 25.5036 21.0145 24.8342C21.0145 24.1648 20.4635 23.6221 19.7837 23.6221C19.104 23.6221 18.553 24.1648 18.553 24.8342C18.553 25.5036 19.104 26.0463 19.7837 26.0463Z" fill="#872D23"/>
</g>
<defs>
<clipPath id="clip0_20_2547">
<rect width="80" height="80" fill="white" transform="translate(0 0.5)"/>
</clipPath>
</defs>
</svg>
