<svg width="80" height="81" viewBox="0 0 80 81" fill="none" xmlns="http://www.w3.org/2000/svg">
<g clip-path="url(#clip0_20_2557)">
<path d="M36.9231 63.269V79.269" stroke="#872D23" stroke-width="2" stroke-linecap="round"/>
<path d="M50.4614 79.269H23.3845" stroke="#872D23" stroke-width="2" stroke-linecap="round"/>
<path d="M45.5386 14.0386H75.077C76.4365 14.0386 77.5386 15.1406 77.5386 16.5001V54.654C77.5386 56.0135 76.4365 57.1155 75.077 57.1155H45.5386V14.0386Z" stroke="#872D23" stroke-width="2"/>
<path d="M68.3077 41.1152C70.0071 41.1152 71.3847 42.4928 71.3847 44.1922C71.3847 45.8915 70.0071 47.2691 68.3077 47.2691H60.9231C59.2237 47.2691 57.8462 45.8915 57.8462 44.1922C57.8462 42.4928 59.2237 41.1152 60.9231 41.1152H68.3077Z" stroke="#872D23" stroke-width="2"/>
<path d="M77.5386 26.3462H45.5386" stroke="#872D23" stroke-width="2" stroke-linecap="round"/>
<path d="M52.9232 14.7858V5.42326C52.9232 3.38406 51.2701 1.73096 49.2309 1.73096C47.1916 1.73096 45.5386 3.38406 45.5386 5.42326V64.5002C45.5386 66.5395 47.1916 68.1925 49.2309 68.1925C51.2701 68.1925 52.9232 66.5395 52.9232 64.5002V56.3243" stroke="#872D23" stroke-width="2"/>
<path d="M2.46143 12.8075C2.46143 10.7683 4.11453 9.11523 6.15373 9.11523H45.5384V62.0383H6.15373C4.11453 62.0383 2.46143 60.3853 2.46143 58.346V12.8075Z" stroke="#872D23" stroke-width="2"/>
</g>
<defs>
<clipPath id="clip0_20_2557">
<rect width="80" height="80" fill="white" transform="translate(0 0.5)"/>
</clipPath>
</defs>
</svg>
