<svg width="80" height="81" viewBox="0 0 80 81" fill="none" xmlns="http://www.w3.org/2000/svg">
<g clip-path="url(#clip0_20_2617)">
<path fill-rule="evenodd" clip-rule="evenodd" d="M39.4031 0.500036H40.5877C40.5938 0.499988 40.5999 0.499988 40.6059 0.500036H41.4278C41.76 0.500036 42.0771 0.642705 42.3031 0.893754L52.9442 12.7173L56.9638 16.8605C57.2307 17.1357 57.3135 17.7308 57.3031 17.8931C57.3101 17.9465 57.3135 18.0006 57.3135 18.0551V18.9615H44.1792C41.5415 18.9615 39.4031 16.7575 39.4031 14.0385C39.4031 9.52572 39.4155 5.01279 39.4031 0.500036ZM51.224 14.4252L41.7911 4.70214V14.0385C41.7911 15.398 42.8603 16.5 44.1792 16.5H53.0913L51.224 14.4252Z" fill="#872D23"/>
<path d="M39.7588 1.73096H5.97021C3.33243 1.73096 1.19409 3.93509 1.19409 6.65403V74.3463C1.19409 77.0652 3.33243 79.2694 5.97021 79.2694H51.3433C53.9811 79.2694 56.1195 77.0652 56.1195 74.3463V52.1925M56.1195 17.731V42.3463" stroke="#872D23" stroke-width="2"/>
<path d="M34.627 71.8848H42.9852" stroke="#872D23" stroke-width="2" stroke-linecap="round"/>
<path d="M65.5364 31.0742L72.8539 37.4032" stroke="#872D23" stroke-width="2" stroke-linecap="round"/>
<path d="M68.2883 43.0089L72.8519 37.4028" stroke="#872D23" stroke-width="2" stroke-linecap="round"/>
<path d="M42.2668 64.4452L43.8019 62.5596" stroke="#872D23" stroke-width="2" stroke-linecap="round"/>
<path d="M71.0642 24.2832C72.1239 22.9815 74.0067 22.8117 75.2697 23.904C76.5326 24.9963 76.6972 26.9371 75.6375 28.2389L48.1525 62.0022C47.0928 63.3039 45.21 63.4737 43.947 62.3814C42.6841 61.2891 42.5193 59.3483 43.579 58.0465L71.0642 24.2832Z" stroke="#872D23" stroke-width="2"/>
<path d="M15.5225 26.3462H42.9851" stroke="#872D23" stroke-width="2" stroke-linecap="round"/>
<path d="M15.5225 33.731H42.9851" stroke="#872D23" stroke-width="2" stroke-linecap="round"/>
</g>
<defs>
<clipPath id="clip0_20_2617">
<rect width="80" height="80" fill="white" transform="translate(0 0.5)"/>
</clipPath>
</defs>
</svg>
