<svg width="128" height="128" viewBox="0 0 128 128" fill="none" xmlns="http://www.w3.org/2000/svg">
<path d="M26.8998 65.08C30.7698 86.18 48.1598 102.08 69.0298 102.08C92.7498 102.08 110.63 81.5 111.98 56.2C112.98 37.36 102.53 18.7 79.4098 8.31997C69.261 3.80122 57.9352 2.63816 47.0798 4.99997C69.3098 -1.02003 88.6098 5.01997 101.68 15.66C109.88 22.12 117.8 30.99 121 40.06C123.251 46.4485 124.522 53.141 124.77 59.91C124.77 94.31 97.8998 122.21 63.5098 122.21C48.7519 122.216 34.4716 116.98 23.2151 107.436C11.9586 97.8918 4.45771 84.6601 2.0498 70.1C2.6198 54.28 21.8798 51.87 26.8798 65.08H26.8998Z" fill="#C0B9BB"/>
</svg>
