<svg width="179" height="64" viewBox="0 0 179 64" fill="none" xmlns="http://www.w3.org/2000/svg">
<path d="M157.963 25.6909H136.446C136.541 25.7817 138.931 30.718 149.834 35.4726L156.717 38.4908C161.021 40.4122 164.942 41.7817 164.942 45.9878C164.942 51.4726 159.491 52.8454 155.859 52.8454C149.834 52.8454 144.576 49.8271 140.082 43.9756L130.998 50.3756V50.4665C136.161 58.9695 144.864 63.9966 155.767 63.9966C169.823 63.9966 178.526 56.0421 178.526 45.6177C178.526 38.1207 174.416 33.457 165.713 29.3417L157.963 25.6909ZM164.942 19.6576C170.773 19.6576 175.271 15.3607 175.271 9.87592C175.271 4.30032 170.777 0 164.942 0C159.205 0 154.711 4.29695 154.711 9.87592C154.711 15.3607 159.205 19.6576 164.942 19.6576ZM25.3213 15.5794C11.047 15.5794 0 26.1417 0 39.7897C0 53.4376 11.1456 64 26.4932 64C33.9224 64 40.3768 61.4763 45.8493 57.0818L40.3768 48.4812C36.4633 51.3783 32.1663 53.155 26.8838 53.155C19.8453 53.155 14.8584 49.8843 13.2959 43.9958H47.2218C47.6124 42.4076 48.1016 39.6955 48.1016 37.0776C48.1016 25.1121 38.9092 15.5794 25.3213 15.5794ZM13.2959 35.1159C14.7634 29.3216 19.261 25.7682 24.8321 25.7682C30.4031 25.7682 35.1964 29.2273 35.2914 35.1159H13.2959ZM91.4627 0C72.4797 0 57.2095 13.8465 57.2095 32C57.2095 50.1535 72.4762 64 91.4627 64C110.449 64 125.909 50.1535 125.909 32C125.909 13.8465 110.446 0 91.4627 0ZM91.5613 52.3037C79.5253 52.3037 70.8151 43.9756 70.8151 32C70.8151 20.1152 79.5253 11.6963 91.5613 11.6963C103.404 11.6963 112.307 20.1186 112.307 32C112.307 43.9756 103.4 52.3037 91.5613 52.3037Z" fill="#EA0029"/>
</svg>
