<svg width="400" height="400" viewBox="0 0 400 400" fill="none" xmlns="http://www.w3.org/2000/svg">
<rect x="0.000976562" y="0.000488281" width="399.999" height="399.999" rx="32" fill="#FAF5F7"/>
<path d="M126.486 47.311H137.797V36.0007C131.55 36.0008 126.486 41.0645 126.486 47.311Z" fill="#32171F"/>
<path d="M149.106 36.0007H137.796V47.311H149.106V36.0007Z" fill="#32171F"/>
<path d="M149.104 36.0005V47.3108H160.414C160.414 41.0642 155.35 36.0005 149.104 36.0005Z" fill="#32171F"/>
<path d="M183.034 47.3108H194.345V36.0005C188.098 36.0005 183.034 41.0642 183.034 47.3108Z" fill="#32171F"/>
<path d="M205.655 36.0007H194.345V47.311H205.655V36.0007Z" fill="#32171F"/>
<path d="M205.658 36.0007V47.311H216.969C216.969 41.0644 211.905 36.0007 205.658 36.0007Z" fill="#32171F"/>
<path d="M250.897 41.6559C250.897 42.9739 250.897 47.311 250.897 47.311C250.897 47.311 247.047 47.311 245.242 47.3108C243.832 47.311 239.587 47.3108 239.587 47.3108C239.587 47.3108 239.587 43.3693 239.587 41.6558C239.587 38.5327 242.119 36.0007 245.242 36.0007C248.365 36.0007 250.897 38.5327 250.897 41.6559Z" fill="#32171F"/>
<path d="M137.796 47.311H126.485V58.6213H137.796V47.311Z" fill="#32171F"/>
<path d="M149.106 47.311H137.796V58.6213H149.106V47.311Z" fill="#32171F"/>
<path d="M160.415 47.311H149.104V58.6213H160.415V47.311Z" fill="#32171F"/>
<path d="M171.726 47.3113H160.416V58.6216H171.726V47.3113Z" fill="#32171F"/>
<path d="M183.037 47.3108H171.727V58.6211H183.037V47.3108Z" fill="#32171F"/>
<path d="M194.348 47.311H183.037V58.6213H194.348V47.311Z" fill="#32171F"/>
<path d="M205.655 47.311H194.345V58.6213H205.655V47.311Z" fill="#32171F"/>
<path d="M216.969 47.3108H205.658V58.6211C211.905 58.6211 216.969 53.5573 216.969 47.3108Z" fill="#32171F"/>
<path d="M233.934 47.3108C235.252 47.3108 239.589 47.3108 239.589 47.3108C239.589 47.3108 239.589 51.1604 239.589 52.9659C239.589 54.3753 239.589 58.6211 239.589 58.6211C239.589 58.6211 235.648 58.6211 233.934 58.6211C230.809 58.6211 228.278 56.0881 228.278 52.9659C228.278 49.8435 230.809 47.3108 233.934 47.3108Z" fill="#32171F"/>
<path d="M250.897 47.311H239.587V58.6213H250.897V47.311Z" fill="#32171F"/>
<path d="M262.21 47.3113H250.899V58.6216H262.21V47.3113Z" fill="#32171F"/>
<path d="M262.21 47.3108V58.6211H273.52C273.52 52.3745 268.457 47.3108 262.21 47.3108Z" fill="#32171F"/>
<path d="M137.797 69.9319V58.6216H126.486C126.486 64.8681 131.55 69.9319 137.797 69.9319Z" fill="#32171F"/>
<path d="M149.106 58.6216H137.796V69.9319H149.106V58.6216Z" fill="#32171F"/>
<path d="M160.415 58.6213H149.104V69.9317H160.415V58.6213Z" fill="#32171F"/>
<path d="M171.726 58.6216H160.416V69.9319H171.726V58.6216Z" fill="#32171F"/>
<path d="M194.345 69.9317V58.6213H183.034C183.034 64.8678 188.098 69.9317 194.345 69.9317Z" fill="#32171F"/>
<path d="M205.655 58.6213H194.345V69.9317H205.655V58.6213Z" fill="#32171F"/>
<path d="M273.519 58.6213H262.209V69.9317H273.519V58.6213Z" fill="#32171F"/>
<path d="M149.106 69.9319H137.796V81.2422H149.106V69.9319Z" fill="#32171F"/>
<path d="M160.415 69.9316H149.104V81.242H160.415V69.9316Z" fill="#32171F"/>
<path d="M171.726 69.9321H160.416V81.2424H171.726V69.9321Z" fill="#32171F"/>
<path d="M171.726 69.9316V81.242H183.036C183.036 74.9953 177.972 69.9316 171.726 69.9316Z" fill="#32171F"/>
<path d="M205.655 81.2424V69.9321H194.345C194.345 76.1786 199.408 81.2424 205.655 81.2424Z" fill="#32171F"/>
<path d="M205.658 69.9316V81.242H216.969C216.969 74.9953 211.905 69.9316 205.658 69.9316Z" fill="#32171F"/>
<path d="M239.589 75.5866C239.589 76.9046 239.589 81.2417 239.589 81.2417C239.589 81.2417 235.739 81.2417 233.934 81.2414C232.524 81.2417 228.278 81.2414 228.278 81.2414C228.278 81.2414 228.278 77.3 228.278 75.5864C228.278 72.4633 230.81 69.9314 233.933 69.9314C237.057 69.9314 239.589 72.4633 239.589 75.5866Z" fill="#32171F"/>
<path d="M250.899 81.2429H262.21V69.9326C255.963 69.9326 250.899 74.9963 250.899 81.2429Z" fill="#32171F"/>
<path d="M273.52 69.9316H262.21V81.242C268.457 81.242 273.52 76.1781 273.52 69.9316Z" fill="#32171F"/>
<path d="M132.141 81.2419C133.459 81.2419 137.796 81.2419 137.796 81.2419C137.796 81.2419 137.796 85.0916 137.796 86.8971C137.796 88.3065 137.796 92.5523 137.796 92.5523C137.796 92.5523 133.855 92.5523 132.141 92.5523C129.016 92.5523 126.485 90.0192 126.485 86.8971C126.485 83.7746 129.016 81.2419 132.141 81.2419Z" fill="#32171F"/>
<path d="M149.106 81.2422H137.796V92.5525H149.106V81.2422Z" fill="#32171F"/>
<path d="M160.414 81.2412H149.104V92.5515C155.35 92.5515 160.414 87.4877 160.414 81.2412Z" fill="#32171F"/>
<path d="M183.036 92.5523V81.2419H171.726C171.726 87.4884 176.789 92.5523 183.036 92.5523Z" fill="#32171F"/>
<path d="M183.034 81.2417V92.552H194.345C194.345 86.3054 189.281 81.2417 183.034 81.2417Z" fill="#32171F"/>
<path d="M205.658 86.8973C205.658 85.5792 205.658 81.2422 205.658 81.2422C205.658 81.2422 209.508 81.2422 211.313 81.2422C212.723 81.2422 216.969 81.2422 216.969 81.2422C216.969 81.2422 216.969 85.1841 216.969 86.8973C216.969 90.0204 214.437 92.5525 211.313 92.5525C208.19 92.5525 205.658 90.0204 205.658 86.8973Z" fill="#32171F"/>
<path d="M239.589 81.2415H228.278V92.5518H239.589V81.2415Z" fill="#32171F"/>
<path d="M250.897 81.2419H239.587V92.5523H250.897V81.2419Z" fill="#32171F"/>
<path d="M262.21 81.2422H250.899V92.5525C257.146 92.5525 262.21 87.4887 262.21 81.2422Z" fill="#32171F"/>
<path d="M137.796 98.2072C137.796 96.889 137.796 92.552 137.796 92.552C137.796 92.552 141.646 92.552 143.451 92.552C144.861 92.552 149.106 92.552 149.106 92.552C149.106 92.552 149.106 96.4939 149.106 98.2072C149.106 101.33 146.574 103.862 143.451 103.862C140.328 103.862 137.796 101.33 137.796 98.2072Z" fill="#32171F"/>
<path d="M194.345 103.863V92.5527H183.034C183.034 98.7992 188.098 103.863 194.345 103.863Z" fill="#32171F"/>
<path d="M194.345 92.5518V103.862H205.655C205.655 97.6155 200.591 92.5518 194.345 92.5518Z" fill="#32171F"/>
<path d="M228.278 98.2069C228.278 96.8888 228.278 92.5518 228.278 92.5518C228.278 92.5518 232.128 92.5518 233.934 92.5518C235.343 92.5518 239.589 92.5518 239.589 92.5518C239.589 92.5518 239.589 96.4937 239.589 98.2069C239.589 101.33 237.057 103.862 233.934 103.862C230.81 103.862 228.278 101.33 228.278 98.2069Z" fill="#32171F"/>
<path d="M273.519 98.2072C273.519 99.5252 273.519 103.862 273.519 103.862C273.519 103.862 269.669 103.862 267.864 103.862C266.454 103.862 262.209 103.862 262.209 103.862C262.209 103.862 262.209 99.9206 262.209 98.207C262.209 95.084 264.741 92.552 267.864 92.552C270.987 92.552 273.519 95.0839 273.519 98.2072Z" fill="#32171F"/>
<path d="M132.141 103.862C135.264 103.862 137.796 106.394 137.796 109.517C137.796 112.641 135.264 115.173 132.141 115.173C129.017 115.173 126.485 112.641 126.485 109.517C126.485 106.394 129.017 103.862 132.141 103.862Z" fill="#32171F"/>
<path d="M154.76 103.862C157.883 103.862 160.415 106.394 160.415 109.517C160.415 112.641 157.883 115.172 154.76 115.172C151.636 115.172 149.104 112.641 149.104 109.517C149.104 106.394 151.636 103.862 154.76 103.862Z" fill="#32171F"/>
<path d="M183.037 109.517C183.037 110.835 183.037 115.172 183.037 115.172C183.037 115.172 179.187 115.172 177.382 115.172C175.972 115.172 171.727 115.172 171.727 115.172C171.727 115.172 171.727 111.231 171.727 109.517C171.727 106.394 174.258 103.862 177.382 103.862C180.505 103.862 183.037 106.394 183.037 109.517Z" fill="#32171F"/>
<path d="M205.655 103.862H194.345V115.173H205.655V103.862Z" fill="#32171F"/>
<path d="M222.621 103.862C225.744 103.862 228.276 106.393 228.276 109.517C228.276 112.64 225.744 115.172 222.621 115.172C219.498 115.172 216.966 112.64 216.966 109.517C216.966 106.393 219.498 103.862 222.621 103.862Z" fill="#32171F"/>
<path d="M245.242 103.862C248.366 103.862 250.897 106.394 250.897 109.517C250.897 112.641 248.366 115.172 245.242 115.172C242.119 115.172 239.587 112.641 239.587 109.517C239.587 106.394 242.119 103.862 245.242 103.862Z" fill="#32171F"/>
<path d="M262.209 109.517C262.209 108.199 262.209 103.862 262.209 103.862C262.209 103.862 266.059 103.862 267.864 103.862C269.274 103.862 273.519 103.862 273.519 103.862C273.519 103.862 273.519 107.804 273.519 109.517C273.519 112.641 270.987 115.173 267.864 115.173C264.741 115.173 262.209 112.641 262.209 109.517Z" fill="#32171F"/>
<path d="M149.106 120.828C149.106 122.146 149.106 126.483 149.106 126.483C149.106 126.483 145.256 126.483 143.451 126.483C142.041 126.483 137.796 126.483 137.796 126.483C137.796 126.483 137.796 122.541 137.796 120.828C137.796 117.705 140.328 115.173 143.451 115.173C146.574 115.173 149.106 117.705 149.106 120.828Z" fill="#32171F"/>
<path d="M183.037 115.172H171.727V126.482H183.037V115.172Z" fill="#32171F"/>
<path d="M205.655 115.173H194.345V126.483H205.655V115.173Z" fill="#32171F"/>
<path d="M47.3114 132.139C47.3114 133.457 47.3114 137.794 47.3114 137.794C47.3114 137.794 43.4615 137.794 41.6562 137.793C40.2464 137.794 36.001 137.793 36.001 137.793C36.001 137.793 36.001 133.852 36.001 132.138C36.0011 129.015 38.5329 126.483 41.656 126.483C44.7793 126.483 47.3114 129.015 47.3114 132.139Z" fill="#32171F"/>
<path d="M75.5868 126.483C76.905 126.483 81.242 126.483 81.242 126.483C81.242 126.483 81.242 130.333 81.242 132.139C81.242 133.548 81.242 137.794 81.242 137.794C81.242 137.794 77.3011 137.794 75.5868 137.794C72.4625 137.794 69.9316 135.261 69.9316 132.139C69.9316 129.016 72.4625 126.483 75.5868 126.483Z" fill="#32171F"/>
<path d="M92.5516 126.483H81.2412V137.793H92.5516V126.483Z" fill="#32171F"/>
<path d="M103.866 126.483H92.5557V137.794H103.866V126.483Z" fill="#32171F"/>
<path d="M115.174 126.483H103.863V137.793H115.174V126.483Z" fill="#32171F"/>
<path d="M126.483 126.483H115.173V137.794H126.483V126.483Z" fill="#32171F"/>
<path d="M137.796 126.483H126.485V137.794H137.796V126.483Z" fill="#32171F"/>
<path d="M149.108 126.483H137.798V137.793C144.044 137.793 149.108 132.73 149.108 126.483Z" fill="#32171F"/>
<path d="M183.037 126.483H171.727V137.793H183.037V126.483Z" fill="#32171F"/>
<path d="M194.348 126.483H183.037V137.794H194.348V126.483Z" fill="#32171F"/>
<path d="M205.655 126.483H194.345V137.793H205.655V126.483Z" fill="#32171F"/>
<path d="M216.969 126.483H205.658V137.794H216.969V126.483Z" fill="#32171F"/>
<path d="M228.276 126.483H216.966V137.793H228.276V126.483Z" fill="#32171F"/>
<path d="M228.278 126.483V137.793H239.589C239.589 131.547 234.525 126.483 228.278 126.483Z" fill="#32171F"/>
<path d="M284.828 132.138C284.828 133.456 284.828 137.793 284.828 137.793C284.828 137.793 280.978 137.793 279.173 137.793C277.763 137.793 273.518 137.793 273.518 137.793C273.518 137.793 273.518 133.852 273.518 132.138C273.518 129.015 276.05 126.483 279.173 126.483C282.296 126.483 284.828 129.015 284.828 132.138Z" fill="#32171F"/>
<path d="M318.762 132.138C318.762 133.456 318.762 137.793 318.762 137.793C318.762 137.793 314.912 137.793 313.106 137.793C311.697 137.793 307.451 137.793 307.451 137.793C307.451 137.793 307.451 133.852 307.451 132.138C307.451 129.015 309.983 126.483 313.106 126.483C316.229 126.483 318.762 129.015 318.762 132.138Z" fill="#32171F"/>
<path d="M330.071 137.794H341.382V126.484C335.135 126.484 330.071 131.547 330.071 137.794Z" fill="#32171F"/>
<path d="M352.693 126.483H341.383V137.793H352.693V126.483Z" fill="#32171F"/>
<path d="M358.345 137.793C357.027 137.793 352.689 137.793 352.689 137.793C352.689 137.793 352.689 133.943 352.689 132.138C352.689 130.729 352.689 126.483 352.689 126.483C352.689 126.483 356.631 126.483 358.345 126.483C361.468 126.483 364 129.015 364 132.138C364 135.261 361.468 137.793 358.345 137.793Z" fill="#32171F"/>
<path d="M36.001 143.449C36.001 142.13 36.001 137.793 36.001 137.793C36.001 137.793 39.8511 137.793 41.6562 137.793C43.066 137.793 47.3114 137.793 47.3114 137.793C47.3114 137.793 47.3114 141.735 47.3114 143.449C47.3114 146.572 44.7793 149.104 41.6562 149.104C38.5329 149.104 36.001 146.572 36.001 143.449Z" fill="#32171F"/>
<path d="M69.9315 143.448C69.9315 144.766 69.9315 149.104 69.9315 149.104C69.9315 149.104 66.0816 149.104 64.2763 149.103C62.8665 149.104 58.6211 149.103 58.6211 149.103C58.6211 149.103 58.6211 145.162 58.6211 143.448C58.6212 140.325 61.153 137.793 64.2762 137.793C67.3994 137.793 69.9315 140.325 69.9315 143.448Z" fill="#32171F"/>
<path d="M126.485 143.449C126.485 142.131 126.485 137.794 126.485 137.794C126.485 137.794 130.335 137.794 132.141 137.794C133.55 137.794 137.796 137.794 137.796 137.794C137.796 137.794 137.796 141.736 137.796 143.449C137.796 146.572 135.264 149.104 132.141 149.104C129.017 149.104 126.485 146.572 126.485 143.449Z" fill="#32171F"/>
<path d="M171.727 143.448C171.727 142.13 171.727 137.793 171.727 137.793C171.727 137.793 175.577 137.793 177.382 137.793C178.792 137.793 183.037 137.793 183.037 137.793C183.037 137.793 183.037 141.735 183.037 143.448C183.037 146.571 180.505 149.104 177.382 149.104C174.258 149.104 171.727 146.571 171.727 143.448Z" fill="#32171F"/>
<path d="M205.655 137.794H194.345V149.104H205.655V137.794Z" fill="#32171F"/>
<path d="M239.589 137.793H228.278V149.104H239.589V137.793Z" fill="#32171F"/>
<path d="M256.555 137.794C259.678 137.794 262.21 140.326 262.21 143.449C262.21 146.572 259.678 149.104 256.555 149.104C253.431 149.104 250.899 146.572 250.899 143.449C250.899 140.326 253.431 137.794 256.555 137.794Z" fill="#32171F"/>
<path d="M284.828 137.793H273.518V149.104H284.828V137.793Z" fill="#32171F"/>
<path d="M296.14 149.103H307.45V137.793C301.204 137.793 296.14 142.857 296.14 149.103Z" fill="#32171F"/>
<path d="M318.76 137.794H307.449V149.104C313.696 149.104 318.76 144.04 318.76 137.794Z" fill="#32171F"/>
<path d="M341.381 137.794H330.07V149.104H341.381V137.794Z" fill="#32171F"/>
<path d="M352.694 137.793H341.384V149.103C347.63 149.103 352.694 144.039 352.694 137.793Z" fill="#32171F"/>
<path d="M52.9667 149.103C54.2848 149.103 58.6219 149.103 58.6219 149.103C58.6219 149.103 58.6219 152.953 58.6219 154.758C58.6219 156.168 58.6219 160.414 58.6219 160.414C58.6219 160.414 54.6809 160.414 52.9667 160.414C49.8424 160.414 47.3115 157.881 47.3115 154.758C47.3115 151.636 49.8424 149.103 52.9667 149.103Z" fill="#32171F"/>
<path d="M69.9325 149.104H58.6221V160.414C64.8686 160.414 69.9325 155.35 69.9325 149.104Z" fill="#32171F"/>
<path d="M81.2412 160.414H92.5516V149.104C86.3051 149.104 81.2412 154.167 81.2412 160.414Z" fill="#32171F"/>
<path d="M103.866 149.104H92.5557V160.414H103.866V149.104Z" fill="#32171F"/>
<path d="M109.518 160.414C108.2 160.414 103.863 160.414 103.863 160.414C103.863 160.414 103.863 156.563 103.863 154.758C103.863 153.349 103.863 149.103 103.863 149.103C103.863 149.103 107.805 149.103 109.518 149.103C112.642 149.103 115.174 151.635 115.174 154.758C115.174 157.882 112.642 160.414 109.518 160.414Z" fill="#32171F"/>
<path d="M137.798 160.413H149.108V149.103C142.862 149.103 137.798 154.167 137.798 160.413Z" fill="#32171F"/>
<path d="M149.104 149.104V160.414H160.414C160.414 154.167 155.35 149.104 149.104 149.104Z" fill="#32171F"/>
<path d="M205.655 149.104H194.345V160.415H205.655V149.104Z" fill="#32171F"/>
<path d="M239.589 149.104H228.278V160.415H239.589V149.104Z" fill="#32171F"/>
<path d="M245.242 160.415C243.924 160.415 239.587 160.415 239.587 160.415C239.587 160.415 239.587 156.564 239.587 154.759C239.587 153.35 239.587 149.104 239.587 149.104C239.587 149.104 243.529 149.104 245.242 149.104C248.365 149.104 250.897 151.636 250.897 154.759C250.897 157.882 248.365 160.415 245.242 160.415Z" fill="#32171F"/>
<path d="M284.828 149.104H273.518V160.414H284.828V149.104Z" fill="#32171F"/>
<path d="M296.14 154.759C296.14 153.441 296.14 149.104 296.14 149.104C296.14 149.104 299.99 149.104 301.795 149.104C303.205 149.104 307.45 149.104 307.45 149.104C307.45 149.104 307.45 153.046 307.45 154.759C307.45 157.882 304.918 160.414 301.795 160.414C298.672 160.414 296.14 157.882 296.14 154.759Z" fill="#32171F"/>
<path d="M330.07 154.759C330.07 153.441 330.07 149.104 330.07 149.104C330.07 149.104 333.92 149.104 335.726 149.104C337.135 149.104 341.381 149.104 341.381 149.104C341.381 149.104 341.381 153.045 341.381 154.759C341.381 157.882 338.849 160.414 335.726 160.414C332.602 160.414 330.07 157.882 330.07 154.759Z" fill="#32171F"/>
<path d="M69.9326 171.723H81.243V160.413C74.9965 160.413 69.9326 165.477 69.9326 171.723Z" fill="#32171F"/>
<path d="M92.5516 160.415H81.2412V171.725C87.4878 171.725 92.5516 166.661 92.5516 160.415Z" fill="#32171F"/>
<path d="M132.141 160.415C133.459 160.415 137.796 160.415 137.796 160.415C137.796 160.415 137.796 164.264 137.796 166.07C137.796 167.479 137.796 171.725 137.796 171.725C137.796 171.725 133.855 171.725 132.141 171.725C129.016 171.725 126.485 169.192 126.485 166.07C126.485 162.947 129.016 160.415 132.141 160.415Z" fill="#32171F"/>
<path d="M149.106 160.414H137.796V171.724H149.106V160.414Z" fill="#32171F"/>
<path d="M160.415 160.414H149.104V171.724H160.415V160.414Z" fill="#32171F"/>
<path d="M205.655 160.414H194.345V171.725H205.655V160.414Z" fill="#32171F"/>
<path d="M211.313 171.724C209.995 171.724 205.658 171.724 205.658 171.724C205.658 171.724 205.658 167.874 205.658 166.069C205.658 164.659 205.658 160.414 205.658 160.414C205.658 160.414 209.6 160.414 211.313 160.414C214.437 160.414 216.969 162.946 216.969 166.069C216.969 169.192 214.437 171.724 211.313 171.724Z" fill="#32171F"/>
<path d="M228.278 166.069C228.278 164.751 228.278 160.414 228.278 160.414C228.278 160.414 232.128 160.414 233.934 160.414C235.343 160.414 239.589 160.414 239.589 160.414C239.589 160.414 239.589 164.356 239.589 166.069C239.589 169.192 237.057 171.724 233.934 171.724C230.81 171.724 228.278 169.192 228.278 166.069Z" fill="#32171F"/>
<path d="M262.21 171.724H273.52V160.414C267.274 160.414 262.21 165.478 262.21 171.724Z" fill="#32171F"/>
<path d="M284.828 160.414H273.518V171.724H284.828V160.414Z" fill="#32171F"/>
<path d="M284.824 160.415V171.725H296.135C296.135 165.478 291.071 160.415 284.824 160.415Z" fill="#32171F"/>
<path d="M324.416 160.415C327.539 160.415 330.071 162.946 330.071 166.07C330.071 169.193 327.539 171.725 324.416 171.725C321.293 171.725 318.761 169.193 318.761 166.07C318.761 162.946 321.293 160.415 324.416 160.415Z" fill="#32171F"/>
<path d="M364 166.069C364 167.387 364 171.725 364 171.725C364 171.725 360.15 171.725 358.345 171.724C356.935 171.725 352.689 171.724 352.689 171.724C352.689 171.724 352.689 167.783 352.689 166.069C352.69 162.946 355.221 160.414 358.345 160.414C361.468 160.414 364 162.946 364 166.069Z" fill="#32171F"/>
<path d="M41.6562 171.725C42.9743 171.725 47.3114 171.725 47.3114 171.725C47.3114 171.725 47.3114 175.574 47.3114 177.38C47.3114 178.789 47.3114 183.035 47.3114 183.035C47.3114 183.035 43.3704 183.035 41.6562 183.035C38.5318 183.035 36.001 180.502 36.001 177.38C36.001 174.257 38.5318 171.725 41.6562 171.725Z" fill="#32171F"/>
<path d="M58.6219 171.724H47.3115V183.035H58.6219V171.724Z" fill="#32171F"/>
<path d="M69.9315 171.725H58.6211V183.035H69.9315V171.725Z" fill="#32171F"/>
<path d="M81.243 171.724H69.9326V183.034C76.1792 183.034 81.243 177.97 81.243 171.724Z" fill="#32171F"/>
<path d="M109.518 171.724C112.642 171.724 115.174 174.256 115.174 177.379C115.174 180.503 112.642 183.034 109.518 183.034C106.395 183.034 103.863 180.503 103.863 177.379C103.863 174.256 106.395 171.724 109.518 171.724Z" fill="#32171F"/>
<path d="M149.104 177.38C149.104 176.062 149.104 171.725 149.104 171.725C149.104 171.725 152.955 171.725 154.76 171.725C156.17 171.725 160.415 171.725 160.415 171.725C160.415 171.725 160.415 175.667 160.415 177.38C160.415 180.503 157.883 183.035 154.76 183.035C151.636 183.035 149.104 180.503 149.104 177.38Z" fill="#32171F"/>
<path d="M171.726 183.035H183.036V171.725C176.789 171.725 171.726 176.789 171.726 183.035Z" fill="#32171F"/>
<path d="M194.348 171.725H183.037V183.035H194.348V171.725Z" fill="#32171F"/>
<path d="M205.655 171.725H194.345V183.035C200.591 183.035 205.655 177.971 205.655 171.725Z" fill="#32171F"/>
<path d="M250.897 177.38C250.897 178.698 250.897 183.035 250.897 183.035C250.897 183.035 247.047 183.035 245.242 183.035C243.832 183.035 239.587 183.035 239.587 183.035C239.587 183.035 239.587 179.093 239.587 177.38C239.587 174.257 242.119 171.725 245.242 171.725C248.365 171.725 250.897 174.257 250.897 177.38Z" fill="#32171F"/>
<path d="M262.209 177.38C262.209 176.061 262.209 171.724 262.209 171.724C262.209 171.724 266.059 171.724 267.864 171.724C269.274 171.724 273.519 171.724 273.519 171.724C273.519 171.724 273.519 175.666 273.519 177.38C273.519 180.503 270.987 183.035 267.864 183.035C264.741 183.035 262.209 180.503 262.209 177.38Z" fill="#32171F"/>
<path d="M296.138 171.725H284.827V183.035H296.138V171.725Z" fill="#32171F"/>
<path d="M301.795 183.035C300.477 183.035 296.14 183.035 296.14 183.035C296.14 183.035 296.14 179.184 296.14 177.38C296.14 175.97 296.14 171.724 296.14 171.724C296.14 171.724 300.082 171.724 301.795 171.724C304.918 171.724 307.45 174.256 307.45 177.38C307.45 180.503 304.918 183.035 301.795 183.035Z" fill="#32171F"/>
<path d="M364 171.724H352.689V183.035H364V171.724Z" fill="#32171F"/>
<path d="M58.6211 188.69C58.6211 187.372 58.6211 183.035 58.6211 183.035C58.6211 183.035 62.4712 183.035 64.2763 183.035C65.6861 183.035 69.9315 183.035 69.9315 183.035C69.9315 183.035 69.9315 186.977 69.9315 188.69C69.9315 191.813 67.3994 194.345 64.2763 194.345C61.153 194.345 58.6211 191.813 58.6211 188.69Z" fill="#32171F"/>
<path d="M166.071 183.035C167.389 183.035 171.726 183.035 171.726 183.035C171.726 183.035 171.726 186.884 171.726 188.69C171.726 190.099 171.726 194.345 171.726 194.345C171.726 194.345 167.785 194.345 166.071 194.345C162.947 194.345 160.416 191.812 160.416 188.69C160.416 185.567 162.947 183.035 166.071 183.035Z" fill="#32171F"/>
<path d="M183.036 183.035H171.726V194.346C177.972 194.346 183.036 189.282 183.036 183.035Z" fill="#32171F"/>
<path d="M228.278 194.346H239.589V183.035C233.342 183.035 228.278 188.099 228.278 194.346Z" fill="#32171F"/>
<path d="M250.897 183.036H239.587V194.346C245.833 194.346 250.897 189.282 250.897 183.036Z" fill="#32171F"/>
<path d="M273.517 194.346H284.827V183.035C278.581 183.035 273.517 188.099 273.517 194.346Z" fill="#32171F"/>
<path d="M296.138 183.035H284.827V194.345H296.138V183.035Z" fill="#32171F"/>
<path d="M313.106 183.034C314.424 183.034 318.762 183.034 318.762 183.034C318.762 183.034 318.762 186.884 318.762 188.69C318.762 190.099 318.762 194.345 318.762 194.345C318.762 194.345 314.821 194.345 313.106 194.345C309.982 194.345 307.451 191.812 307.451 188.69C307.451 185.567 309.982 183.034 313.106 183.034Z" fill="#32171F"/>
<path d="M330.071 183.035H318.761V194.345H330.071V183.035Z" fill="#32171F"/>
<path d="M341.381 183.034H330.07V194.344H341.381V183.034Z" fill="#32171F"/>
<path d="M352.693 183.035H341.383V194.345H352.693V183.035Z" fill="#32171F"/>
<path d="M364 183.035H352.689V194.345H364V183.035Z" fill="#32171F"/>
<path d="M58.6219 200C58.6219 201.318 58.6219 205.655 58.6219 205.655C58.6219 205.655 54.772 205.655 52.9667 205.655C51.5569 205.655 47.3115 205.655 47.3115 205.655C47.3115 205.655 47.3115 201.713 47.3115 200C47.3117 196.877 49.8434 194.345 52.9666 194.345C56.0898 194.345 58.6219 196.877 58.6219 200Z" fill="#32171F"/>
<path d="M98.2109 194.345C99.529 194.345 103.866 194.345 103.866 194.345C103.866 194.345 103.866 198.195 103.866 200C103.866 201.41 103.866 205.655 103.866 205.655C103.866 205.655 99.9251 205.655 98.2109 205.655C95.0865 205.655 92.5557 203.122 92.5557 200C92.5557 196.878 95.0865 194.345 98.2109 194.345Z" fill="#32171F"/>
<path d="M115.174 194.345H103.863V205.655H115.174V194.345Z" fill="#32171F"/>
<path d="M126.483 194.345H115.173V205.655H126.483V194.345Z" fill="#32171F"/>
<path d="M132.141 205.655C130.822 205.655 126.485 205.655 126.485 205.655C126.485 205.655 126.485 201.805 126.485 200C126.485 198.59 126.485 194.345 126.485 194.345C126.485 194.345 130.427 194.345 132.141 194.345C135.264 194.345 137.796 196.877 137.796 200C137.796 203.123 135.264 205.655 132.141 205.655Z" fill="#32171F"/>
<path d="M160.415 200.001C160.415 201.319 160.415 205.656 160.415 205.656C160.415 205.656 156.565 205.656 154.76 205.656C153.35 205.656 149.104 205.656 149.104 205.656C149.104 205.656 149.104 201.714 149.104 200C149.105 196.877 151.636 194.345 154.76 194.345C157.883 194.345 160.415 196.877 160.415 200.001Z" fill="#32171F"/>
<path d="M194.345 205.656H205.655V194.345C199.409 194.345 194.345 199.409 194.345 205.656Z" fill="#32171F"/>
<path d="M211.313 205.655C209.995 205.655 205.658 205.655 205.658 205.655C205.658 205.655 205.658 201.805 205.658 200C205.658 198.59 205.658 194.345 205.658 194.345C205.658 194.345 209.6 194.345 211.313 194.345C214.437 194.345 216.969 196.877 216.969 200C216.969 203.123 214.437 205.655 211.313 205.655Z" fill="#32171F"/>
<path d="M228.278 200.001C228.278 198.683 228.278 194.346 228.278 194.346C228.278 194.346 232.128 194.346 233.934 194.346C235.343 194.346 239.589 194.346 239.589 194.346C239.589 194.346 239.589 198.288 239.589 200.001C239.589 203.124 237.057 205.656 233.934 205.656C230.81 205.656 228.278 203.124 228.278 200.001Z" fill="#32171F"/>
<path d="M256.555 194.345C257.873 194.345 262.21 194.345 262.21 194.345C262.21 194.345 262.21 198.194 262.21 200C262.21 201.409 262.21 205.655 262.21 205.655C262.21 205.655 258.269 205.655 256.555 205.655C253.43 205.655 250.899 203.122 250.899 200C250.899 196.877 253.43 194.345 256.555 194.345Z" fill="#32171F"/>
<path d="M273.519 194.345H262.209V205.656H273.519V194.345Z" fill="#32171F"/>
<path d="M284.828 194.345H273.518V205.655H284.828V194.345Z" fill="#32171F"/>
<path d="M296.138 194.345H284.827V205.655H296.138V194.345Z" fill="#32171F"/>
<path d="M296.14 194.345V205.655H307.45C307.45 199.408 302.386 194.345 296.14 194.345Z" fill="#32171F"/>
<path d="M341.381 194.345H330.07V205.655H341.381V194.345Z" fill="#32171F"/>
<path d="M364 194.345H352.689V205.655H364V194.345Z" fill="#32171F"/>
<path d="M41.6562 205.655C42.9743 205.655 47.3114 205.655 47.3114 205.655C47.3114 205.655 47.3114 209.505 47.3114 211.31C47.3114 212.72 47.3114 216.965 47.3114 216.965C47.3114 216.965 43.3704 216.965 41.6562 216.965C38.5318 216.965 36.001 214.432 36.001 211.31C36.001 208.188 38.5318 205.655 41.6562 205.655Z" fill="#32171F"/>
<path d="M58.6219 205.655H47.3115V216.966C53.5581 216.966 58.6219 211.902 58.6219 205.655Z" fill="#32171F"/>
<path d="M92.5516 211.311C92.5516 212.629 92.5516 216.966 92.5516 216.966C92.5516 216.966 88.7017 216.966 86.8964 216.966C85.4866 216.966 81.2412 216.966 81.2412 216.966C81.2412 216.966 81.2412 213.024 81.2412 211.311C81.2413 208.187 83.7731 205.656 86.8963 205.656C90.0195 205.656 92.5516 208.187 92.5516 211.311Z" fill="#32171F"/>
<path d="M115.173 211.31C115.173 209.992 115.173 205.655 115.173 205.655C115.173 205.655 119.023 205.655 120.828 205.655C122.238 205.655 126.483 205.655 126.483 205.655C126.483 205.655 126.483 209.597 126.483 211.31C126.483 214.434 123.951 216.966 120.828 216.966C117.705 216.966 115.173 214.434 115.173 211.31Z" fill="#32171F"/>
<path d="M143.451 205.655C144.769 205.655 149.106 205.655 149.106 205.655C149.106 205.655 149.106 209.505 149.106 211.31C149.106 212.72 149.106 216.966 149.106 216.966C149.106 216.966 145.165 216.966 143.451 216.966C140.327 216.966 137.796 214.433 137.796 211.31C137.796 208.188 140.327 205.655 143.451 205.655Z" fill="#32171F"/>
<path d="M160.414 205.656H149.104V216.966C155.35 216.966 160.414 211.902 160.414 205.656Z" fill="#32171F"/>
<path d="M188.692 205.656C190.01 205.656 194.348 205.656 194.348 205.656C194.348 205.656 194.348 209.505 194.348 211.311C194.348 212.72 194.348 216.966 194.348 216.966C194.348 216.966 190.407 216.966 188.692 216.966C185.568 216.966 183.037 214.433 183.037 211.311C183.037 208.188 185.568 205.656 188.692 205.656Z" fill="#32171F"/>
<path d="M205.655 205.655H194.345V216.965C200.591 216.965 205.655 211.902 205.655 205.655Z" fill="#32171F"/>
<path d="M222.621 205.656C225.744 205.656 228.276 208.187 228.276 211.311C228.276 214.434 225.744 216.966 222.621 216.966C219.498 216.966 216.966 214.434 216.966 211.311C216.966 208.187 219.498 205.656 222.621 205.656Z" fill="#32171F"/>
<path d="M245.242 205.655C248.366 205.655 250.897 208.187 250.897 211.31C250.897 214.434 248.366 216.965 245.242 216.965C242.119 216.965 239.587 214.434 239.587 211.31C239.587 208.187 242.119 205.655 245.242 205.655Z" fill="#32171F"/>
<path d="M307.45 216.966V205.655H296.14C296.14 211.902 301.203 216.966 307.45 216.966Z" fill="#32171F"/>
<path d="M313.106 216.966C311.788 216.966 307.451 216.966 307.451 216.966C307.451 216.966 307.451 213.116 307.451 211.311C307.451 209.901 307.451 205.656 307.451 205.656C307.451 205.656 311.393 205.656 313.106 205.656C316.229 205.656 318.762 208.187 318.762 211.311C318.762 214.434 316.229 216.966 313.106 216.966Z" fill="#32171F"/>
<path d="M330.07 211.31C330.07 209.992 330.07 205.655 330.07 205.655C330.07 205.655 333.92 205.655 335.726 205.655C337.135 205.655 341.381 205.655 341.381 205.655C341.381 205.655 341.381 209.597 341.381 211.31C341.381 214.433 338.849 216.965 335.726 216.965C332.602 216.965 330.07 214.433 330.07 211.31Z" fill="#32171F"/>
<path d="M352.689 211.31C352.689 209.992 352.689 205.655 352.689 205.655C352.689 205.655 356.54 205.655 358.345 205.655C359.754 205.655 364 205.655 364 205.655C364 205.655 364 209.597 364 211.31C364 214.434 361.468 216.966 358.345 216.966C355.221 216.966 352.689 214.434 352.689 211.31Z" fill="#32171F"/>
<path d="M81.2412 222.621C81.2412 221.303 81.2412 216.966 81.2412 216.966C81.2412 216.966 85.0913 216.966 86.8964 216.966C88.3062 216.966 92.5516 216.966 92.5516 216.966C92.5516 216.966 92.5516 220.908 92.5516 222.621C92.5516 225.744 90.0195 228.276 86.8964 228.276C83.7731 228.276 81.2412 225.744 81.2412 222.621Z" fill="#32171F"/>
<path d="M109.518 216.966C112.642 216.966 115.174 219.498 115.174 222.621C115.174 225.744 112.642 228.276 109.518 228.276C106.395 228.276 103.863 225.744 103.863 222.621C103.863 219.498 106.395 216.966 109.518 216.966Z" fill="#32171F"/>
<path d="M177.382 216.966C180.505 216.966 183.037 219.498 183.037 222.621C183.037 225.745 180.505 228.276 177.382 228.276C174.259 228.276 171.727 225.745 171.727 222.621C171.727 219.498 174.259 216.966 177.382 216.966Z" fill="#32171F"/>
<path d="M211.313 216.965C214.437 216.965 216.969 219.497 216.969 222.62C216.969 225.744 214.437 228.275 211.313 228.275C208.19 228.275 205.658 225.744 205.658 222.62C205.658 219.497 208.19 216.965 211.313 216.965Z" fill="#32171F"/>
<path d="M250.899 228.276H262.21V216.965C255.963 216.965 250.899 222.029 250.899 228.276Z" fill="#32171F"/>
<path d="M267.864 228.276C266.546 228.276 262.209 228.276 262.209 228.276C262.209 228.276 262.209 224.426 262.209 222.621C262.209 221.211 262.209 216.966 262.209 216.966C262.209 216.966 266.151 216.966 267.864 216.966C270.987 216.966 273.519 219.497 273.519 222.621C273.519 225.744 270.987 228.276 267.864 228.276Z" fill="#32171F"/>
<path d="M324.416 216.966C327.539 216.966 330.071 219.498 330.071 222.621C330.071 225.744 327.539 228.276 324.416 228.276C321.293 228.276 318.761 225.744 318.761 222.621C318.761 219.498 321.293 216.966 324.416 216.966Z" fill="#32171F"/>
<path d="M47.3114 233.931C47.3114 235.249 47.3114 239.586 47.3114 239.586C47.3114 239.586 43.4615 239.586 41.6562 239.586C40.2464 239.586 36.001 239.586 36.001 239.586C36.001 239.586 36.001 235.644 36.001 233.931C36.0011 230.808 38.5329 228.276 41.656 228.276C44.7793 228.276 47.3114 230.808 47.3114 233.931Z" fill="#32171F"/>
<path d="M75.5868 228.276C78.7102 228.276 81.242 230.808 81.242 233.931C81.242 237.054 78.7102 239.586 75.5868 239.586C72.4636 239.586 69.9316 237.054 69.9316 233.931C69.9316 230.808 72.4636 228.276 75.5868 228.276Z" fill="#32171F"/>
<path d="M132.141 228.276C133.459 228.276 137.796 228.276 137.796 228.276C137.796 228.276 137.796 232.126 137.796 233.931C137.796 235.341 137.796 239.586 137.796 239.586C137.796 239.586 133.855 239.586 132.141 239.586C129.016 239.586 126.485 237.053 126.485 233.931C126.485 230.809 129.016 228.276 132.141 228.276Z" fill="#32171F"/>
<path d="M137.798 228.276V239.586H149.108C149.108 233.34 144.044 228.276 137.798 228.276Z" fill="#32171F"/>
<path d="M233.934 228.276C235.252 228.276 239.589 228.276 239.589 228.276C239.589 228.276 239.589 232.125 239.589 233.931C239.589 235.34 239.589 239.586 239.589 239.586C239.589 239.586 235.648 239.586 233.934 239.586C230.809 239.586 228.278 237.053 228.278 233.931C228.278 230.808 230.809 228.276 233.934 228.276Z" fill="#32171F"/>
<path d="M250.897 228.275H239.587V239.586H250.897V228.275Z" fill="#32171F"/>
<path d="M262.21 228.276H250.899V239.586H262.21V228.276Z" fill="#32171F"/>
<path d="M313.106 228.276C316.23 228.276 318.762 230.808 318.762 233.931C318.762 237.054 316.23 239.586 313.106 239.586C309.983 239.586 307.451 237.054 307.451 233.931C307.451 230.808 309.983 228.276 313.106 228.276Z" fill="#32171F"/>
<path d="M335.726 228.276C337.044 228.276 341.381 228.276 341.381 228.276C341.381 228.276 341.381 232.125 341.381 233.931C341.381 235.34 341.381 239.586 341.381 239.586C341.381 239.586 337.44 239.586 335.726 239.586C332.601 239.586 330.07 237.053 330.07 233.931C330.07 230.808 332.601 228.276 335.726 228.276Z" fill="#32171F"/>
<path d="M347.038 239.586C345.72 239.586 341.383 239.586 341.383 239.586C341.383 239.586 341.383 235.736 341.383 233.931C341.383 232.521 341.383 228.276 341.383 228.276C341.383 228.276 345.325 228.276 347.038 228.276C350.161 228.276 352.693 230.808 352.693 233.931C352.693 237.054 350.161 239.586 347.038 239.586Z" fill="#32171F"/>
<path d="M47.3114 239.586H36.001V250.896H47.3114V239.586Z" fill="#32171F"/>
<path d="M58.6219 239.586H47.3115V250.897H58.6219V239.586Z" fill="#32171F"/>
<path d="M64.2763 250.897C62.9582 250.897 58.6211 250.897 58.6211 250.897C58.6211 250.897 58.6211 247.047 58.6211 245.242C58.6211 243.832 58.6211 239.586 58.6211 239.586C58.6211 239.586 62.563 239.586 64.2763 239.586C67.3994 239.586 69.9315 242.118 69.9315 245.242C69.9315 248.365 67.3994 250.897 64.2763 250.897Z" fill="#32171F"/>
<path d="M109.518 239.587C110.837 239.587 115.174 239.587 115.174 239.587C115.174 239.587 115.174 243.436 115.174 245.242C115.174 246.651 115.174 250.897 115.174 250.897C115.174 250.897 111.233 250.897 109.518 250.897C106.394 250.897 103.863 248.364 103.863 245.242C103.863 242.119 106.394 239.587 109.518 239.587Z" fill="#32171F"/>
<path d="M115.174 239.586V250.896H126.484C126.484 244.649 121.42 239.586 115.174 239.586Z" fill="#32171F"/>
<path d="M149.106 239.586H137.796V250.897H149.106V239.586Z" fill="#32171F"/>
<path d="M149.104 239.586V250.896H160.414C160.414 244.65 155.35 239.586 149.104 239.586Z" fill="#32171F"/>
<path d="M183.034 250.896H194.345V239.586C188.098 239.586 183.034 244.65 183.034 250.896Z" fill="#32171F"/>
<path d="M200 250.896C198.682 250.896 194.345 250.896 194.345 250.896C194.345 250.896 194.345 247.046 194.345 245.241C194.345 243.832 194.345 239.586 194.345 239.586C194.345 239.586 198.287 239.586 200 239.586C203.123 239.586 205.655 242.118 205.655 245.241C205.655 248.364 203.123 250.896 200 250.896Z" fill="#32171F"/>
<path d="M228.276 245.242C228.276 246.56 228.276 250.897 228.276 250.897C228.276 250.897 224.426 250.897 222.621 250.897C221.211 250.897 216.966 250.897 216.966 250.897C216.966 250.897 216.966 246.955 216.966 245.242C216.966 242.119 219.498 239.587 222.621 239.587C225.744 239.587 228.276 242.119 228.276 245.242Z" fill="#32171F"/>
<path d="M250.897 250.896V239.586H239.587C239.587 245.833 244.651 250.896 250.897 250.896Z" fill="#32171F"/>
<path d="M262.21 239.586H250.899V250.897H262.21V239.586Z" fill="#32171F"/>
<path d="M273.517 250.897H284.827V239.587C278.581 239.587 273.517 244.65 273.517 250.897Z" fill="#32171F"/>
<path d="M284.824 239.585V250.896H296.135C296.135 244.649 291.071 239.585 284.824 239.585Z" fill="#32171F"/>
<path d="M330.071 245.241C330.071 246.559 330.071 250.896 330.071 250.896C330.071 250.896 326.221 250.896 324.416 250.896C323.006 250.896 318.761 250.896 318.761 250.896C318.761 250.896 318.761 246.955 318.761 245.241C318.761 242.118 321.293 239.586 324.416 239.586C327.539 239.586 330.071 242.118 330.071 245.241Z" fill="#32171F"/>
<path d="M358.345 239.587C361.468 239.587 364 242.119 364 245.242C364 248.365 361.468 250.897 358.345 250.897C355.221 250.897 352.689 248.365 352.689 245.242C352.689 242.119 355.221 239.587 358.345 239.587Z" fill="#32171F"/>
<path d="M47.3114 250.896H36.001V262.207H47.3114V250.896Z" fill="#32171F"/>
<path d="M58.6219 250.897H47.3115V262.207H58.6219V250.897Z" fill="#32171F"/>
<path d="M86.8964 250.897C88.2145 250.897 92.5516 250.897 92.5516 250.897C92.5516 250.897 92.5516 254.746 92.5516 256.552C92.5516 257.961 92.5516 262.207 92.5516 262.207C92.5516 262.207 88.6106 262.207 86.8964 262.207C83.772 262.207 81.2412 259.674 81.2412 256.552C81.2412 253.429 83.772 250.897 86.8964 250.897Z" fill="#32171F"/>
<path d="M92.5586 250.897V262.207H103.869C103.869 255.961 98.8051 250.897 92.5586 250.897Z" fill="#32171F"/>
<path d="M126.484 262.207V250.897H115.174C115.174 257.143 120.238 262.207 126.484 262.207Z" fill="#32171F"/>
<path d="M137.796 250.897H126.485V262.207H137.796V250.897Z" fill="#32171F"/>
<path d="M149.106 250.896H137.796V262.206H149.106V250.896Z" fill="#32171F"/>
<path d="M160.415 250.896H149.104V262.207H160.415V250.896Z" fill="#32171F"/>
<path d="M166.071 262.207C164.753 262.207 160.416 262.207 160.416 262.207C160.416 262.207 160.416 258.357 160.416 256.552C160.416 255.142 160.416 250.897 160.416 250.897C160.416 250.897 164.358 250.897 166.071 250.897C169.194 250.897 171.726 253.429 171.726 256.552C171.726 259.675 169.194 262.207 166.071 262.207Z" fill="#32171F"/>
<path d="M194.348 250.896H183.037V262.207H194.348V250.896Z" fill="#32171F"/>
<path d="M211.313 250.896C212.632 250.896 216.969 250.896 216.969 250.896C216.969 250.896 216.969 254.746 216.969 256.552C216.969 257.961 216.969 262.207 216.969 262.207C216.969 262.207 213.028 262.207 211.313 262.207C208.189 262.207 205.658 259.674 205.658 256.552C205.658 253.429 208.189 250.896 211.313 250.896Z" fill="#32171F"/>
<path d="M228.275 250.897H216.965V262.208C223.211 262.208 228.275 257.144 228.275 250.897Z" fill="#32171F"/>
<path d="M262.21 250.897H250.899V262.207H262.21V250.897Z" fill="#32171F"/>
<path d="M284.828 250.896H273.518V262.207H284.828V250.896Z" fill="#32171F"/>
<path d="M296.138 250.896H284.827V262.207H296.138V250.896Z" fill="#32171F"/>
<path d="M307.45 250.896H296.14V262.207H307.45V250.896Z" fill="#32171F"/>
<path d="M318.762 250.896H307.451V262.207H318.762V250.896Z" fill="#32171F"/>
<path d="M330.071 250.896H318.761V262.207H330.071V250.896Z" fill="#32171F"/>
<path d="M330.071 250.896V262.207H341.382C341.382 255.96 336.318 250.896 330.071 250.896Z" fill="#32171F"/>
<path d="M47.3114 273.517V262.207H36.001C36.001 268.453 41.0647 273.517 47.3114 273.517Z" fill="#32171F"/>
<path d="M58.6219 262.207H47.3115V273.517H58.6219V262.207Z" fill="#32171F"/>
<path d="M64.2763 273.517C62.9582 273.517 58.6211 273.517 58.6211 273.517C58.6211 273.517 58.6211 269.667 58.6211 267.862C58.6211 266.452 58.6211 262.207 58.6211 262.207C58.6211 262.207 62.563 262.207 64.2763 262.207C67.3994 262.207 69.9315 264.739 69.9315 267.862C69.9315 270.985 67.3994 273.517 64.2763 273.517Z" fill="#32171F"/>
<path d="M103.869 273.517V262.207H92.5586C92.5586 268.453 97.6223 273.517 103.869 273.517Z" fill="#32171F"/>
<path d="M109.518 273.518C108.2 273.518 103.863 273.518 103.863 273.518C103.863 273.518 103.863 269.667 103.863 267.862C103.863 266.453 103.863 262.207 103.863 262.207C103.863 262.207 107.805 262.207 109.518 262.207C112.642 262.207 115.174 264.739 115.174 267.862C115.174 270.986 112.642 273.518 109.518 273.518Z" fill="#32171F"/>
<path d="M149.108 273.518V262.208H137.798C137.798 268.454 142.862 273.518 149.108 273.518Z" fill="#32171F"/>
<path d="M160.414 262.206H149.104V273.517C155.35 273.517 160.414 268.453 160.414 262.206Z" fill="#32171F"/>
<path d="M177.382 262.207C178.7 262.207 183.037 262.207 183.037 262.207C183.037 262.207 183.037 266.057 183.037 267.862C183.037 269.272 183.037 273.517 183.037 273.517C183.037 273.517 179.096 273.517 177.382 273.517C174.257 273.517 171.727 270.984 171.727 267.862C171.727 264.74 174.257 262.207 177.382 262.207Z" fill="#32171F"/>
<path d="M194.348 262.207H183.037V273.517H194.348V262.207Z" fill="#32171F"/>
<path d="M239.589 267.862C239.589 269.18 239.589 273.517 239.589 273.517C239.589 273.517 235.739 273.517 233.934 273.517C232.524 273.517 228.278 273.517 228.278 273.517C228.278 273.517 228.278 269.575 228.278 267.862C228.278 264.738 230.81 262.207 233.933 262.207C237.057 262.207 239.589 264.738 239.589 267.862Z" fill="#32171F"/>
<path d="M262.21 273.517V262.207H250.899C250.899 268.453 255.963 273.517 262.21 273.517Z" fill="#32171F"/>
<path d="M273.519 262.207H262.209V273.517H273.519V262.207Z" fill="#32171F"/>
<path d="M284.828 262.207H273.518V273.518H284.828V262.207Z" fill="#32171F"/>
<path d="M296.138 262.207H284.827V273.517H296.138V262.207Z" fill="#32171F"/>
<path d="M307.45 262.207H296.14V273.517H307.45V262.207Z" fill="#32171F"/>
<path d="M318.762 262.207H307.451V273.518H318.762V262.207Z" fill="#32171F"/>
<path d="M330.071 262.207H318.761V273.517H330.071V262.207Z" fill="#32171F"/>
<path d="M341.381 262.207H330.07V273.517H341.381V262.207Z" fill="#32171F"/>
<path d="M347.038 273.517C345.72 273.517 341.383 273.517 341.383 273.517C341.383 273.517 341.383 269.667 341.383 267.862C341.383 266.452 341.383 262.207 341.383 262.207C341.383 262.207 345.325 262.207 347.038 262.207C350.161 262.207 352.693 264.739 352.693 267.862C352.693 270.985 350.161 273.517 347.038 273.517Z" fill="#32171F"/>
<path d="M137.796 279.173C137.796 280.491 137.796 284.828 137.796 284.828C137.796 284.828 133.946 284.828 132.141 284.828C130.731 284.828 126.485 284.828 126.485 284.828C126.485 284.828 126.485 280.886 126.485 279.173C126.485 276.05 129.017 273.518 132.14 273.518C135.264 273.518 137.796 276.05 137.796 279.173Z" fill="#32171F"/>
<path d="M166.071 273.518C169.195 273.518 171.726 276.05 171.726 279.173C171.726 282.296 169.195 284.828 166.071 284.828C162.948 284.828 160.416 282.296 160.416 279.173C160.416 276.05 162.948 273.518 166.071 273.518Z" fill="#32171F"/>
<path d="M194.348 273.517H183.037V284.828H194.348V273.517Z" fill="#32171F"/>
<path d="M216.965 284.828H228.275V273.517C222.029 273.517 216.965 278.581 216.965 284.828Z" fill="#32171F"/>
<path d="M239.589 273.517H228.278V284.827H239.589V273.517Z" fill="#32171F"/>
<path d="M245.242 284.827C243.924 284.827 239.587 284.827 239.587 284.827C239.587 284.827 239.587 280.977 239.587 279.172C239.587 277.762 239.587 273.517 239.587 273.517C239.587 273.517 243.529 273.517 245.242 273.517C248.365 273.517 250.897 276.049 250.897 279.172C250.897 282.295 248.365 284.827 245.242 284.827Z" fill="#32171F"/>
<path d="M273.519 273.517H262.209V284.828H273.519V273.517Z" fill="#32171F"/>
<path d="M318.762 273.517H307.451V284.828H318.762V273.517Z" fill="#32171F"/>
<path d="M330.071 273.518H318.761V284.828H330.071V273.518Z" fill="#32171F"/>
<path d="M137.796 284.827H126.485V296.138H137.796V284.827Z" fill="#32171F"/>
<path d="M194.348 284.827H183.037V296.137H194.348V284.827Z" fill="#32171F"/>
<path d="M211.313 284.828C212.632 284.828 216.969 284.828 216.969 284.828C216.969 284.828 216.969 288.678 216.969 290.483C216.969 291.892 216.969 296.138 216.969 296.138C216.969 296.138 213.028 296.138 211.313 296.138C208.189 296.138 205.658 293.605 205.658 290.483C205.658 287.361 208.189 284.828 211.313 284.828Z" fill="#32171F"/>
<path d="M228.276 284.828H216.966V296.138H228.276V284.828Z" fill="#32171F"/>
<path d="M250.899 296.138H262.21V284.827C255.963 284.827 250.899 289.891 250.899 296.138Z" fill="#32171F"/>
<path d="M273.519 284.828H262.209V296.138H273.519V284.828Z" fill="#32171F"/>
<path d="M290.482 284.827C293.606 284.827 296.138 287.359 296.138 290.483C296.138 293.606 293.606 296.138 290.482 296.138C287.359 296.138 284.827 293.606 284.827 290.483C284.827 287.359 287.359 284.827 290.482 284.827Z" fill="#32171F"/>
<path d="M318.762 284.828H307.451V296.138H318.762V284.828Z" fill="#32171F"/>
<path d="M330.071 284.828H318.761V296.138C325.007 296.138 330.071 291.074 330.071 284.828Z" fill="#32171F"/>
<path d="M137.796 296.138H126.485V307.448H137.796V296.138Z" fill="#32171F"/>
<path d="M149.106 296.137H137.796V307.448H149.106V296.137Z" fill="#32171F"/>
<path d="M154.76 307.448C153.442 307.448 149.104 307.448 149.104 307.448C149.104 307.448 149.104 303.598 149.104 301.793C149.104 300.384 149.104 296.138 149.104 296.138C149.104 296.138 153.046 296.138 154.76 296.138C157.883 296.138 160.415 298.67 160.415 301.793C160.415 304.916 157.883 307.448 154.76 307.448Z" fill="#32171F"/>
<path d="M171.726 307.448H183.036V296.137C176.789 296.137 171.726 301.201 171.726 307.448Z" fill="#32171F"/>
<path d="M194.348 296.138H183.037V307.448H194.348V296.138Z" fill="#32171F"/>
<path d="M228.276 296.137H216.966V307.448H228.276V296.137Z" fill="#32171F"/>
<path d="M233.934 307.448C232.615 307.448 228.278 307.448 228.278 307.448C228.278 307.448 228.278 303.598 228.278 301.793C228.278 300.383 228.278 296.137 228.278 296.137C228.278 296.137 232.22 296.137 233.934 296.137C237.057 296.137 239.589 298.669 239.589 301.793C239.589 304.916 237.057 307.448 233.934 307.448Z" fill="#32171F"/>
<path d="M262.21 296.137H250.899V307.448H262.21V296.137Z" fill="#32171F"/>
<path d="M273.519 296.138H262.209V307.448H273.519V296.138Z" fill="#32171F"/>
<path d="M318.762 296.138H307.451V307.448H318.762V296.138Z" fill="#32171F"/>
<path d="M347.038 296.138C348.356 296.138 352.693 296.138 352.693 296.138C352.693 296.138 352.693 299.987 352.693 301.793C352.693 303.202 352.693 307.448 352.693 307.448C352.693 307.448 348.752 307.448 347.038 307.448C343.914 307.448 341.383 304.915 341.383 301.793C341.383 298.67 343.914 296.138 347.038 296.138Z" fill="#32171F"/>
<path d="M358.345 307.448C357.027 307.448 352.689 307.448 352.689 307.448C352.689 307.448 352.689 303.598 352.689 301.793C352.689 300.383 352.689 296.138 352.689 296.138C352.689 296.138 356.631 296.138 358.345 296.138C361.468 296.138 364 298.67 364 301.793C364 304.916 361.468 307.448 358.345 307.448Z" fill="#32171F"/>
<path d="M137.796 307.448H126.485V318.758H137.796V307.448Z" fill="#32171F"/>
<path d="M166.071 307.448C167.389 307.448 171.726 307.448 171.726 307.448C171.726 307.448 171.726 311.298 171.726 313.103C171.726 314.513 171.726 318.758 171.726 318.758C171.726 318.758 167.785 318.758 166.071 318.758C162.947 318.758 160.416 316.225 160.416 313.103C160.416 309.981 162.947 307.448 166.071 307.448Z" fill="#32171F"/>
<path d="M183.037 307.448H171.727V318.758H183.037V307.448Z" fill="#32171F"/>
<path d="M194.348 307.448H183.037V318.758H194.348V307.448Z" fill="#32171F"/>
<path d="M211.313 307.448C212.632 307.448 216.969 307.448 216.969 307.448C216.969 307.448 216.969 311.298 216.969 313.103C216.969 314.513 216.969 318.758 216.969 318.758C216.969 318.758 213.028 318.758 211.313 318.758C208.189 318.758 205.658 316.225 205.658 313.103C205.658 309.981 208.189 307.448 211.313 307.448Z" fill="#32171F"/>
<path d="M228.276 307.448H216.966V318.758H228.276V307.448Z" fill="#32171F"/>
<path d="M262.21 307.448H250.899V318.758H262.21V307.448Z" fill="#32171F"/>
<path d="M273.519 307.448H262.209V318.759H273.519V307.448Z" fill="#32171F"/>
<path d="M284.828 307.448H273.518V318.758H284.828V307.448Z" fill="#32171F"/>
<path d="M296.138 307.448H284.827V318.758H296.138V307.448Z" fill="#32171F"/>
<path d="M307.45 307.448H296.14V318.759H307.45V307.448Z" fill="#32171F"/>
<path d="M318.762 307.448H307.451V318.759H318.762V307.448Z" fill="#32171F"/>
<path d="M324.416 318.758C323.098 318.758 318.761 318.758 318.761 318.758C318.761 318.758 318.761 314.908 318.761 313.103C318.761 311.693 318.761 307.448 318.761 307.448C318.761 307.448 322.703 307.448 324.416 307.448C327.539 307.448 330.071 309.979 330.071 313.103C330.071 316.226 327.539 318.758 324.416 318.758Z" fill="#32171F"/>
<path d="M126.485 324.413C126.485 323.095 126.485 318.758 126.485 318.758C126.485 318.758 130.335 318.758 132.141 318.758C133.55 318.758 137.796 318.758 137.796 318.758C137.796 318.758 137.796 322.7 137.796 324.413C137.796 327.537 135.264 330.069 132.141 330.069C129.017 330.069 126.485 327.537 126.485 324.413Z" fill="#32171F"/>
<path d="M183.036 330.068V318.758H171.726C171.726 325.004 176.789 330.068 183.036 330.068Z" fill="#32171F"/>
<path d="M194.348 318.759H183.037V330.069H194.348V318.759Z" fill="#32171F"/>
<path d="M200 330.069C198.682 330.069 194.345 330.069 194.345 330.069C194.345 330.069 194.345 326.218 194.345 324.413C194.345 323.004 194.345 318.758 194.345 318.758C194.345 318.758 198.287 318.758 200 318.758C203.123 318.758 205.655 321.29 205.655 324.413C205.655 327.537 203.123 330.069 200 330.069Z" fill="#32171F"/>
<path d="M228.276 318.758H216.966V330.069H228.276V318.758Z" fill="#32171F"/>
<path d="M239.589 318.759H228.278V330.069H239.589V318.759Z" fill="#32171F"/>
<path d="M250.897 318.758H239.587V330.068H250.897V318.758Z" fill="#32171F"/>
<path d="M262.21 318.758H250.899V330.069H262.21V318.758Z" fill="#32171F"/>
<path d="M273.519 318.759H262.209V330.069H273.519V318.759Z" fill="#32171F"/>
<path d="M284.828 318.758H273.518V330.068H284.828V318.758Z" fill="#32171F"/>
<path d="M307.45 318.759H296.14V330.069H307.45V318.759Z" fill="#32171F"/>
<path d="M352.693 324.414C352.693 325.732 352.693 330.069 352.693 330.069C352.693 330.069 348.843 330.069 347.038 330.069C345.628 330.069 341.383 330.069 341.383 330.069C341.383 330.069 341.383 326.127 341.383 324.414C341.383 321.291 343.915 318.759 347.038 318.759C350.161 318.759 352.693 321.291 352.693 324.414Z" fill="#32171F"/>
<path d="M154.76 330.069C157.883 330.069 160.415 332.601 160.415 335.724C160.415 338.847 157.883 341.379 154.76 341.379C151.636 341.379 149.104 338.847 149.104 335.724C149.104 332.601 151.636 330.069 154.76 330.069Z" fill="#32171F"/>
<path d="M194.348 330.068H183.037V341.378H194.348V330.068Z" fill="#32171F"/>
<path d="M216.966 335.724C216.966 334.406 216.966 330.069 216.966 330.069C216.966 330.069 220.816 330.069 222.621 330.069C224.031 330.069 228.276 330.069 228.276 330.069C228.276 330.069 228.276 334.011 228.276 335.724C228.276 338.847 225.744 341.379 222.621 341.379C219.498 341.379 216.966 338.847 216.966 335.724Z" fill="#32171F"/>
<path d="M284.828 330.069H273.518V341.379H284.828V330.069Z" fill="#32171F"/>
<path d="M307.45 330.069H296.14V341.38H307.45V330.069Z" fill="#32171F"/>
<path d="M313.106 341.379C311.788 341.379 307.451 341.379 307.451 341.379C307.451 341.379 307.451 337.529 307.451 335.724C307.451 334.314 307.451 330.069 307.451 330.069C307.451 330.069 311.393 330.069 313.106 330.069C316.229 330.069 318.762 332.601 318.762 335.724C318.762 338.847 316.229 341.379 313.106 341.379Z" fill="#32171F"/>
<path d="M330.071 341.379H341.382V330.069C335.135 330.069 330.071 335.132 330.071 341.379Z" fill="#32171F"/>
<path d="M352.693 330.069H341.383V341.379H352.693V330.069Z" fill="#32171F"/>
<path d="M352.689 330.068V341.379H364C364 335.132 358.936 330.068 352.689 330.068Z" fill="#32171F"/>
<path d="M171.726 347.034C171.726 348.352 171.726 352.689 171.726 352.689C171.726 352.689 167.876 352.689 166.071 352.689C164.661 352.689 160.416 352.689 160.416 352.689C160.416 352.689 160.416 348.748 160.416 347.034C160.416 343.911 162.948 341.379 166.071 341.379C169.194 341.379 171.726 343.911 171.726 347.034Z" fill="#32171F"/>
<path d="M183.037 347.034C183.037 345.716 183.037 341.379 183.037 341.379C183.037 341.379 186.887 341.379 188.692 341.379C190.102 341.379 194.348 341.379 194.348 341.379C194.348 341.379 194.348 345.321 194.348 347.034C194.348 350.157 191.815 352.689 188.692 352.689C185.569 352.689 183.037 350.157 183.037 347.034Z" fill="#32171F"/>
<path d="M211.313 341.379C214.437 341.379 216.969 343.911 216.969 347.034C216.969 350.157 214.437 352.689 211.313 352.689C208.19 352.689 205.658 350.157 205.658 347.034C205.658 343.911 208.19 341.379 211.313 341.379Z" fill="#32171F"/>
<path d="M273.518 347.034C273.518 345.716 273.518 341.379 273.518 341.379C273.518 341.379 277.368 341.379 279.173 341.379C280.583 341.379 284.828 341.379 284.828 341.379C284.828 341.379 284.828 345.321 284.828 347.034C284.828 350.157 282.296 352.689 279.173 352.689C276.05 352.689 273.518 350.157 273.518 347.034Z" fill="#32171F"/>
<path d="M296.14 347.034C296.14 345.716 296.14 341.379 296.14 341.379C296.14 341.379 299.99 341.379 301.795 341.379C303.205 341.379 307.45 341.379 307.45 341.379C307.45 341.379 307.45 345.321 307.45 347.034C307.45 350.157 304.918 352.689 301.795 352.689C298.672 352.689 296.14 350.157 296.14 347.034Z" fill="#32171F"/>
<path d="M318.761 352.69H330.071V341.379C323.825 341.379 318.761 346.443 318.761 352.69Z" fill="#32171F"/>
<path d="M341.382 341.378H330.071V352.689C336.318 352.689 341.382 347.625 341.382 341.378Z" fill="#32171F"/>
<path d="M352.689 347.034C352.689 345.715 352.689 341.378 352.689 341.378C352.689 341.378 356.54 341.378 358.345 341.378C359.754 341.378 364 341.378 364 341.378C364 341.378 364 345.32 364 347.034C364 350.157 361.468 352.689 358.345 352.689C355.221 352.689 352.689 350.157 352.689 347.034Z" fill="#32171F"/>
<path d="M132.141 352.689C135.264 352.689 137.796 355.221 137.796 358.345C137.796 361.468 135.264 364 132.141 364C129.017 364 126.485 361.468 126.485 358.345C126.485 355.221 129.017 352.689 132.141 352.689Z" fill="#32171F"/>
<path d="M171.724 364V352.689H160.414C160.414 358.936 165.478 364 171.724 364Z" fill="#32171F"/>
<path d="M177.382 364C176.064 364 171.727 364 171.727 364C171.727 364 171.727 360.15 171.727 358.345C171.727 356.935 171.727 352.689 171.727 352.689C171.727 352.689 175.668 352.689 177.382 352.689C180.505 352.689 183.037 355.221 183.037 358.345C183.037 361.468 180.505 364 177.382 364Z" fill="#32171F"/>
<path d="M233.934 352.689C235.252 352.689 239.589 352.689 239.589 352.689C239.589 352.689 239.589 356.539 239.589 358.344C239.589 359.754 239.589 364 239.589 364C239.589 364 235.648 364 233.934 364C230.809 364 228.278 361.466 228.278 358.344C228.278 355.222 230.809 352.689 233.934 352.689Z" fill="#32171F"/>
<path d="M250.897 352.689H239.587V364H250.897V352.689Z" fill="#32171F"/>
<path d="M262.21 352.689H250.899V364H262.21V352.689Z" fill="#32171F"/>
<path d="M267.864 363.999C266.546 363.999 262.209 363.999 262.209 363.999C262.209 363.999 262.209 360.149 262.209 358.344C262.209 356.934 262.209 352.689 262.209 352.689C262.209 352.689 266.151 352.689 267.864 352.689C270.987 352.689 273.519 355.221 273.519 358.344C273.519 361.467 270.987 363.999 267.864 363.999Z" fill="#32171F"/>
<path d="M290.482 352.689C293.606 352.689 296.138 355.221 296.138 358.344C296.138 361.468 293.606 364 290.482 364C287.359 364 284.827 361.468 284.827 358.344C284.827 355.221 287.359 352.689 290.482 352.689Z" fill="#32171F"/>
<path d="M313.106 352.689C314.424 352.689 318.762 352.689 318.762 352.689C318.762 352.689 318.762 356.539 318.762 358.344C318.762 359.753 318.762 363.999 318.762 363.999C318.762 363.999 314.821 363.999 313.106 363.999C309.982 363.999 307.451 361.466 307.451 358.344C307.451 355.222 309.982 352.689 313.106 352.689Z" fill="#32171F"/>
<path d="M330.071 352.689H318.761V364C325.007 364 330.071 358.936 330.071 352.689Z" fill="#32171F"/>
<path d="M88.1434 36.0066H63.0314C50.7928 36.0066 40.4244 44.0925 37.1094 55.1441C36.7666 56.2873 36.499 57.4623 36.3129 58.6633C36.1079 59.9886 36.001 61.3457 36.001 62.7272V88.4352C36.001 103.176 48.1302 115.164 63.0314 115.164L75.5874 115.166L88.1434 115.163C103.044 115.163 115.174 103.175 115.174 88.4344V62.7272C115.174 47.9933 103.044 36.0066 88.1434 36.0066ZM103.298 88.4352C103.298 96.6248 96.5001 103.288 88.1402 103.288L75.5874 103.29L63.0345 103.287C54.6747 103.287 47.8769 96.624 47.8769 88.4352V62.7272C47.8769 60.1692 48.5404 57.7607 49.7082 55.6563C50.8324 53.6319 52.423 51.8909 54.3382 50.5727C56.8005 48.8776 59.7987 47.8824 63.0306 47.8824H88.1434C96.5001 47.8824 103.298 54.5416 103.298 62.7272V88.4352Z" fill="#32171F"/>
<path d="M336.967 36.0073H311.855C299.616 36.0073 289.248 44.0932 285.933 55.1448C285.59 56.2881 285.322 57.463 285.136 58.664C284.931 59.9894 284.824 61.3464 284.824 62.7279V88.4359C284.824 103.177 296.953 115.164 311.855 115.164L324.411 115.167L336.967 115.164C351.867 115.164 363.997 103.176 363.997 88.4352V62.7279C363.997 47.994 351.868 36.0073 336.967 36.0073ZM352.121 88.4359C352.121 96.6255 345.323 103.289 336.963 103.289L324.411 103.291L311.858 103.288C303.498 103.288 296.7 96.6247 296.7 88.4359V62.7279C296.7 60.1699 297.364 57.7615 298.531 55.6571C299.656 53.6326 301.246 51.8916 303.161 50.5734C305.624 48.8784 308.622 47.8832 311.854 47.8832H336.967C345.323 47.8832 352.121 54.5423 352.121 62.7279V88.4359Z" fill="#32171F"/>
<path d="M88.1434 284.834H63.0314C50.7928 284.834 40.4244 292.92 37.1094 303.971C36.7666 305.115 36.499 306.29 36.3129 307.491C36.1079 308.816 36.001 310.173 36.001 311.555V337.263C36.001 352.004 48.1302 363.991 63.0314 363.991L75.5874 363.994L88.1434 363.99C103.044 363.99 115.174 352.003 115.174 337.262V311.555C115.174 296.821 103.044 284.834 88.1434 284.834ZM103.298 337.263C103.298 345.452 96.5001 352.115 88.1402 352.115L75.5874 352.118L63.0345 352.115C54.6747 352.115 47.8769 345.451 47.8769 337.263V311.555C47.8769 308.997 48.5404 306.588 49.7082 304.484C50.8324 302.459 52.423 300.718 54.3382 299.4C56.8005 297.705 59.7987 296.71 63.0306 296.71H88.1434C96.5001 296.71 103.298 303.369 103.298 311.555V337.263Z" fill="#32171F"/>
<path d="M67.9044 92.5511C62.7842 92.5511 58.6191 88.4685 58.6191 83.4549V67.7116C58.6191 66.1453 59.0263 64.6714 59.7392 63.3816C60.4277 62.1405 61.4022 61.0737 62.5759 60.2688C64.0834 59.2312 65.9211 58.6201 67.8993 58.6201H83.2793C88.3948 58.6201 92.5598 62.6979 92.5598 67.7112V83.4545C92.5598 88.4678 88.3951 92.5507 83.2793 92.5507H75.5895L67.9044 92.5511Z" fill="#32171F"/>
<path d="M316.73 92.5523C311.609 92.5523 307.444 88.4697 307.444 83.4561V67.7128C307.444 66.1465 307.852 64.6726 308.564 63.3829C309.253 62.1417 310.227 61.0749 311.401 60.27C312.909 59.2324 314.746 58.6213 316.725 58.6213H332.105C337.22 58.6213 341.385 62.6992 341.385 67.7125V83.4557C341.385 88.469 337.22 92.5519 332.105 92.5519H324.415L316.73 92.5523Z" fill="#32171F"/>
<path d="M67.9044 341.38C62.7842 341.38 58.6191 337.297 58.6191 332.283V316.54C58.6191 314.974 59.0263 313.5 59.7392 312.21C60.4277 310.969 61.4022 309.902 62.5759 309.097C64.0834 308.06 65.9211 307.449 67.8993 307.449H83.2793C88.3948 307.449 92.5598 311.527 92.5598 316.54V332.283C92.5598 337.296 88.3951 341.379 83.2793 341.379H75.5895L67.9044 341.38Z" fill="#32171F"/>
</svg>
