<svg width="400" height="401" viewBox="0 0 400 401" fill="none" xmlns="http://www.w3.org/2000/svg">
<g clip-path="url(#clip0_180_773)">
<path d="M116.989 178.345C116.989 172.383 112.138 167.532 106.176 167.532H91.0628C85.1001 167.532 80.2495 172.383 80.2495 178.345V190.711C80.2495 196.674 85.1001 201.524 91.0628 201.524H106.176C112.138 201.524 116.989 196.674 116.989 190.711V178.345ZM105.267 189.802H91.9717V179.254H105.267V189.802ZM66.3931 178.345C66.3931 172.383 61.5425 167.532 55.5798 167.532H40.4676C34.5049 167.532 29.6543 172.383 29.6543 178.345V190.711C29.6543 196.674 34.5049 201.524 40.4676 201.524H55.5798C61.5425 201.524 66.3931 196.674 66.3931 190.711V178.345ZM54.671 189.802H41.3765V179.254H54.671V189.802ZM116.989 222.855C116.989 216.892 112.138 212.041 106.176 212.041H91.0628C85.1001 212.041 80.2495 216.892 80.2495 222.855V235.221C80.2495 241.183 85.1001 246.033 91.0628 246.033H106.176C112.138 246.033 116.989 241.183 116.989 235.221V222.855ZM105.267 234.312H91.9717V223.763H105.267V234.312ZM66.3931 222.855C66.3931 216.892 61.5425 212.041 55.5798 212.041H40.4676C34.5049 212.041 29.6543 216.892 29.6543 222.855V235.221C29.6543 241.183 34.5049 246.033 40.4676 246.033H55.5798C61.5425 246.033 66.3931 241.183 66.3931 235.221V222.855ZM54.671 234.312H41.3765V223.763H54.671V234.312ZM106.177 256.552H91.0636C85.1009 256.552 80.2503 261.403 80.2503 267.365V279.731C80.2503 285.694 85.1009 290.545 91.0636 290.545H106.177C112.139 290.545 116.99 285.694 116.99 279.731V267.365C116.989 261.403 112.138 256.552 106.177 256.552ZM105.267 278.822H91.9717V268.273H105.267V278.822ZM55.5798 256.552H40.4676C34.5049 256.552 29.6543 261.403 29.6543 267.365V279.731C29.6543 285.694 34.5049 290.545 40.4676 290.545H55.5798C61.5425 290.545 66.3931 285.694 66.3931 279.731V267.365C66.3931 261.403 61.5425 256.552 55.5798 256.552ZM54.671 278.822H41.3765V268.273H54.671V278.822ZM141.66 290.544H156.772C162.734 290.544 167.585 285.693 167.585 279.731V267.364C167.585 261.402 162.734 256.551 156.772 256.551H141.66C135.697 256.551 130.846 261.402 130.846 267.364V279.731C130.846 285.693 135.697 290.544 141.66 290.544ZM142.568 268.274H155.863V278.822H142.568V268.274Z" fill="#C0B9BB"/>
<path d="M393.014 349.46L383.614 333.025L389.665 273.048C391.179 258.09 389.019 242.988 383.372 229.053C377.725 215.119 368.763 202.774 357.263 193.089L307.963 151.547L256.534 61.6225C253.274 55.9216 247.988 51.8313 241.652 50.1058C235.315 48.3811 228.685 49.2251 222.985 52.4862L191.029 70.7619V33.3814C191.029 15.2504 176.279 0.5 158.149 0.5H39.0914C20.9603 0.5 6.20996 15.2504 6.20996 33.3814V282.598C6.20996 299.595 19.1731 313.621 35.7318 315.309V382.899C35.7318 385.624 37.1065 388.121 39.4095 389.579C40.5348 390.296 41.8238 390.714 43.1554 390.796C44.4871 390.877 45.8176 390.619 47.0218 390.045L59.8576 383.968L76.4288 391.149C77.4291 391.582 78.499 391.798 79.5696 391.798C80.6809 391.798 81.7921 391.565 82.8252 391.099L98.6627 383.946L115.15 391.131C116.185 391.582 117.305 391.807 118.434 391.789C119.563 391.772 120.675 391.513 121.695 391.029L136.558 383.988L150.365 390.185C151.569 390.727 152.889 390.959 154.206 390.858C155.522 390.758 156.792 390.327 157.899 389.608C159.008 388.893 159.92 387.91 160.551 386.75C161.182 385.59 161.511 384.291 161.508 382.971V315.309C178.067 313.621 191.03 299.595 191.03 282.598V263.169L198.256 275.804C199.03 277.156 199.93 278.432 200.942 279.616L198.431 292.18C197.358 297.547 198.44 303.01 201.476 307.564C204.512 312.117 209.14 315.216 214.507 316.288C215.859 316.558 217.217 316.692 218.565 316.692C222.568 316.692 226.483 315.514 229.89 313.243C229.949 313.203 230.006 313.161 230.064 313.121C232.969 317.572 237.585 320.902 243.196 322.023C244.511 322.286 245.849 322.419 247.19 322.419C250.56 322.414 253.877 321.579 256.847 319.987C264.244 341.829 277.369 361.611 295.034 376.884L299.154 380.447L308.934 397.547C309.316 398.215 309.826 398.801 310.435 399.273C311.043 399.744 311.739 400.09 312.482 400.292C313.224 400.495 314 400.549 314.763 400.451C315.527 400.354 316.264 400.107 316.932 399.725C317.6 399.343 318.186 398.833 318.657 398.224C319.128 397.615 319.475 396.92 319.677 396.177C319.879 395.434 319.933 394.659 319.836 393.896C319.739 393.132 319.492 392.395 319.11 391.727L308.833 373.758C308.504 373.183 308.08 372.667 307.579 372.234L302.702 368.017C278.231 346.859 263.332 316.193 261.823 283.879L259.783 240.181C259.65 237.398 258.861 234.685 257.481 232.265L237.451 197.242C235.977 194.666 235.595 191.67 236.375 188.806C237.156 185.941 239.004 183.552 241.581 182.079C242.846 181.351 244.243 180.88 245.692 180.696C247.14 180.511 248.611 180.616 250.018 181.004C251.428 181.384 252.748 182.039 253.903 182.933C255.058 183.826 256.023 184.939 256.745 186.209L267.937 205.778C268.714 207.117 269.989 208.093 271.484 208.494C272.978 208.896 274.571 208.69 275.914 207.922C277.258 207.154 278.243 205.886 278.654 204.394C279.066 202.902 278.871 201.308 278.113 199.96L266.921 180.39C263.893 175.095 258.984 171.297 253.099 169.694C247.214 168.092 241.056 168.876 235.762 171.905C224.832 178.156 221.026 192.134 227.277 203.064L247.307 238.086C247.767 238.893 248.031 239.799 248.075 240.728L249.049 261.577L225.987 274.766C224.523 275.609 222.905 276.153 221.229 276.367C219.552 276.581 217.85 276.46 216.22 276.011C214.588 275.571 213.06 274.812 211.723 273.778C210.386 272.743 209.268 271.454 208.433 269.985L162.33 189.375C161.559 188.026 160.283 187.038 158.783 186.63C157.283 186.221 155.682 186.426 154.333 187.197C152.983 187.969 151.996 189.245 151.587 190.745C151.179 192.245 151.383 193.846 152.155 195.195L162.872 213.934C161.078 212.7 158.951 212.04 156.773 212.042H141.661C135.698 212.042 130.848 216.893 130.848 222.855V235.221C130.848 241.183 135.698 246.034 141.661 246.034H156.773C162.736 246.034 167.587 241.183 167.587 235.221V222.855C167.587 222.604 167.566 222.358 167.549 222.111L179.309 242.674V282.598C179.309 294.266 169.817 303.758 158.15 303.758H39.0914C27.4239 303.758 17.9321 294.266 17.9321 282.598V33.3814C17.9321 21.714 27.4239 12.2222 39.0914 12.2222H158.149C169.815 12.2222 179.307 21.714 179.307 33.3814V77.4661L167.585 84.1704V54.2352C167.585 49.0321 163.352 44.7988 158.149 44.7988H39.0914C33.8875 44.7988 29.6543 49.0321 29.6543 54.236V104.227C29.6543 105.782 30.2718 107.272 31.371 108.371C32.4701 109.471 33.9609 110.088 35.5154 110.088C37.0698 110.088 38.5606 109.471 39.6598 108.371C40.7589 107.272 41.3764 105.782 41.3764 104.227V56.521H155.863V90.874L129.454 105.978C118.757 112.096 114.398 125.088 118.748 136.242H41.3764V104.227C41.3764 102.673 40.7589 101.182 39.6598 100.083C38.5606 98.9835 37.0698 98.366 35.5154 98.366C33.9609 98.366 32.4701 98.9835 31.371 100.083C30.2718 101.182 29.6543 102.673 29.6543 104.227V138.527C29.6543 143.731 33.8875 147.964 39.0914 147.964H125.141L152.155 195.195C152.94 196.518 154.213 197.48 155.701 197.873C157.189 198.265 158.771 198.057 160.107 197.293C161.443 196.53 162.424 195.271 162.84 193.79C163.256 192.308 163.073 190.723 162.33 189.375L130.493 133.71C126.971 127.552 129.116 119.676 135.274 116.155L228.805 62.6626C230.27 61.8193 231.887 61.2751 233.564 61.0614C235.24 60.8477 236.943 60.9688 238.572 61.4177C240.204 61.8573 241.733 62.6162 243.07 63.6506C244.406 64.6849 245.524 65.9742 246.36 67.4437L324.298 203.72C325.141 205.185 325.685 206.803 325.899 208.479C326.113 210.156 325.992 211.858 325.544 213.488C325.104 215.12 324.345 216.648 323.31 217.985C322.276 219.321 320.987 220.439 319.518 221.274L297.503 233.865L290.511 221.641C289.74 220.292 288.464 219.304 286.964 218.896C285.464 218.487 283.863 218.691 282.514 219.463C281.164 220.235 280.177 221.511 279.768 223.011C279.36 224.511 279.564 226.111 280.336 227.461L296.147 255.107C296.53 255.775 297.039 256.362 297.648 256.833C298.257 257.304 298.952 257.65 299.695 257.853C300.438 258.055 301.213 258.109 301.977 258.011C302.74 257.914 303.477 257.667 304.145 257.285C304.813 256.903 305.4 256.393 305.871 255.784C306.342 255.175 306.688 254.48 306.89 253.737C307.093 252.995 307.147 252.219 307.049 251.456C306.952 250.692 306.705 249.955 306.323 249.287L303.322 244.04L325.337 231.45C331.038 228.19 335.128 222.904 336.854 216.568C338.579 210.231 337.734 203.601 334.473 197.9L324.886 181.138L349.709 202.055C359.751 210.511 367.577 221.291 372.507 233.458C377.438 245.625 379.325 258.811 378.003 271.873L371.764 333.718C371.641 334.933 371.901 336.157 372.508 337.217L382.84 355.282C383.222 355.95 383.732 356.537 384.341 357.008C384.949 357.479 385.645 357.826 386.388 358.028C387.13 358.23 387.905 358.284 388.669 358.187C389.433 358.089 390.169 357.842 390.838 357.46C392.187 356.688 393.174 355.411 393.582 353.911C393.99 352.411 393.786 350.81 393.014 349.46ZM250.114 284.426C250.49 292.397 251.604 300.315 253.441 308.08C251.399 310.148 248.419 311.113 245.494 310.529C240.753 309.582 237.667 304.954 238.614 300.214L242.94 278.574L249.661 274.73L250.114 284.426ZM219.638 288.196C223.014 288.196 226.353 287.483 229.481 286.102L227.12 297.915C226.897 299.046 226.452 300.12 225.811 301.077C225.171 302.034 224.346 302.855 223.386 303.491C222.43 304.133 221.356 304.579 220.226 304.802C219.096 305.026 217.933 305.023 216.804 304.794C214.508 304.335 212.528 303.009 211.228 301.061C209.929 299.113 209.466 296.775 209.926 294.479L211.462 286.793C212.013 286.985 212.57 287.165 213.139 287.321C215.257 287.9 217.443 288.195 219.638 288.196ZM155.863 234.312H142.568V223.763H155.863V234.312ZM149.785 377.076L139.75 372.572C138.707 372.104 137.575 371.868 136.432 371.88C135.289 371.892 134.162 372.151 133.129 372.641L118.244 379.692L101.793 372.523C100.78 372.083 99.6865 371.859 98.5819 371.866C97.4774 371.874 96.3866 372.112 95.3797 372.566L79.5383 379.721L62.9327 372.525C61.8997 372.077 60.7828 371.855 59.6568 371.873C58.5309 371.892 57.4219 372.151 56.4043 372.633L47.4532 376.871V315.479H149.785V377.076Z" fill="#C0B9BB"/>
<path d="M231.166 106.485C231.574 104.986 231.37 103.385 230.599 102.036C229.827 100.686 228.551 99.6988 227.051 99.2904C215.51 96.148 203.435 97.6868 193.052 103.625C182.669 109.564 175.22 119.19 172.077 130.732C171.669 132.231 171.873 133.832 172.644 135.181C173.416 136.531 174.692 137.518 176.192 137.927C176.708 138.067 177.226 138.134 177.736 138.134C179.021 138.133 180.271 137.709 181.292 136.928C182.313 136.147 183.049 135.052 183.387 133.812C185.708 125.292 191.207 118.185 198.872 113.802C206.537 109.418 215.45 108.281 223.971 110.601C225.471 111.009 227.071 110.805 228.421 110.033C229.77 109.261 230.757 107.985 231.166 106.485Z" fill="#C0B9BB"/>
<path d="M217.81 133.228C219.309 133.635 220.91 133.431 222.259 132.659C223.608 131.888 224.596 130.612 225.005 129.113C225.208 128.371 225.262 127.595 225.165 126.832C225.067 126.068 224.821 125.331 224.439 124.663C224.056 123.995 223.546 123.408 222.938 122.937C222.329 122.466 221.634 122.12 220.891 121.917C215.389 120.419 209.636 121.149 204.693 123.975C199.751 126.801 196.205 131.388 194.706 136.892C194.298 138.392 194.502 139.992 195.273 141.342C196.045 142.691 197.321 143.679 198.821 144.087C199.337 144.228 199.855 144.295 200.365 144.295C201.65 144.294 202.9 143.87 203.921 143.089C204.942 142.308 205.678 141.213 206.016 139.973C206.344 138.753 206.91 137.611 207.681 136.611C208.453 135.612 209.416 134.776 210.513 134.151C211.608 133.522 212.816 133.117 214.069 132.958C215.321 132.8 216.593 132.892 217.81 133.228ZM215.521 154.715C215.903 155.383 216.413 155.97 217.021 156.441C217.63 156.912 218.326 157.259 219.068 157.461C219.811 157.663 220.586 157.717 221.35 157.62C222.113 157.522 222.85 157.275 223.518 156.893C224.186 156.511 224.773 156.001 225.244 155.392C225.715 154.784 226.061 154.088 226.264 153.345C226.466 152.603 226.52 151.828 226.422 151.064C226.325 150.3 226.078 149.564 225.696 148.895L223.75 145.491C223.367 144.823 222.857 144.237 222.249 143.766C221.64 143.295 220.944 142.948 220.202 142.746C219.459 142.544 218.684 142.49 217.92 142.587C217.157 142.684 216.42 142.931 215.752 143.313C215.084 143.696 214.497 144.205 214.026 144.814C213.555 145.423 213.209 146.118 213.007 146.861C212.804 147.604 212.75 148.379 212.848 149.143C212.945 149.906 213.192 150.643 213.574 151.311L215.521 154.715Z" fill="#C0B9BB"/>
</g>
<defs>
<clipPath id="clip0_180_773">
<rect width="400" height="400" fill="white" transform="translate(0 0.5)"/>
</clipPath>
</defs>
</svg>
