<svg width="400" height="401" viewBox="0 0 400 401" fill="none" xmlns="http://www.w3.org/2000/svg">
<path d="M200 367.167C184.944 367.436 170.187 362.945 157.833 354.334C150.764 349.074 142.143 346.317 133.333 346.5C124.518 346.279 115.885 349.039 108.833 354.334C105.167 356.5 101.667 358.667 97.6667 360.667C92.5803 363.089 86.9627 364.183 81.3388 363.846C75.715 363.509 70.2683 361.752 65.5076 358.739C60.747 355.726 56.8276 351.556 54.1157 346.618C51.4038 341.679 49.9878 336.134 50.0001 330.5V83.8335C50.0001 70.5727 55.2679 57.855 64.6447 48.4782C74.0216 39.1013 86.7393 33.8335 100 33.8335H300C313.261 33.8335 325.979 39.1013 335.355 48.4782C344.732 57.855 350 70.5727 350 83.8335V330.5C349.984 336.12 348.548 341.645 345.824 346.56C343.101 351.476 339.178 355.624 334.422 358.617C329.666 361.61 324.23 363.353 318.62 363.682C313.01 364.011 307.407 362.917 302.333 360.5C298.541 358.678 294.867 356.618 291.333 354.334C284.069 349.049 275.317 346.203 266.333 346.203C257.35 346.203 248.598 349.049 241.333 354.334C229.217 362.789 214.774 367.273 200 367.167ZM133.333 313.167C148.39 312.898 163.147 317.389 175.5 326C182.765 331.284 191.517 334.131 200.5 334.131C209.483 334.131 218.235 331.284 225.5 326C237.945 317.645 252.594 313.184 267.583 313.184C282.572 313.184 297.222 317.645 309.667 326C312.199 327.634 314.813 329.136 317.5 330.5V83.8335C317.5 79.4132 315.744 75.174 312.619 72.0484C309.493 68.9228 305.254 67.1668 300.833 67.1668H100C95.5798 67.1668 91.3406 68.9228 88.215 72.0484C85.0894 75.174 83.3334 79.4132 83.3334 83.8335V330.5C86.0931 329.172 88.7652 327.669 91.3334 326C103.635 317.412 118.332 312.921 133.333 313.167Z" fill="#C0B9BB"/>
<path d="M200 267.167H133.334C128.913 267.167 124.674 265.411 121.549 262.285C118.423 259.16 116.667 254.92 116.667 250.5C116.667 246.08 118.423 241.84 121.549 238.715C124.674 235.589 128.913 233.833 133.334 233.833H200C204.421 233.833 208.66 235.589 211.785 238.715C214.911 241.84 216.667 246.08 216.667 250.5C216.667 254.92 214.911 259.16 211.785 262.285C208.66 265.411 204.421 267.167 200 267.167ZM266.667 200.5H133.334C128.913 200.5 124.674 198.744 121.549 195.618C118.423 192.493 116.667 188.254 116.667 183.833C116.667 179.413 118.423 175.174 121.549 172.048C124.674 168.923 128.913 167.167 133.334 167.167H266.667C271.087 167.167 275.327 168.923 278.452 172.048C281.578 175.174 283.334 179.413 283.334 183.833C283.334 188.254 281.578 192.493 278.452 195.618C275.327 198.744 271.087 200.5 266.667 200.5ZM266.667 133.833H133.334C128.913 133.833 124.674 132.077 121.549 128.952C118.423 125.826 116.667 121.587 116.667 117.167C116.667 112.746 118.423 108.507 121.549 105.382C124.674 102.256 128.913 100.5 133.334 100.5H266.667C271.087 100.5 275.327 102.256 278.452 105.382C281.578 108.507 283.334 112.746 283.334 117.167C283.334 121.587 281.578 125.826 278.452 128.952C275.327 132.077 271.087 133.833 266.667 133.833Z" fill="#C0B9BB"/>
</svg>
