<svg width="128" height="128" viewBox="0 0 128 128" fill="none" xmlns="http://www.w3.org/2000/svg">
<path d="M63.9998 6.79981C56.4875 6.79718 49.0482 8.27491 42.1072 11.1485C35.1662 14.0222 28.8595 18.2354 23.5474 23.5474C18.2354 28.8595 14.0222 35.1662 11.1485 42.1072C8.27491 49.0482 6.79718 56.4875 6.79981 63.9998C6.79718 71.5122 8.27491 78.9514 11.1485 85.8924C14.0222 92.8334 18.2354 99.1401 23.5474 104.452C28.8595 109.764 35.1662 113.977 42.1072 116.851C49.0482 119.725 56.4875 121.202 63.9998 121.2C71.5122 121.202 78.9514 119.725 85.8924 116.851C92.8334 113.977 99.1401 109.764 104.452 104.452C109.764 99.1401 113.977 92.8334 116.851 85.8924C119.725 78.9514 121.202 71.5122 121.2 63.9998C121.202 56.4875 119.725 49.0482 116.851 42.1072C113.977 35.1662 109.764 28.8595 104.452 23.5474C99.1401 18.2354 92.8334 14.0222 85.8924 11.1485C78.9514 8.27491 71.5122 6.79718 63.9998 6.79981ZM63.9998 105.2C62.2893 105.204 60.6161 104.7 59.1922 103.752C57.7683 102.804 56.6578 101.455 56.0013 99.8754C55.3449 98.2959 55.1721 96.557 55.5049 94.8792C55.8376 93.2013 56.6609 91.66 57.8704 90.4504C59.08 89.2409 60.6213 88.4176 62.2992 88.0849C63.977 87.7521 65.7159 87.9249 67.2954 88.5813C68.875 89.2378 70.2242 90.3483 71.172 91.7722C72.1199 93.1961 72.6238 94.8693 72.6198 96.5798C72.6145 98.8644 71.7047 101.054 70.0892 102.669C68.4738 104.285 66.2844 105.195 63.9998 105.2ZM74.4598 33.9998L71.1998 77.9998C71.1795 78.304 71.0441 78.5891 70.8213 78.7971C70.5984 79.0051 70.3047 79.1205 69.9998 79.1198H57.9998C57.6949 79.1205 57.4012 79.0051 57.1784 78.7971C56.9555 78.5891 56.8201 78.304 56.7998 77.9998L53.5398 33.9998C53.4515 32.5718 53.6564 31.1408 54.1422 29.795C54.6279 28.4492 55.384 27.2171 56.364 26.1746C57.3439 25.1322 58.527 24.3014 59.8402 23.7335C61.1534 23.1656 62.569 22.8727 63.9998 22.8727C65.4306 22.8727 66.8462 23.1656 68.1594 23.7335C69.4727 24.3014 70.6557 25.1322 71.6357 26.1746C72.6156 27.2171 73.3718 28.4492 73.8575 29.795C74.3432 31.1408 74.5482 32.5718 74.4598 33.9998Z" fill="#FFC048"/>
</svg>
